<svg xmlns="http://www.w3.org/2000/svg" width="35" height="35" viewBox="0 0 35 35"><path d="M17.5 0C7.8 0 0 7.8 0 17.5S7.8 35 17.5 35 35 27.2 35 17.5 27.2 0 17.5 0zM26.4 19.4c0.8 0.8 1.7 1.5 2.4 2.4 0.3 0.4 0.6 0.8 0.9 1.2 0.3 0.6 0 1.4-0.5 1.4l-3.6 0c-0.9 0.1-1.7-0.3-2.3-0.9 -0.5-0.5-1-1-1.4-1.6 -0.2-0.2-0.4-0.4-0.6-0.6 -0.5-0.3-0.9-0.2-1.2 0.3 -0.3 0.5-0.4 1.1-0.4 1.7 0 0.8-0.3 1.1-1.1 1.1 -1.8 0.1-3.5-0.2-5.1-1.1 -1.4-0.8-2.5-1.9-3.5-3.2 -1.9-2.5-3.3-5.3-4.5-8.1 -0.3-0.6-0.1-1 0.6-1 1.2 0 2.3 0 3.5 0 0.5 0 0.8 0.3 1 0.7 0.6 1.6 1.4 3 2.4 4.4 0.3 0.4 0.5 0.7 0.9 1 0.4 0.3 0.7 0.2 0.9-0.3 0.1-0.3 0.2-0.6 0.2-0.9 0.1-1.1 0.1-2.2-0.1-3.2 -0.1-0.7-0.5-1.1-1.2-1.2 -0.3-0.1-0.3-0.2-0.1-0.4 0.3-0.3 0.6-0.5 1.1-0.5l4.1 0c0.6 0.1 0.8 0.4 0.9 1.1l0 4.5c0 0.2 0.1 1 0.6 1.1 0.4 0.1 0.6-0.2 0.8-0.4 1-1 1.7-2.2 2.3-3.5 0.3-0.6 0.5-1.1 0.7-1.7 0.2-0.4 0.4-0.6 0.9-0.6l3.9 0c0.1 0 0.2 0 0.3 0 0.7 0.1 0.8 0.4 0.6 1 -0.3 1-0.9 1.8-1.5 2.7 -0.7 0.9-1.3 1.8-2 2.7C25.6 18.3 25.6 18.7 26.4 19.4z" fill="#FFF"/></svg>
