<svg xmlns="http://www.w3.org/2000/svg" width="35" height="35" viewBox="0 0 35 35"><style>.a{fill:#FFF;}</style><path d="M17.5 14.5c1.7 0 3-1.3 3-3s-1.3-3-3-3c-1.7 0-3 1.4-3 3C14.5 13.2 15.8 14.5 17.5 14.5z" class="a"/><path d="M17.5 0C7.8 0 0 7.8 0 17.5S7.8 35 17.5 35 35 27.2 35 17.5 27.2 0 17.5 0zM17.5 5.3c3.4 0 6.1 2.8 6.1 6.2 0 3.4-2.8 6.1-6.2 6.1 -3.4 0-6.1-2.8-6.1-6.2C11.4 8.1 14.1 5.3 17.5 5.3zM24.4 20.1c-0.8 0.8-1.7 1.3-2.7 1.7 -1 0.4-2 0.6-3 0.7 0.2 0.2 0.2 0.3 0.3 0.4 1.4 1.4 2.8 2.8 4.2 4.2 0.5 0.5 0.6 1.1 0.3 1.6 -0.3 0.6-0.9 1-1.6 1 -0.4 0-0.7-0.2-1-0.5 -1.1-1.1-2.1-2.1-3.2-3.2 -0.3-0.3-0.4-0.3-0.7 0 -1.1 1.1-2.1 2.2-3.2 3.2 -0.5 0.5-1.1 0.6-1.6 0.3 -0.6-0.3-1-0.9-1-1.5 0-0.4 0.2-0.7 0.5-1 1.4-1.4 2.8-2.8 4.2-4.2 0.1-0.1 0.2-0.2 0.3-0.3 -1.9-0.2-3.6-0.7-5-1.8 -0.2-0.1-0.4-0.3-0.5-0.4 -0.6-0.6-0.7-1.3-0.2-2 0.4-0.6 1.2-0.8 1.9-0.4 0.1 0.1 0.3 0.2 0.4 0.2 2.7 1.9 6.4 1.9 9.2 0.1 0.3-0.2 0.6-0.4 0.9-0.5 0.7-0.2 1.3 0.1 1.6 0.6C24.9 18.9 24.9 19.6 24.4 20.1z" class="a"/></svg>
