<svg xmlns="http://www.w3.org/2000/svg" width="35" height="35" viewBox="0 0 35 35"><path d="M17.5 0C7.8 0 0 7.8 0 17.5S7.8 35 17.5 35 35 27.2 35 17.5C35 7.8 27.2 0 17.5 0zM26.2 13.6l0 0.6c0 5.7-4.3 12.3-12.3 12.3 -2.4 0-4.7-0.7-6.6-1.9 0.3 0 0.7 0.1 1 0.1 2 0 3.9-0.7 5.4-1.8 -1.9 0-3.5-1.3-4-3 0.3 0.1 0.5 0.1 0.8 0.1 0.4 0 0.8 0 1.1-0.1 -2-0.4-3.5-2.1-3.5-4.2v-0.1c0.6 0.3 1.2 0.5 2 0.5 -1.2-0.8-1.9-2.1-1.9-3.6 0-0.8 0.2-1.5 0.6-2.2 2.1 2.6 5.3 4.3 8.9 4.5 -0.1-0.3-0.1-0.6-0.1-1 0-2.4 1.9-4.3 4.3-4.3 1.2 0 2.4 0.5 3.1 1.4 1-0.2 1.9-0.6 2.7-1 -0.3 1-1 1.9-1.9 2.4 0.9-0.1 1.7-0.3 2.5-0.7C27.8 12.2 27 13 26.2 13.6z" fill="#FFF"/></svg>
