<svg id="Warstwa_1" data-name="Warstwa 1" xmlns="http://www.w3.org/2000/svg" width="200" height="100" viewBox="0 0 200 100">
  <defs>
    <style>
      .cls-1 {
        fill: #009870;
      }

      .cls-1, .cls-2 {
        fill-rule: evenodd;
      }

      .cls-2, .cls-3 {
        fill: #181b1c;
      }

      .cls-4 {
        fill: #e2231a;
      }

      .cls-5 {
        fill: #1d1d1b;
      }
    </style>
  </defs>
  <title>action</title>
  <g>
    <g>
      <path class="cls-1" d="M47.59238,45.46065c0.87022-.39566.43515-0.63261,2.49211-3.91626,2.29437-3.59951,10.71994-11.35284,16.37687-10.52218,2.21516,0.356,4.03494,15.388,2.09646,13.80583-7.674-6.05236-2.21516-2.09661-3.75771-11.116-0.712-4.07438-10.56218,6.40831-10.68073,8.78195-0.03957.79131,9.9687,0.11863,9.573,1.26567-0.11878.23754-5.6173,0.47449-8.86093,0.31637-2.21523-.07884-1.93835.94958-2.13617,1.38458H71.48523V29.6377H46.72208V45.46065h0.8703Z"/>
      <g>
        <polygon class="cls-2" points="113.1 33.435 108.788 33.435 108.788 45.303 105.901 45.303 105.901 33.435 101.272 33.435 101.272 30.745 113.1 30.745 113.1 33.435 113.1 33.435"/>
        <path class="cls-2" d="M147.713,40.71366v-10.087h2.53161V45.1839H147.713l-9.0192-10.16645v7.5952a2.79619,2.79619,0,0,1-2.53175,2.57125V30.62662h2.53175l9.0192,10.087h0Z"/>
        <path class="cls-2" d="M134.22357,30.78482h-2.29422a0.67307,0.67307,0,0,0-.27688-0.03949h-9.53319a2.63068,2.63068,0,0,0-1.85907.7516,2.56331,2.56331,0,0,0-.7521,1.89864v9.29638a2.56784,2.56784,0,0,0,2.61117,2.61059h9.45435a2.56539,2.56539,0,0,0,1.89856-.75137,2.63294,2.63294,0,0,0,.75137-1.85922V33.59345h0V30.78482h0Zm-2.72922,11.82783h-9.29608V33.47476h9.29608v9.13789h0Z"/>
        <path class="cls-2" d="M117.41164,32.5649V45.30253s-2.57125-.07927-2.96675-1.93849v-12.777s2.37335,0.15827,2.96675,1.97785h0Z"/>
        <path class="cls-2" d="M74.45207,33.23744V45.1839l2.92733-.079V40.19967h7.00149V45.1839h2.72981L87.07129,30.62662H77.10251a2.41651,2.41651,0,0,0-1.85913.7516,2.50943,2.50943,0,0,0-.79131,1.85922h0Zm2.96675,0.07906,7.002,0.03964v4.114l-7.08077-.07928,0.07876-4.07438h0Z"/>
        <path class="cls-2" d="M91.30392,41.14909s-0.35616,1.74046,2.05668,1.50306h7.87216V45.342H91.18516a2.567,2.567,0,0,1-2.611-2.61059V33.35614a2.56715,2.56715,0,0,1,2.611-2.61081h7.63468a2.99039,2.99039,0,0,1,2.41292,2.72944H91.30392v7.67432h0Z"/>
        <path class="cls-3" d="M154.863,30.32016a2.53377,2.53377,0,0,1,1.21359.31825,2.2694,2.2694,0,0,1,.92251.91348,2.47379,2.47379,0,0,1,.00449,2.46449,2.28432,2.28432,0,0,1-.9124.91443,2.47471,2.47471,0,0,1-2.45638,0,2.2927,2.2927,0,0,1-.91472-0.91443,2.4682,2.4682,0,0,1,.00449-2.46449,2.27541,2.27541,0,0,1,.925-0.91348,2.5302,2.5302,0,0,1,1.21344-.31825h0Zm0,0.40853a2.10215,2.10215,0,0,0-1.01265.26712,1.91671,1.91671,0,0,0-.77076.76151A2.05372,2.05372,0,0,0,153.075,33.812a1.93132,1.93132,0,0,0,.76425.76253,2.051,2.051,0,0,0,2.048,0,1.92194,1.92194,0,0,0,.76122-0.76253,2.07114,2.07114,0,0,0,.27168-1.02175,2.09353,2.09353,0,0,0-.27587-1.033,1.89926,1.89926,0,0,0-.77121-0.76151,2.10575,2.10575,0,0,0-1.01-.26712h0Zm-1.083,3.42506V31.4983h0.9124a2.24052,2.24052,0,0,1,.67775.07269,0.66286,0.66286,0,0,1,.33373.2567,0.684,0.684,0,0,1,.12384.38966,0.70664,0.70664,0,0,1-.2073.50683,0.8259,0.8259,0,0,1-.552.24288,0.712,0.712,0,0,1,.226.14033,3.0496,3.0496,0,0,1,.3929.52708l0.32377,0.51927h-0.52354l-0.2358-.41866a2.1321,2.1321,0,0,0-.44774-0.61756,0.54728,0.54728,0,0,0-.344-0.0915h-0.25173v1.12773h-0.4282Zm0.4282-1.49423h0.52036a0.84051,0.84051,0,0,0,.50864-0.11168,0.379,0.379,0,0,0,.07-0.50553,0.395,0.395,0,0,0-.18055-0.13882,1.34127,1.34127,0,0,0-.43152-0.04564h-0.487v0.80166h0Z"/>
      </g>
      <g>
        <g>
          <path class="cls-4" d="M47.36207,52.08261V53.78h1.62081a0.42379,0.42379,0,0,1,.19826.04165,0.26967,0.26967,0,0,1,0,.50748,0.42378,0.42378,0,0,1-.19826.04165H47.36207v2.209h2.29979a0.42524,0.42524,0,0,1,.19826.04152,0.26963,0.26963,0,0,1,0,.50748,0.42336,0.42336,0,0,1-.19826.04167h-2.5724a0.49817,0.49817,0,0,1-.347-0.09983,0.36979,0.36979,0,0,1-.08427-0.26213V51.85391a0.32974,0.32974,0,0,1,.114-0.28716,0.5312,0.5312,0,0,1,.31725-0.07479h2.5724a0.42524,0.42524,0,0,1,.19826.04152,0.26973,0.26973,0,0,1,0,.50763,0.42526,0.42526,0,0,1-.19826.04151H47.36207Z"/>
          <path class="cls-4" d="M47.07232,57.26693a0.58285,0.58285,0,0,1-.39487-0.12426,0.46694,0.46694,0,0,1-.1171-0.33721V51.85391a0.418,0.418,0,0,1,.14828-0.36035,0.61122,0.61122,0,0,1,.36078-0.09808l0.022,0.00028,2.57045-.00013a0.52414,0.52414,0,0,1,.24419.0528,0.36463,0.36463,0,0,1-.00224.67891,0.5227,0.5227,0,0,1-.24195.05164H47.45994v1.50466h1.52294a0.52219,0.52219,0,0,1,.24426.05309,0.36449,0.36449,0,0,1-.00238.67861,0.52147,0.52147,0,0,1-.24188.05179H47.45994v2.01633h2.20192a0.52414,0.52414,0,0,1,.24419.0528,0.36448,0.36448,0,0,1-.00238.67876,0.52051,0.52051,0,0,1-.2418.05179ZM47.06941,51.588a0.42362,0.42362,0,0,0-.24079.05743,0.233,0.233,0,0,0-.07269.20324l0.00015,4.9598a0.27881,0.27881,0,0,0,.06119.20007,0.40675,0.40675,0,0,0,.255.06567l2.58954-.00013a0.32982,0.32982,0,0,0,.15219-0.03024,0.17821,0.17821,0,0,0,.12664-0.16883,0.17642,0.17642,0,0,0-.12426-0.16751,0.33134,0.33134,0,0,0-.15458-0.0314H47.26421V54.27441h1.71867a0.32952,0.32952,0,0,0,.15212-0.03023,0.17843,0.17843,0,0,0,.12666-0.16882,0.17626,0.17626,0,0,0-.12412-0.16753,0.33078,0.33078,0,0,0-.15465-0.03154H47.26421v-1.89h2.39765a0.33061,0.33061,0,0,0,.15233-0.03023,0.17823,0.17823,0,0,0,.12651-0.16883,0.17643,0.17643,0,0,0-.12426-0.16753,0.33153,0.33153,0,0,0-.15458-0.03139Z"/>
        </g>
        <g>
          <path class="cls-4" d="M53.65479,51.492h1.77943a3.40383,3.40383,0,0,1,1.03087.12891,1.34306,1.34306,0,0,1,.62451.42848,1.495,1.495,0,0,1,.24789.94436v2.675a1.95677,1.95677,0,0,1-.09426.67384,1.70785,1.70785,0,0,1-1.809.82791H53.65479a0.49844,0.49844,0,0,1-.347-0.09983,0.369,0.369,0,0,1-.08419-0.26213V51.85391a0.32949,0.32949,0,0,1,.11392-0.28716A0.53123,0.53123,0,0,1,53.65479,51.492Zm0.27261,0.59066v4.49716H55.573a1.19066,1.19066,0,0,0,.81778-0.2413,1.0381,1.0381,0,0,0,.243-0.76136V53.08528a0.98115,0.98115,0,0,0-.29743-0.80707,1.25122,1.25122,0,0,0-.76333-0.1956H53.92741Z"/>
          <path class="cls-4" d="M55.5156,57.2675l-0.0831-.00086-1.79491.00028a0.58246,0.58246,0,0,1-.39472-0.12426,0.46675,0.46675,0,0,1-.11718-0.33721V51.85391a0.41828,0.41828,0,0,1,.14828-0.36035,0.61125,0.61125,0,0,1,.36078-0.09808l0.02207,0.00028,1.7774-.00013a3.51783,3.51783,0,0,1,1.06284.13424,1.44557,1.44557,0,0,1,.66929.45974,1.56308,1.56308,0,0,1,.269,1.00209v2.677a2.05641,2.05641,0,0,1-.10032.70739A1.757,1.757,0,0,1,55.5156,57.2675Zm-0.08137-.19341,0.08137,0.00071a1.565,1.565,0,0,0,1.63731-.76931,1.88016,1.88016,0,0,0,.08672-0.6368v-2.675a1.41808,1.41808,0,0,0-.22371-0.881,1.25817,1.25817,0,0,0-.58315-0.401,3.33066,3.33066,0,0,0-.99919-0.1234L53.63475,51.588a0.42357,0.42357,0,0,0-.24078.05743,0.23276,0.23276,0,0,0-.07263.20324l0.00015,4.9598a0.27912,0.27912,0,0,0,.06112.20007,0.40764,0.40764,0,0,0,.255.06567Zm0.13873-.398H53.82955V51.98628H55.573a1.35008,1.35008,0,0,1,.82314.21569,1.0725,1.0725,0,0,1,.33547.88244v2.49271a1.1318,1.1318,0,0,1-.27233.83023A1.28827,1.28827,0,0,1,55.573,56.67612Zm-1.54768-.19268H55.573a1.104,1.104,0,0,0,.75161-0.216,0.957,0.957,0,0,0,.2112-0.6912v-2.491a0.89756,0.89756,0,0,0-.26047-0.7317A1.165,1.165,0,0,0,55.573,52.179H54.02528v4.30448Z"/>
        </g>
        <g>
          <path class="cls-4" d="M60.79018,55.26927V51.80385a0.27036,0.27036,0,0,1,.04962-0.16636,0.38012,0.38012,0,0,1,.60469,0,0.27125,0.27125,0,0,1,.04955.16636v3.48206a1.33032,1.33032,0,0,0,.12883.65735,1.22113,1.22113,0,0,0,.58487.51587,1.56742,1.56742,0,0,0,.63941.1247,1.39862,1.39862,0,0,0,1.021-.38263,0.9703,0.9703,0,0,0,.28252-0.44932,1.85611,1.85611,0,0,0,.04955-0.466V51.80385a0.27073,0.27073,0,0,1,.04955-0.16636,0.38019,0.38019,0,0,1,.60476,0,0.27131,0.27131,0,0,1,.04955.16636v3.46542a2.1447,2.1447,0,0,1-.1339.832,1.642,1.642,0,0,1-.7534.79044,2.4082,2.4082,0,0,1-1.16968.283,2.3528,2.3528,0,0,1-1.30855-.36615,1.57243,1.57243,0,0,1-.66907-0.857A2.43842,2.43842,0,0,1,60.79018,55.26927Z"/>
          <path class="cls-4" d="M62.84715,57.271a2.4605,2.4605,0,0,1-1.3623-.38206,1.67434,1.67434,0,0,1-.709-0.90921,2.54463,2.54463,0,0,1-.08354-0.71044V51.80385a0.36508,0.36508,0,0,1,.06843-0.22321,0.47887,0.47887,0,0,1,.76455.00246,0.36313,0.36313,0,0,1,.06662.22075v3.48206a1.24865,1.24865,0,0,0,.11587.60933,1.13119,1.13119,0,0,0,.5401.47608,1.47646,1.47646,0,0,0,.59927.11617,1.29234,1.29234,0,0,0,.952-0.35458,0.88178,0.88178,0,0,0,.25656-0.40447,1.77724,1.77724,0,0,0,.04665-0.44253V51.80385a0.36456,0.36456,0,0,1,.06844-0.22321,0.47879,0.47879,0,0,1,.76447.00246,0.36272,0.36272,0,0,1,.06669.22075v3.46542a2.24318,2.24318,0,0,1-.14163.86942,1.74446,1.74446,0,0,1-.79615.83732A2.5173,2.5173,0,0,1,62.84715,57.271Zm-1.705-5.68688a0.24713,0.24713,0,0,0-.22155.10778,0.1786,0.1786,0,0,0-.03248.112v3.46542a2.36469,2.36469,0,0,0,.07523.65517,1.48547,1.48547,0,0,0,.62972.804,2.2655,2.2655,0,0,0,1.25409.34979,2.32166,2.32166,0,0,0,1.12238-.271,1.55392,1.55392,0,0,0,.71072-0.74416,2.06178,2.06178,0,0,0,.126-0.7939V51.80385a0.17706,0.17706,0,0,0-.03081-0.1095,0.28134,0.28134,0,0,0-.44476-0.00246,0.17856,0.17856,0,0,0-.03249.112v3.48206a1.9539,1.9539,0,0,1-.0528.49012,1.068,1.068,0,0,1-.30843.49374,1.49954,1.49954,0,0,1-1.08982.41041,1.672,1.672,0,0,1-.67948-0.13323,1.32132,1.32132,0,0,1-.63-0.55638,1.40353,1.40353,0,0,1-.14148-0.70465V51.80385a0.177,0.177,0,0,0-.03081-0.1095A0.24833,0.24833,0,0,0,61.14214,51.58411Z"/>
        </g>
        <g>
          <path class="cls-4" d="M70.25023,51.492h1.2044a0.42553,0.42553,0,0,1,.19826.04152,0.26973,0.26973,0,0,1,0,.50763,0.42555,0.42555,0,0,1-.19826.04151H70.14116a1.25423,1.25423,0,0,0-.793.20383,0.99053,0.99053,0,0,0-.26764.79884v2.49183a0.98977,0.98977,0,0,0,.26764.79869,1.24344,1.24344,0,0,0,.793.204h1.31347a0.42553,0.42553,0,0,1,.19826.04152,0.26963,0.26963,0,0,1,0,.50748,0.42365,0.42365,0,0,1-.19826.04167h-1.2044q-1.85877.025-1.8736-1.50175v-2.675a1.3378,1.3378,0,0,1,.565-1.19811A2.2971,2.2971,0,0,1,70.25023,51.492Z"/>
          <path class="cls-4" d="M70.19092,57.26707c-1.25857,0-1.90188-.53742-1.91216-1.59752V52.99371a1.43259,1.43259,0,0,1,.60592-1.27637,2.37772,2.37772,0,0,1,1.34285-.32172h1.22711a0.52478,0.52478,0,0,1,.24419.0528,0.36463,0.36463,0,0,1-.00224.67891,0.52334,0.52334,0,0,1-.24195.05164H70.14116a1.17219,1.17219,0,0,0-.72954.1807,0.91193,0.91193,0,0,0-.23327.72635v2.49111a0.91145,0.91145,0,0,0,.231.72361,1.16,1.16,0,0,0,.73179.18271h1.31347a0.52478,0.52478,0,0,1,.24419.0528,0.3645,0.3645,0,0,1-.00231.67876,0.52168,0.52168,0,0,1-.24188.05179Zm0.0366-5.67891a2.193,2.193,0,0,0-1.23007.28657,1.23655,1.23655,0,0,0-.523,1.11724v2.67672c0.00918,0.94565.57063,1.40583,1.71643,1.40583l0.058-.00043h1.2057a0.33,0.33,0,0,0,.15218-0.03024,0.17832,0.17832,0,0,0,.12666-0.16883,0.17654,0.17654,0,0,0-.1242-0.16751,0.33226,0.33226,0,0,0-.15464-0.0314H70.14116a1.32128,1.32128,0,0,1-.8559-0.22654,1.065,1.065,0,0,1-.30271-0.87173V53.08528a1.06644,1.06644,0,0,1,.30408-0.87376,1.33171,1.33171,0,0,1,.85366-0.22524h1.31435A0.33112,0.33112,0,0,0,71.607,51.956a0.17834,0.17834,0,0,0,.12651-0.16883,0.17655,0.17655,0,0,0-.1242-0.16753,0.33245,0.33245,0,0,0-.15464-0.03139Z"/>
        </g>
        <g>
          <path class="cls-4" d="M78.18359,55.806H75.73993l-0.44607,1.15224a0.33116,0.33116,0,0,1-.342.22062,0.36651,0.36651,0,0,1-.25773-0.09577A0.26561,0.26561,0,0,1,74.6,56.88343a0.3081,0.3081,0,0,1,.02474-0.1124l1.97271-4.91712a0.46078,0.46078,0,0,1,.40143-0.36615,0.31456,0.31456,0,0,1,.30242.15393q0.0446,0.08333.10409,0.22466L79.31355,56.771a0.33312,0.33312,0,0,1,.02474.1124,0.2574,0.2574,0,0,1-.094.19963,0.36707,0.36707,0,0,1-.2578.09577,0.331,0.331,0,0,1-.342-0.22062Zm-2.21067-.59081h1.9975l-0.97648-2.51685Z"/>
          <path class="cls-4" d="M78.98647,57.27518a0.42732,0.42732,0,0,1-.43362-0.2831l-0.436-1.08976H75.80749l-0.42214,1.09019a0.42744,0.42744,0,0,1-.43347.28267,0.46337,0.46337,0,0,1-.32455-0.12181,0.35857,0.35857,0,0,1-.12522-0.26993,0.40259,0.40259,0,0,1,.03154-0.14756l1.97278-4.91727a0.54861,0.54861,0,0,1,.49243-0.42719,0.40787,0.40787,0,0,1,.38857.20456c0.03169,0.05931.06807,0.13772,0.10835,0.23362l1.90913,4.907a0.42226,0.42226,0,0,1,.03133.14685,0.35489,0.35489,0,0,1-.12666.27124A0.46232,0.46232,0,0,1,78.98647,57.27518Zm-3.314-1.56556h2.57784l0.48528,1.2133a0.23479,0.23479,0,0,0,.25091.15956,0.26957,0.26957,0,0,0,.191-0.06973,0.16425,0.16425,0,0,0,.063-0.12932,0.239,0.239,0,0,0-.01881-0.07928l-1.90775-4.90337c-0.037-.0881-0.07074-0.161-0.09924-0.21425a0.21348,0.21348,0,0,0-.21577-0.10242,0.34484,0.34484,0,0,0-.31008.30452l-1.97293,4.91768a0.21694,0.21694,0,0,0-.018.07712,0.17054,0.17054,0,0,0,.06337.12947,0.26877,0.26877,0,0,0,.19066.06958,0.2345,0.2345,0,0,0,.25041-0.15812Zm2.44-.39811h-2.284L76.996,52.43343Zm-1.99519-.19269h1.71094l-0.83637-2.15562Z"/>
        </g>
        <g>
          <path class="cls-4" d="M83.67827,52.08261V56.8584a0.27118,0.27118,0,0,1-.04955.1665,0.355,0.355,0,0,1-.31218.14974,0.36,0.36,0,0,1-.31725-0.14974,0.27083,0.27083,0,0,1-.04963-0.1665V52.08261H81.6362a0.42534,0.42534,0,0,1-.19826-0.04151,0.26977,0.26977,0,0,1,0-.50763A0.42532,0.42532,0,0,1,81.6362,51.492h3.35562a0.42479,0.42479,0,0,1,.19819.04152,0.26973,0.26973,0,0,1,0,.50763,0.42481,0.42481,0,0,1-.19819.04151H83.67827Z"/>
          <path class="cls-4" d="M83.31654,57.271a0.4549,0.4549,0,0,1-.39811-0.19169,0.36339,0.36339,0,0,1-.06662-0.2209V52.179H81.6362a0.52416,0.52416,0,0,1-.24419-0.0528,0.36467,0.36467,0,0,1,.00224-0.67891,0.52268,0.52268,0,0,1,.24195-0.05164h3.35562a0.52436,0.52436,0,0,1,.24419.0528,0.36467,0.36467,0,0,1-.00224.67891,0.52291,0.52291,0,0,1-.24195.05164H83.77621V56.8584a0.36535,0.36535,0,0,1-.0685.22336A0.454,0.454,0,0,1,83.31654,57.271ZM81.6362,51.5883a0.33068,0.33068,0,0,0-.15233.03023,0.1755,0.1755,0,0,0-.00224.33634,0.33133,0.33133,0,0,0,.15456.0314h1.41142V56.8584a0.17732,0.17732,0,0,0,.03066.10965,0.26338,0.26338,0,0,0,.23826.11024,0.25693,0.25693,0,0,0,.23139-0.10778,0.17943,0.17943,0,0,0,.03247-0.11211V51.98628h1.41142a0.33037,0.33037,0,0,0,.15225-0.03023,0.17823,0.17823,0,0,0,.12651-0.16883,0.17643,0.17643,0,0,0-.1242-0.16753,0.33172,0.33172,0,0,0-.15457-0.03139H81.6362Z"/>
        </g>
        <g>
          <path class="cls-4" d="M88.42953,56.8584V51.80385a0.27121,0.27121,0,0,1,.04955-0.16636,0.38019,0.38019,0,0,1,.60476,0,0.27121,0.27121,0,0,1,.04955.16636V56.8584a0.27166,0.27166,0,0,1-.04955.1665,0.38019,0.38019,0,0,1-.60476,0A0.27166,0.27166,0,0,1,88.42953,56.8584Z"/>
          <path class="cls-4" d="M88.7815,57.271a0.446,0.446,0,0,1-.38321-0.19169,0.36353,0.36353,0,0,1-.06662-0.2209V51.80385a0.36485,0.36485,0,0,1,.06842-0.22321,0.47887,0.47887,0,0,1,.76454.00246,0.36316,0.36316,0,0,1,.06662.22075V56.8584a0.36584,0.36584,0,0,1-.06835.22336A0.44435,0.44435,0,0,1,88.7815,57.271Zm0-5.68688a0.24712,0.24712,0,0,0-.22155.10778,0.17928,0.17928,0,0,0-.03249.112V56.8584a0.1776,0.1776,0,0,0,.03075.10965,0.28134,0.28134,0,0,0,.44476.00246,0.179,0.179,0,0,0,.03255-0.11211V51.80385a0.17743,0.17743,0,0,0-.03074-0.1095A0.24852,0.24852,0,0,0,88.7815,51.58411Z"/>
        </g>
        <g>
          <path class="cls-4" d="M92.67041,55.27347V53.35985a1.68451,1.68451,0,0,1,.52535-1.29807,2.07014,2.07014,0,0,1,.70878-0.4285,2.45422,2.45422,0,0,1,.83276-0.14553,2.36819,2.36819,0,0,1,1.13995.28282,1.68542,1.68542,0,0,1,.69887.69062,1.64255,1.64255,0,0,1,.20809.79464v2.15071a1.66111,1.66111,0,0,1-.31717.961,1.77626,1.77626,0,0,1-.798.62393,2.40565,2.40565,0,0,1-.9317.18315,2.17245,2.17245,0,0,1-1.5168-.55335,1.51285,1.51285,0,0,1-.44607-0.649A2.155,2.155,0,0,1,92.67041,55.27347Zm3.41009,0.04571V53.339a1.15825,1.15825,0,0,0-.32716-0.88607,1.44728,1.44728,0,0,0-1.03594-.37453,1.38251,1.38251,0,0,0-1.03095.387,1.23636,1.23636,0,0,0-.31233.9069v1.90117a1.20835,1.20835,0,0,0,.37671.98589,1.48594,1.48594,0,0,0,.9814.32448,1.3964,1.3964,0,0,0,1.05077-.40346A1.17882,1.17882,0,0,0,96.0805,55.31918Z"/>
          <path class="cls-4" d="M94.7373,57.271a2.27789,2.27789,0,0,1-1.5832-.57894,1.6141,1.6141,0,0,1-.47291-0.69034,2.25574,2.25574,0,0,1-.10864-0.72823V53.35985a1.78378,1.78378,0,0,1,.55609-1.36822,2.17964,2.17964,0,0,1,.7414-0.44847,2.566,2.566,0,0,1,.86726-0.15175,2.47784,2.47784,0,0,1,1.187.29468,1.78973,1.78973,0,0,1,.73835.73,1.7439,1.7439,0,0,1,.21954.83978v2.15071A1.76258,1.76258,0,0,1,96.548,56.4218a1.881,1.881,0,0,1-.84086.65837A2.51586,2.51586,0,0,1,94.7373,57.271Zm0-5.68688a2.36677,2.36677,0,0,0-.79934.13975,1.97839,1.97839,0,0,0-.67464.40765,1.60015,1.60015,0,0,0-.495,1.22834v1.91361a2.07036,2.07036,0,0,0,.09894.66806,1.42426,1.42426,0,0,0,.41946.60873,2.08593,2.08593,0,0,0,1.45062.528,2.319,2.319,0,0,0,.89366-0.17548,1.68912,1.68912,0,0,0,.75543-0.58979,1.57523,1.57523,0,0,0,.3-0.90647V53.25585a1.55675,1.55675,0,0,0-.19661-0.74921A1.598,1.598,0,0,0,95.83,51.85491,2.2805,2.2805,0,0,0,94.7373,51.58411Zm-0.00507,5.09607a1.58892,1.58892,0,0,1-1.04447-.3472,1.30294,1.30294,0,0,1-.41142-1.05951V53.3723a1.33265,1.33265,0,0,1,.33988-0.974,1.48311,1.48311,0,0,1,1.10118-.4162,1.54871,1.54871,0,0,1,1.10371.40145,1.254,1.254,0,0,1,.35724.9555v1.98016a1.275,1.275,0,0,1-.32492.928A1.497,1.497,0,0,1,94.73223,56.68018ZM94.7174,52.17477a1.27725,1.27725,0,0,0-.96078.35761,1.15171,1.15171,0,0,0-.28455.83991v1.90117a1.12433,1.12433,0,0,0,.34184.91225,1.39722,1.39722,0,0,0,.91832.30177,1.29036,1.29036,0,0,0,.97995-0.37367,1.09311,1.09311,0,0,0,.27045-0.79463V53.339a1.07285,1.07285,0,0,0-.297-0.81648A1.358,1.358,0,0,0,94.7174,52.17477Z"/>
        </g>
        <g>
          <path class="cls-4" d="M103.72647,55.72279V51.80385a0.27022,0.27022,0,0,1,.04948-0.16636,0.38011,0.38011,0,0,1,.60469,0,0.27213,0.27213,0,0,1,.04948.16636v4.82163q0,0.549-.34705.54915a0.33837,0.33837,0,0,1-.228-0.09158,1.21269,1.21269,0,0,1-.19819-0.24955L101.02,52.85643v4.002a0.2708,0.2708,0,0,1-.04955.1665,0.38011,0.38011,0,0,1-.60469,0,0.27166,0.27166,0,0,1-.04955-0.1665V52.02851q0-.54075.33707-0.54075a0.45027,0.45027,0,0,1,.38163.22885Z"/>
          <path class="cls-4" d="M104.08306,57.271a0.43513,0.43513,0,0,1-.29308-0.11617,1.28231,1.28231,0,0,1-.216-0.27009l-2.456-3.70439V56.8584a0.36545,0.36545,0,0,1-.0685.22336,0.47887,0.47887,0,0,1-.76454-0.00246,0.36353,0.36353,0,0,1-.06662-0.2209V52.02851c0-.52658.23659-0.6371,0.43493-0.6371a0.54471,0.54471,0,0,1,.46343.27211l2.51173,3.73884V51.80385a0.36464,0.36464,0,0,1,.06857-0.22321,0.47858,0.47858,0,0,1,.76426.00246,0.3634,0.3634,0,0,1,.06682.22075v4.82163C104.528,57.159,104.28617,57.271,104.08306,57.271Zm-3.1609-4.73845,2.81675,4.24833a1.126,1.126,0,0,0,.18169.23059,0.24033,0.24033,0,0,0,.16246.06684c0.06829,0,.24912,0,0.24912-0.45281V51.80385a0.17733,0.17733,0,0,0-.03081-0.10965,0.28136,0.28136,0,0,0-.44455-0.00246,0.1788,0.1788,0,0,0-.03241.11211v4.23937l-2.87113-4.27352a0.35553,0.35553,0,0,0-.3-0.1856c-0.06546,0-.23919,0-0.23919.44441V56.8584a0.17759,0.17759,0,0,0,.03074.10965,0.28149,0.28149,0,0,0,.44491.00246,0.18036,0.18036,0,0,0,.03247-0.11211V52.53253Z"/>
        </g>
        <path class="cls-4" d="M113.8386,57.26707c-1.25815,0-1.90175-.53742-1.91216-1.59752V52.99371a1.43355,1.43355,0,0,1,.60614-1.27637,2.37711,2.37711,0,0,1,1.34276-.32172h1.227a0.5248,0.5248,0,0,1,.2442.0528,0.36461,0.36461,0,0,1-.00218.67891,0.5238,0.5238,0,0,1-.242.05164H113.789a1.17115,1.17115,0,0,0-.72939.1807,0.91245,0.91245,0,0,0-.23334.72635v2.49111a0.91219,0.91219,0,0,0,.231.72361,1.1597,1.1597,0,0,0,.7317.18271h1.3134a0.5248,0.5248,0,0,1,.2442.0528,0.36446,0.36446,0,0,1-.00231.67876,0.52158,0.52158,0,0,1-.24189.05179Z"/>
        <g>
          <path class="cls-4" d="M119.26377,52.08261V53.78h1.62081a0.422,0.422,0,0,1,.19819.04165,0.26952,0.26952,0,0,1,0,.50748,0.422,0.422,0,0,1-.19819.04165h-1.62081v2.209h2.29973a0.42661,0.42661,0,0,1,.19862.04152,0.26967,0.26967,0,0,1,0,.50748,0.42472,0.42472,0,0,1-.19862.04167h-2.57212a0.49881,0.49881,0,0,1-.3472-0.09983,0.36932,0.36932,0,0,1-.08405-0.26213V51.85391a0.3288,0.3288,0,0,1,.114-0.28716,0.53094,0.53094,0,0,1,.31725-0.07479h2.57212a0.42661,0.42661,0,0,1,.19862.04152,0.26977,0.26977,0,0,1,0,.50763,0.42663,0.42663,0,0,1-.19862.04151h-2.29973Z"/>
          <path class="cls-4" d="M118.97416,57.26693a0.58371,0.58371,0,0,1-.39495-0.12426,0.46609,0.46609,0,0,1-.11688-0.33721l-0.00015-4.95155a0.41844,0.41844,0,0,1,.14828-0.36035,0.61094,0.61094,0,0,1,.36078-0.09808l0.02213,0.00028,2.57011-.00013a0.52461,0.52461,0,0,1,.24433.0528,0.36461,0.36461,0,0,1-.00218.67891,0.5236,0.5236,0,0,1-.24216.05164h-2.20178v1.50466h1.52286a0.5225,0.5225,0,0,1,.24448.05309,0.36439,0.36439,0,0,1-.00246.67861,0.52125,0.52125,0,0,1-.242.05179h-1.52286v2.01633h2.20178a0.52461,0.52461,0,0,1,.24433.0528,0.36446,0.36446,0,0,1-.00233.67876,0.52166,0.52166,0,0,1-.242.05179Zm-0.0029-5.67891a0.4225,0.4225,0,0,0-.24057.05743,0.23245,0.23245,0,0,0-.07276.20324l0.00015,4.9598a0.27742,0.27742,0,0,0,.061.20007,0.40746,0.40746,0,0,0,.255.06567l2.58933-.00013a0.33111,0.33111,0,0,0,.15248-0.03024,0.17833,0.17833,0,0,0,.12657-0.16883,0.17653,0.17653,0,0,0-.12426-0.16751,0.33228,0.33228,0,0,0-.15479-0.0314h-2.39766V54.27441h1.71874a0.32856,0.32856,0,0,0,.152-0.03023,0.17849,0.17849,0,0,0,.12688-0.16882,0.17634,0.17634,0,0,0-.12412-0.16753,0.33142,0.33142,0,0,0-.1548-0.03154h-1.71874v-1.89h2.39766a0.33212,0.33212,0,0,0,.15261-0.03023,0.17835,0.17835,0,0,0,.12643-0.16883,0.17654,0.17654,0,0,0-.12426-0.16753,0.33247,0.33247,0,0,0-.15479-0.03139Z"/>
        </g>
        <g>
          <path class="cls-4" d="M128.52572,55.72279V51.80385a0.27118,0.27118,0,0,1,.04948-0.16636,0.38011,0.38011,0,0,1,.60469,0,0.27127,0.27127,0,0,1,.04948.16636v4.82163q0,0.549-.3469.54915a0.33815,0.33815,0,0,1-.228-0.09158,1.20383,1.20383,0,0,1-.19819-0.24955l-2.63678-3.97708v4.002a0.27179,0.27179,0,0,1-.04961.1665,0.38026,0.38026,0,0,1-.60484,0,0.27161,0.27161,0,0,1-.04948-0.1665V52.02851q0-.54075.33707-0.54075a0.45016,0.45016,0,0,1,.38161.22885Z"/>
          <path class="cls-4" d="M128.88246,57.271a0.4355,0.4355,0,0,1-.29323-0.11617,1.29155,1.29155,0,0,1-.21583-0.27009l-2.456-3.70439V56.8584a0.36613,0.36613,0,0,1-.06844.22321,0.4789,0.4789,0,0,1-.76469-0.00231,0.36352,0.36352,0,0,1-.06669-0.2209V52.02851c0-.52658.23668-0.6371,0.435-0.6371a0.5447,0.5447,0,0,1,.46335.27211l2.51179,3.73884V51.80385a0.36551,0.36551,0,0,1,.06844-0.22321,0.47872,0.47872,0,0,1,.76439.00246,0.36341,0.36341,0,0,1,.06684.22075v4.82163C129.32744,57.159,129.08542,57.271,128.88246,57.271Zm-3.161-4.73845,2.81689,4.24833a1.12085,1.12085,0,0,0,.1817.23059,0.24,0.24,0,0,0,.16246.06684c0.06813,0,.249,0,0.249-0.45281V51.80385a0.17816,0.17816,0,0,0-.03066-0.10965,0.28136,0.28136,0,0,0-.44455-0.00246,0.179,0.179,0,0,0-.03255.11211v4.23937l-2.871-4.27352a0.35548,0.35548,0,0,0-.3-0.1856c-0.06539,0-.23914,0-0.23914.44441V56.8584a0.17826,0.17826,0,0,0,.03053.10965,0.28171,0.28171,0,0,0,.44512.00246,0.1803,0.1803,0,0,0,.03226-0.11211V52.53253Z"/>
        </g>
        <g>
          <path class="cls-4" d="M134.71442,52.08261V56.8584a0.27178,0.27178,0,0,1-.04961.1665,0.35541,0.35541,0,0,1-.31248.14974,0.35982,0.35982,0,0,1-.3171-0.14974,0.27163,0.27163,0,0,1-.04948-0.1665V52.08261h-1.31355a0.42473,0.42473,0,0,1-.19819-0.04151,0.2697,0.2697,0,0,1,0-.50763,0.42471,0.42471,0,0,1,.19819-0.04152h3.35548a0.42532,0.42532,0,0,1,.19832.04152,0.26969,0.26969,0,0,1,0,.50763,0.42535,0.42535,0,0,1-.19832.04151h-1.31327Z"/>
          <path class="cls-4" d="M134.35233,57.271a0.46045,0.46045,0,0,1-.398-0.19184,0.36357,0.36357,0,0,1-.06656-0.22075V52.179h-1.2156a0.52458,0.52458,0,0,1-.24433-0.0528,0.36452,0.36452,0,0,1,.00246-0.67891,0.52151,0.52151,0,0,1,.24188-0.05164h3.35548a0.52461,0.52461,0,0,1,.24433.0528,0.36453,0.36453,0,0,1-.00246.67891,0.52156,0.52156,0,0,1-.24188.05164h-1.21532V56.8584a0.36535,0.36535,0,0,1-.06857.22321A0.45415,0.45415,0,0,1,134.35233,57.271Zm-1.68012-5.68269a0.32945,0.32945,0,0,0-.15219.03023,0.17547,0.17547,0,0,0-.00231.33634,0.33066,0.33066,0,0,0,.15451.0314h1.41148V56.8584a0.17826,0.17826,0,0,0,.03053.10965,0.26336,0.26336,0,0,0,.23811.11024,0.25763,0.25763,0,0,0,.23174-0.10778,0.18034,0.18034,0,0,0,.03241-0.11211V51.98628h1.4112a0.329,0.329,0,0,0,.15218-0.03023,0.17831,0.17831,0,0,0,.12673-0.16883,0.17652,0.17652,0,0,0-.12442-0.16753,0.33037,0.33037,0,0,0-.15449-0.03139h-3.35548Z"/>
        </g>
        <g>
          <path class="cls-4" d="M140.17923,52.08261V53.78h1.62082a0.42241,0.42241,0,0,1,.19818.04165,0.26959,0.26959,0,0,1,0,.50748,0.42239,0.42239,0,0,1-.19818.04165h-1.62082v2.209H142.479a0.4249,0.4249,0,0,1,.19832.04152,0.26959,0.26959,0,0,1,0,.50748,0.423,0.423,0,0,1-.19832.04167h-2.57227a0.49864,0.49864,0,0,1-.34705-0.09983,0.36873,0.36873,0,0,1-.08419-0.26213V51.85391a0.32953,0.32953,0,0,1,.114-0.28716,0.53122,0.53122,0,0,1,.31724-0.07479H142.479a0.4249,0.4249,0,0,1,.19832.04152,0.2697,0.2697,0,0,1,0,.50763,0.42492,0.42492,0,0,1-.19832.04151h-2.29973Z"/>
          <path class="cls-4" d="M139.88947,57.26693a0.58365,0.58365,0,0,1-.39493-0.12426,0.46732,0.46732,0,0,1-.11689-0.33721l-0.00015-4.95155a0.4178,0.4178,0,0,1,.14843-0.36035,0.61032,0.61032,0,0,1,.36078-0.09808l0.022,0.00028,2.57024-.00013a0.525,0.525,0,0,1,.24433.0528,0.36461,0.36461,0,0,1-.00218.67891,0.524,0.524,0,0,1-.24216.05164h-2.20178v1.50466h1.52288a0.52154,0.52154,0,0,1,.24433.05309,0.36439,0.36439,0,0,1-.00246.67861,0.52027,0.52027,0,0,1-.24188.05179h-1.52288v2.01633H142.479a0.525,0.525,0,0,1,.24433.0528,0.36446,0.36446,0,0,1-.00233.67876,0.52209,0.52209,0,0,1-.242.05179ZM139.88672,51.588a0.42384,0.42384,0,0,0-.24085.05743,0.2324,0.2324,0,0,0-.07263.20324l0.00015,4.9598a0.27682,0.27682,0,0,0,.06119.20007,0.40727,0.40727,0,0,0,.2549.06567l2.58948-.00013a0.33045,0.33045,0,0,0,.15233-0.03024,0.17833,0.17833,0,0,0,.12658-0.16883,0.17654,0.17654,0,0,0-.12412-0.16751,0.3327,0.3327,0,0,0-.15479-0.0314h-2.39766V54.27441h1.71876a0.32746,0.32746,0,0,0,.15188-0.03023,0.17848,0.17848,0,0,0,.12688-0.16882,0.17634,0.17634,0,0,0-.12412-0.16753,0.33034,0.33034,0,0,0-.15464-0.03154h-1.71876v-1.89H142.479a0.33157,0.33157,0,0,0,.15248-0.03023,0.17835,0.17835,0,0,0,.12643-0.16883,0.17656,0.17656,0,0,0-.12412-0.16753,0.33289,0.33289,0,0,0-.15479-0.03139Z"/>
        </g>
        <g>
          <path class="cls-4" d="M148.95525,54.80751l1.07052,1.80959a0.632,0.632,0,0,1,.10907.2996,0.22638,0.22638,0,0,1-.09909.18718,0.35332,0.35332,0,0,1-.218.07075,0.40806,0.40806,0,0,1-.34213-0.23711l-1.22907-1.99694h-1.50189V56.8584a0.27169,0.27169,0,0,1-.04963.1665,0.38011,0.38011,0,0,1-.60469,0,0.27162,0.27162,0,0,1-.04948-0.1665V51.85391a0.32918,0.32918,0,0,1,.114-0.28716,0.531,0.531,0,0,1,.31725-0.07479H147.964a2.8757,2.8757,0,0,1,1.04578.158,1.95446,1.95446,0,0,1,.92194.71969,1.499,1.499,0,0,1,.26762.84874,1.52771,1.52771,0,0,1-.4758,1.10234A2.297,2.297,0,0,1,148.95525,54.80751Zm-2.2106-.45758h1.244a1.80361,1.80361,0,0,0,1.04593-.27457,1.00156,1.00156,0,0,0,.46089-0.86538,0.97894,0.97894,0,0,0-.46581-0.857,1.89829,1.89829,0,0,0-1.07558-.27038h-1.20938v2.26732Z"/>
          <path class="cls-4" d="M149.81774,57.271a0.49963,0.49963,0,0,1-.426-0.28412l-1.20027-1.94992h-1.34885V56.8584a0.36623,0.36623,0,0,1-.06842.22321,0.47866,0.47866,0,0,1-.76456-0.00246,0.36276,0.36276,0,0,1-.06669-0.22075V51.85391a0.41848,0.41848,0,0,1,.14828-0.36035,0.61158,0.61158,0,0,1,.3608-0.09808l0.02228,0.00028,1.48974-.00013a2.98641,2.98641,0,0,1,1.08266.16505,2.06032,2.06032,0,0,1,.9665.75558,1.60025,1.60025,0,0,1,.28412.90212,1.62646,1.62646,0,0,1-.50344,1.16932,2.3026,2.3026,0,0,1-.69886.46451l1.01539,1.71645a0.71243,0.71243,0,0,1,.12252.34806,0.32316,0.32316,0,0,1-.13743.26358A0.45285,0.45285,0,0,1,149.81774,57.271Zm-3.171-2.42674h1.655l1.2577,2.04338a0.31758,0.31758,0,0,0,.25838.19067,0.25448,0.25448,0,0,0,.15855-0.05093,0.13087,0.13087,0,0,0,.06062-0.11066,0.53354,0.53354,0,0,0-.09562-0.251l-1.1265-1.90434,0.10242-.04254a2.21423,2.21423,0,0,0,.73589-0.46494,1.44209,1.44209,0,0,0,.44832-1.03551,1.413,1.413,0,0,0-.25143-0.79578,1.86694,1.86694,0,0,0-.87695-0.68339,2.79546,2.79546,0,0,0-1.009-.15089l-1.512-.00028a0.42288,0.42288,0,0,0-.24059.05743,0.23253,0.23253,0,0,0-.07276.20324l0.00015,5.0097a0.17741,0.17741,0,0,0,.03066.10965,0.28143,0.28143,0,0,0,.44485.00246,0.1795,0.1795,0,0,0,.0324-0.11211V54.84424Zm1.3419-.398h-1.3419v-2.46H147.954a2.00009,2.00009,0,0,1,1.13084.28729,1.07377,1.07377,0,0,1,.50849.93641,1.09715,1.09715,0,0,1-.50242.94407A1.90778,1.90778,0,0,1,147.9886,54.44628Zm-1.146-.1927h1.146a1.717,1.717,0,0,0,.98965-0.25692,0.90355,0.90355,0,0,0,.41924-0.78667,0.88085,0.88085,0,0,0-.42315-0.77742A1.81038,1.81038,0,0,0,147.954,52.179h-1.11145v2.07462Z"/>
        </g>
      </g>
    </g>
    <g>
      <path class="cls-5" d="M50.20645,69.46367a7.48544,7.48544,0,0,1-1.45877.174,3.03054,3.03054,0,0,1-.9739-0.1285,1.55576,1.55576,0,0,1-.60095-0.36053,1.59328,1.59328,0,0,1-.36469-0.605,5.53874,5.53874,0,0,1-.24867-1.84831,3.65422,3.65422,0,0,1,.59679-2.47832,1.98941,1.98941,0,0,1,1.49194-.50556,8.03578,8.03578,0,0,1,1.55826.174L50.1816,64.333a8.11092,8.11092,0,0,0-1.38424-.15739,2.29937,2.29937,0,0,0-.80814.11186,1.26948,1.26948,0,0,0-.46413.29836,1.19316,1.19316,0,0,0-.26936.518,5.07257,5.07257,0,0,0-.16582,1.40908,10.03271,10.03271,0,0,0,.05807,1.26395,2.49373,2.49373,0,0,0,.22377.75839,1.00108,1.00108,0,0,0,.489.489,2.18094,2.18094,0,0,0,.89515.14929,8.11865,8.11865,0,0,0,1.42566-.1575Z"/>
      <path class="cls-5" d="M54.42526,69.55485H51.27563V63.7943H51.7895v5.29637h2.63576v0.46419Z"/>
      <path class="cls-5" d="M59.34035,66.72016a3.95742,3.95742,0,0,1-.48487,2.22964,2.01767,2.01767,0,0,1-1.76546.6879,1.995,1.995,0,0,1-1.76546-.70454,3.99649,3.99649,0,0,1-.48493-2.22548,4.14629,4.14629,0,0,1,.489-2.25853,2.47142,2.47142,0,0,1,3.51849-.00416A4.1446,4.1446,0,0,1,59.34035,66.72016Zm-3.62208,1.87731a1.93587,1.93587,0,0,0,2.74352.01248,3.77279,3.77279,0,0,0,.34805-1.88563,3.92461,3.92461,0,0,0-.36469-1.93544,1.448,1.448,0,0,0-1.35928-.61326,1.425,1.425,0,0,0-1.38418.66306,2.33165,2.33165,0,0,0-.2611.77908,7.01938,7.01938,0,0,0-.07043,1.08587A3.8369,3.8369,0,0,0,55.71827,68.59747Z"/>
      <path class="cls-5" d="M61.02284,67.86393a1.21552,1.21552,0,0,0,1.43393,1.3097,1.73262,1.73262,0,0,0,1.11892-.30668,1.22733,1.22733,0,0,0,.373-1.003V63.7943h0.51388v4.06963a1.66328,1.66328,0,0,1-.50556,1.35523,2.27028,2.27028,0,0,1-1.47957.41854,2.21722,2.21722,0,0,1-1.46709-.41854,1.68514,1.68514,0,0,1-.49319-1.35523V63.7943h0.50567v4.06963Z"/>
      <path class="cls-5" d="M67.96864,69.55485h-2.0971V63.7943h2.0971q2.047,0,2.04718,2.80152Q70.01583,69.55479,67.96864,69.55485Zm1.51678-2.959q0-2.3374-1.51678-2.33734H66.38542V69.099h1.58322Q69.48531,69.099,69.48542,66.59582Z"/>
      <path class="cls-5" d="M76.489,69.46367a7.48448,7.48448,0,0,1-1.45877.174,3.031,3.031,0,0,1-.9739-0.1285,1.55594,1.55594,0,0,1-.60089-0.36053,1.59328,1.59328,0,0,1-.36469-0.605,5.53728,5.53728,0,0,1-.24867-1.84831,3.65417,3.65417,0,0,1,.59684-2.47832,1.98924,1.98924,0,0,1,1.49194-.50556,8.03518,8.03518,0,0,1,1.55815.174l-0.02484.44755A8.10983,8.10983,0,0,0,75.08,64.17563a2.2995,2.2995,0,0,0-.80819.11186,1.26972,1.26972,0,0,0-.46419.29836,1.19494,1.19494,0,0,0-.26936.518A5.073,5.073,0,0,0,73.3726,66.513a10.02425,10.02425,0,0,0,.058,1.26395,2.49685,2.49685,0,0,0,.22372.75839,1.00176,1.00176,0,0,0,.489.489,2.18142,2.18142,0,0,0,.89521.14929,8.117,8.117,0,0,0,1.42561-.1575Z"/>
      <path class="cls-5" d="M81.7358,66.72016a3.95742,3.95742,0,0,1-.48487,2.22964,2.01767,2.01767,0,0,1-1.76546.6879A1.995,1.995,0,0,1,77.72,68.93316a3.99606,3.99606,0,0,1-.48487-2.22548,4.14579,4.14579,0,0,1,.489-2.25853,2.47135,2.47135,0,0,1,3.51843-.00416A4.1446,4.1446,0,0,1,81.7358,66.72016Zm-3.62208,1.87731a1.93587,1.93587,0,0,0,2.74352.01248,3.77279,3.77279,0,0,0,.34805-1.88563,3.92461,3.92461,0,0,0-.36469-1.93544,1.448,1.448,0,0,0-1.35928-.61326,1.42523,1.42523,0,0,0-1.38424.66306,2.33286,2.33286,0,0,0-.261.77908,7.01856,7.01856,0,0,0-.07049,1.08587A3.83616,3.83616,0,0,0,78.11372,68.59747Z"/>
      <path class="cls-5" d="M82.94578,69.55485V63.7943h0.96153l1.782,5.03948,1.77377-5.03948h0.96153v5.76055h-0.514v-5.23h-0.116l-1.80683,5.03937H85.38262l-1.80683-5.03937H83.45966v5.23H82.94578Z"/>
      <path class="cls-5" d="M91.97193,67.549H90.3805v2.00581H89.86663V63.7943h2.1053a1.81682,1.81682,0,0,1,1.35523.44755,1.90826,1.90826,0,0,1,.43507,1.37592A1.64757,1.64757,0,0,1,91.97193,67.549Zm-1.59143-.45587h1.59143a1.21805,1.21805,0,0,0,1.2599-1.47541,1.51708,1.51708,0,0,0-.29836-1.03607,1.23624,1.23624,0,0,0-.96153-0.33153H90.3805v2.843Z"/>
      <path class="cls-5" d="M95.25417,67.86393a1.21552,1.21552,0,0,0,1.43393,1.3097,1.73262,1.73262,0,0,0,1.11892-.30668,1.22733,1.22733,0,0,0,.373-1.003V63.7943H98.6939v4.06963a1.66328,1.66328,0,0,1-.50556,1.35523,2.27028,2.27028,0,0,1-1.47957.41854,2.21722,2.21722,0,0,1-1.46709-.41854,1.68514,1.68514,0,0,1-.49319-1.35523V63.7943h0.50567v4.06963Z"/>
      <path class="cls-5" d="M99.48951,64.25848V63.7943h4.14428v0.46419H101.827v5.29637h-0.51388V64.25848H99.48951Z"/>
      <path class="cls-5" d="M104.46255,69.55485V63.7943h0.51388v5.76055h-0.51388Z"/>
      <path class="cls-5" d="M106.41856,69.55485V63.7943h1.01122l2.412,5.30468h0.19067V63.7943H110.538v5.76055h-0.99459l-2.42863-5.29637h-0.18235v5.29637h-0.51388Z"/>
      <path class="cls-5" d="M114.25125,67.10149v-0.456h1.56658v2.785q-0.24064.04975-.84552,0.1285a8.05973,8.05973,0,0,1-1.00291.07869,1.90959,1.90959,0,0,1-1.724-.72939,4.072,4.072,0,0,1-.48071-2.213,6.85613,6.85613,0,0,1,.09938-1.2599,2.74343,2.74343,0,0,1,.34817-0.92826,1.86167,1.86167,0,0,1,1.74893-.79571,8.22281,8.22281,0,0,1,1.58311.1575l0.27352,0.058-0.025.43923a10.1019,10.1019,0,0,0-1.7903-.19055,1.43658,1.43658,0,0,0-1.35512.60089,3.929,3.929,0,0,0-.35233,1.91048,3.85175,3.85175,0,0,0,.35233,1.89811,1.4388,1.4388,0,0,0,1.34691.58852,7.42753,7.42753,0,0,0,1.3178-.13266V67.10149h-1.06091Z"/>
      <path class="cls-5" d="M118.9257,69.55485V63.7943h3.45638v0.46419h-2.9425v2.13847h2.44515v0.45587h-2.44515V69.099h2.9425v0.45587H118.9257Z"/>
      <path class="cls-5" d="M123.53405,63.7943l1.55826,2.54464,1.54994-2.54464h0.56368l-1.7903,2.91754,1.7903,2.843h-0.5802L125.084,67.06832l-1.56647,2.48652h-0.56368l1.80694-2.83469-1.80694-2.92586h0.5802Z"/>
      <path class="cls-5" d="M130.20634,67.549h-1.59143v2.00581H128.101V63.7943h2.1053a1.81682,1.81682,0,0,1,1.35523.44755,1.90826,1.90826,0,0,1,.43507,1.37592A1.64757,1.64757,0,0,1,130.20634,67.549Zm-1.59143-.45587h1.59143a1.21805,1.21805,0,0,0,1.2599-1.47541,1.51708,1.51708,0,0,0-.29836-1.03607,1.23624,1.23624,0,0,0-.96153-0.33153h-1.59143v2.843Z"/>
      <path class="cls-5" d="M133.01607,69.55485V63.7943h3.45638v0.46419h-2.9425v2.13847h2.44515v0.45587h-2.44515V69.099h2.9425v0.45587h-3.45638Z"/>
      <path class="cls-5" d="M138.105,67.28383v2.271h-0.51388V63.7943h2.11362a1.92593,1.92593,0,0,1,1.34691.41034,1.6907,1.6907,0,0,1,.44339,1.29711,1.51792,1.51792,0,0,1-1.1106,1.6826l1.18525,2.3705h-0.57188l-1.13556-2.271H138.105Zm2.85965-1.77377a1.09662,1.09662,0,0,0-1.2599-1.2599H138.105v2.57769h1.59975A1.13989,1.13989,0,0,0,140.96466,65.51006Z"/>
      <path class="cls-5" d="M141.97577,64.25848V63.7943h4.14428v0.46419h-1.80683v5.29637h-0.51388V64.25848h-1.82358Z"/>
      <path class="cls-5" d="M148.50708,64.159q-1.33455,0-1.33443,1.01954a0.91224,0.91224,0,0,0,.30252.80392,3.55589,3.55589,0,0,0,1.18525.38133,2.9559,2.9559,0,0,1,1.2599.48071,1.25329,1.25329,0,0,1,.37706,1.02775,1.71385,1.71385,0,0,1-.45991,1.33859,1.96368,1.96368,0,0,1-1.34691.41034,11.32792,11.32792,0,0,1-1.50025-.116l-0.29836-.04148,0.058-.43934a15.26848,15.26848,0,0,0,1.75714.141,1.33375,1.33375,0,0,0,.9449-0.30252,1.15651,1.15651,0,0,0,.32332-0.88689,0.93543,0.93543,0,0,0-.286-0.79571,2.273,2.273,0,0,0-.91173-0.32737,7.744,7.744,0,0,1-.91589-0.21135,2.04313,2.04313,0,0,1-.54288-0.27352,0.983,0.983,0,0,1-.36053-0.45587,1.95154,1.95154,0,0,1-.10781-0.70038q0-1.50857,1.82346-1.50857a11.37829,11.37829,0,0,1,1.42572.116l0.27352,0.04148-0.04148.43923A15.35025,15.35025,0,0,0,148.50708,64.159Z"/>
    </g>
  </g>
</svg>
