<svg id="Warstwa_1" data-name="Warstwa 1" xmlns="http://www.w3.org/2000/svg" width="200" height="100" viewBox="0 0 200 100">
  <defs>
    <style>
      .cls-1 {
        fill: #646569;
      }

      .cls-2 {
        fill: #ff671b;
      }
    </style>
  </defs>
  <title>algebra</title>
  <g>
    <path class="cls-1" d="M92.01923,62.57659A2.42221,2.42221,0,1,1,94.231,60.16777a2.20664,2.20664,0,0,1-2.21172,2.40882m0-4.27981a1.89016,1.89016,0,1,0,1.59365,1.871,1.65932,1.65932,0,0,0-1.59365-1.871"/>
    <path class="cls-1" d="M97.78868,62.299a1.45,1.45,0,0,1-.90465.2782A1.23623,1.23623,0,0,1,95.72,61.986a1.63139,1.63139,0,0,1-.16994-0.8598V58.3854H94.73519V57.85761h0.81489V56.5054h0.57316v1.35221h1.558V58.3854h-1.558v2.74083a0.75525,0.75525,0,0,0,.78744.91309,0.97639,0.97639,0,0,0,.60911-0.18791Z"/>
    <polygon class="cls-1" points="100.786 62.469 100.186 62.469 98.323 57.858 98.968 57.858 100.5 61.771 102.031 57.858 102.657 57.858 100.786 62.469"/>
    <path class="cls-1" d="M105.28755,62.57659a2.42224,2.42224,0,1,1,2.21143-2.40882,2.20668,2.20668,0,0,1-2.21143,2.40882m0-4.27981a1.89011,1.89011,0,1,0,1.59394,1.871,1.65952,1.65952,0,0,0-1.59394-1.871"/>
    <path class="cls-1" d="M111.04523,58.45771a1.16364,1.16364,0,0,0-.53732-0.13456,1.45,1.45,0,0,0-1.28042,1.67469v2.47108h-0.57316v-4.6113h0.57316v0.80593a1.69409,1.69409,0,0,1,1.37915-.89512,1.18388,1.18388,0,0,1,.64495.17838Z"/>
    <path class="cls-1" d="M115.93639,60.29337h-3.7252a1.628,1.628,0,0,0,1.69266,1.719,1.797,1.797,0,0,0,1.39649-.62646l0.40271,0.40213a2.31554,2.31554,0,0,1-1.7992.78853,2.41934,2.41934,0,0,1-.09924-4.82609,2.136,2.136,0,0,1,2.14912,2.27421,1.7,1.7,0,0,1-.01734.26866m-0.59114-.493a1.559,1.559,0,0,0-3.11609,0h3.11609Z"/>
    <path class="cls-1" d="M117.04739,62.46891v-4.6113h0.57322v0.84182a1.86679,1.86679,0,0,1,1.64666-.94893,1.57309,1.57309,0,0,1,1.63936,1.77226v2.94615h-0.57322V59.65738a1.13357,1.13357,0,0,0-1.13742-1.35221,1.54817,1.54817,0,0,0-1.57539,1.63041v2.53334h-0.57322Z"/>
    <path class="cls-1" d="M124.22235,62.57659a2.42224,2.42224,0,1,1,2.21143-2.40882,2.20668,2.20668,0,0,1-2.21143,2.40882m0-4.27981a1.89011,1.89011,0,1,0,1.59394,1.871,1.65952,1.65952,0,0,0-1.59394-1.871"/>
    <path class="cls-1" d="M133.83416,57.85761v4.61187H133.261v-0.8424a1.86948,1.86948,0,0,1-1.64723.94951,1.57315,1.57315,0,0,1-1.63879-1.77283V57.85761h0.57316v2.81153a1.13318,1.13318,0,0,0,1.13685,1.35221,1.54786,1.54786,0,0,0,1.576-1.62983V57.85761h0.57316Z"/>
    <path class="cls-1" d="M138.97716,61.663a2.17153,2.17153,0,0,1-1.79977.91361,2.42576,2.42576,0,0,1,.009-4.82667,2.14192,2.14192,0,0,1,1.78185.89569l-0.45709.34884a1.53379,1.53379,0,0,0-1.31632-.69825,1.89389,1.89389,0,0,0-.0174,3.7341,1.57912,1.57912,0,0,0,1.34325-.71674Zm-2.051-4.44136a9.98391,9.98391,0,0,0-1.12783-.91309l0.18786-.33143a3.67064,3.67064,0,0,1,1.1817.73414,3.6861,3.6861,0,0,1,1.18227-.73414l0.18843,0.33143a10.052,10.052,0,0,0-1.129.91309h-0.48345Z"/>
    <path class="cls-1" d="M139.98783,56.07524H140.561v0.71622h-0.57316V56.07524Zm0,1.78237H140.561v4.61187h-0.57316V57.85761Z"/>
    <path class="cls-1" d="M141.97936,56.07582h0.57322v5.3544c0,0.43917.161,0.59114,0.465,0.59114a0.65626,0.65626,0,0,0,.3853-0.10711l0.15254,0.50981a1.154,1.154,0,0,1-.56478.1256,0.9932,0.9932,0,0,1-.83229-0.35837,1.24785,1.24785,0,0,1-.179-0.76107v-5.3544Z"/>
    <path class="cls-1" d="M144.37871,56.07524h0.57316v0.71622h-0.57316V56.07524Zm0,1.78237h0.57316v4.61187h-0.57316V57.85761Z"/>
    <path class="cls-1" d="M147.91318,62.57659a2.27177,2.27177,0,0,1-1.94277-.93159l0.45652-.36675a1.77755,1.77755,0,0,0,1.5137.76107,0.99313,0.99313,0,0,0,1.19072-.8772c0-.52831-0.41167-0.61807-1.37019-0.81489-0.84125-.17051-1.558-0.4212-1.558-1.28938a1.42187,1.42187,0,0,1,1.64838-1.30793,2.4303,2.4303,0,0,1,1.75428.72575l-0.41166.42062a1.69244,1.69244,0,0,0-1.35215-.60905,0.90181,0.90181,0,0,0-1.08361.71674c0,0.53675.55524,0.67188,1.19129,0.79639,0.85974,0.17051,1.76382.34941,1.76382,1.34325a1.53485,1.53485,0,0,1-1.80029,1.433m-0.295-5.355a10.04334,10.04334,0,0,0-1.1284-.91309l0.18843-.33143a3.68949,3.68949,0,0,1,1.1817.73414,3.67982,3.67982,0,0,1,1.18227-.73414l0.18734,0.33143a10.13532,10.13532,0,0,0-1.12788.91309h-0.48346Z"/>
    <path class="cls-1" d="M153.46611,62.299a1.45059,1.45059,0,0,1-.90465.2782,1.23669,1.23669,0,0,1-1.1643-.59114,1.63139,1.63139,0,0,1-.16994-0.8598V58.3854h-0.81494V57.85761h0.81494V56.5054h0.57316v1.35221h1.558V58.3854h-1.558v2.74083a0.75537,0.75537,0,0,0,.78744.91309,0.97572,0.97572,0,0,0,.60911-0.18791Z"/>
    <path class="cls-1" d="M158.21818,60.29337h-3.72457a1.62754,1.62754,0,0,0,1.69209,1.719,1.79822,1.79822,0,0,0,1.39706-.62646l0.40213,0.40213a2.314,2.314,0,0,1-1.7992.78853,2.41936,2.41936,0,0,1-.09872-4.82609,2.13606,2.13606,0,0,1,2.14918,2.27421,1.60432,1.60432,0,0,1-.018.26866m-0.59114-.493a1.559,1.559,0,0,0-3.116,0h3.116Z"/>
    <path class="cls-1" d="M98.13556,49.31166l-0.576-2.08382H93.91715l-0.576,2.08382H89.83444l4.01488-11.28173h3.86229l3.99828,11.28173H98.13556Zm-2.40572-8.67322-1.13489,4.08271h2.2703Z"/>
    <rect class="cls-1" x="102.64257" y="37.21642" width="3.09983" height="12.09553"/>
    <path class="cls-1" d="M117.05865,47.347a4.93111,4.93111,0,0,1-1.06729,3.59087,5.92617,5.92617,0,0,1-4.438,1.49131,8.21425,8.21425,0,0,1-4.04876-.91533l1.01681-2.3379a5.751,5.751,0,0,0,2.9473.71174c1.37179,0,2.49015-.44055,2.49015-1.74481V47.66839a3.65684,3.65684,0,0,1-2.60851,1.03335,4.09775,4.09775,0,0,1-4.15082-4.37067,4.107,4.107,0,0,1,4.15082-4.37044,3.60274,3.60274,0,0,1,2.60851,1.05047V40.14684h3.09983V47.347Zm-4.8783-4.89622a1.65416,1.65416,0,0,0-1.71115,1.86375,1.68924,1.68924,0,0,0,1.71115,1.89706,1.74834,1.74834,0,0,0,1.77846-1.89706,1.703,1.703,0,0,0-1.77846-1.86375"/>
    <path class="cls-1" d="M128.10623,45.50014h-6.33538c0.06731,0.98264.84694,1.47362,1.96465,1.47362a3.17082,3.17082,0,0,0,2.38924-1.01653l2.01571,1.76192a6.23757,6.23757,0,0,1-4.59114,1.79581c-3.40491,0-5.11606-2.03305-5.11606-4.72651a4.59318,4.59318,0,0,1,4.94727-4.82753,4.39564,4.39564,0,0,1,4.75993,4.726c0,0.2883-.0174.59251-0.03423,0.81322m-4.65839-3.3202a1.51112,1.51112,0,0,0-1.677,1.45708h3.33708a1.498,1.498,0,0,0-1.6601-1.45708"/>
    <path class="cls-1" d="M135.37429,49.515a3.67481,3.67481,0,0,1-2.60851-1.04989v0.84659h-3.09983V37.21614h3.09983V40.994a3.66134,3.66134,0,0,1,2.60851-1.03335c2.55855,0,4.15082,2.03254,4.15082,4.77733,0,2.69345-1.59227,4.777-4.15082,4.777m-0.82953-6.92841a1.89052,1.89052,0,0,0-1.779,2.16853,1.83658,1.83658,0,0,0,1.779,2.11748c1.16941,0,1.71116-.9661,1.71116-2.11748,0-1.152-.54175-2.16853-1.71116-2.16853"/>
    <path class="cls-1" d="M146.658,43.39949a2.00234,2.00234,0,0,0-1.01681-.28773,1.74305,1.74305,0,0,0-1.69318,1.93129v4.2689H140.847V40.14712H143.948v1.32137a2.59845,2.59845,0,0,1,3.47222-1.23637Z"/>
    <path class="cls-1" d="M151.90979,49.515c-2.66014,0-4.20136-2.08354-4.20136-4.777,0-2.7448,1.59227-4.77733,4.1503-4.77733a3.66183,3.66183,0,0,1,2.60909,1.03335V40.14684h3.09977v6.8101a0.31922,0.31922,0,0,0,.35613.37273,0.65042,0.65042,0,0,0,.43975-0.11837l0.30565,1.88052a3.29552,3.29552,0,0,1-1.55862.35533,2.48479,2.48479,0,0,1-2.37184-1.152,3.30278,3.30278,0,0,1-2.82887,1.21983m0.779-6.92841c-1.16878,0-1.71115,1.01653-1.71115,2.16853,0,1.15138.54238,2.11748,1.71115,2.11748a1.83662,1.83662,0,0,0,1.779-2.11748,1.89086,1.89086,0,0,0-1.779-2.16853"/>
    <path class="cls-2" d="M61.33129,30a20,20,0,1,0,19.9985,19.99928A20.0007,20.0007,0,0,0,61.33129,30m7.65194,15.84927L64.877,61.17448l-5.52267-1.47781,2.82526-10.54288L51.63507,51.97657l-1.47816-5.52215,15.32354-4.10625a2.85836,2.85836,0,0,1,3.50277,3.5011"/>
  </g>
</svg>
