<svg id="Warstwa_1" data-name="Warstwa 1" xmlns="http://www.w3.org/2000/svg" width="200" height="100" viewBox="0 0 200 100">
  <defs>
    <style>
      .cls-1 {
        fill: #3c4a58;
      }

      .cls-2 {
        fill: #0480bc;
      }

      .cls-3 {
        fill: #09a8e1;
      }

      .cls-4 {
        fill: #2764ae;
      }

      .cls-5 {
        fill: #1281c4;
      }

      .cls-6 {
        fill: #0791b3;
      }
    </style>
  </defs>
  <title>bilgeadam</title>
  <g>
    <path class="cls-1" d="M48.26862,49.426a2.53478,2.53478,0,1,1,2.53565-2.53478A2.53844,2.53844,0,0,1,48.26862,49.426"/>
    <path class="cls-2" d="M55.15031,53.30806a2.53412,2.53412,0,1,1,2.19793-1.267,2.53838,2.53838,0,0,1-2.19793,1.267"/>
    <path class="cls-3" d="M55.29823,45.37012a2.54383,2.54383,0,0,1-2.19664-1.26782,2.53541,2.53541,0,0,1,2.19183-3.803,2.54305,2.54305,0,0,1,2.19664,1.26783,2.53587,2.53587,0,0,1-.92881,3.464,2.54723,2.54723,0,0,1-1.263.339"/>
    <path class="cls-4" d="M48.26862,41.31145a2.53521,2.53521,0,1,1,.00087,0H48.26862Z"/>
    <path class="cls-5" d="M41.23991,45.36959a2.53478,2.53478,0,1,1,2.19751-1.26739,2.52549,2.52549,0,0,1-2.19751,1.26739"/>
    <path class="cls-6" d="M41.27285,53.45223a2.54139,2.54139,0,0,1-2.19576-1.2652,2.53821,2.53821,0,0,1,2.1927-3.80523,2.54713,2.54713,0,0,1,2.19751,1.26914,2.53488,2.53488,0,0,1-2.19445,3.80129"/>
    <path class="cls-1" d="M60.32012,34.99138A16.93133,16.93133,0,0,0,48.27141,30H48.26965A17.03863,17.03863,0,1,0,60.32012,34.99138ZM50.54165,61.407V54.03975a2.24928,2.24928,0,1,0-4.49855,0v7.37537A14.54788,14.54788,0,1,1,50.54165,61.407Z"/>
    <path class="cls-1" d="M79.89021,52.049a2.05723,2.05723,0,0,0,0-4.11323h-2.8371V52.049h2.8371Zm-0.24116-6.2002a1.68039,1.68039,0,0,0,1.7248-1.8266,1.63275,1.63275,0,0,0-1.765-1.765H77.05312v3.59159h2.59594ZM74.42485,40.03H79.6294c2.56754,0,4.4138,1.32288,4.4138,3.672A3.32625,3.32625,0,0,1,82.318,46.75267v0.038A3.34177,3.34177,0,0,1,84.605,50.14155c0,2.85064-2.2674,4.13332-4.91533,4.13332H74.42485V40.03Z"/>
    <rect class="cls-1" x="86.17894" y="44.04222" width="2.5291" height="10.23304"/>
    <rect class="cls-1" x="90.84045" y="40.02991" width="2.54919" height="14.24492"/>
    <path class="cls-1" d="M102.54508,48.91772c0-2.32639-1.16429-2.9485-2.54833-2.9485-1.54656,0-2.388,1.12278-2.388,2.848,0,1.78684.9026,3.11234,2.54745,3.11234,1.22458,0,2.38887-.70338,2.38887-3.01185m2.46706-4.94811v9.68432c0,3.51164-2.72833,4.83626-5.39679,4.83626a8.17082,8.17082,0,0,1-3.63222-.88293l0.78333-2.00747a6.59349,6.59349,0,0,0,2.8288.68328c1.54437,0,2.88909-.66231,2.88909-2.50944V53.2922c0-.24029.01923-0.54173,0.01923-0.54173h-0.03932A3.17147,3.17147,0,0,1,99.61535,54.076c-2.93058,0-4.596-2.3692-4.596-5.17834,0-2.80827,1.58632-5.09621,4.53482-5.09621a3.45723,3.45723,0,0,1,3.15078,1.4452h0.04018v-1.277h2.267Z"/>
    <path class="cls-1" d="M113.7044,47.8343a1.98735,1.98735,0,0,0-1.9262-2.06688,2.45105,2.45105,0,0,0-2.5077,2.06688h4.43391Zm-1.9262-4.03284c2.93058,0,4.53481,2.14683,4.53481,4.85549,0,0.30188-.06072.94366-0.06072,0.94366h-7.06261a2.9416,2.9416,0,0,0,3.07,2.748,4.65678,4.65678,0,0,0,2.86987-1.14288l1.06336,1.76674a6.2287,6.2287,0,0,1-4.11366,1.54393,5.24247,5.24247,0,0,1-5.49771-5.35746,5.04739,5.04739,0,0,1,5.1967-5.35746"/>
    <path class="cls-1" d="M125.52122,48.45795l-1.78509-5.52654h-0.04108L121.91,48.45795h3.61126Zm1.97383,5.81706-1.37225-3.65144h-4.81486L120.0493,54.275h-2.96206l5.264-14.24492h2.74842L130.23822,54.275h-2.74317Z"/>
    <path class="cls-1" d="M138.04181,49.13948c0-1.58544-.82264-3.15034-2.52953-3.15034-1.40326,0-2.56667,1.14244-2.56667,3.17,0,1.9463,1.0223,3.20976,2.52735,3.20976,1.32549,0,2.56884-.962,2.56884-3.22942m0.09962,5.13553V53.19679h-0.03889a3.70646,3.70646,0,0,1-3.19054,1.31938c-2.76982,0-4.55491-2.187-4.55491-5.357,0-3.25082,1.94543-5.3579,4.65584-5.3579,2.22547,0,2.94806,1.12715,2.94806,1.12715l0.021-4.8983h2.54745V54.275h-2.388Z"/>
    <path class="cls-1" d="M166.14813,54.275V48.34785c0-1.16254-.37224-2.11407-1.65971-2.11407-1.8148,0-2.35391,1.53607-2.35391,2.80565V54.275h-2.5479V48.06956c0-1.104-.39974-1.94062-1.73179-1.94062A2.22018,2.22018,0,0,0,155.573,48.613v5.662h-2.52822V44.19225h2.42861V45.1962a3.98318,3.98318,0,0,1,3.35-1.395,2.84024,2.84024,0,0,1,2.9175,1.96858c0.68327-1.3718,1.97905-1.85325,3.60469-1.85325,1.50767,0,3.3522,1.24511,3.3522,3.9328V54.275h-2.54963Z"/>
    <path class="cls-1" d="M89.08647,41.21123a1.64245,1.64245,0,1,1-1.64311-1.6431,1.64217,1.64217,0,0,1,1.64311,1.6431"/>
    <path class="cls-1" d="M148.52913,50.07178a2.295,2.295,0,0,1-2.3277,2.45789,1.364,1.364,0,0,1-1.54525-1.32418c0-1.4251,2.10707-1.77942,3.43039-1.77942h0.44256v0.64571Zm2.50857,4.20322V47.873c0-2.28488-1.004-4.07172-4.416-4.07172a6.911,6.911,0,0,0-3.70126,1.19749l1.09089,1.74315a4.61946,4.61946,0,0,1,2.59244-.97468c1.30277,0,1.88514.36829,1.88514,1.83228v0.08126h-0.3211c-1.66627,0-6.07919.43557-6.07919,3.64664a3.23121,3.23121,0,0,0,3.49023,3.18879,3.44562,3.44562,0,0,0,3.08963-1.37311v1.132h2.3692Z"/>
    <g>
      <path class="cls-4" d="M107.38736,61.50359h2.02292a3.81641,3.81641,0,0,1,2.0621.42614,1.50444,1.50444,0,0,1,.63675,1.347,1.55887,1.55887,0,0,1-.35489,1.05087,1.71158,1.71158,0,0,1-1.03617.53612v0.049a1.65864,1.65864,0,0,1,1.63107,1.71434,1.84132,1.84132,0,0,1-.64922,1.49882,2.76068,2.76068,0,0,1-1.81453.53879h-2.498v-7.161ZM108.22,64.5698h1.37147a2.22963,2.22963,0,0,0,1.26861-.277,1.06806,1.06806,0,0,0,.387-0.93287,0.94507,0.94507,0,0,0-.431-0.86964,2.69647,2.69647,0,0,0-1.37147-.26672H108.22V64.5698Zm0,0.70533v2.67926H109.714a2.13026,2.13026,0,0,0,1.30557-.3353,1.23972,1.23972,0,0,0,.43816-1.05087,1.11353,1.11353,0,0,0-.448-0.97962,2.39875,2.39875,0,0,0-1.36435-.31348H108.22Z"/>
      <path class="cls-4" d="M113.69612,61.84156a0.54166,0.54166,0,0,1,.13715-0.40921,0.508,0.508,0,0,1,.68084.00267,0.52949,0.52949,0,0,1,.142.40654,0.53859,0.53859,0,0,1-.142.40921,0.47589,0.47589,0,0,1-.338.13448,0.47042,0.47042,0,0,1-.34287-0.13448A0.55123,0.55123,0,0,1,113.69612,61.84156Zm0.88166,6.82306h-0.81309V63.29629h0.81309v5.36833Z"/>
      <path class="cls-4" d="M117.115,68.66462h-0.81309V61.04316H117.115v7.62145Z"/>
      <path class="cls-4" d="M118.77056,61.84156a0.54166,0.54166,0,0,1,.13715-0.40921,0.508,0.508,0,0,1,.68084.00267,0.52949,0.52949,0,0,1,.142.40654,0.53859,0.53859,0,0,1-.142.40921,0.47589,0.47589,0,0,1-.338.13448,0.47042,0.47042,0,0,1-.34287-0.13448A0.55123,0.55123,0,0,1,118.77056,61.84156Zm0.88166,6.82306h-0.81309V63.29629h0.81309v5.36833Z"/>
      <path class="cls-4" d="M126.09323,61.84156a0.54166,0.54166,0,0,1,.13715-0.40921,0.508,0.508,0,0,1,.68084.00267,0.52949,0.52949,0,0,1,.142.40654,0.53859,0.53859,0,0,1-.142.40921,0.47589,0.47589,0,0,1-.338.13448,0.47042,0.47042,0,0,1-.34287-0.13448A0.55123,0.55123,0,0,1,126.09323,61.84156Zm0.88166,6.82306H126.1618V63.29629h0.81309v5.36833Z"/>
      <path class="cls-4" d="M135.54168,68.66462V65.17227a1.44763,1.44763,0,0,0-.27429-0.96226,1.06049,1.06049,0,0,0-.85227-0.321,1.37553,1.37553,0,0,0-1.12167.43593A2.07089,2.07089,0,0,0,132.931,65.667v2.99764H132.1179V65.17227a1.44763,1.44763,0,0,0-.27429-0.96226,1.06653,1.06653,0,0,0-.85717-0.321,1.32652,1.32652,0,0,0-1.119.4582,2.476,2.476,0,0,0-.35534,1.501v2.81641H128.699V63.29629h0.66124l0.13225,0.73472h0.03918a1.59576,1.59576,0,0,1,.64922-0.61226,1.981,1.981,0,0,1,.93776-0.22041,1.59462,1.59462,0,0,1,1.64576.911h0.03918a1.71088,1.71088,0,0,1,.69553-0.66614,2.15606,2.15606,0,0,1,1.0384-.24491,1.81934,1.81934,0,0,1,1.36435.46755,2.09442,2.09442,0,0,1,.45285,1.49659v3.50215h-0.81309Z"/>
      <path class="cls-4" d="M143.90765,64.91267h2.43391v3.48255a7.81151,7.81151,0,0,1-1.15551.27429,8.81761,8.81761,0,0,1-1.36167.09306,3.30068,3.30068,0,0,1-2.53232-.96715,3.81283,3.81283,0,0,1-.90615-2.71132,4.09236,4.09236,0,0,1,.4484-1.957,3.03136,3.03136,0,0,1,1.29043-1.2833,4.18408,4.18408,0,0,1,1.97394-.44306,5.39508,5.39508,0,0,1,2.136.42124l-0.32417.73472a4.76714,4.76714,0,0,0-1.86573-.41144,2.6722,2.6722,0,0,0-2.04251.7788,3.0226,3.0226,0,0,0-.73472,2.16007,3.09,3.09,0,0,0,.70755,2.19925,2.7265,2.7265,0,0,0,2.07947.74941,6.1682,6.1682,0,0,0,1.45474-.17143V65.65718h-1.60168V64.91267Z"/>
      <path class="cls-4" d="M150.38829,63.19833a3.177,3.177,0,0,1,.64121.05878l-0.11221.75431a2.77873,2.77873,0,0,0-.58777-0.07347,1.431,1.431,0,0,0-1.115.529,1.931,1.931,0,0,0-.46309,1.31759v2.88009h-0.8122V63.29629h0.6706l0.09351,0.99432h0.03918a2.34413,2.34413,0,0,1,.71958-0.80819A1.624,1.624,0,0,1,150.38829,63.19833Z"/>
      <path class="cls-4" d="M152.79816,63.29629v3.48255a1.40368,1.40368,0,0,0,.29834.97962,1.217,1.217,0,0,0,.936.32328,1.52337,1.52337,0,0,0,1.23076-.46042,2.31939,2.31939,0,0,0,.39007-1.50372V63.29629h0.81309v5.36833h-0.6706l-0.11755-.72h-0.04453a1.61819,1.61819,0,0,1-.69286.60737,2.33124,2.33124,0,0,1-1.01168.21062,2.054,2.054,0,0,1-1.46765-.46532,1.98363,1.98363,0,0,1-.48625-1.489V63.29629h0.82288Z"/>
      <path class="cls-4" d="M160.68856,63.20813a1.99584,1.99584,0,0,1,1.64309.72225,3.8716,3.8716,0,0,1-.00445,4.10016,1.98925,1.98925,0,0,1-1.63864.732,2.32635,2.32635,0,0,1-.95736-0.19325,1.8015,1.8015,0,0,1-.72759-0.59534h-0.05878l-0.171.69063h-0.58332V61.04316h0.81309v1.85148q0,0.62184-.03918,1.11677h0.03918A1.93048,1.93048,0,0,1,160.68856,63.20813ZM160.571,63.889a1.4198,1.4198,0,0,0-1.20048.47779,3.68393,3.68393,0,0,0,.01069,3.22741,1.432,1.432,0,0,0,1.20939.48758,1.25391,1.25391,0,0,0,1.11677-.54636,2.80534,2.80534,0,0,0,.36691-1.56962,2.69813,2.69813,0,0,0-.36691-1.5625A1.30151,1.30151,0,0,0,160.571,63.889Z"/>
      <path class="cls-4" d="M165.1022,63.29629v3.48255a1.40368,1.40368,0,0,0,.29834.97962,1.217,1.217,0,0,0,.936.32328,1.52337,1.52337,0,0,0,1.23076-.46042,2.31939,2.31939,0,0,0,.39007-1.50372V63.29629h0.81309v5.36833h-0.6706l-0.11755-.72h-0.04453a1.61819,1.61819,0,0,1-.69286.60737,2.33124,2.33124,0,0,1-1.01168.21062,2.054,2.054,0,0,1-1.46765-.46532,1.98363,1.98363,0,0,1-.48625-1.489V63.29629h0.82288Z"/>
      <path class="cls-4" d="M124.504,66.31353a3.51954,3.51954,0,0,0-1.29088-.70043,8.01061,8.01061,0,0,1-.94043-0.39675,1.08,1.08,0,0,1-.35489-0.289,0.605,0.605,0,0,1-.11043-0.36736,0.56,0.56,0,0,1,.29389-0.49961,1.68684,1.68684,0,0,1,.87187-0.18123,3.88663,3.88663,0,0,1,1.46454.33308l0.289-.66125a4.28479,4.28479,0,0,0-1.69476-.35267,2.48876,2.48876,0,0,0-1.46452.37939,1.20536,1.20536,0,0,0-.5339,1.03617,1.237,1.237,0,0,0,.15407.63185,1.46607,1.46607,0,0,0,.47022.4729,5.79118,5.79118,0,0,0,1.06555.48713,4.27876,4.27876,0,0,1,1.06022.52633,0.69965,0.69965,0,0,1-.0708,1.15594,1.93486,1.93486,0,0,1-.97962.2035,3.45632,3.45632,0,0,1-.8545-0.11265,5.68183,5.68183,0,0,1-.99623-0.30858v0.7543a3.42958,3.42958,0,0,0,1.32381.31824V70h0.77871V68.74812a2.42841,2.42841,0,0,0,1.296-.39208,1.3449,1.3449,0,0,0,.55839-1.156A1.23589,1.23589,0,0,0,124.504,66.31353Z"/>
    </g>
  </g>
</svg>
