<svg id="Warstwa_1" data-name="Warstwa 1" xmlns="http://www.w3.org/2000/svg" width="200" height="100" viewBox="0 0 200 100">
  <defs>
    <style>
      .cls-1 {
        fill: #e30613;
      }
    </style>
  </defs>
  <title>computrain</title>
  <g>
    <g>
      <path class="cls-1" d="M57.17442,52.7297l-17.126.86612-0.07651.40256h8.041a20.0003,20.0003,0,0,0,38.33279,2.99867l6.67571,0.11278,0.19914-1.05H54.75447V56.0606l-0.07611.40256,28.09227,0.47361a16.67576,16.67576,0,0,1-15.16579,9.737h0A16.69609,16.69609,0,0,1,51.42473,53.99839H72.187s2.31081-.14447,1.10043-1.45489c-1.10162-1.193-3.04927-3.188-8.31606-3.188-0.33859,0-1.48369.07592-3.17926,0.20492L27.89362,52.552l-0.07651.40331,28.299-.931s1.35639-.07034,1.317.50221a0.2362,0.2362,0,0,1-.25864.20322"/>
      <path class="cls-1" d="M63.30809,46.37577c8.86966-1.11626,11.56138,3.15284,12.77524,4.78159,1.74079,2.33648.68225,2.841,0.68225,2.841,2.61059,0,5.64692.28744,2.48158-6.58318a8.94561,8.94561,0,0,0-10.25639-5.40549L28.97222,50.3022l-0.07631.40315Z"/>
      <path class="cls-1" d="M67.60483,33.32666a16.683,16.683,0,0,1,16.19,20.67173h3.41009a20.00388,20.00388,0,0,0-38.77883-9.68364l3.90712-1.01411a16.67618,16.67618,0,0,1,15.27166-9.974"/>
    </g>
    <g>
      <path class="cls-1" d="M95.85066,48.03554a2.9365,2.9365,0,0,0-1.22382-.23821,1.8501,1.8501,0,0,0-1.07255.31,2.64182,2.64182,0,0,0-.7547.79444,3.657,3.657,0,0,0-.4453,1.07255,4.8395,4.8395,0,0,0-.14281,1.14414,2.20921,2.20921,0,0,0,.06372.5405,1.05206,1.05206,0,0,0,.23035.4453,1.16915,1.16915,0,0,0,.42918.30174,1.752,1.752,0,0,0,.67522.11132,3.61623,3.61623,0,0,0,1.47756-.3017l-0.17426,1.76353a6.03334,6.03334,0,0,1-.8983.23031,5.57514,5.57514,0,0,1-.99272.08754,4.24121,4.24121,0,0,1-1.35511-.19041,2.29167,2.29167,0,0,1-.91285-0.549,2.11319,2.11319,0,0,1-.51212-0.866,3.74211,3.74211,0,0,1-.16007-1.12786,6.79106,6.79106,0,0,1,.32823-2.12954A5.3983,5.3983,0,0,1,91.347,47.686a4.41444,4.41444,0,0,1,1.46719-1.17582,4.28041,4.28041,0,0,1,1.94015-.429,5.829,5.829,0,0,1,.81842.05527,6.815,6.815,0,0,1,.7547.15126Z"/>
      <path class="cls-1" d="M104.35209,48.95742a5.85715,5.85715,0,0,1-.39695,2.20863,5.33319,5.33319,0,0,1-1.05719,1.68448,4.5515,4.5515,0,0,1-1.52556,1.07255A4.47462,4.47462,0,0,1,99.585,54.297a3.17006,3.17006,0,0,1-2.36776-.747,2.88806,2.88806,0,0,1-.71555-2.08218,6.06654,6.06654,0,0,1,.38963-2.23226,5.36755,5.36755,0,0,1,1.04068-1.7004,4.46621,4.46621,0,0,1,3.32136-1.45393,4.19614,4.19614,0,0,1,1.43031.21439,2.53817,2.53817,0,0,1,.96127.596,2.2477,2.2477,0,0,1,.5405.91382A3.82986,3.82986,0,0,1,104.35209,48.95742Zm-2.09755.26546a1.57152,1.57152,0,0,0-.3017-1.03765,1.25,1.25,0,0,0-1.002-.35622,1.70952,1.70952,0,0,0-.99272.30115,2.75436,2.75436,0,0,0-.74664.776,3.66961,3.66961,0,0,0-.46872,1.0691,4.54993,4.54993,0,0,0-.15889,1.18007,1.63584,1.63584,0,0,0,.286,1.0211,1.1671,1.1671,0,0,0,.98541.37238,1.83544,1.83544,0,0,0,.96894-0.26947,2.499,2.499,0,0,0,.76315-0.72785,3.65372,3.65372,0,0,0,.49211-1.06143A4.51623,4.51623,0,0,0,102.25455,49.22288Z"/>
      <path class="cls-1" d="M116.92262,54.13807h-1.98618l0.93741-4.94594a2.24946,2.24946,0,0,0,.03149-1.05392,0.4563,0.4563,0,0,0-.47678-0.32517,1.24034,1.24034,0,0,0-.77852.38044,4.95808,4.95808,0,0,0-.83454.99865,8.63381,8.63381,0,0,0-.73092,1.39525,7.538,7.538,0,0,0-.46908,1.553l-0.38083,1.99774h-1.987l0.95357-4.94594a2.22934,2.22934,0,0,0,.03149-1.05392,0.45486,0.45486,0,0,0-.476-0.32517,1.23114,1.23114,0,0,0-.77927.38849,5.19961,5.19961,0,0,0-.83379,1.00655,8.70693,8.70693,0,0,0-.73088,1.387,7.374,7.374,0,0,0-.46912,1.54529l-0.38158,1.99774h-1.98618l1.19154-6.27742,0.01612-.0476q-0.27064-.04747-0.62726-0.08731-0.35814-.03945-0.70788-0.07162l0.2388-1.271q0.76235-.09558,1.63684-0.13511,0.87408-.03974,1.66837-0.00806a10.70574,10.70574,0,0,1-.30174,1.2215q-0.19116.61759-.41306,1.22594l0.03149,0.01572a8.57075,8.57075,0,0,1,.61188-1.00923,4.82707,4.82707,0,0,1,.747-0.842,3.44061,3.44061,0,0,1,.88984-0.57215,2.53562,2.53562,0,0,1,1.04107-.21459,1.66561,1.66561,0,0,1,1.15165.38944,1.4645,1.4645,0,0,1,.43763,1.152,2.6305,2.6305,0,0,1-.04838.4927,5.51034,5.51034,0,0,1-.175.65163H112.981a8.31747,8.31747,0,0,1,.61264-1.033,4.73241,4.73241,0,0,1,.754-0.85816,3.4738,3.4738,0,0,1,.8983-0.58,2.53813,2.53813,0,0,1,1.04107-.21459,2.06919,2.06919,0,0,1,.94511.19077,1.34358,1.34358,0,0,1,.572.54031,2.00187,2.00187,0,0,1,.23876.83438,3.88916,3.88916,0,0,1-.07217,1.05663Z"/>
      <path class="cls-1" d="M127.474,48.52824a7.66375,7.66375,0,0,1-.30174,2.161,5.418,5.418,0,0,1-.92974,1.83575,4.57483,4.57483,0,0,1-1.58082,1.27909,4.99155,4.99155,0,0,1-2.25643.47678c-0.14894,0-.28947-0.00539-0.42151-0.01537-0.13283-.01152-0.27792-0.02689-0.43684-0.04839l-0.71555,3.75054h-1.98622L120.7837,47.829V47.79732q-0.26952-.04752-0.628-0.08735-0.357-.03945-0.7071-0.07158l0.23876-1.27142q0.7624-.09529,1.63688-0.13511,0.8729-.03915,1.66833-0.00786-0.09446.46092-.25413,1.01709-0.15892.55621-.46067,1.47772l0.03149,0.016a6.87638,6.87638,0,0,1,.64416-1.07255,4.93973,4.93973,0,0,1,.77852-0.84244,3.46051,3.46051,0,0,1,.88981-0.55607,2.51893,2.51893,0,0,1,.9935-0.19863,1.66545,1.66545,0,0,1,1.382.596A2.977,2.977,0,0,1,127.474,48.52824Zm-2.04994.38138a1.73739,1.73739,0,0,0-.15123-0.842,0.48083,0.48083,0,0,0-.43684-0.25453,1.31749,1.31749,0,0,0-.88218.42918,5.3151,5.3151,0,0,0-.84991,1.07275,9.47528,9.47528,0,0,0-.69864,1.37429,7.46654,7.46654,0,0,0-.42918,1.35126l-0.096.50827a3.46459,3.46459,0,0,0,.43688.10366,2.70176,2.70176,0,0,0,.453.03915,1.98471,1.98471,0,0,0,1.18388-.357,2.93069,2.93069,0,0,0,.82687-0.91363,4.46675,4.46675,0,0,0,.48449-1.22421A5.55075,5.55075,0,0,0,125.424,48.90962Z"/>
      <path class="cls-1" d="M128.82443,46.367q0.77856-.09529,1.66911-0.13511,0.88906-.03915,1.69985-0.00786l-0.93744,4.97353a2.134,2.134,0,0,0-.02383,1.04952,0.48035,0.48035,0,0,0,.5006.31711,1.2843,1.2843,0,0,0,.84224-0.41306,5.043,5.043,0,0,0,.84221-1.05644,9.58346,9.58346,0,0,0,.70713-1.39827,7.29007,7.29007,0,0,0,.43759-1.45417l0.38083-2.0023h1.98618l-1.20766,6.34036c0.18039,0.03223.38924,0.0614,0.628,0.0875,0.23876,0.02689.46833,0.05067,0.691,0.07143l-0.238,1.27142q-0.76358.09558-1.62151,0.13511-0.858.03915-1.65225,0.00845,0.06339-.36623.215-0.9459,0.14972-.57926.4837-1.51706l-0.03149-.01612a8.46966,8.46966,0,0,1-.61189,1.00883,4.4769,4.4769,0,0,1-.7624.8422,3.73152,3.73152,0,0,1-.906.572,2.53479,2.53479,0,0,1-1.04107.2142,1.5732,1.5732,0,0,1-1.53322-.73013,2.83191,2.83191,0,0,1-.16659-1.891L129.9208,47.829V47.79732q-0.27064-.04752-0.62726-0.08735c-0.238-.0263-0.47446-0.05028-0.70709-0.07158Z"/>
      <path class="cls-1" d="M143.41267,47.829h-1.85953l-0.66719,3.54818a1.824,1.824,0,0,0-.00846.95816,0.62184,0.62184,0,0,0,.61268.24494,3.897,3.897,0,0,0,.53209-0.03149c0.15354-.0215.304-0.0476,0.453-0.07909l-0.19042,1.62076a8.01446,8.01446,0,0,1-.82687.15122,6.23406,6.23406,0,0,1-.79464.05531,1.85523,1.85523,0,0,1-1.68444-.63418,2.9792,2.9792,0,0,1-.12744-2.06067L139.567,47.829h-1.35051l0.31785-1.58908h1.33514l0.45989-2.43152,2.06605-.413-0.53976,2.84454h1.8749Z"/>
      <path class="cls-1" d="M149.8649,48.06757a1.13779,1.13779,0,0,0-1.01729.10307,3.02762,3.02762,0,0,0-.92208.92974,7.53011,7.53011,0,0,0-.76237,1.50193,10.06112,10.06112,0,0,0-.50827,1.819L146.337,54.13807h-1.987l1.20849-6.30907V47.79732q-0.27064-.04752-0.628-0.08735-0.35815-.03945-0.7071-0.07158l0.238-1.27142q0.76358-.09529,1.62921-0.13511,0.866-.03915,1.64454-0.00786a10.24141,10.24141,0,0,1-.2388,1.02515q-0.15773.564-.42839,1.37449h0.03149q0.31782-.63516.64338-1.15223a4.04007,4.04007,0,0,1,.7071-0.85816,2.27968,2.27968,0,0,1,.83458-0.48464,2.01212,2.01212,0,0,1,1.00958-.03168Z"/>
      <path class="cls-1" d="M156.79317,52.58029c0.18043,0.03223.38928,0.0614,0.628,0.0875q0.357,0.04033.691,0.07143l-0.238,1.27142q-0.76352.09558-1.62151,0.13511-0.85793.03915-1.65221,0.00845,0.09446-.47678.27025-1.08867,0.17388-.61152.44455-1.4388h-0.03148q-0.2384.42955-.56433,0.906a5.56256,5.56256,0,0,1-.73933.87448,3.76678,3.76678,0,0,1-.91363.65108,2.36509,2.36509,0,0,1-1.08871.2541,1.666,1.666,0,0,1-1.382-.595,2.97957,2.97957,0,0,1-.47678-1.868,7.69325,7.69325,0,0,1,.30174-2.153,5.39863,5.39863,0,0,1,.92974-1.84341,4.58033,4.58033,0,0,1,1.58082-1.27948,4.99527,4.99527,0,0,1,2.25722-.47659q0.71517,0,1.4219.05566a12.67705,12.67705,0,0,1,1.375.18275Zm-1.06489-4.783q-0.19-.04752-0.40536-0.07944a3.33478,3.33478,0,0,0-.48445-0.03188,1.98544,1.98544,0,0,0-1.18388.3576,3.00962,3.00962,0,0,0-.83458.91382,4.31287,4.31287,0,0,0-.49211,1.22362,5.5506,5.5506,0,0,0-.15893,1.28675,1.72588,1.72588,0,0,0,.15122.84224,0.491,0.491,0,0,0,.45221.25413,1.31486,1.31486,0,0,0,.88218-0.42843,5.34212,5.34212,0,0,0,.85065-1.07255,9.268,9.268,0,0,0,.69868-1.3908,7.9451,7.9451,0,0,0,.42918-1.36659Z"/>
      <path class="cls-1" d="M161.65616,54.13807h-1.987l1.2077-6.30907V47.79732c-0.17964-.03168-0.38924-0.061-0.62726-0.08735q-0.35815-.03945-0.70709-0.07158l0.238-1.27142q0.76358-.09529,1.64455-0.13511,0.88215-.03915,1.74053-0.00786Zm2.19272-10.26591a1.26613,1.26613,0,0,1-.40536.97715,1.33113,1.33113,0,0,1-.92974.37352,1.1084,1.1084,0,0,1-.84991-0.34954,1.13389,1.13389,0,0,1-.32631-0.79464,1.2298,1.2298,0,0,1,.40536-0.94547,1.33425,1.33425,0,0,1,.92978-0.37352,1.12163,1.12163,0,0,1,.85065.34183A1.09068,1.09068,0,0,1,163.84888,43.87217Z"/>
      <path class="cls-1" d="M171.06355,54.13807h-1.987l0.95357-4.9582a2.20718,2.20718,0,0,0,.00841-1.049,0.46968,0.46968,0,0,0-.4852-0.31786,1.28082,1.28082,0,0,0-.84149.41326,5.2498,5.2498,0,0,0-.85065,1.05663,9.03712,9.03712,0,0,0-.71555,1.40633,7.55484,7.55484,0,0,0-.43688,1.44647l-0.38158,2.00234H164.341l1.20769-6.30907V47.79732q-0.27064-.04752-0.62726-0.08735-0.35821-.03945-0.70714-0.07158l0.238-1.27142q0.76352-.09529,1.63688-0.13511,0.87408-.03915,1.66911-0.00786-0.08066.36593-.2311,0.94547-0.15089.58015-.48448,1.51769l0.03227,0.01592a8.55968,8.55968,0,0,1,.61114-1.00923,4.49485,4.49485,0,0,1,.76315-0.842,3.69153,3.69153,0,0,1,.906-0.57215,2.53461,2.53461,0,0,1,1.04028-.21459,2.12058,2.12058,0,0,1,.95357.19077,1.3891,1.3891,0,0,1,.58811.54031,1.85415,1.85415,0,0,1,.23876.83438,4.14,4.14,0,0,1-.07984,1.05663Z"/>
    </g>
  </g>
</svg>
