<svg id="Warstwa_1" data-name="Warstwa 1" xmlns="http://www.w3.org/2000/svg" width="200" height="100" viewBox="0 0 200 100">
  <defs>
    <style>
      .cls-1 {
        fill: #31aa47;
      }
    </style>
  </defs>
  <title>digicomp</title>
  <g>
    <polygon class="cls-1" points="149.293 39.771 145.185 50.401 141.108 39.771 135.967 39.771 132.178 59.509 137.45 59.501 139.515 48.085 143.761 59.509 146.196 59.509 150.752 48.326 152.316 59.509 157.451 59.509 154.682 39.771 149.293 39.771"/>
    <rect class="cls-1" x="82.02066" y="39.77146" width="5.13167" height="19.73708"/>
    <rect class="cls-1" x="50.30988" y="39.77146" width="5.13146" height="19.73708"/>
    <path class="cls-1" d="M35.57257,39.77146H27.60169v4.408h7.97088c3.89324,0,5.78966,2.44423,5.78966,5.46055,0,3.01541-1.89642,5.46057-5.78966,5.46057H34.707V46.15268H29.57552V59.50854h5.99706c7.20444,0,11.11878-4.41887,11.11878-9.86855C46.69135,44.18986,42.77748,39.77146,35.57257,39.77146Z"/>
    <path class="cls-1" d="M169.709,39.77146h-8.311V59.50854h5.13144V44.17944h2.456a2.17113,2.17113,0,0,1,0,4.34225h-0.4821v4.408H169.709A6.5791,6.5791,0,1,0,169.709,39.77146Z"/>
    <path class="cls-1" d="M90.772,49.64a10.20325,10.20325,0,0,0,10.39483,10,11.80847,11.80847,0,0,0,4.76067-.93156v-4.893a8.67617,8.67617,0,0,1-4.56346,1.08794,5.26337,5.26337,0,0,1,0-10.52675,8.21811,8.21811,0,0,1,4.56346,1.32185V40.75106A10.67954,10.67954,0,0,0,101.16683,39.64,10.20325,10.20325,0,0,0,90.772,49.64Z"/>
    <path class="cls-1" d="M69.12583,52.33718h3.9057a3.65407,3.65407,0,0,1-3.9057,3.09293c-3.25749,0-4.86855-2.88349-4.86855-5.79012s1.61106-5.7901,4.86855-5.7901a4.4112,4.4112,0,0,1,4.03672,2.951L77.775,44.89566C76.372,41.76647,73.44473,39.64,69.12583,39.64a9.70937,9.70937,0,0,0-10.06595,10,9.70938,9.70938,0,0,0,10.06595,10c6.267,0,9.60517-4.47689,9.60517-10V48.52122H69.12583v3.816Z"/>
    <path class="cls-1" d="M122.43836,53.99357a5.26337,5.26337,0,1,1,1.39551-1.39572L127.376,56.14a9.73665,9.73665,0,0,0,2.49887-6.5,10.40263,10.40263,0,1,0-10.39439,10,10.60612,10.60612,0,0,0,6.446-2.15822Z"/>
  </g>
</svg>
