<svg id="Warstwa_1" data-name="Warstwa 1" xmlns="http://www.w3.org/2000/svg" width="200" height="100" viewBox="0 0 200 100">
  <defs>
    <style>
      .cls-1 {
        fill: #fbb900;
      }

      .cls-2 {
        fill: #324f81;
      }
    </style>
  </defs>
  <title>edugroupe</title>
  <g>
    <g>
      <circle class="cls-1" cx="66.58353" cy="61.45014" r="5.36406"/>
      <circle class="cls-1" cx="114.33572" cy="27.87604" r="5.37576"/>
      <g>
        <path class="cls-1" d="M66.58353,55.14973A6.27018,6.27018,0,0,1,70.28087,56.35c0.81727-5.1363,4.23071-11.46566,10.90626-16.21278l-0.83-.96126a42.75864,42.75864,0,0,0-14.048,15.98073C66.40023,55.15277,66.49152,55.14973,66.58353,55.14973Z"/>
        <path class="cls-1" d="M101.68367,63.787q-1.29446.73979-2.6798,1.40446c-11.40321,5.4498-22.47652,4.9027-26.95716-.60457a6.29638,6.29638,0,0,1-5.46318,3.16368c-0.18122,0-.36015-0.00941-0.53749-0.02441,5.40329,7.90224,22.15956,7.02249,37.33757-1.94458Z"/>
      </g>
      <path class="cls-1" d="M121.85107,36.31775c-0.97479-1.75764-2.09231-2.38768-3.93263-3.41342a6.173,6.173,0,0,1-9.18863-2.43831c-7.269-.48184-16.74294,1.49891-26.75554,7.65774-0.096.05908-.1915,0.11974-0.28718,0.17978l0.82529,0.94q1.33265-.85111,2.82094-1.61454c12.73436-6.49676,26.3092-5.10125,30.22988,3.26995,2.806,5.99118-2.10493,15.18824-11.61579,21.49411l0.00028,0.00024,1.7475,1.94942c0.33853-.22123.67631-0.44513,1.0124-0.67457C126.40132,50.22362,123.94437,40.09218,121.85107,36.31775Z"/>
    </g>
    <g>
      <path class="cls-2" d="M49.19691,54.70417a0.09739,0.09739,0,0,1-.11006-0.11021V41.38528a0.09728,0.09728,0,0,1,.11006-0.11006h8.24565a0.09728,0.09728,0,0,1,.11006.11006v1.57686a0.09728,0.09728,0,0,1-.11006.11006H50.98472v3.89953H56.4978a0.09728,0.09728,0,0,1,.11006.11006v1.62313a0.09337,0.09337,0,0,1-.11006.10081H50.98472v4.11965h6.45784a0.09728,0.09728,0,0,1,.11006.11006V54.594a0.09739,0.09739,0,0,1-.11006.11021H49.19691Z"/>
      <path class="cls-2" d="M107.68276,45.33985a0.09728,0.09728,0,0,1,.11006-0.11006h1.62007a0.09728,0.09728,0,0,1,.11006.11006V50.8425c0,0.9811.28065,2.20219,1.90828,2.20219a1.892,1.892,0,0,0,1.97553-2.20219V45.33985a0.09728,0.09728,0,0,1,.11006-0.11006h1.61091a0.09728,0.09728,0,0,1,.11006.11006V54.594a0.09739,0.09739,0,0,1-.11006.11021h-1.62333a0.09739,0.09739,0,0,1-.11006-0.11021V53.86022a3.10894,3.10894,0,0,1-2.5777.87324c-1.26693,0-3.13389-.71282-3.13389-3.62269V45.33985Z"/>
      <path class="cls-2" d="M84.03483,49.109a0.11006,0.11006,0,0,1-.11006-0.11006v-1.4856a0.09345,0.09345,0,0,1,.11006-0.10089H88.719a0.09345,0.09345,0,0,1,.11006.10089v2.52189a4.64107,4.64107,0,0,1-4.65626,4.73729A4.544,4.544,0,0,1,79.40776,49.994V46.06365a4.46471,4.46471,0,0,1,4.76505-4.83388,4.91865,4.91865,0,0,1,3.93046,1.82833,0.17264,0.17264,0,0,1,.00542.2436c-0.52334.54591-.81438,0.85415-0.95936,1.00889a0.18186,0.18186,0,0,1-.25541.0099c-0.24273-.2192-0.75085-0.67465-0.965-0.84081a3.08737,3.08737,0,0,0-1.75615-.54682,3.74278,3.74278,0,0,0-1.48672.32285,2.7332,2.7332,0,0,0-.77967.63285,2.44564,2.44564,0,0,0-.30267.4999,3.26356,3.26356,0,0,0-.20178.57335c-0.049.20792-.08255,0.99793-0.10089,1.43211s-0.02759.97842-.02759,1.63264q0,0.99987.02759,1.64636a8.07078,8.07078,0,0,0,.10089,1.11489,3.12721,3.12721,0,0,0,.20633.5641,2.60478,2.60478,0,0,0,.29812.49073,2.767,2.767,0,0,0,2.26639,1.08275c3.3185,0,2.83027-3.81637,2.83027-3.81637H84.03483Z"/>
      <path class="cls-2" d="M91.357,54.65164a0.09354,0.09354,0,0,1-.10089-0.11021V45.40169a0.09342,0.09342,0,0,1,.10089-0.11006h1.61007a0.09348,0.09348,0,0,1,.10089.11006v0.61192a3.45446,3.45446,0,0,1,2.56979-.83052,2.60476,2.60476,0,0,1,2.05752.935,0.101,0.101,0,0,1,.04123.07337,0.11386,0.11386,0,0,1-.02289.08255l-1.12544,1.22917a0.09242,0.09242,0,0,1-.14675.01834,1.714,1.714,0,0,0-1.42951-.7264,2.04359,2.04359,0,0,0-1.926,2.21289v5.53343a0.0936,0.0936,0,0,1-.10089.11021H91.357Z"/>
      <path class="cls-2" d="M134.96293,50.40729c0,0.07337.02241,0.11006-.05,0.11006h-5.8772a2.368,2.368,0,0,0,2.35807,2.59475,3.08419,3.08419,0,0,0,2.2233-1.04549,0.0809,0.0809,0,0,1,.06339-0.032,0.11138,0.11138,0,0,1,.08134.02289l1.16815,1.0109a0.08763,0.08763,0,0,1,.03618.07337,0.13487,0.13487,0,0,1-.02706.08247,5.02038,5.02038,0,0,1-3.59891,1.56736c-1.71858,0-4.0896-.84953-4.0896-4.79232,0-3.67365,1.92184-4.898,3.88993-4.898,2.28931,0,3.82237,1.52706,3.82237,4.476v0.83Zm-1.78914-1.38018c-0.04753-.636-0.46649-2.25722-2.04243-2.25722-1.8124,0-2.03219,1.95145-2.05251,2.25722h4.09494Z"/>
      <g>
        <g>
          <path class="cls-2" d="M72.28581,64.01174a0.037,0.037,0,0,1-.03433-0.01694,0.04263,0.04263,0,0,1-.00343-0.03738l1.79929-4.86128a0.03233,0.03233,0,0,1,.03433-0.02716h0.61464a0.04,0.04,0,0,1,.02235.00854,0.03826,0.03826,0,0,1,.01541.01861L76.53,63.95742a0.04288,0.04288,0,0,1-.00343.03738,0.03386,0.03386,0,0,1-.031.01694H75.70932a0.03223,0.03223,0,0,1-.03433-0.02716l-0.37091-1.07122h-1.813q-0.09612.27463-.19056,0.53736t-0.19056.53385a0.0378,0.0378,0,0,1-.01549.01861,0.03851,0.03851,0,0,1-.02228.00854H72.28581Zm2.77111-1.82721a0.41865,0.41865,0,0,0-.01892-0.051c-0.00809-.018-0.01434-0.03387-0.01892-0.04745q-0.05836-.16592-0.10642-0.30682-0.04817-.14052-0.08582-0.24564c-0.0161-.04531-0.03151-0.08926-0.04638-0.13228q-0.02231-.06431-0.04295-0.12206-0.01716-.05424-0.03433-0.10344l-0.03433-.09658q-0.0309-.09818-0.06347-0.19667-0.03273-.09818-0.067-0.20338-0.01728-.04737-0.03608-0.10512c-0.01259-.0383-0.02571-0.079-0.03944-0.12191l-0.01549-.05264c-0.00343-.01236-0.00748-0.02487-0.01205-0.03723l-0.01541-.04242c-0.00572-.01572-0.0132-0.03845-0.02235-0.06774q-0.03776.11168-.07034,0.20674-0.03273.095-.06011,0.17622a0.28653,0.28653,0,0,0-.0103.03738,0.19117,0.19117,0,0,1-.0103.03387q-0.01728.05767-.03608,0.10848t-0.036.10177q-0.01728.05424-.03441,0.105-0.01716.051-.03433,0.09841-0.03433.10161-.07034,0.2136-0.03616.11168-.08071,0.23389-0.04474.122-.09276,0.26273t-0.12358.35427h1.31861Z"/>
          <path class="cls-2" d="M79.67088,63.39138a0.03215,0.03215,0,0,1,.01381.02716,0.04913,0.04913,0,0,1-.0103.03051,1.99272,1.99272,0,0,1-.25586.24229,1.75289,1.75289,0,0,1-.30042.19163,1.66393,1.66393,0,0,1-.34344.12709,1.57144,1.57144,0,0,1-.38456.04577,1.73323,1.73323,0,0,1-1.11943-.41363,2.15424,2.15424,0,0,1,0-2.76295,1.69082,1.69082,0,0,1,1.11943-.42034,1.57145,1.57145,0,0,1,.38456.04577,1.66393,1.66393,0,0,1,.34344.12709,1.75289,1.75289,0,0,1,.30042.19163,1.99272,1.99272,0,0,1,.25586.24229,0.04944,0.04944,0,0,1,.0103.03051,0.032,0.032,0,0,1-.01381.02716l-0.51844.45421a0.03688,0.03688,0,0,1-.0309.0119,0.02745,0.02745,0,0,1-.024-0.01526,0.86271,0.86271,0,0,0-.67994-0.34573,1.03328,1.03328,0,1,0,.67994,1.712,0.03519,0.03519,0,0,1,.024-0.01358,0.03776,0.03776,0,0,1,.0309.00671Z"/>
          <path class="cls-2" d="M82.75,63.39138a0.03215,0.03215,0,0,1,.01381.02716,0.04913,0.04913,0,0,1-.0103.03051,1.99272,1.99272,0,0,1-.25586.24229,1.75289,1.75289,0,0,1-.30042.19163,1.66393,1.66393,0,0,1-.34344.12709,1.57144,1.57144,0,0,1-.38456.04577,1.73323,1.73323,0,0,1-1.11943-.41363,2.15424,2.15424,0,0,1,0-2.76295,1.69082,1.69082,0,0,1,1.11943-.42034,1.57145,1.57145,0,0,1,.38456.04577,1.66393,1.66393,0,0,1,.34344.12709,1.75289,1.75289,0,0,1,.30042.19163,1.99272,1.99272,0,0,1,.25586.24229,0.04944,0.04944,0,0,1,.0103.03051,0.032,0.032,0,0,1-.01381.02716l-0.51844.45421a0.03688,0.03688,0,0,1-.0309.0119,0.02745,0.02745,0,0,1-.024-0.01526,0.86271,0.86271,0,0,0-.67994-0.34573,1.03328,1.03328,0,1,0,.67994,1.712,0.03519,0.03519,0,0,1,.024-0.01358,0.03776,0.03776,0,0,1,.0309.00671Z"/>
          <path class="cls-2" d="M83.02718,62.25227a2.86706,2.86706,0,0,1,.09269-0.83732,1.30174,1.30174,0,0,1,.29531-0.50517,1.76042,1.76042,0,0,1,.40523-0.30164,1.369,1.369,0,0,1,.6833-0.14922,1.34122,1.34122,0,0,1,.67643.14922,2.2436,2.2436,0,0,1,.23527.14906,1.42873,1.42873,0,0,1,.17683.15257,1.36189,1.36189,0,0,1,.29531.50517,4.02012,4.02012,0,0,1,0,1.68486,1.43709,1.43709,0,0,1-.29531.50517,1.761,1.761,0,0,1-.4121.3085,1.39455,1.39455,0,0,1-.67643.14235,1.42361,1.42361,0,0,1-.6833-0.14235,2.00784,2.00784,0,0,1-.22154-0.14922,2.06852,2.06852,0,0,1-.1837-0.15929,1.30994,1.30994,0,0,1-.29531-0.50517A2.87165,2.87165,0,0,1,83.02718,62.25227Zm2.17012,0.00687a2.48373,2.48373,0,0,0-.03776-0.51539,0.8028,0.8028,0,0,0-.127-0.278,0.58889,0.58889,0,0,0-.22146-0.17622,0.72607,0.72607,0,0,0-.30736-0.061,0.59822,0.59822,0,0,0-.52882.23725,0.99594,0.99594,0,0,0-.08071.134,0.63259,0.63259,0,0,0-.04974.144,2.54162,2.54162,0,0,0-.03433.50853q0,0.18309.00854,0.31522a1.44885,1.44885,0,0,0,.02578.21025,0.67444,0.67444,0,0,0,.13045.27463,0.5963,0.5963,0,0,0,.52882.23389,0.62393,0.62393,0,0,0,.52882-0.23389,0.90424,0.90424,0,0,0,.127-0.27463A2.56574,2.56574,0,0,0,85.1973,62.25913Z"/>
          <path class="cls-2" d="M86.769,64.0151a0.03616,0.03616,0,0,1-.04119-0.04058V60.53689a0.03621,0.03621,0,0,1,.04119-0.04074H87.4695a0.03621,0.03621,0,0,1,.04119.04074v0.27463a1.146,1.146,0,0,1,.879-0.3526,1.16541,1.16541,0,0,1,.59748.13564,2.09228,2.09228,0,0,1,.19918.13381,1.63811,1.63811,0,0,1,.182.16112,1.47555,1.47555,0,0,1,1.10219-.43056,1.29679,1.29679,0,0,1,.81039.31186,1.11041,1.11041,0,0,1,.3915.91879v2.28493a0.03619,0.03619,0,0,1-.04127.04058H90.93077a0.03616,0.03616,0,0,1-.04119-0.04058V61.92683a0.69221,0.69221,0,0,0-.182-0.51524A0.63309,0.63309,0,0,0,90.244,61.2285a0.64621,0.64621,0,0,0-.47389.18309,0.69191,0.69191,0,0,0-.182.51524v2.04768a0.0347,0.0347,0,0,1-.03776.04058H88.8499a0.03467,0.03467,0,0,1-.03776-0.04058V61.92683a0.69124,0.69124,0,0,0-.18545-0.51524,0.63309,0.63309,0,0,0-.46352-0.18309,0.64608,0.64608,0,0,0-.47389.18309,0.69261,0.69261,0,0,0-.17859.51524v2.04768a0.03616,0.03616,0,0,1-.04119.04058H86.769Z"/>
          <path class="cls-2" d="M92.66041,65.405a0.03475,0.03475,0,0,1-.04119-0.03723V60.53689a0.03621,0.03621,0,0,1,.04119-0.04074h0.70046a0.03621,0.03621,0,0,1,.04119.04074v0.26105a1.20278,1.20278,0,0,1,.85845-0.339,1.16932,1.16932,0,0,1,.29874.03723,1.3119,1.3119,0,0,1,.26273.10009,1.26023,1.26023,0,0,1,.22314.14571,1.332,1.332,0,0,1,.18027.17805,0.9767,0.9767,0,0,1,.12709.21009,1.0932,1.0932,0,0,1,.07552.24076V61.3675a4.70559,4.70559,0,0,1,.05493.89164q0,0.322-.01373.54408a2.40578,2.40578,0,0,1-.04119.34741V63.14726a0.97652,0.97652,0,0,1-.20262.4475h0.00343a1.24124,1.24124,0,0,1-.39654.3323,1.18973,1.18973,0,0,1-.57177.12877,1.10867,1.10867,0,0,1-.46527-0.0949,1.612,1.612,0,0,1-.39318-0.2577v1.66457a0.03475,0.03475,0,0,1-.04119.03723H92.66041ZM94.051,63.28625a0.49118,0.49118,0,0,0,.54942-0.30515,2.52749,2.52749,0,0,0,.09963-0.722,2.59684,2.59684,0,0,0-.09963-0.72213,0.64114,0.64114,0,0,0-1.10219.01007,2.60509,2.60509,0,0,0-.07217.35092,2.69717,2.69717,0,0,0-.024.36114,2.57864,2.57864,0,0,0,.02578.35931,3.04094,3.04094,0,0,0,.07041.3526,0.40456,0.40456,0,0,0,.18538.23389A0.71851,0.71851,0,0,0,94.051,63.28625Z"/>
          <path class="cls-2" d="M98.10887,64.02867a0.03621,0.03621,0,0,1-.04119-0.04074v-0.1898a0.55305,0.55305,0,0,1-.11161.1068,0.58561,0.58561,0,0,1-.13564.07293,1.1538,1.1538,0,0,1-.24892.06774,1.8915,1.8915,0,0,1-.31079.0238,1.27269,1.27269,0,0,1-.89965-0.31873V63.754a0.995,0.995,0,0,1-.3365-0.77629,1.04927,1.04927,0,0,1,.28844-0.74913,1.15135,1.15135,0,0,1,.85159-0.312h0.90308V61.59468q0.00687-.42041-0.6524-0.40356a2.08976,2.08976,0,0,0-.21635.01022,0.79676,0.79676,0,0,0-.17515.03723h0.00343a0.55,0.55,0,0,0-.12358.08315,0.44548,0.44548,0,0,0-.09269.11687,0.03619,0.03619,0,0,1-.06187.01022l-0.53568-.417a0.04252,0.04252,0,0,1-.01716-0.02548,0.03338,0.03338,0,0,1,.00687-0.02868,1.339,1.339,0,0,1,1.17779-.51539,2.43344,2.43344,0,0,1,.58374.05767,1.44679,1.44679,0,0,1,.46016.19316,1.04823,1.04823,0,0,1,.40172.91879v2.356a0.03621,0.03621,0,0,1-.04119.04074H98.10887Zm-0.04119-1.46119H97.29162q-0.55292.01716-.54942,0.3764a0.34849,0.34849,0,0,0,.14082.27112,0.69168,0.69168,0,0,0,.46008.12557,1.16333,1.16333,0,0,0,.58374-0.09841H97.92342a0.53688,0.53688,0,0,0,.14426-0.46108v-0.2136Z"/>
          <path class="cls-2" d="M101.51766,63.71682a1.21806,1.21806,0,0,1-.85838.339,1.18234,1.18234,0,0,1-.5942-0.139,1.80464,1.80464,0,0,1-.20773-0.144,0.95585,0.95585,0,0,1-.1528-0.15089,1.34517,1.34517,0,0,1-.13045-0.20521,1.00808,1.00808,0,0,1-.08247-0.21513,8.084,8.084,0,0,1,0-1.88153,1.12468,1.12468,0,0,1,.21292-0.42385,1.26338,1.26338,0,0,1,.36053-0.29157,1.10627,1.10627,0,0,1,.5942-0.14571,1.23861,1.23861,0,0,1,.85838.34924V60.53689a0.03474,0.03474,0,0,1,.03784-0.04074h0.70367a0.03474,0.03474,0,0,1,.03784.04074v3.35966a1.42411,1.42411,0,0,1-.47023,1.17283,1.678,1.678,0,0,1-1.07839.3764,1.47716,1.47716,0,0,1-.673-0.1628,1.86026,1.86026,0,0,1-.57-0.42705,0.04159,0.04159,0,0,1-.00854-0.03051,0.02756,0.02756,0,0,1,.01541-0.0238l0.546-.4272a0.03833,0.03833,0,0,1,.04806,0,1.21374,1.21374,0,0,0,.2918.21025,0.774,0.774,0,0,0,.364.08819,0.796,0.796,0,0,0,.54255-0.17973,0.65135,0.65135,0,0,0,.213-0.5221V63.71682Zm-1.29809-1.45768q0,0.2.00336,0.33719a1.86647,1.86647,0,0,0,.01373.20521,0.64,0.64,0,0,0,.03967.12709,0.41452,0.41452,0,0,0,.07049.11016,0.50288,0.50288,0,0,0,.08056.08819,0.62761,0.62761,0,0,0,.115.07964,0.674,0.674,0,0,0,.14769.05767,0.70567,0.70567,0,0,0,.18187.022,0.67421,0.67421,0,0,0,.177-0.022,0.68892,0.68892,0,0,0,.14586-0.05767,0.63823,0.63823,0,0,0,.115-0.07964,0.50022,0.50022,0,0,0,.14769-0.2017,0.50993,0.50993,0,0,0,.036-0.12374,1.36416,1.36416,0,0,0,.01892-0.20353q0.005-.13548.00519-0.33886,0-.20346-0.00519-0.339a1.36416,1.36416,0,0,0-.01892-0.20353,0.54751,0.54751,0,0,0-.10314-0.23725h0.00366c-0.02533-.02716-0.05462-0.056-0.08758-0.08651a0.58756,0.58756,0,0,0-.115-0.08132,0.76175,0.76175,0,0,0-.14433-0.05935,0.61179,0.61179,0,0,0-.17515-0.02365,0.66025,0.66025,0,0,0-.18187.02365,0.73273,0.73273,0,0,0-.14769.05935,0.62761,0.62761,0,0,0-.115.07964,0.50833,0.50833,0,0,0-.08056.08819,0.54177,0.54177,0,0,0-.11016.23725,1.86647,1.86647,0,0,0-.01373.20521Q100.21972,62.05911,100.21957,62.25913Z"/>
          <path class="cls-2" d="M103.206,64.0151a0.03616,0.03616,0,0,1-.04119-0.04058V60.53689a0.03621,0.03621,0,0,1,.04119-0.04074h0.70046a0.03621,0.03621,0,0,1,.04119.04074v0.278a1.14082,1.14082,0,0,1,.87913-0.356,1.11915,1.11915,0,0,1,.41195.078,1.59569,1.59569,0,0,1,.39837.23389,1.11062,1.11062,0,0,1,.3915.91879v2.28493a0.03616,0.03616,0,0,1-.04119.04058h-0.70062a0.03616,0.03616,0,0,1-.04119-0.04058V61.92683a0.69161,0.69161,0,0,0-.182-0.51524,0.68691,0.68691,0,0,0-.9339,0,0.69161,0.69161,0,0,0-.182.51524v2.04768a0.03616,0.03616,0,0,1-.04119.04058H103.206Z"/>
          <path class="cls-2" d="M109.65713,62.51668a0.03621,0.03621,0,0,1-.04119.04074h-2.12549a0.77,0.77,0,0,0,.21635.566,0.82614,0.82614,0,0,0,.57352.20353,1.01848,1.01848,0,0,0,.73479-0.31873,0.03111,0.03111,0,0,1,.024-0.0119,0.04322,0.04322,0,0,1,.031.00854l0.50822,0.42705a0.03227,0.03227,0,0,1,.01373.02716,0.04889,0.04889,0,0,1-.01037.03051,1.55631,1.55631,0,0,1-.59915.4356,1.872,1.872,0,0,1-.69192.1306,1.846,1.846,0,0,1-1.061-.34924,1.63217,1.63217,0,0,1-.522-1.43739,1.75836,1.75836,0,0,1,.47725-1.4171,1.58117,1.58117,0,0,1,.9992-0.39318,1.47451,1.47451,0,0,1,1.03017.4034,1.40168,1.40168,0,0,1,.44292,1.08479v0.56956Zm-0.78285-.60678a0.79191,0.79191,0,0,0-.21284-0.53568,0.65812,0.65812,0,0,0-.4774-0.18309,0.6693,0.6693,0,0,0-.491.19,0.617,0.617,0,0,0-.14082.22367,1.0333,1.0333,0,0,0-.06179.30515h1.38384Z"/>
          <path class="cls-2" d="M110.391,64.0151a0.03465,0.03465,0,0,1-.03769-0.04058V60.53689a0.0347,0.0347,0,0,1,.03769-0.04074h0.704a0.0348,0.0348,0,0,1,.03784.04074v0.278a1.14049,1.14049,0,0,1,.879-0.356,1.22519,1.22519,0,0,1,.752.27127,0.0369,0.0369,0,0,1,.01541.027,0.04122,0.04122,0,0,1-.00854.03051l-0.50471.59671a0.035,0.035,0,0,1-.05508.00671,0.74637,0.74637,0,0,0-.43941-0.16264,0.68305,0.68305,0,0,0-.44307.16264,0.63749,0.63749,0,0,0-.1956.51875v2.06462a0.03475,0.03475,0,0,1-.03784.04058h-0.704Z"/>
          <path class="cls-2" d="M114.72942,65.405a0.03475,0.03475,0,0,1-.04119-0.03723V60.53689a0.03621,0.03621,0,0,1,.04119-0.04074h0.70046a0.03621,0.03621,0,0,1,.04119.04074v0.26105a1.2027,1.2027,0,0,1,.85853-0.339,1.16975,1.16975,0,0,1,.29874.03723,1.307,1.307,0,0,1,.26258.10009,1.2581,1.2581,0,0,1,.22321.14571,1.33712,1.33712,0,0,1,.18034.17805,0.97615,0.97615,0,0,1,.12694.21009,1.10174,1.10174,0,0,1,.07568.24076V61.3675a4.71891,4.71891,0,0,1,.05493.89164q0,0.322-.01373.54408a2.45015,2.45015,0,0,1-.04119.34741V63.14726a0.97809,0.97809,0,0,1-.20262.4475h0.00336a1.24207,1.24207,0,0,1-.39654.3323,1.18941,1.18941,0,0,1-.57169.12877,1.10877,1.10877,0,0,1-.46535-0.0949,1.61056,1.61056,0,0,1-.39318-0.2577v1.66457a0.03475,0.03475,0,0,1-.04119.03723h-0.70046Zm1.3907-2.11878a0.49134,0.49134,0,0,0,.54942-0.30515,2.52752,2.52752,0,0,0,.09948-0.722,2.59678,2.59678,0,0,0-.09948-0.72213,0.64128,0.64128,0,0,0-1.10234.01007,2.59288,2.59288,0,0,0-.072.35092,2.67213,2.67213,0,0,0-.02411.36114,2.567,2.567,0,0,0,.02578.35931,3.041,3.041,0,0,0,.07034.3526,0.40451,0.40451,0,0,0,.18553.23389A0.71774,0.71774,0,0,0,116.12012,63.28625Z"/>
          <path class="cls-2" d="M118.16307,62.25227a2.86659,2.86659,0,0,1,.09276-0.83732,1.3,1.3,0,0,1,.29538-0.50517,1.75917,1.75917,0,0,1,.40508-0.30164,1.36947,1.36947,0,0,1,.68337-0.14922,1.34211,1.34211,0,0,1,.67651.14922,2.23253,2.23253,0,0,1,.23512.14906,1.41215,1.41215,0,0,1,.17683.15257,1.361,1.361,0,0,1,.29538.50517,4.02012,4.02012,0,0,1,0,1.68486,1.43614,1.43614,0,0,1-.29538.50517,1.75988,1.75988,0,0,1-.41195.3085,1.39548,1.39548,0,0,1-.67651.14235,1.42415,1.42415,0,0,1-.68337-0.14235,2.00585,2.00585,0,0,1-.22138-0.14922,2.05771,2.05771,0,0,1-.1837-0.15929,1.30822,1.30822,0,0,1-.29538-0.50517A2.87114,2.87114,0,0,1,118.16307,62.25227Zm2.1702,0.00687a2.485,2.485,0,0,0-.03769-0.51539,0.80581,0.80581,0,0,0-.12709-0.278,0.58737,0.58737,0,0,0-.22154-0.17622,0.72571,0.72571,0,0,0-.30728-0.061,0.598,0.598,0,0,0-.52882.23725,1.00394,1.00394,0,0,0-.08071.134,0.62892,0.62892,0,0,0-.04974.144,2.54752,2.54752,0,0,0-.03433.50853q0,0.18309.00854,0.31522a1.44886,1.44886,0,0,0,.02578.21025,0.67542,0.67542,0,0,0,.13045.27463,0.59621,0.59621,0,0,0,.52882.23389,0.62393,0.62393,0,0,0,.52882-0.23389,0.90813,0.90813,0,0,0,.12709-0.27463A2.567,2.567,0,0,0,120.33327,62.25913Z"/>
          <path class="cls-2" d="M121.85107,60.53689a0.03621,0.03621,0,0,1,.04119-0.04074h0.70046a0.03621,0.03621,0,0,1,.04119.04074v2.051a0.69628,0.69628,0,0,0,.182.5186,0.69634,0.69634,0,0,0,.9339,0,0.69628,0.69628,0,0,0,.182-0.5186v-2.051a0.03621,0.03621,0,0,1,.04119-0.04074h0.70062a0.03621,0.03621,0,0,1,.04119.04074v3.43762a0.03616,0.03616,0,0,1-.04119.04058h-0.70062a0.03616,0.03616,0,0,1-.04119-0.04058V63.70324a1.1307,1.1307,0,0,1-.87211.3526,1.30506,1.30506,0,0,1-.81733-0.31186,1.11434,1.11434,0,0,1-.39135-0.92215V60.53689Z"/>
          <path class="cls-2" d="M125.6625,64.0151a0.03465,0.03465,0,0,1-.03769-0.04058V60.53689a0.0347,0.0347,0,0,1,.03769-0.04074h0.704a0.0348,0.0348,0,0,1,.03784.04074v0.278a1.14049,1.14049,0,0,1,.879-0.356,1.22519,1.22519,0,0,1,.752.27127,0.0369,0.0369,0,0,1,.01541.027,0.04122,0.04122,0,0,1-.00854.03051l-0.50471.59671a0.035,0.035,0,0,1-.05508.00671,0.74637,0.74637,0,0,0-.43941-0.16264,0.68306,0.68306,0,0,0-.44307.16264,0.63749,0.63749,0,0,0-.1956.51875v2.06462a0.03475,0.03475,0,0,1-.03784.04058h-0.704Z"/>
          <path class="cls-2" d="M130.08177,64.0151a0.03465,0.03465,0,0,1-.03769-0.04058V60.53689a0.0347,0.0347,0,0,1,.03769-0.04074h0.704a0.0348,0.0348,0,0,1,.03784.04074v0.278a1.14049,1.14049,0,0,1,.879-0.356,1.22519,1.22519,0,0,1,.752.27127,0.0369,0.0369,0,0,1,.01541.027,0.04122,0.04122,0,0,1-.00854.03051l-0.50471.59671a0.035,0.035,0,0,1-.05508.00671,0.74637,0.74637,0,0,0-.43941-0.16264,0.68305,0.68305,0,0,0-.44307.16264,0.63749,0.63749,0,0,0-.1956.51875v2.06462a0.03475,0.03475,0,0,1-.03784.04058h-0.704Z"/>
          <path class="cls-2" d="M135.53794,62.51668a0.03621,0.03621,0,0,1-.04119.04074h-2.12549a0.77,0.77,0,0,0,.21635.566,0.82614,0.82614,0,0,0,.57352.20353,1.01848,1.01848,0,0,0,.73479-0.31873,0.03111,0.03111,0,0,1,.024-0.0119,0.04322,0.04322,0,0,1,.031.00854l0.50822,0.42705a0.03227,0.03227,0,0,1,.01373.02716,0.04889,0.04889,0,0,1-.01037.03051,1.55631,1.55631,0,0,1-.59915.4356,1.872,1.872,0,0,1-.69192.1306,1.846,1.846,0,0,1-1.061-.34924,1.63217,1.63217,0,0,1-.522-1.43739,1.75836,1.75836,0,0,1,.47725-1.4171,1.58117,1.58117,0,0,1,.9992-0.39318,1.47451,1.47451,0,0,1,1.03017.4034,1.40168,1.40168,0,0,1,.44292,1.08479v0.56956Zm-0.78285-.60678a0.79191,0.79191,0,0,0-.21284-0.53568,0.65812,0.65812,0,0,0-.4774-0.18309,0.6693,0.6693,0,0,0-.491.19,0.617,0.617,0,0,0-.14082.22367,1.0333,1.0333,0,0,0-.06179.30515h1.38384Z"/>
          <path class="cls-2" d="M136.27639,60.53689a0.03621,0.03621,0,0,1,.04119-0.04074H137.018a0.03621,0.03621,0,0,1,.04119.04074v2.051a0.69628,0.69628,0,0,0,.182.5186,0.69634,0.69634,0,0,0,.9339,0,0.69628,0.69628,0,0,0,.182-0.5186v-2.051a0.03621,0.03621,0,0,1,.04119-0.04074H139.099a0.03621,0.03621,0,0,1,.04119.04074v3.43762a0.03616,0.03616,0,0,1-.04119.04058h-0.70062a0.03616,0.03616,0,0,1-.04119-0.04058V63.70324a1.1307,1.1307,0,0,1-.87211.3526,1.30506,1.30506,0,0,1-.81733-0.31186,1.11434,1.11434,0,0,1-.39135-0.92215V60.53689Z"/>
          <path class="cls-2" d="M140.16685,62.89979a0.03269,0.03269,0,0,1,.05157-0.00336,1.48812,1.48812,0,0,0,1.07122.43056,0.97772,0.97772,0,0,0,.47389-0.10512,0.38715,0.38715,0,0,0,.12877-0.12542,0.31384,0.31384,0,0,0,.04638-0.16951q0-.26777-0.3915-0.29843l-0.61807-.05752a1.55711,1.55711,0,0,1-.40508-0.09154,1.09226,1.09226,0,0,1-.33658-0.2,0.90711,0.90711,0,0,1-.29538-0.72213,0.9532,0.9532,0,0,1,.38815-0.82374,1.57881,1.57881,0,0,1,.94763-0.27463,2.55569,2.55569,0,0,1,.431.03387,2.187,2.187,0,0,1,.3674.0949,1.758,1.758,0,0,1,.31583.14922,2.49276,2.49276,0,0,1,.28.19667,0.03239,0.03239,0,0,1,.01373.027,0.04889,0.04889,0,0,1-.01037.03051l-0.4327.50181a0.04207,0.04207,0,0,1-.05493.00671,2.26617,2.26617,0,0,0-.41881-0.222,1.31467,1.31467,0,0,0-.49113-0.08651,0.66775,0.66775,0,0,0-.43941.10848,0.34061,0.34061,0,0,0-.11687.26456,0.25442,0.25442,0,0,0,.0859.18294,0.561,0.561,0,0,0,.33658.10177q0.14418,0.01007.29,0.02029,0.146,0.0103.28684,0.02044a1.41583,1.41583,0,0,1,.47557.1068,0.83736,0.83736,0,0,1,.32788.23893,1.122,1.122,0,0,1,.24381.72213,0.92338,0.92338,0,0,1-.43605.817,1.71688,1.71688,0,0,1-.47557.21009,2.15833,2.15833,0,0,1-.57184.07125,2.239,2.239,0,0,1-1.55884-.62387,0.03771,0.03771,0,0,1,0-.06088Z"/>
          <path class="cls-2" d="M143.54222,62.89979a0.03269,0.03269,0,0,1,.05157-0.00336,1.48812,1.48812,0,0,0,1.07122.43056,0.97772,0.97772,0,0,0,.47389-0.10512,0.38714,0.38714,0,0,0,.12877-0.12542,0.31384,0.31384,0,0,0,.04638-0.16951q0-.26777-0.3915-0.29843l-0.61807-.05752a1.55711,1.55711,0,0,1-.40508-0.09154,1.09226,1.09226,0,0,1-.33658-0.2,0.90711,0.90711,0,0,1-.29538-0.72213,0.9532,0.9532,0,0,1,.38815-0.82374,1.57881,1.57881,0,0,1,.94763-0.27463,2.55569,2.55569,0,0,1,.431.03387,2.187,2.187,0,0,1,.3674.0949,1.758,1.758,0,0,1,.31583.14922,2.49275,2.49275,0,0,1,.28.19667,0.03238,0.03238,0,0,1,.01373.027,0.04889,0.04889,0,0,1-.01037.03051l-0.4327.50181a0.04207,0.04207,0,0,1-.05493.00671,2.26617,2.26617,0,0,0-.41881-0.222,1.31467,1.31467,0,0,0-.49113-0.08651,0.66775,0.66775,0,0,0-.43941.10848,0.34061,0.34061,0,0,0-.11687.26456,0.25442,0.25442,0,0,0,.0859.18294,0.561,0.561,0,0,0,.33658.10177q0.14418,0.01007.29,0.02029,0.146,0.0103.28684,0.02044a1.41583,1.41583,0,0,1,.47557.1068,0.83736,0.83736,0,0,1,.32788.23893,1.122,1.122,0,0,1,.24381.72213,0.92338,0.92338,0,0,1-.43605.817,1.71688,1.71688,0,0,1-.47557.21009,2.15833,2.15833,0,0,1-.57184.07125,2.239,2.239,0,0,1-1.55884-.62387,0.03771,0.03771,0,0,1,0-.06088Z"/>
          <path class="cls-2" d="M146.8523,59.88266a0.03621,0.03621,0,0,1-.04119-0.04074V59.1503a0.0361,0.0361,0,0,1,.04119-0.04058h0.70062a0.03465,0.03465,0,0,1,.03769.04058v0.69161a0.03476,0.03476,0,0,1-.03769.04074H146.8523Zm0,4.13244a0.03616,0.03616,0,0,1-.04119-0.04058V60.53689a0.03621,0.03621,0,0,1,.04119-0.04074h0.70062a0.03476,0.03476,0,0,1,.03769.04074v3.43762a0.03471,0.03471,0,0,1-.03769.04058H146.8523Z"/>
          <path class="cls-2" d="M148.52465,64.0151a0.03465,0.03465,0,0,1-.03769-0.04058V60.53689a0.0347,0.0347,0,0,1,.03769-0.04074h0.704a0.0348,0.0348,0,0,1,.03784.04074v0.278a1.14049,1.14049,0,0,1,.879-0.356,1.22519,1.22519,0,0,1,.752.27127,0.0369,0.0369,0,0,1,.01541.027,0.04122,0.04122,0,0,1-.00854.03051l-0.50471.59671a0.035,0.035,0,0,1-.05508.00671,0.74637,0.74637,0,0,0-.43941-0.16264,0.68306,0.68306,0,0,0-.44307.16264,0.63749,0.63749,0,0,0-.1956.51875v2.06462a0.03475,0.03475,0,0,1-.03784.04058h-0.704Z"/>
        </g>
        <path class="cls-2" d="M133.907,59.81152a0.03509,0.03509,0,0,1-.03585-0.01861,0.05068,0.05068,0,0,1,.00168-0.04242l0.29869-.98989a0.0401,0.0401,0,0,1,.03418-0.02029h0.88805a0.04071,0.04071,0,0,1,.03921.0238,0.03483,0.03483,0,0,1-.00847.04394l-0.63.98989-0.01366.00854a0.0412,0.0412,0,0,1-.01709.005H133.907Z"/>
      </g>
      <path class="cls-2" d="M122.25356,45.125a3.81584,3.81584,0,0,0-2.56063.87442V45.418a0.09688,0.09688,0,0,0-.10915-0.11006h-1.54307a0.09688,0.09688,0,0,0-.10916.11006V58.50263a0.0931,0.0931,0,0,0,.10916.101h1.54307a0.09309,0.09309,0,0,0,.10915-0.101V53.86023a3.32178,3.32178,0,0,0,2.58682.9123c1.21393,0,3.23848-.98623,3.23848-4.81976C125.51822,47.06345,124.29748,45.125,122.25356,45.125Zm-0.57123,7.92429c-1.52819,0-1.95782-1.185-1.95782-3.096,0-1.92811.41986-3.10964,1.95782-3.10968s1.95782,1.18156,1.95782,3.10968C123.64014,51.86427,123.21051,53.04928,121.68232,53.04932Z"/>
      <path class="cls-2" d="M101.63656,45.13479l-0.00465.00067-0.00465-.00067c-2.96246,0-3.89011,2.56811-3.89011,4.79963,0,2.46528.9667,4.8381,3.89011,4.8381l0.00465-.00067,0.00465,0.00067c2.9234,0,3.89011-2.37282,3.89011-4.8381C105.52667,47.7029,104.599,45.13479,101.63656,45.13479ZM101.632,53.06426h-0.00017c-1.863,0-2.04761-1.92364-2.04761-3.13976,0-2.14293.6338-3.08145,2.04761-3.08145H101.632c1.41381,0,2.04761.93852,2.04761,3.08145C103.6796,51.14062,103.495,53.06426,101.632,53.06426Z"/>
      <path class="cls-2" d="M69.38571,45.42062a0.09728,0.09728,0,0,1,.11006-0.11006h1.62007a0.09728,0.09728,0,0,1,.11006.11006v5.50265c0,0.9811.28065,2.20219,1.90828,2.20219a1.892,1.892,0,0,0,1.97553-2.20219V45.42062a0.09728,0.09728,0,0,1,.11006-0.11006h1.61091a0.09728,0.09728,0,0,1,.11006.11006v9.25411a0.09739,0.09739,0,0,1-.11006.11021H75.20736a0.09739,0.09739,0,0,1-.11006-0.11021V53.941a3.10894,3.10894,0,0,1-2.5777.87324c-1.26693,0-3.13389-.71282-3.13389-3.62269V45.42062Z"/>
      <path class="cls-2" d="M66.64435,41.27522H65.11984a0.09728,0.09728,0,0,0-.11005.11006v4.66a2.56337,2.56337,0,0,0-2.16132-.91966c-1.565,0-3.61937.77079-3.61937,4.80878,0,2.2114.661,4.79874,3.05664,4.79874a3.38424,3.38424,0,0,0,2.669-.83625v0.697a0.09739,0.09739,0,0,0,.11006.11021h1.57953A0.09738,0.09738,0,0,0,66.7544,54.594V41.38528A0.09728,0.09728,0,0,0,66.64435,41.27522Zm-1.63457,8.668c0,2.32086-.53578,3.11631-2.07016,3.14949-1.53438-.03318-2.07016-0.82863-2.07016-3.14949,0-1.18357-.07709-3.04462,2.07016-3.08157C65.08687,46.89857,65.00978,48.75962,65.00978,49.94319Z"/>
    </g>
  </g>
</svg>
