<svg id="Warstwa_1" data-name="Warstwa 1" xmlns="http://www.w3.org/2000/svg" width="200" height="100" viewBox="0 0 200 100">
  <defs>
    <style>
      .cls-1 {
        fill: #000100;
      }

      .cls-2 {
        fill: #98412c;
      }
    </style>
  </defs>
  <title>etc</title>
  <g>
    <path class="cls-1" d="M130.90492,33.28487L125.7552,37.6831c9.40551,1.65994,15.43276,4.20781,15.43276,7.06838,0,4.30789-13.70762,7.91685-32.06522,8.8304l-0.81181,5.659c23.2369-1.17418,40.84615-7.1879,40.84615-14.48944C149.15708,40.11882,142.035,35.98854,130.90492,33.28487Z"/>
    <path class="cls-1" d="M60.03713,46.98037H70.95627V42.262H60.38772c2.701-2.08373,8.7048-3.86028,16.68877-5.03855l-3.46133-4.91605c-13.68652,2.61865-22.77224,7.211-22.77224,12.444,0,6.54129,14.20937,12.08954,33.87427,14.0184l0.95884-5.227C73.02928,52.516,63.3357,49.96717,60.03713,46.98037Z"/>
    <g>
      <polygon class="cls-1" points="65.164 64.613 67.921 64.613 67.744 65.296 65.752 65.296 65.474 66.472 67.244 66.472 67.067 67.148 65.297 67.148 65.019 68.356 67.048 68.356 66.865 69.039 64.083 69.039 65.164 64.613"/>
      <path class="cls-1" d="M68.37581,65.66918h0.74631l-0.08851.39163a1.16112,1.16112,0,0,1,.87873-0.455,0.80226,0.80226,0,0,1,.84039.885,3.05772,3.05772,0,0,1-.101.63275l-0.455,1.91564H69.43779l0.46828-1.92887a1.56468,1.56468,0,0,0,.05644-0.39163,0.38905,0.38905,0,0,0-.43623-0.43,0.8354,0.8354,0,0,0-.73306.73376l-0.49337,2.01669H67.55352Z"/>
      <path class="cls-1" d="M71.25216,68.4572a1.87739,1.87739,0,0,1,.06339-0.41043l0.41741-1.733H71.35319l0.16445-.64457h0.37281l0.21532-.885h0.7519l-0.21464.885H73.3385l-0.16445.64457H72.48486l-0.42368,1.73862a0.94548,0.94548,0,0,0-.01882.16447,0.21514,0.21514,0,0,0,.25923.20207,0.97519,0.97519,0,0,0,.39859-0.094l-0.15818.64457a1.30431,1.30431,0,0,1-.56931.11356,0.62693,0.62693,0,0,1-.72053-0.62577"/>
      <path class="cls-1" d="M74.03381,67.62293v0.05019a0.69751,0.69751,0,0,0,.67037.82227,1.12319,1.12319,0,0,0,.72053-0.278l0.3289,0.51149a1.72765,1.72765,0,0,1-1.0808.37352,1.2843,1.2843,0,0,1-1.34073-1.42924,2.29968,2.29968,0,0,1,.632-1.5867A1.53845,1.53845,0,0,1,75.077,65.6056a1.13192,1.13192,0,0,1,1.15676,1.23968,2.25408,2.25408,0,0,1-.14493.77765h-2.055Zm0.076-.49337h1.39088A1.05876,1.05876,0,0,0,75.539,66.807a0.51341,0.51341,0,0,0-.51289-0.58745,0.78359,0.78359,0,0,0-.55606.246,1.55951,1.55951,0,0,0-.36027.66405"/>
      <path class="cls-1" d="M77.21392,65.66918h0.74631l-0.14563.607a1.21233,1.21233,0,0,1,1.13794-.66409l-0.20836.78395H78.69959a1.2004,1.2004,0,0,0-1.18881,1.1003L77.138,69.03916H76.39233Z"/>
      <path class="cls-1" d="M79.52809,68.4888l-0.354,1.49819H78.42149l1.05573-4.31763h0.74631l-0.10174.41673a1.23933,1.23933,0,0,1,.91078-0.48014A1.15537,1.15537,0,0,1,82.082,66.95922a2.45618,2.45618,0,0,1-.6383,1.694,1.453,1.453,0,0,1-1.00554.4425,0.97543,0.97543,0,0,1-.91008-0.60693m1.34-.26553a1.74918,1.74918,0,0,0,.44248-1.20136,0.64482,0.64482,0,0,0-.59441-0.77765,0.79893,0.79893,0,0,0-.56863.25294,1.78283,1.78283,0,0,0-.43621,1.18881,0.66539,0.66539,0,0,0,.62575.77144,0.752,0.752,0,0,0,.531-0.23418"/>
      <path class="cls-1" d="M83.11242,65.66918h0.74631l-0.14563.607a1.21233,1.21233,0,0,1,1.13794-.66409l-0.20836.78395H84.59809a1.2004,1.2004,0,0,0-1.18881,1.1003l-0.37281,1.54285H82.29013Z"/>
      <path class="cls-1" d="M85.42,65.66923h0.74633L85.344,69.03916H84.59141Zm0.27178-1.2014h0.79647l-0.1958.7338H85.50219Z"/>
      <path class="cls-1" d="M86.03945,68.48893l0.44875-.455a1.22139,1.22139,0,0,0,.86618.4864,0.40906,0.40906,0,0,0,.44248-0.37284,0.77654,0.77654,0,0,0-.51217-0.563,1.12672,1.12672,0,0,1-.68919-0.95467A1.05885,1.05885,0,0,1,87.753,65.61866a1.62663,1.62663,0,0,1,1.14422.50592l-0.41741.4864a1.11259,1.11259,0,0,0-.76513-0.41673,0.37424,0.37424,0,0,0-.40418.354,0.74159,0.74159,0,0,0,.51219.54356,1.155,1.155,0,0,1,.69544.97972,1.092,1.092,0,0,1-1.18254,1.03063,1.72515,1.72515,0,0,1-1.29612-.61323"/>
      <path class="cls-1" d="M89.78205,67.62293v0.05019a0.69751,0.69751,0,0,0,.67037.82227,1.12319,1.12319,0,0,0,.72053-0.278l0.3289,0.51149a1.72765,1.72765,0,0,1-1.0808.37352,1.2843,1.2843,0,0,1-1.34073-1.42924,2.29712,2.29712,0,0,1,.63275-1.5867,1.53564,1.53564,0,0,1,1.11215-.48082A1.13192,1.13192,0,0,1,91.982,66.84528a2.25408,2.25408,0,0,1-.14493.77765h-2.055Zm0.076-.49337h1.39088a1.081,1.081,0,0,0,.03834-0.3226,0.51328,0.51328,0,0,0-.51219-0.58745,0.78393,0.78393,0,0,0-.55676.246,1.55951,1.55951,0,0,0-.36027.66405"/>
      <polygon class="cls-1" points="95.333 65.321 94.183 65.321 94.372 64.613 97.445 64.613 97.255 65.321 96.105 65.321 95.2 69.039 94.442 69.039 95.333 65.321"/>
      <path class="cls-1" d="M97.39395,65.66918h0.74561l-0.14493.607a1.21233,1.21233,0,0,1,1.13794-.66409l-0.20836.78395H98.87961a1.20085,1.20085,0,0,0-1.18881,1.1003L97.318,69.03916H96.57236Z"/>
      <path class="cls-1" d="M98.772,68.20409a1.21685,1.21685,0,0,1,.34147-0.87871,1.39362,1.39362,0,0,1,.97977-0.36025,2.3854,2.3854,0,0,1,.82854.15818l0.0188-.076a1.645,1.645,0,0,0,.04462-0.33519c0-.25294-0.1582-0.43621-0.58815-0.43621a1.85215,1.85215,0,0,0-.75258.177L99.47376,65.846a2.60247,2.60247,0,0,1,1.04316-.21462,0.98775,0.98775,0,0,1,1.20136.9226,2.52594,2.52594,0,0,1-.09476.61391l-0.4425,1.871h-0.73376L100.549,68.634a1.16016,1.16016,0,0,1-.90451.46828,0.83685,0.83685,0,0,1-.87246-0.89823m1.97905-.37909,0.06339-.27174a1.7122,1.7122,0,0,0-.59441-0.1136,0.69444,0.69444,0,0,0-.51217.18956,0.71645,0.71645,0,0,0-.18954.49962,0.40941,0.40941,0,0,0,.43623.44178,0.90188,0.90188,0,0,0,.7965-0.74563"/>
      <path class="cls-1" d="M102.80584,65.66923h0.74563l-0.82159,3.36993H101.9773Zm0.27178-1.2014h0.79647l-0.1958.7338h-0.79022Z"/>
      <path class="cls-1" d="M104.37995,65.66918h0.74561l-0.08781.39163a1.16087,1.16087,0,0,1,.878-0.455,0.80294,0.80294,0,0,1,.84179.885,3.065,3.065,0,0,1-.10174.63275l-0.455,1.91564h-0.75885l0.46828-1.92887a1.56468,1.56468,0,0,0,.05644-0.39163,0.38875,0.38875,0,0,0-.43623-0.43,0.8354,0.8354,0,0,0-.73306.73376L104.304,69.03916h-0.74633Z"/>
      <path class="cls-1" d="M107.81927,65.66923h0.74563l-0.82159,3.36993h-0.75258Zm0.27178-1.2014h0.79647l-0.1958.7338h-0.79022Z"/>
      <path class="cls-1" d="M109.39332,65.66918h0.74561l-0.08781.39163a1.16087,1.16087,0,0,1,.878-0.455,0.80294,0.80294,0,0,1,.84179.885,3.065,3.065,0,0,1-.10174.63275l-0.455,1.91564H110.4553l0.46828-1.92887a1.56468,1.56468,0,0,0,.05644-0.39163,0.38875,0.38875,0,0,0-.43623-0.43,0.8354,0.8354,0,0,0-.73306.73376l-0.49337,2.01669h-0.74563Z"/>
      <path class="cls-1" d="M111.8207,69.545l0.37281-.52476a1.84768,1.84768,0,0,0,1.04945.37909,0.85716,0.85716,0,0,0,.62645-0.24039,1.29247,1.29247,0,0,0,.29058-0.58188l0.06969-.278a1.28872,1.28872,0,0,1-.96722.49337,1.04074,1.04074,0,0,1-1.04318-1.15049,2.34679,2.34679,0,0,1,.62577-1.58674,1.43817,1.43817,0,0,1,.99927-0.44944,0.90655,0.90655,0,0,1,.885.632l0.13868-.56861h0.74631l-0.68917,2.87027a2.03006,2.03006,0,0,1-.51219,1.062A1.47824,1.47824,0,0,1,113.28129,70a2.62522,2.62522,0,0,1-1.46059-.455m2.3205-1.61881a1.47011,1.47011,0,0,0,.38534-0.99856,0.61464,0.61464,0,0,0-.60068-0.68987,0.73128,0.73128,0,0,0-.54354.24737,1.61646,1.61646,0,0,0-.39161,1.04875,0.55623,0.55623,0,0,0,.56234.65155,0.829,0.829,0,0,0,.58815-0.25923"/>
      <path class="cls-1" d="M117.41608,67.313a3.13015,3.13015,0,0,1,.82157-2.124,2.01749,2.01749,0,0,1,1.47314-.639,1.6899,1.6899,0,0,1,1.42922.74631l-0.60068.49967a1.02181,1.02181,0,0,0-.87873-0.54424,1.21567,1.21567,0,0,0-.84109.386,2.46215,2.46215,0,0,0-.61323,1.65015,0.972,0.972,0,0,0,.93587,1.11217,1.34976,1.34976,0,0,0,.87871-0.37909l0.43623,0.531a1.86445,1.86445,0,0,1-1.31494.55053,1.65035,1.65035,0,0,1-1.72607-1.78953"/>
      <path class="cls-1" d="M121.68962,67.62293v0.05019a0.69751,0.69751,0,0,0,.67035.82227,1.12315,1.12315,0,0,0,.72053-0.278l0.3289,0.51149a1.72759,1.72759,0,0,1-1.08078.37352,1.2843,1.2843,0,0,1-1.34073-1.42924,2.29712,2.29712,0,0,1,.63275-1.5867,1.53563,1.53563,0,0,1,1.11213-.48082,1.13157,1.13157,0,0,1,1.15678,1.23968,2.25416,2.25416,0,0,1-.14495.77765h-2.055Zm0.076-.49337h1.39088a1.08173,1.08173,0,0,0,.03832-0.3226,0.51328,0.51328,0,0,0-.51217-0.58745,0.784,0.784,0,0,0-.55679.246,1.55949,1.55949,0,0,0-.36025.66405"/>
      <path class="cls-1" d="M124.86978,65.66918h0.74558l-0.08779.39163a1.16083,1.16083,0,0,1,.878-0.455,0.80242,0.80242,0,0,1,.84107.885,3.05894,3.05894,0,0,1-.101.63275l-0.455,1.91564h-0.75885L126.4,67.11029a1.56469,1.56469,0,0,0,.05644-0.39163,0.38876,0.38876,0,0,0-.43625-0.43,0.83538,0.83538,0,0,0-.733.73376l-0.49337,2.01669h-0.74635Z"/>
      <path class="cls-1" d="M127.74621,68.4572a1.87861,1.87861,0,0,1,.06337-0.41043l0.41673-1.733h-0.37909l0.16447-.64457h0.37279l0.21534-.885h0.75188l-0.21462.885h0.69544l-0.16443.64457h-0.68919l-0.4237,1.73862a0.94511,0.94511,0,0,0-.0188.16447,0.21513,0.21513,0,0,0,.25923.20207,0.97774,0.97774,0,0,0,.39857-0.094l-0.15818.64457a1.30421,1.30421,0,0,1-.56929.11356,0.62692,0.62692,0,0,1-.72053-0.62577"/>
      <path class="cls-1" d="M130.5278,67.62293v0.05019a0.69751,0.69751,0,0,0,.67035.82227,1.12315,1.12315,0,0,0,.72053-0.278l0.3289,0.51149a1.72814,1.72814,0,0,1-1.0815.37352,1.28413,1.28413,0,0,1-1.34-1.42924,2.297,2.297,0,0,1,.63275-1.5867,1.53563,1.53563,0,0,1,1.11213-.48082,1.13193,1.13193,0,0,1,1.15678,1.23968,2.25416,2.25416,0,0,1-.14495.77765h-2.055Zm0.076-.49337h1.39088a1.08173,1.08173,0,0,0,.03832-0.3226,0.51328,0.51328,0,0,0-.51217-0.58745,0.784,0.784,0,0,0-.55679.246,1.55949,1.55949,0,0,0-.36025.66405"/>
      <path class="cls-1" d="M133.708,65.66918h0.74559l-0.14491.607a1.21229,1.21229,0,0,1,1.13794-.66409l-0.20836.78395h-0.04462a1.19982,1.19982,0,0,0-1.18813,1.1003L133.632,69.03916h-0.74635Z"/>
    </g>
    <path class="cls-2" d="M130.907,33.28313A134.71781,134.71781,0,0,0,99.99828,30a142.85183,142.85183,0,0,0-26.38312,2.30744l3.46133,4.91605A154.88431,154.88431,0,0,1,96.402,35.72829l0.03824-.0017L92.58692,59.241c2.37137,0.11012,7.86041.10242,7.86041,0.10242l3.91507-23.59915a145.65873,145.65873,0,0,1,21.3928,1.93886Z"/>
  </g>
</svg>
