<svg id="Warstwa_1" data-name="Warstwa 1" xmlns="http://www.w3.org/2000/svg" width="200" height="100" viewBox="0 0 200 100">
  <defs>
    <style>
      .cls-1 {
        fill: #1d1d1b;
      }
    </style>
  </defs>
  <title>glasspaper</title>
  <g>
    <path class="cls-1" d="M54.12164,39V56.2679H52.19733V39h1.92432Z"/>
    <path class="cls-1" d="M60.32911,43.81249a12.99188,12.99188,0,0,1,2.26266-.20272,10.47334,10.47334,0,0,1,2.26526.21688,4.32619,4.32619,0,0,1,1.64789.73221,3.19149,3.19149,0,0,1,1.04769,1.30188,4.94288,4.94288,0,0,1,.35771,1.99559V56.2679h-1.924V52.79777l-0.00116-3.26883-2.33467.17494a11.555,11.555,0,0,0-2.065.3262,3.45781,3.45781,0,0,0-1.48739.8201,2.37487,2.37487,0,0,0-.57761,1.71943,2.33524,2.33524,0,0,0,.66537,1.845,3.07218,3.07218,0,0,0,2.01573.56129,4.81779,4.81779,0,0,0,1.72479-.31288v1.46785a6.20291,6.20291,0,0,1-.89777.3071,6.41032,6.41032,0,0,1-1.56732.17119A3.89989,3.89989,0,0,1,58.66431,55.51a3.73154,3.73154,0,0,1-1.14254-2.80183,3.92871,3.92871,0,0,1,.59108-2.25759A3.99022,3.99022,0,0,1,59.809,49.09169a9.2664,9.2664,0,0,1,2.69656-.67725c1.05246-.11857,2.19962-0.2085,3.409-0.26837l0.07056-.00373V47.747a3.42253,3.42253,0,0,0-.26141-1.40309,1.95321,1.95321,0,0,0-.73914-0.773,3.04441,3.04441,0,0,0-1.09771-.35975,9.23481,9.23481,0,0,0-1.30579-.09049,8.57771,8.57771,0,0,0-1.84872.22756c-0.35943.07865-.74275,0.18567-1.16,0.31925V43.953C59.67413,43.93422,60.32911,43.81249,60.32911,43.81249Z"/>
    <path class="cls-1" d="M111.745,43.81249a12.99254,12.99254,0,0,1,2.26251-.20272,10.48151,10.48151,0,0,1,2.266.21688,4.31907,4.31907,0,0,1,1.64715.73221,3.19416,3.19416,0,0,1,1.04769,1.30188,4.93828,4.93828,0,0,1,.358,1.99559V56.2679h-1.92446V52.79777l-0.00115-3.26883-2.33393.17494a11.55893,11.55893,0,0,0-2.0653.3262,3.45,3.45,0,0,0-1.48695.8201,2.37227,2.37227,0,0,0-.57719,1.71943,2.3316,2.3316,0,0,0,.66537,1.845,3.06731,3.06731,0,0,0,2.015.56129,4.81793,4.81793,0,0,0,1.72464-.31288v1.46785a6.21585,6.21585,0,0,1-.89818.3071,6.40465,6.40465,0,0,1-1.56705.17119A3.89725,3.89725,0,0,1,110.0808,55.51a3.72732,3.72732,0,0,1-1.14283-2.80183,3.92759,3.92759,0,0,1,.59137-2.25759,3.98622,3.98622,0,0,1,1.69545-1.35885,9.26949,9.26949,0,0,1,2.69685-.67725c1.05231-.11857,2.19976-0.2085,3.4091-0.26837l0.07-.00373V47.747a3.432,3.432,0,0,0-.26085-1.40309,1.95318,1.95318,0,0,0-.73884-0.773,3.0539,3.0539,0,0,0-1.0983-.35975,9.23454,9.23454,0,0,0-1.3062-.09049,8.56938,8.56938,0,0,0-1.84812.22756c-0.36.07895-.7429,0.18567-1.15989,0.31925V43.953C111.09032,43.93422,111.745,43.81249,111.745,43.81249Z"/>
    <path class="cls-1" d="M138.36833,45.33817a5.60527,5.60527,0,0,1,4.31365-1.77726,4.93221,4.93221,0,0,1,3.80874,1.45225,5.92253,5.92253,0,0,1,1.33543,4.13927v1.0659h-9.09811v0.074a6.46115,6.46115,0,0,0,.3453,2.20814,3.73317,3.73317,0,0,0,2.34551,2.25268,5.487,5.487,0,0,0,1.77179.27184,6.8939,6.8939,0,0,0,2.55658-.51415l0.03906-.0162v1.64656c-0.048.01478-.109,0.03444-0.109,0.03444l-0.20012.06159a8.57093,8.57093,0,0,1-2.27379.30014,6.58079,6.58079,0,0,1-4.76765-1.66332,6.32108,6.32108,0,0,1-1.705-4.726,9.63511,9.63511,0,0,1,.0995-1.39441h1.97217L145.95,48.7574l-0.00057-.07462a4.286,4.286,0,0,0-.83949-2.77841,3.23637,3.23637,0,0,0-2.53058-.92939,3.68631,3.68631,0,0,0-2.71074,1.015,2.193,2.193,0,0,0-.45632.70269h-1.95772A5.68138,5.68138,0,0,1,138.36833,45.33817Z"/>
    <path class="cls-1" d="M77.94661,54.62508a1.85464,1.85464,0,0,0,.81376-1.63993,1.50757,1.50757,0,0,0-.44622-1.168,3.41668,3.41668,0,0,0-1.65725-.66712l-1.15355-.23538c-0.47278-.08878-0.90712-0.18623-1.29086-0.28889A4.27556,4.27556,0,0,1,71.93725,49.371a3.12488,3.12488,0,0,1-.66511-2.02366,3.30226,3.30226,0,0,1,.31261-1.419,3.47077,3.47077,0,0,1,.94011-1.19113,4.58893,4.58893,0,0,1,1.55953-.82069,7.01632,7.01632,0,0,1,2.12458-.30218,9.59215,9.59215,0,0,1,2.22926.27269,9.26049,9.26049,0,0,1,1.506.49277v1.90942a7.70232,7.70232,0,0,0-1.622-.79869,6.6637,6.6637,0,0,0-2.26079-.41554,3.68092,3.68092,0,0,0-1.96725.45226,1.8071,1.8071,0,0,0-.82445,1.54073,1.48331,1.48331,0,0,0,.50894,1.22,3.77907,3.77907,0,0,0,1.53842.65009l1.288,0.2695,1.18157,0.24495a4.30524,4.30524,0,0,1,2.19947,1.12865,2.97011,2.97011,0,0,1,.77325,2.13613,3.33973,3.33973,0,0,1-1.37848,2.744,6.03776,6.03776,0,0,1-3.78879,1.0792,9.09382,9.09382,0,0,1-2.4907-.32676,12.17808,12.17808,0,0,1-1.61677-.58039V53.60892a8.39,8.39,0,0,0,1.93862,1.02252,6.79267,6.79267,0,0,0,2.33713.44708A4.44632,4.44632,0,0,0,77.94661,54.62508ZM77.82,49.308h0Zm0,0.0003,0.00115,0.00026L77.82,49.308v0.0003Z"/>
    <path class="cls-1" d="M89.77017,54.62508a1.85359,1.85359,0,0,0,.81405-1.63993,1.50952,1.50952,0,0,0-.44506-1.16768,3.42425,3.42425,0,0,0-1.65814-.66742l-1.15352-.23538c-0.47281-.08878-0.90742-0.18623-1.29145-0.28889A4.27551,4.27551,0,0,1,83.76137,49.371a3.12282,3.12282,0,0,1-.66508-2.02366,3.32021,3.32021,0,0,1,.31172-1.41929,3.4979,3.4979,0,0,1,.94041-1.1911,4.60138,4.60138,0,0,1,1.55953-.82042,7.02032,7.02032,0,0,1,2.12458-.30218,9.59269,9.59269,0,0,1,2.22955.27269,9.175,9.175,0,0,1,1.506.49277v1.90942a7.71552,7.71552,0,0,0-1.62112-.79869,6.67,6.67,0,0,0-2.26079-.41554,3.69036,3.69036,0,0,0-1.969.45226,1.808,1.808,0,0,0-.8227,1.54073,1.48541,1.48541,0,0,0,.50837,1.22,3.76972,3.76972,0,0,0,1.53842.65009l1.28743,0.2695,1.18272,0.24495a4.298,4.298,0,0,1,2.198,1.12865,2.96712,2.96712,0,0,1,.77381,2.13613,3.33929,3.33929,0,0,1-1.37848,2.744,6.034,6.034,0,0,1-3.78793,1.0792,9.09074,9.09074,0,0,1-2.4907-.32676,12.21434,12.21434,0,0,1-1.61792-.58039V53.60892a8.41815,8.41815,0,0,0,1.93921,1.02252,6.79709,6.79709,0,0,0,2.33654.44708A4.43945,4.43945,0,0,0,89.77017,54.62508ZM89.64468,49.308h0Zm0,0.0003,0.00059,0.00026L89.64468,49.308v0.0003Z"/>
    <path class="cls-1" d="M38.47314,54.50334A7.054,7.054,0,0,1,37.17953,49.98a7.6417,7.6417,0,0,1,.44995-2.75934,6.38272,6.38272,0,0,1,1.218-2.00166,4.91219,4.91219,0,0,1,1.73027-1.22062,4.9799,4.9799,0,0,1,3.81988-.109,5.85554,5.85554,0,0,1,1.51588.83517l0.11987,0.094S46.0328,44.0259,46.0328,43.903h1.92491V54.91456A6.48546,6.48546,0,0,1,46.54147,59.533,5.83259,5.83259,0,0,1,42.18168,61a13.11,13.11,0,0,1-1.91925-.14027s-0.27675-.04539-0.40139-0.06621v-1.742c0.10237,0.02718.26476,0.07083,0.26476,0.07083a8.87306,8.87306,0,0,0,2.24936.29324,5.31561,5.31561,0,0,0,1.79533-.2594,2.67551,2.67551,0,0,0,1.12391-.73277,2.56743,2.56743,0,0,0,.573-1.07458,6.99274,6.99274,0,0,0,.16224-1.49737l0.00592-3.652-0.00216-3.5664-0.00059-.12639c0.06725-2.06935-.92593-3.26161-2.79662-3.35414l-0.26461-.00868A3.47928,3.47928,0,0,0,40.194,46.33555a5.60969,5.60969,0,0,0-1.01675,3.604,6.35622,6.35622,0,0,0,.751,3.4065,2.82868,2.82868,0,0,0,2.51308,1.11882,5.10766,5.10766,0,0,0,1.53395-.2562v1.57108a5.70558,5.70558,0,0,1-2.0215.31667A4.25689,4.25689,0,0,1,38.47314,54.50334Z"/>
    <path class="cls-1" d="M97.74771,45.2011a7.93386,7.93386,0,0,1,1.85621-1.16942,5.20924,5.20924,0,0,1,2.19082-.47077,4.04393,4.04393,0,0,1,3.44351,1.6778h0a7.82994,7.82994,0,0,1,1.24114,4.69709,8.42568,8.42568,0,0,1-.43058,2.75729,5.94945,5.94945,0,0,1-1.216,2.10782,5.05974,5.05974,0,0,1-1.70267,1.26457,4.99212,4.99212,0,0,1-2.07773.44589,6.9623,6.9623,0,0,1-1.36865-.13186V54.67974a6.85975,6.85975,0,0,0,1.00256.076,3.44374,3.44374,0,0,0,2.79691-1.21221,5.50289,5.50289,0,0,0,.99679-3.55891,6.07971,6.07971,0,0,0-.78483-3.42009,2.75011,2.75011,0,0,0-2.42185-1.15148,4.50594,4.50594,0,0,0-1.39237.19866,3.413,3.413,0,0,0-.5986.26052l-0.02949.01649a2.9927,2.9927,0,0,0-1.62719,2.96031v4.25407l-0.00261,3.65115s0.00261,3.98138.00261,4.12452H95.70062V43.903h1.92506v1.40194Zm7.61053-.05031h0Z"/>
    <path class="cls-1" d="M125.51675,45.2011a7.94869,7.94869,0,0,1,1.8565-1.16942,5.20692,5.20692,0,0,1,2.19052-.47077,4.04618,4.04618,0,0,1,3.44437,1.6778h0a7.83785,7.83785,0,0,1,1.24058,4.69709,8.44051,8.44051,0,0,1-.43058,2.75729,5.94332,5.94332,0,0,1-1.21686,2.10782,5.05519,5.05519,0,0,1-1.70267,1.26457,4.98735,4.98735,0,0,1-2.07773.44589,6.95872,6.95872,0,0,1-1.36809-.13186V54.67974a6.86287,6.86287,0,0,0,1.00256.076,3.44576,3.44576,0,0,0,2.79694-1.21221,5.50455,5.50455,0,0,0,.99705-3.55891,6.07468,6.07468,0,0,0-.78539-3.42009,2.74858,2.74858,0,0,0-2.42155-1.15148,4.51229,4.51229,0,0,0-1.393.19866,3.40576,3.40576,0,0,0-.5983.26112l-0.02952.0159a2.99273,2.99273,0,0,0-1.6263,2.96031v4.25407l-0.00406,3.65115s0.00347,3.98138.00347,4.12452H123.4691V43.903h1.92621v1.40194Zm7.61056-.05031h0Z"/>
    <path class="cls-1" d="M153.17358,45.39254a10.34375,10.34375,0,0,1,2.17723-1.419,4.69957,4.69957,0,0,1,1.90741-.41293,7.30447,7.30447,0,0,1,.78222.02718s0.56564,0.083.67,0.09775V45.534h-0.03761a7.33031,7.33031,0,0,0-.90049-0.1663,8.89888,8.89888,0,0,0-1.04189-.05407,4.25316,4.25316,0,0,0-1.59453.35078,3.74806,3.74806,0,0,0-.62635.3872,3.59242,3.59242,0,0,0-1.4563,2.95335v7.263h-1.92591V43.903h1.92591v1.5876Zm4.88537-1.95165h0Z"/>
  </g>
</svg>
