<svg id="Warstwa_1" data-name="Warstwa 1" xmlns="http://www.w3.org/2000/svg" width="200" height="100" viewBox="0 0 200 100">
  <defs>
    <style>
      .cls-1 {
        fill: #03326c;
      }
    </style>
  </defs>
  <title>gopas-cz</title>
  <g>
    <g>
      <path class="cls-1" d="M74.66364,60.27815a4.403,4.403,0,0,1,.76285-0.0569,1.22651,1.22651,0,0,1,.80353.22313,0.77241,0.77241,0,0,1,.26763.60455,0.83349,0.83349,0,0,1-.23108.617,1.216,1.216,0,0,1-.86424.29624,1.09175,1.09175,0,0,1-.24347-0.02034V62.9764H74.66364V60.27815Zm0.49521,1.27014a0.84292,0.84292,0,0,0,.24347.02416,0.51283,0.51283,0,0,0,.60042-0.50316,0.4675,0.4675,0,0,0-.55592-0.46247,1.38823,1.38823,0,0,0-.288.02416v0.91732Z"/>
      <path class="cls-1" d="M81.79052,61.58071a1.29186,1.29186,0,0,1-1.30637,1.44019,1.26626,1.26626,0,0,1-1.26187-1.39156A1.31325,1.31325,0,0,1,80.52452,60.193,1.26348,1.26348,0,0,1,81.79052,61.58071Zm-2.04093.03655a0.78912,0.78912,0,1,0,.75871-1.02253A0.86247,0.86247,0,0,0,79.74959,61.61726Z"/>
      <path class="cls-1" d="M86.612,62.89916a1.80741,1.80741,0,0,1-.71008.12174,1.29112,1.29112,0,0,1-1.39569-1.37948,1.37841,1.37841,0,0,1,1.46466-1.44432,1.548,1.548,0,0,1,.66145.12174l-0.10553.39763a1.342,1.342,0,0,0-.53558-0.10553,0.91072,0.91072,0,0,0-.95769,1.00632,0.89388,0.89388,0,0,0,.95356.986,1.51207,1.51207,0,0,0,.54385-0.09758Z"/>
      <path class="cls-1" d="M89.96949,60.2416v2.7348H89.47015V60.2416h0.49935Z"/>
      <path class="cls-1" d="M93.49765,60.65958H92.7186v-0.418H94.784v0.418H93.99668V62.9764h-0.499V60.65958Z"/>
      <path class="cls-1" d="M97.78834,62.20148l-0.23553.77492H97.03757l0.87632-2.7348h0.63729l0.8884,2.7348h-0.5394l-0.24761-.77492H97.78834Zm0.78287-.37729-0.21487-.67385c-0.05276-.16624-0.09726-0.35282-0.13795-0.51111H98.21013c-0.04037.15829-.08518,0.349-0.12968,0.51111l-0.21105.67385h0.70182Z"/>
      <path class="cls-1" d="M104.12759,62.89916a1.80741,1.80741,0,0,1-.71008.12174,1.29112,1.29112,0,0,1-1.39569-1.37948,1.37841,1.37841,0,0,1,1.46466-1.44432,1.548,1.548,0,0,1,.66145.12174l-0.10553.39763a1.342,1.342,0,0,0-.53558-0.10553,0.91072,0.91072,0,0,0-.95769,1.00632,0.89388,0.89388,0,0,0,.95356.986,1.51207,1.51207,0,0,0,.54385-0.09758Z"/>
      <path class="cls-1" d="M109.30667,61.58071a1.29186,1.29186,0,0,1-1.30637,1.44019,1.26626,1.26626,0,0,1-1.26187-1.39156,1.31325,1.31325,0,0,1,1.30224-1.43637A1.26348,1.26348,0,0,1,109.30667,61.58071Zm-2.04093.03655a0.78912,0.78912,0,1,0,.75871-1.02253A0.86247,0.86247,0,0,0,107.26574,61.61726Z"/>
      <path class="cls-1" d="M112.78143,62.9764l-0.88458-2.7348h0.54385l0.37316,1.24566c0.10553,0.34487.199,0.66145,0.26795,0.99424h0.00795c0.07311-.32484.1745-0.65732,0.28-0.99011l0.39763-1.24979h0.53177l-0.94561,2.7348h-0.57213Z"/>
      <path class="cls-1" d="M117.35215,62.20148l-0.23553.77492h-0.51524l0.87632-2.7348H118.115l0.8884,2.7348H118.464l-0.24761-.77492h-0.86424Zm0.78287-.37729-0.21487-.67385c-0.05276-.16624-0.09726-0.35282-0.13795-0.51111h-0.00826c-0.04037.15829-.08518,0.349-0.12968,0.51111l-0.21105.67385H118.135Z"/>
      <path class="cls-1" d="M121.73565,62.70051a0.30414,0.30414,0,0,1,.30832-0.32071,0.29939,0.29939,0,0,1,.30832.32071A0.30855,0.30855,0,1,1,121.73565,62.70051Z"/>
      <path class="cls-1" d="M125.199,62.43256a1.36727,1.36727,0,0,0,.66145.1745,0.41184,0.41184,0,0,0,.4949-0.37316,0.53235,0.53235,0,0,0-.48282-0.45453,0.8909,0.8909,0,0,1-.7425-0.79527,0.84692,0.84692,0,0,1,.96977-0.787,1.42388,1.42388,0,0,1,.65319.13795l-0.11761.40145a1.19228,1.19228,0,0,0-.548-0.12968,0.37522,0.37522,0,0,0-.45008.32866c0,0.21105.158,0.30832,0.52318,0.4504a0.85538,0.85538,0,0,1,.70214.81148,0.87931,0.87931,0,0,1-1.03461.82356,1.57492,1.57492,0,0,1-.74282-0.1745Z"/>
      <path class="cls-1" d="M129.7452,60.2416h0.49521v1.25774h0.01208c0.06484-.10553.13382-0.20279,0.199-0.29624l0.718-.9615h0.61282l-0.94148,1.16461L131.843,62.9764h-0.58421l-0.77111-1.25393-0.24729.29242v0.9615H129.7452V60.2416Z"/>
      <path class="cls-1" d="M136.85969,61.58071a1.29186,1.29186,0,0,1-1.30637,1.44019,1.26626,1.26626,0,0,1-1.26187-1.39156,1.31325,1.31325,0,0,1,1.30224-1.43637A1.26348,1.26348,0,0,1,136.85969,61.58071Zm-2.04093.03655a0.78912,0.78912,0,1,0,.75871-1.02253A0.86247,0.86247,0,0,0,134.81876,61.61726Z"/>
      <path class="cls-1" d="M139.72163,60.2416H140.221v2.31682h1.12393v0.418h-1.62327V60.2416Z"/>
      <path class="cls-1" d="M144.71827,62.20148l-0.23553.77492H143.9675l0.87632-2.7348h0.63729l0.8884,2.7348H145.8298l-0.24729-.77492h-0.86424Zm0.78287-.37729-0.21487-.67385c-0.05276-.16624-0.09726-0.35282-0.13795-0.51111h-0.00826c-0.04037.15829-.08518,0.349-0.12968,0.51111l-0.21105.67385h0.70182Z"/>
      <path class="cls-1" d="M149.10177,62.70051a0.30414,0.30414,0,0,1,.30832-0.32071,0.29939,0.29939,0,0,1,.30832.32071A0.30855,0.30855,0,1,1,149.10177,62.70051Z"/>
      <path class="cls-1" d="M154.53323,62.89916a1.80741,1.80741,0,0,1-.71008.12174,1.29112,1.29112,0,0,1-1.39569-1.37948,1.37841,1.37841,0,0,1,1.46466-1.44432,1.548,1.548,0,0,1,.66145.12174l-0.10553.39763a1.342,1.342,0,0,0-.53558-0.10553,0.91072,0.91072,0,0,0-.95769,1.00632,0.89388,0.89388,0,0,0,.95356.986,1.51207,1.51207,0,0,0,.54385-0.09758Z"/>
      <path class="cls-1" d="M157.20859,62.70051l1.39569-2.033V60.65544h-1.274V60.2416h1.92332v0.29211l-1.3798,2.01677v0.01208H159.274V62.9764h-2.0654v-0.2759Z"/>
    </g>
    <g>
      <path class="cls-1" d="M97.21584,47.23591c0,4.13319,2.06753,7.396,5.59933,7.396,3.56354,0,5.56943-3.32448,5.56943-7.54545,0-3.80261-1.88822-7.396-5.56943-7.396-3.6532,0-5.59933,3.38425-5.59933,7.54546m15.061-.26895c0,6.76663-4.10145,10.629-9.641,10.629-5.72073,0-9.31229-4.37226-9.31229-10.27041,0-6.22687,3.92214-10.59912,9.61111-10.59912,5.86828,0,9.34218,4.4619,9.34218,10.24053"/>
      <path class="cls-1" d="M118.73832,46.72771a6.14825,6.14825,0,0,0,1.79486.1793c2.7567,0,4.432-1.37648,4.432-3.713,0-2.245-1.55578-3.41414-4.10144-3.41414a10.14839,10.14839,0,0,0-2.12543.18117v6.76663Zm-3.65318-9.37206a32.46076,32.46076,0,0,1,5.62921-.42023c2.69506,0,4.63932.56965,5.928,1.6473a5.703,5.703,0,0,1,1.976,4.4619,6.14815,6.14815,0,0,1-1.70707,4.55155,8.973,8.973,0,0,1-6.37814,2.18519,8.05522,8.05522,0,0,1-1.79486-.14941v7.63511h-3.65318V37.35566Z"/>
      <path class="cls-1" d="M139.5197,48.76294L137.93217,43.793c-0.38848-1.22707-.71906-2.60356-1.01789-3.77273h-0.05976c-0.29884,1.16917-.62942,2.57554-0.95812,3.77273l-1.55578,4.96991h5.17909Zm-5.77861,2.78472-1.73695,5.71886h-3.80262l6.4678-20.18036h4.6991l6.55745,20.18036H141.944l-1.82661-5.71886h-6.37627Z"/>
      <path class="cls-1" d="M147.9469,53.25453a10.11482,10.11482,0,0,0,4.88026,1.28684c2.33461,0,3.65318-1.10754,3.65318-2.75484,0-1.5259-1.01789-2.42426-3.56354-3.3525-3.35436-1.19719-5.47979-2.964-5.47979-5.86828,0-3.32448,2.75484-5.80851,7.157-5.80851a10.50623,10.50623,0,0,1,4.8205,1.01789l-0.86848,2.964a8.78474,8.78474,0,0,0-4.04354-.95812c-2.33461,0-3.32261,1.22707-3.32261,2.42613,0,1.55578,1.1673,2.27484,3.86238,3.32261,3.50378,1.31672,5.181,3.08355,5.181,5.98781,0,3.26471-2.456,6.07745-7.63511,6.07745a11.61615,11.61615,0,0,1-5.47979-1.28683Z"/>
      <path class="cls-1" d="M87.40171,54.09275a7.71844,7.71844,0,0,1-2.78473.38848c-4.19108,0-7.00569-2.725-7.00569-7.30452,0-4.701,3.02379-7.24663,7.33441-7.24663a10.42944,10.42944,0,0,1,4.58143.86847l0.80872-2.964a13.40384,13.40384,0,0,0-5.3584-.95812c-6.677,0-11.19866,4.07156-11.22854,10.47959a10.121,10.121,0,0,0,2.81461,7.42593c1.91625,1.82659,4.5198,2.69507,7.93394,2.69507a19.89558,19.89558,0,0,0,6.46593-1.13928V46.198H87.40171v7.89471Z"/>
      <path class="cls-1" d="M49.13653,47.95759L49.11412,47.98c5.209-5.18657,10.18636-7.24663,11.97374-5.45364a2.60737,2.60737,0,0,1,.61821,2.05632c-0.02428.46132,0.45758,0.51362,0.508,0.02241a4.4669,4.4669,0,0,0-1.50162-4.0809,13.45124,13.45124,0,1,0-19.0224,19.02053,4.45952,4.45952,0,0,0,4.08277,1.50162c0.4912-.05043.43891-0.53042-0.02241-0.50614a2.61864,2.61864,0,0,1-2.05819-.61821c-1.793-1.78738.26895-6.76477,5.45551-11.97374l-0.02428.02241"/>
      <path class="cls-1" d="M58.55659,52.04241L58.579,52.02c-5.209,5.18657-10.18636,7.24662-11.97374,5.45364a2.61425,2.61425,0,0,1-.61821-2.05632c0.02428-.46132-0.45571-0.51362-0.508-0.02428a4.4654,4.4654,0,0,0,1.50349,4.08277A13.4506,13.4506,0,1,0,66.00306,40.45528a4.45952,4.45952,0,0,0-4.08277-1.50162c-0.48934.05043-.437,0.53042,0.02428,0.50614a2.61425,2.61425,0,0,1,2.05632.61821c1.793,1.78738-.26894,6.76477-5.45364,11.97374l0.02241-.02241"/>
    </g>
  </g>
</svg>
