<svg id="Warstwa_1" data-name="Warstwa 1" xmlns="http://www.w3.org/2000/svg" width="200" height="100" viewBox="0 0 200 100">
  <defs>
    <style>
      .cls-1 {
        fill: #03326c;
      }
    </style>
  </defs>
  <title>gopas-sl</title>
  <g>
    <path class="cls-1" d="M98.27084,47.23591c0,4.13319,2.06753,7.396,5.59933,7.396,3.56354,0,5.56943-3.32448,5.56943-7.54545,0-3.80261-1.88822-7.396-5.56943-7.396-3.6532,0-5.59933,3.38425-5.59933,7.54546m15.061-.26895c0,6.76663-4.10145,10.629-9.641,10.629-5.72073,0-9.31229-4.37226-9.31229-10.27041,0-6.22687,3.92214-10.59912,9.61111-10.59912,5.86828,0,9.34218,4.4619,9.34218,10.24053"/>
    <path class="cls-1" d="M119.79332,46.72771a6.14825,6.14825,0,0,0,1.79486.1793c2.7567,0,4.432-1.37648,4.432-3.713,0-2.245-1.55578-3.41414-4.10144-3.41414a10.14839,10.14839,0,0,0-2.12543.18117v6.76663Zm-3.65318-9.37206a32.46076,32.46076,0,0,1,5.62921-.42023c2.69506,0,4.63932.56965,5.928,1.6473a5.703,5.703,0,0,1,1.976,4.4619,6.14815,6.14815,0,0,1-1.70707,4.55155,8.973,8.973,0,0,1-6.37814,2.18519,8.05522,8.05522,0,0,1-1.79486-.14941v7.63511h-3.65318V37.35566Z"/>
    <path class="cls-1" d="M140.5747,48.76294L138.98717,43.793c-0.38848-1.22707-.71906-2.60356-1.01789-3.77273h-0.05976c-0.29884,1.16917-.62942,2.57554-0.95812,3.77273l-1.55578,4.96991h5.17909Zm-5.77861,2.78472-1.73695,5.71886h-3.80262l6.4678-20.18036h4.6991l6.55745,20.18036H142.999l-1.82661-5.71886h-6.37627Z"/>
    <path class="cls-1" d="M149.0019,53.25453a10.11482,10.11482,0,0,0,4.88026,1.28684c2.33461,0,3.65318-1.10754,3.65318-2.75484,0-1.5259-1.01789-2.42426-3.56354-3.3525-3.35436-1.19719-5.47979-2.964-5.47979-5.86828,0-3.32448,2.75484-5.80851,7.157-5.80851a10.50623,10.50623,0,0,1,4.8205,1.01789l-0.86848,2.964a8.78474,8.78474,0,0,0-4.04354-.95812c-2.33461,0-3.32261,1.22707-3.32261,2.42613,0,1.55578,1.1673,2.27484,3.86238,3.32261,3.50378,1.31672,5.181,3.08355,5.181,5.98781,0,3.26471-2.456,6.07745-7.63511,6.07745a11.61615,11.61615,0,0,1-5.47979-1.28683Z"/>
    <path class="cls-1" d="M88.45671,54.09275a7.71844,7.71844,0,0,1-2.78473.38848c-4.19108,0-7.00569-2.725-7.00569-7.30452,0-4.701,3.02379-7.24663,7.33441-7.24663a10.42944,10.42944,0,0,1,4.58143.86847l0.80872-2.964a13.40384,13.40384,0,0,0-5.3584-.95812c-6.677,0-11.19866,4.07156-11.22854,10.47959a10.121,10.121,0,0,0,2.81461,7.42593c1.91625,1.82659,4.5198,2.69507,7.93394,2.69507a19.89558,19.89558,0,0,0,6.46593-1.13928V46.198H88.45671v7.89471Z"/>
    <rect class="cls-1" x="75.68135" y="60.17805" width="0.51922" height="2.84823"/>
    <polygon class="cls-1" points="79.436 60.613 78.624 60.613 78.624 60.178 80.777 60.178 80.777 60.613 79.957 60.613 79.957 63.028 79.436 63.028 79.436 60.613"/>
    <path class="cls-1" d="M86.8193,60.02135l-0.43517-.50427h0.38848l0.24093,0.28015h0.00935l0.23159-.28015h0.38473l-0.42769.50427H86.8193Zm-0.65555,2.4392a1.424,1.424,0,0,0,.68917.18117,0.4277,0.4277,0,0,0,.51548-0.38847,0.55417,0.55417,0,0,0-.5024-0.47253,0.93148,0.93148,0,0,1-.77509-0.82925,0.88315,0.88315,0,0,1,1.01229-.81991,1.47473,1.47473,0,0,1,.67984.14381l-0.12327.41836a1.22132,1.22132,0,0,0-.56965-0.13634,0.39237,0.39237,0,0,0-.47066.34365c0,0.21852.16622,0.32124,0.54723,0.46879a0.89056,0.89056,0,0,1,.73026.84607,0.91552,0.91552,0,0,1-1.07765.85727,1.63686,1.63686,0,0,1-.77323-0.18117Z"/>
    <path class="cls-1" d="M90.45944,60.17712h0.51547v1.31112H90.988c0.06723-.1102.14007-0.21105,0.20731-0.30817l0.74894-1.003H92.583l-0.98241,1.214,1.04591,1.63609H92.03762l-0.805-1.30738-0.25774.30444v1.00295H90.45944V60.17712Z"/>
    <path class="cls-1" d="M95.30476,61.60982a0.89933,0.89933,0,0,0,.79191,1.04591,1.099,1.099,0,1,0-.79191-1.04591m2.12731-.03735a1.34646,1.34646,0,0,1-1.36155,1.50162,1.321,1.321,0,0,1-1.31486-1.45119,1.36728,1.36728,0,0,1,1.35782-1.496,1.3164,1.3164,0,0,1,1.31859,1.44559"/>
    <polygon class="cls-1" points="99.973 60.177 99.973 63.026 101.663 63.026 101.663 62.591 100.494 62.591 100.494 60.177 99.973 60.177"/>
    <rect class="cls-1" x="104.15051" y="60.17805" width="0.52108" height="2.84823"/>
    <path class="cls-1" d="M108.74707,61.82535l-0.22413-.70038c-0.05416-.17369-0.10086-0.36793-0.1438-0.53416h-0.00748c-0.04295.16623-.08964,0.3642-0.13634,0.53416l-0.22038.70038h0.73213Zm-0.81617.39408-0.24468.80685h-0.5379l0.91331-2.85009h0.66489l0.92638,2.85009h-0.564l-0.25774-.80685H107.9309Z"/>
    <path class="cls-1" d="M114.09576,62.9469a1.8798,1.8798,0,0,1-.73961.127,1.3453,1.3453,0,0,1-1.45493-1.43812,1.43731,1.43731,0,0,1,1.5259-1.50536,1.61652,1.61652,0,0,1,.68917.127l-0.10832.41463a1.39959,1.39959,0,0,0-.55843-0.11019,0.95081,0.95081,0,0,0-.99922,1.04964,0.93181,0.93181,0,0,0,.99361,1.02723,1.57316,1.57316,0,0,0,.56778-0.10272Z"/>
    <polygon class="cls-1" points="116.633 60.177 116.633 63.026 118.355 63.026 118.355 62.6 117.154 62.6 117.154 61.763 118.226 61.763 118.226 61.341 117.154 61.341 117.154 60.605 118.289 60.605 118.289 60.177 116.633 60.177"/>
    <path class="cls-1" d="M123.86338,62.46055a1.424,1.424,0,0,0,.68917.18117,0.4277,0.4277,0,0,0,.51548-0.38847,0.55417,0.55417,0,0,0-.5024-0.47253,0.93148,0.93148,0,0,1-.77509-0.82925,0.88315,0.88315,0,0,1,1.01229-.81991,1.47473,1.47473,0,0,1,.67984.14381l-0.12327.41836a1.22132,1.22132,0,0,0-.56965-0.13634,0.39237,0.39237,0,0,0-.47066.34365c0,0.21852.16622,0.32124,0.54723,0.46879a0.89056,0.89056,0,0,1,.73026.84607,0.91552,0.91552,0,0,1-1.07765.85727,1.63686,1.63686,0,0,1-.77323-0.18117Z"/>
    <polygon class="cls-1" points="128.704 60.613 127.892 60.613 127.892 60.178 130.045 60.178 130.045 60.613 129.226 60.613 129.226 63.028 128.704 63.028 128.704 60.613"/>
    <path class="cls-1" d="M132.98741,61.47441h0.30817a0.48911,0.48911,0,0,0,.56778-0.46879,0.46322,0.46322,0,0,0-.5547-0.45571,1.63426,1.63426,0,0,0-.32125.02428v0.90022Zm-0.51547-1.25509a4.52727,4.52727,0,0,1,.78629-0.06349,1.32711,1.32711,0,0,1,.87968.22785,0.72574,0.72574,0,0,1,.24466.57525,0.74939,0.74939,0,0,1-.51922.71158v0.01307a0.707,0.707,0,0,1,.39781.5491,6.56538,6.56538,0,0,0,.22413.79377H133.953a3.41263,3.41263,0,0,1-.19051-0.67237,0.49233,0.49233,0,0,0-.51174-0.49867h-0.26336v1.171h-0.51547V60.21932Z"/>
    <polygon class="cls-1" points="136.97 60.177 136.97 63.026 138.692 63.026 138.692 62.6 137.491 62.6 137.491 61.763 138.565 61.763 138.565 61.341 137.491 61.341 137.491 60.605 138.629 60.605 138.629 60.177 136.97 60.177"/>
    <path class="cls-1" d="M141.76256,62.63388a1.85738,1.85738,0,0,0,.28576.01307,0.97993,0.97993,0,0,0,1.07951-1.09634,0.90555,0.90555,0,0,0-1.01042-.988,1.67289,1.67289,0,0,0-.35485.02989v2.04138Zm-0.52108-2.41866a5.8841,5.8841,0,0,1,.82924-0.05976,1.71775,1.71775,0,0,1,1.158.33058,1.26587,1.26587,0,0,1,.44824,1.04777,1.46833,1.46833,0,0,1-.44451,1.13369,1.901,1.901,0,0,1-1.28869.38848,5.94422,5.94422,0,0,1-.70225-0.03735v-2.8034Z"/>
    <rect class="cls-1" x="146.22204" y="60.17805" width="0.52108" height="2.84823"/>
    <path class="cls-1" d="M149.42343,62.46055a1.424,1.424,0,0,0,.68917.18117,0.4277,0.4277,0,0,0,.51548-0.38847,0.55417,0.55417,0,0,0-.5024-0.47253,0.93148,0.93148,0,0,1-.77509-0.82925,0.88315,0.88315,0,0,1,1.01229-.81991,1.47473,1.47473,0,0,1,.67984.14381l-0.12327.41836a1.22132,1.22132,0,0,0-.56965-0.13634,0.39237,0.39237,0,0,0-.47066.34365c0,0.21852.16622,0.32124,0.54723,0.46879a0.89056,0.89056,0,0,1,.73026.84607,0.91552,0.91552,0,0,1-1.07765.85727,1.63686,1.63686,0,0,1-.77323-0.18117Z"/>
    <path class="cls-1" d="M153.71949,60.17712H154.235v1.31112H154.248c0.06723-.1102.14007-0.21105,0.20731-0.30817l0.74894-1.003H155.843l-0.98241,1.214,1.04591,1.63609h-0.60887l-0.805-1.30738-0.25774.30444v1.00295h-0.51547V60.17712Z"/>
    <path class="cls-1" d="M158.56482,61.60982a0.89933,0.89933,0,0,0,.79191,1.04591,1.099,1.099,0,1,0-.79191-1.04591m2.12731-.03735a1.34646,1.34646,0,0,1-1.36155,1.50162,1.321,1.321,0,0,1-1.31486-1.45119,1.36728,1.36728,0,0,1,1.35782-1.496,1.3164,1.3164,0,0,1,1.31859,1.44559"/>
    <path class="cls-1" d="M50.19153,47.95759L50.16912,47.98c5.209-5.18657,10.18636-7.24663,11.97374-5.45364a2.60737,2.60737,0,0,1,.61821,2.05632c-0.02428.46132,0.45758,0.51362,0.508,0.02241a4.4669,4.4669,0,0,0-1.50162-4.0809,13.45124,13.45124,0,1,0-19.0224,19.02053,4.45952,4.45952,0,0,0,4.08277,1.50162c0.4912-.05043.43891-0.53042-0.02241-0.50614a2.61864,2.61864,0,0,1-2.05819-.61821c-1.793-1.78738.26895-6.76477,5.45551-11.97374l-0.02428.02241"/>
    <path class="cls-1" d="M59.61159,52.04241L59.634,52.02c-5.209,5.18657-10.18636,7.24662-11.97374,5.45364a2.61425,2.61425,0,0,1-.61821-2.05632c0.02428-.46132-0.45571-0.51362-0.508-0.02428a4.4654,4.4654,0,0,0,1.50349,4.08277A13.4506,13.4506,0,1,0,67.05806,40.45528a4.45952,4.45952,0,0,0-4.08277-1.50162c-0.48934.05043-.437,0.53042,0.02428,0.50614a2.61425,2.61425,0,0,1,2.05632.61821c1.793,1.78738-.26894,6.76477-5.45364,11.97374l0.02241-.02241"/>
  </g>
</svg>
