<svg id="Warstwa_1" data-name="Warstwa 1" xmlns="http://www.w3.org/2000/svg" width="200" height="100" viewBox="0 0 200 100">
  <defs>
    <style>
      .cls-1 {
        fill: #4665ad;
      }

      .cls-2 {
        fill: #1a4080;
      }

      .cls-3 {
        fill: #1d1d1b;
      }
    </style>
  </defs>
  <title>pipeline</title>
  <g>
    <path class="cls-1" d="M62.59034,38.17494a13.42792,13.42792,0,0,1-1.852,14.73579c-0.0794.09607-3.78236-3.664-3.78236-3.664S61.40828,45.93686,62.59034,38.17494Z"/>
    <path class="cls-1" d="M44.58434,55.98412a13.22479,13.22479,0,0,0,14.43183-1.48434c0.09709-.07841-3.62989-3.81537-3.62989-3.81537S53.44924,53.30473,44.58434,55.98412Z"/>
    <g>
      <path class="cls-2" d="M67.17275,65.44384a2.98353,2.98353,0,0,0,1.31584.372c0.46208,0,.65291-0.16081.65291-0.412s-0.1508-.37166-0.72331-0.5625a1.63789,1.63789,0,0,1-1.39624-1.47665,1.75205,1.75205,0,0,1,1.99911-1.60743,3.2986,3.2986,0,0,1,1.38623.28125L70.136,63.09342a2.41338,2.41338,0,0,0-1.06495-.28125,0.46983,0.46983,0,0,0-.58252.40169c0,0.23121.19084,0.35165,0.79371,0.5625a1.58548,1.58548,0,0,1,1.33585,1.517c0,0.91415-.72331,1.58708-2.12956,1.58708a3.474,3.474,0,0,1-1.58708-.34164Z"/>
      <path class="cls-2" d="M76.16407,64.2688a2.46472,2.46472,0,0,1-2.592,2.62166,2.406,2.406,0,0,1-2.54126-2.53125,2.452,2.452,0,0,1,2.62166-2.602A2.38881,2.38881,0,0,1,76.16407,64.2688Zm-3.55616.05c0,0.84375.35165,1.47665,1.00456,1.47665,0.59253,0,.9742-0.59253.9742-1.47665A1.0698,1.0698,0,1,0,72.60791,64.31884Z"/>
      <path class="cls-2" d="M76.878,59.64769h1.52669V66.78H76.878V59.64769Z"/>
      <path class="cls-2" d="M84.04073,65.203c0,0.6429.02,1.16537,0.04037,1.57707H82.75493l-0.0704-.69328h-0.03a1.7516,1.7516,0,0,1-1.537.80371c-0.99455,0-1.72787-.62289-1.72787-2.13957V61.868h1.537v2.64168c0,0.7133.23121,1.14535,0.76368,1.14535a0.82173,0.82173,0,0,0,.76334-0.53247,0.85572,0.85572,0,0,0,.05-0.33163V61.868h1.537v3.335Z"/>
      <path class="cls-2" d="M86.7438,60.46142V61.868h1.095v1.125h-1.095v1.77791c0,0.59286.14079,0.8641,0.60287,0.8641a2.49751,2.49751,0,0,0,.45207-0.04037l0.01,1.15536a2.99472,2.99472,0,0,1-.99455.13045,1.5873,1.5873,0,0,1-1.145-.422,2.03322,2.03322,0,0,1-.422-1.45629V62.993H84.59423V61.868h0.65291V60.80305Z"/>
      <path class="cls-2" d="M90.06942,60.50178a0.76686,0.76686,0,0,1-.82373.76334,0.7691,0.7691,0,1,1,.01-1.537A0.766,0.766,0,0,1,90.06942,60.50178ZM88.49236,66.78V61.868H90.019V66.78H88.49236Z"/>
      <path class="cls-2" d="M95.86557,64.2688a2.46447,2.46447,0,0,1-2.59164,2.62166,2.406,2.406,0,0,1-2.54126-2.53125,2.452,2.452,0,0,1,2.62166-2.602A2.38855,2.38855,0,0,1,95.86557,64.2688Zm-3.55583.05c0,0.84375.35165,1.47665,1.00456,1.47665,0.59253,0,.9742-0.59253.9742-1.47665A1.0698,1.0698,0,1,0,92.30975,64.31884Z"/>
      <path class="cls-2" d="M96.58021,63.43506c0-.61288-0.02035-1.13534-0.04037-1.56706H97.866l0.07006,0.67293h0.03036a1.79731,1.79731,0,0,1,1.51668-.7837c1.00456,0,1.75789.66326,1.75789,2.10954V66.78H99.71432V64.05761a0.85335,0.85335,0,0,0-.77369-1.06461,0.81493,0.81493,0,0,0-.77335.57251,1.05249,1.05249,0,0,0-.06039.38167V66.78H96.58021v-3.345Z"/>
      <path class="cls-2" d="M102.22656,65.44384a2.98353,2.98353,0,0,0,1.31584.372c0.46208,0,.65291-0.16081.65291-0.412s-0.1508-.37166-0.72331-0.5625a1.63789,1.63789,0,0,1-1.39624-1.47665,1.75205,1.75205,0,0,1,1.99911-1.60743,3.2986,3.2986,0,0,1,1.38623.28125l-0.27124,1.05494a2.41338,2.41338,0,0,0-1.06495-.28125,0.46983,0.46983,0,0,0-.58252.40169c0,0.23121.19084,0.35165,0.79371,0.5625a1.58548,1.58548,0,0,1,1.33585,1.517c0,0.91415-.72331,1.58708-2.12956,1.58708a3.474,3.474,0,0,1-1.58708-.34164Z"/>
      <path class="cls-2" d="M109.30918,61.868l0.73332,2.41081c0.0804,0.29126.18083,0.65291,0.24121,0.91415h0.03c0.0704-.26123.1508-0.6329,0.22086-0.91415l0.60287-2.41081h1.63745l-1.14535,3.23454a7.53715,7.53715,0,0,1-1.72753,3.22453A2.81375,2.81375,0,0,1,108.4254,69l-0.32162-1.29582a1.91892,1.91892,0,0,0,.66292-0.26123,1.75465,1.75465,0,0,0,.6329-0.61254,0.39773,0.39773,0,0,0,.0804-0.2212,0.55488,0.55488,0,0,0-.0704-0.25122l-1.79793-4.49h1.69751Z"/>
      <path class="cls-2" d="M117.88914,64.2688a2.46472,2.46472,0,0,1-2.592,2.62166,2.406,2.406,0,0,1-2.54126-2.53125,2.452,2.452,0,0,1,2.62166-2.602A2.38881,2.38881,0,0,1,117.88914,64.2688Zm-3.55616.05c0,0.84375.35165,1.47665,1.00456,1.47665,0.59253,0,.9742-0.59253.9742-1.47665A1.0698,1.0698,0,1,0,114.333,64.31884Z"/>
      <path class="cls-2" d="M123.23388,65.203c0,0.6429.02,1.16537,0.04037,1.57707h-1.32618l-0.0704-.69328h-0.03a1.7516,1.7516,0,0,1-1.537.80371c-0.99455,0-1.72787-.62289-1.72787-2.13957V61.868h1.537v2.64168c0,0.7133.23121,1.14535,0.76334,1.14535a0.82185,0.82185,0,0,0,.76368-0.53247,0.85572,0.85572,0,0,0,.05-0.33163V61.868h1.537v3.335Z"/>
      <path class="cls-2" d="M129.71464,66.65959a3.7282,3.7282,0,0,1-1.36621.22086,2.38246,2.38246,0,0,1-2.60164-2.51123,2.56167,2.56167,0,0,1,2.8125-2.612,3.54515,3.54515,0,0,1,1.16537.19084l-0.24121,1.13534a2.088,2.088,0,0,0-.85376-0.1508,1.37708,1.37708,0,0,0,.03,2.75245,2.35662,2.35662,0,0,0,.87411-0.1508Z"/>
      <path class="cls-2" d="M133.1607,66.78l-0.09041-.4921h-0.03a1.77022,1.77022,0,0,1-1.40658.60254,1.50581,1.50581,0,0,1-1.58708-1.50667c0-1.2758,1.14535-1.88868,2.88323-1.87867V63.43506c0-.26123-0.14079-0.6329-0.89413-0.6329a2.76364,2.76364,0,0,0-1.3562.37166l-0.28125-.98454a4.0553,4.0553,0,0,1,1.9087-.43205,1.91035,1.91035,0,0,1,2.15958,2.11955v1.70785a7.63207,7.63207,0,0,0,.0704,1.1954H133.1607Zm-0.18083-2.32039c-0.80371-.01-1.42627.18083-1.42627,0.77335a0.54847,0.54847,0,0,0,.60254.58285,0.8343,0.8343,0,0,0,.79371-0.56283,1.09657,1.09657,0,0,0,.03-0.2609V64.45963Z"/>
      <path class="cls-2" d="M135.44206,63.43506c0-.61288-0.02035-1.13534-0.04037-1.56706h1.32618l0.07006,0.67293h0.03036a1.79731,1.79731,0,0,1,1.51668-.7837c1.00456,0,1.75789.66326,1.75789,2.10954V66.78h-1.52669V64.05761a0.85335,0.85335,0,0,0-.77369-1.06461,0.81493,0.81493,0,0,0-.77335.57251,1.05249,1.05249,0,0,0-.06039.38167V66.78h-1.52669v-3.345Z"/>
      <path class="cls-2" d="M144.60453,60.46142V61.868h1.095v1.125h-1.095v1.77791c0,0.59286.14079,0.8641,0.60287,0.8641a2.49751,2.49751,0,0,0,.45207-0.04037l0.01,1.15536a2.99472,2.99472,0,0,1-.99455.13045,1.5873,1.5873,0,0,1-1.145-.422,2.03322,2.03322,0,0,1-.422-1.45629V62.993H142.455V61.868h0.65291V60.80305Z"/>
      <path class="cls-2" d="M146.35309,63.4851c0-.72331-0.02035-1.1954-0.04037-1.6171h1.31617l0.05,0.9038h0.04037a1.44289,1.44289,0,0,1,1.32584-1.01457,1.55114,1.55114,0,0,1,.32129.02035v1.43628a2.1936,2.1936,0,0,0-.4117-0.04,0.98144,0.98144,0,0,0-1.04459.77335,1.78022,1.78022,0,0,0-.03036.34164V66.78h-1.52669V63.4851Z"/>
      <path class="cls-2" d="M154.54036,65.203c0,0.6429.02,1.16537,0.04037,1.57707h-1.32618l-0.0704-.69328h-0.03a1.7516,1.7516,0,0,1-1.537.80371c-0.99455,0-1.72787-.62289-1.72787-2.13957V61.868h1.537v2.64168c0,0.7133.23121,1.14535,0.76334,1.14535a0.82185,0.82185,0,0,0,.76368-0.53247,0.85572,0.85572,0,0,0,.05-0.33163V61.868h1.537v3.335Z"/>
      <path class="cls-2" d="M155.5259,65.44384a2.98353,2.98353,0,0,0,1.31584.372c0.46208,0,.65291-0.16081.65291-0.412s-0.1508-.37166-0.72331-0.5625a1.63789,1.63789,0,0,1-1.39624-1.47665,1.75205,1.75205,0,0,1,1.99911-1.60743,3.2986,3.2986,0,0,1,1.38623.28125l-0.27124,1.05494a2.41338,2.41338,0,0,0-1.06495-.28125,0.46983,0.46983,0,0,0-.58252.40169c0,0.23121.19084,0.35165,0.79371,0.5625a1.58548,1.58548,0,0,1,1.33585,1.517c0,0.91415-.72331,1.58708-2.12956,1.58708a3.474,3.474,0,0,1-1.58708-.34164Z"/>
      <path class="cls-2" d="M161.37276,60.46142V61.868h1.095v1.125h-1.095v1.77791c0,0.59286.14079,0.8641,0.60287,0.8641a2.49751,2.49751,0,0,0,.45207-0.04037l0.01,1.15536a2.99472,2.99472,0,0,1-.99455.13045,1.5873,1.5873,0,0,1-1.145-.422,2.03322,2.03322,0,0,1-.422-1.45629V62.993h-0.65291V61.868h0.65291V60.80305Z"/>
    </g>
    <g>
      <path class="cls-3" d="M73.95778,42.712v5.42515a6.05461,6.05461,0,0,0,.19484,1.99844,1.42044,1.42044,0,0,0,.69262.65658,4.62519,4.62519,0,0,0,1.82529.24522v0.53381H66.729V51.03738a4.48855,4.48855,0,0,0,1.83963-.25256,1.47148,1.47148,0,0,0,.67827-0.65658,5.97848,5.97848,0,0,0,.19484-1.9911V35.43952a6.05209,6.05209,0,0,0-.19484-1.99811,1.42531,1.42531,0,0,0-.68561-0.65658,4.61806,4.61806,0,0,0-1.83229-.24522V32.00547H75.2566q4.21274,0,6.0457,1.50067A4.65813,4.65813,0,0,1,83.1346,37.2578a4.79228,4.79228,0,0,1-1.18305,3.2609,6.018,6.018,0,0,1-3.2609,1.847A22.28011,22.28011,0,0,1,73.95778,42.712Zm0-9.58084v8.45518q0.47642,0.029.72164,0.029a3.481,3.481,0,0,0,2.71241-1.04626,4.69568,4.69568,0,0,0,.95251-3.23921,4.53066,4.53066,0,0,0-.95251-3.18883,3.72639,3.72639,0,0,0-2.84253-1.0099H73.95778Z"/>
      <path class="cls-3" d="M89.64138,38.0802V48.772a3.218,3.218,0,0,0,.33163,1.82529,1.80064,1.80064,0,0,0,1.29882.4544v0.51946H83.985V51.05172a1.75824,1.75824,0,0,0,1.32751-.51946,3.21921,3.21921,0,0,0,.28859-1.76023V40.8937a3.22173,3.22173,0,0,0-.33163-1.82529A1.78223,1.78223,0,0,0,83.985,38.614V38.0802h5.65636Zm-2.02013-6.53647a2.22921,2.22921,0,1,1-1.57273.65658A2.1477,2.1477,0,0,1,87.62125,31.54373Z"/>
      <path class="cls-3" d="M97.15805,50.2003v5.02146a4.01244,4.01244,0,0,0,.16581,1.41392,1.07678,1.07678,0,0,0,.51246.54849,3.4915,3.4915,0,0,0,1.3562.17315v0.53381H91.502V57.35732a1.79325,1.79325,0,0,0,1.32751-.50512A3.1053,3.1053,0,0,0,93.1178,55.135V40.8937a3.2188,3.2188,0,0,0-.33163-1.82529A1.78131,1.78131,0,0,0,91.502,38.614V38.0802h5.656v1.77458A5.15023,5.15023,0,0,1,98.601,38.35444a4.15448,4.15448,0,0,1,2.294-.67827,4.33173,4.33173,0,0,1,2.7054.93783,5.80184,5.80184,0,0,1,1.85431,2.59,9.83646,9.83646,0,0,1,.6349,3.55683,10.28824,10.28824,0,0,1-.65658,3.74433,5.49543,5.49543,0,0,1-1.90469,2.58263,4.68336,4.68336,0,0,1-2.77747.88746,4.53067,4.53067,0,0,1-2.07785-.49044A5.45466,5.45466,0,0,1,97.15805,50.2003Zm0-1.45729a3.39291,3.39291,0,0,0,2.655,1.76056,1.483,1.483,0,0,0,1.28414-.82273q0.75017-1.21158.75033-4.6171,0-3.4916-.8224-4.77591a1.67856,1.67856,0,0,0-1.472-.85142q-1.45729,0-2.39513,2.10654V48.743Z"/>
      <path class="cls-3" d="M119.14692,44.34243h-7.40224a6.976,6.976,0,0,0,1.4286,4.2421,3.01742,3.01742,0,0,0,2.39513,1.1974,2.722,2.722,0,0,0,1.57273-.48343,6.10184,6.10184,0,0,0,1.515-1.73854l0.49077,0.31728a8.16308,8.16308,0,0,1-2.42415,3.16715,5.21952,5.21952,0,0,1-3.0734.93083,5.11674,5.11674,0,0,1-4.545-2.30872,8.14185,8.14185,0,0,1-1.24077-4.6171,7.66154,7.66154,0,0,1,1.82529-5.37477,5.62458,5.62458,0,0,1,4.27813-1.99844,4.63572,4.63572,0,0,1,3.55649,1.68083A7.6747,7.6747,0,0,1,119.14692,44.34243Zm-3.54949-.96686a13.31027,13.31027,0,0,0-.25256-3.18883,2.61372,2.61372,0,0,0-.78637-1.31283,1.19966,1.19966,0,0,0-.80805-0.2599,1.41769,1.41769,0,0,0-1.22642.736,6.30878,6.30878,0,0,0-.85142,3.52046v0.50512h3.92482Z"/>
      <path class="cls-3" d="M125.46587,32.00547V48.772a3.21437,3.21437,0,0,0,.332,1.82529,1.79971,1.79971,0,0,0,1.29849.4544v0.51946h-7.28647V51.05172a1.75878,1.75878,0,0,0,1.32751-.51946,3.22349,3.22349,0,0,0,.28826-1.76023V34.80462A3.18006,3.18006,0,0,0,121.094,32.994a1.77843,1.77843,0,0,0-1.28414-.4544V32.00547h5.656Z"/>
      <path class="cls-3" d="M133.01157,38.0802V48.772a3.218,3.218,0,0,0,.33163,1.82529,1.80064,1.80064,0,0,0,1.29882.4544v0.51946h-7.28681V51.05172a1.75824,1.75824,0,0,0,1.32751-.51946,3.21921,3.21921,0,0,0,.28859-1.76023V40.8937a3.22173,3.22173,0,0,0-.33163-1.82529,1.78223,1.78223,0,0,0-1.28447-.4544V38.0802h5.65636Zm-2.02013-6.53647a2.22921,2.22921,0,1,1-1.57273.65658A2.1477,2.1477,0,0,1,130.99144,31.54373Z"/>
      <path class="cls-3" d="M140.8165,38.0802v1.74588a7.933,7.933,0,0,1,1.9911-1.63779,4.261,4.261,0,0,1,2.04882-.51212,3.26765,3.26765,0,0,1,2.17894.72865,3.49208,3.49208,0,0,1,1.15436,1.81094,13.96657,13.96657,0,0,1,.23087,3.15981v5.252a4.01314,4.01314,0,0,0,.28125,1.94072,1.64762,1.64762,0,0,0,1.176.48343v0.51946h-6.82506V51.05172a1.42559,1.42559,0,0,0,1.09664-.6349,4.14279,4.14279,0,0,0,.23087-1.78926V42.62524a9.8096,9.8096,0,0,0-.12978-2.09219,1.27884,1.27884,0,0,0-.44006-0.67093,1.09957,1.09957,0,0,0-.68528-0.23821q-1.2411,0-2.30872,1.77491v7.22875a4.02385,4.02385,0,0,0,.28125,1.919,1.43389,1.43389,0,0,0,1.04626.50512v0.51946H135.319V51.05172a1.67623,1.67623,0,0,0,1.21208-.54815,4.04691,4.04691,0,0,0,.24522-1.876V41.00914a3.87592,3.87592,0,0,0-.28125-1.90469,1.71377,1.71377,0,0,0-1.176-.49044V38.0802h5.49755Z"/>
      <path class="cls-3" d="M162.51678,44.34243h-7.40224a6.976,6.976,0,0,0,1.4286,4.2421,3.01742,3.01742,0,0,0,2.39513,1.1974,2.722,2.722,0,0,0,1.57273-.48343A6.10184,6.10184,0,0,0,162.026,47.56l0.49077,0.31728a8.16308,8.16308,0,0,1-2.42415,3.16715,5.21952,5.21952,0,0,1-3.0734.93083,5.11674,5.11674,0,0,1-4.545-2.30872,8.14185,8.14185,0,0,1-1.24077-4.6171,7.66154,7.66154,0,0,1,1.82529-5.37477,5.62458,5.62458,0,0,1,4.27813-1.99844,4.63572,4.63572,0,0,1,3.55649,1.68083A7.6747,7.6747,0,0,1,162.51678,44.34243Zm-3.54949-.96686a13.31027,13.31027,0,0,0-.25256-3.18883,2.61372,2.61372,0,0,0-.78637-1.31283,1.19966,1.19966,0,0,0-.80805-0.2599,1.41769,1.41769,0,0,0-1.22642.736,6.30878,6.30878,0,0,0-.85142,3.52046v0.50512h3.92482Z"/>
    </g>
    <ellipse class="cls-1" cx="87.61395" cy="33.76432" rx="2.22389" ry="2.23152"/>
    <ellipse class="cls-1" cx="131.0167" cy="33.7647" rx="2.23849" ry="2.23097"/>
    <path class="cls-1" d="M39.2653,37.50536s0,4.01857,5.0825,2.12754c0.11677-.0437,3.30961,3.38835,3.30961,3.38835S44.22969,46.1734,37.57078,46.1734A15.00135,15.00135,0,0,1,39.2653,37.50536Z"/>
    <path class="cls-1" d="M44.50563,32.42252s4.68849,0.31526,1.57573,5.989l3.21583,3.27124s3.67929-3.66525,3.36434-10.521C52.66152,31.16171,49.54877,30.33434,44.50563,32.42252Z"/>
    <path class="cls-1" d="M54.86781,31.59511a15.78551,15.78551,0,0,1,5.71309,3.743c0.21684,0.25459.31526,7.40727-5.16159,12.372,0,0-3.5852-3.50677-4.60977-4.57038A15.29818,15.29818,0,0,0,54.86781,31.59511Z"/>
    <path class="cls-1" d="M38.12262,48.30095A16.999,16.999,0,0,0,41.905,54.13214c0.24687,0.21352,7.34717-1.02426,11.8989-4.807,0,0-3.49881-3.68124-4.531-4.68849C49.27286,44.63669,45.84515,47.86755,38.12262,48.30095Z"/>
  </g>
</svg>
