<svg id="Warstwa_1" data-name="Warstwa 1" xmlns="http://www.w3.org/2000/svg" width="200" height="100" viewBox="0 0 200 100">
  <defs>
    <style>
      .cls-1 {
        fill: #e30613;
      }

      .cls-2 {
        fill: #1d1d1b;
      }
    </style>
  </defs>
  <title>promennt</title>
  <g>
    <path class="cls-1" d="M47.16523,46a2.41913,2.41913,0,0,1,.96334.19279,2.58387,2.58387,0,0,1,.78917.52281,2.41757,2.41757,0,0,1,.532.77071,2.45946,2.45946,0,0,1,0,1.90837,2.42124,2.42124,0,0,1-.532.77041,2.576,2.576,0,0,1-.78917.52281,2.41676,2.41676,0,0,1-.96334.19308H37.05536v2.23839a0.8351,0.8351,0,0,1-.26606.62357,0.858,0.858,0,0,1-.6147.257,0.87714,0.87714,0,0,1-.88076-0.88062V46.88077A0.87689,0.87689,0,0,1,36.1746,46H47.16523M37.05536,47.76153v1.35763H47.23865a0.69972,0.69972,0,0,0,.48618-0.19249,0.63083,0.63083,0,0,0,.21111-0.48618,0.63933,0.63933,0,0,0-.21111-0.47687,0.68165,0.68165,0,0,0-.48618-0.2021H37.05536Z"/>
    <path class="cls-1" d="M64.28426,51.55035q0.51321,0.35832,1.04577.77987a1.70514,1.70514,0,0,1,.34879.33933,0.72381,0.72381,0,0,1,.1467.44983A0.87763,0.87763,0,0,1,64.94476,54a0.98055,0.98055,0,0,1-.62386-0.257q-0.75253-.55022-1.54126-1.0638a13.99212,13.99212,0,0,0-1.64216-.91784,10.061,10.061,0,0,0-1.77068-.642,7.57026,7.57026,0,0,0-1.90822-.23828H53.80714a0.6662,0.6662,0,0,0-.56861.67882v1.55958a0.83469,0.83469,0,0,1-.26621.62357,0.85739,0.85739,0,0,1-.61456.257,0.87714,0.87714,0,0,1-.88076-0.88062V51.35786a2.21285,2.21285,0,0,1,.17417-0.87131,2.29877,2.29877,0,0,1,.468-0.7159,2.14186,2.14186,0,0,1,.69713-0.477,2.20131,2.20131,0,0,1,.88076-0.17447h9.72473a0.69972,0.69972,0,0,0,.48618-0.19249,0.63082,0.63082,0,0,0,.21111-0.48618,0.63933,0.63933,0,0,0-.21111-0.47687,0.68164,0.68164,0,0,0-.48618-0.20209h-11.064a0.88077,0.88077,0,1,1,0-1.76153H63.34839a2.41964,2.41964,0,0,1,.96334.19279,2.57909,2.57909,0,0,1,.78887.52281,2.41607,2.41607,0,0,1,.53227.77071,2.45949,2.45949,0,0,1,0,1.90837,2.41969,2.41969,0,0,1-.53227.77041,2.571,2.571,0,0,1-.78887.52281,2.41727,2.41727,0,0,1-.96334.19308H63.27512q0.49527,0.312,1.00914.66936"/>
    <path class="cls-1" d="M82.59577,50.00007a4.52573,4.52573,0,0,1-.22943,1.40373,4.28227,4.28227,0,0,1-.66966,1.28421,3.66224,3.66224,0,0,1-1.06424.94517A2.73249,2.73249,0,0,1,79.21971,54h-8.367a2.67572,2.67572,0,0,1-1.33947-.41261,3.675,3.675,0,0,1-1-.94517,4.38472,4.38472,0,0,1-.633-1.26589,4.41119,4.41119,0,0,1,.00916-2.77968,4.28514,4.28514,0,0,1,.6698-1.28465,3.6527,3.6527,0,0,1,1.0641-.94488A2.7349,2.7349,0,0,1,71.03624,46h8.367a2.688,2.688,0,0,1,1.33932.41291,3.68162,3.68162,0,0,1,1.00013.945,4.38926,4.38926,0,0,1,.633,1.266,4.55562,4.55562,0,0,1,.22012,1.3761m-2.73388,2.009a1.89188,1.89188,0,0,0,.633-0.55945,1.96013,1.96013,0,0,0,.31186-0.72476,3.22237,3.22237,0,0,0,0-1.44967,1.95878,1.95878,0,0,0-.31186-0.72446,1.89421,1.89421,0,0,0-.633-0.55975,2.0614,2.0614,0,0,0-1.02761-.22943H71.42166a2.04928,2.04928,0,0,0-1.03676.22943,1.91381,1.91381,0,0,0-.62386.55975,1.95913,1.95913,0,0,0-.312.72446,3.22237,3.22237,0,0,0,0,1.44967,1.96048,1.96048,0,0,0,.312.72476,1.9114,1.9114,0,0,0,.62386.55945,2.04619,2.04619,0,0,0,1.03676.22943h7.41262A2.05823,2.05823,0,0,0,79.86189,52.009Z"/>
    <path class="cls-2" d="M99.91661,53.11938a0.88084,0.88084,0,1,1-1.76168,0V49.11917a1.2409,1.2409,0,0,0-.09174-0.75195,2.06626,2.06626,0,0,0-.51365.49519L93.513,53.44971a1.48971,1.48971,0,0,1-.58722.4129,2.1284,2.1284,0,0,1-1.50462,0,1.484,1.484,0,0,1-.58708-0.4129l-4.0367-4.5873a1.69161,1.69161,0,0,0-.5138-0.49519,1.24027,1.24027,0,0,0-.0916.75195v4.00021a0.88084,0.88084,0,1,1-1.76167,0V47.76153a1.90135,1.90135,0,0,1,.42221-1.24787A1.41577,1.41577,0,0,1,86.00832,46a1.44524,1.44524,0,0,1,.789.22041,3.302,3.302,0,0,1,.64218.53212l4.22019,4.80727a1.94039,1.94039,0,0,0,.22927.19249,0.45193,0.45193,0,0,0,.56891,0,1.99251,1.99251,0,0,0,.22943-0.19249L96.889,46.75254h0.01831a1.91115,1.91115,0,0,1,.62386-0.55059A1.6467,1.6467,0,0,1,98.33871,46a1.41646,1.41646,0,0,1,1.15569.51365,1.90135,1.90135,0,0,1,.42222,1.24787v5.35785"/>
    <path class="cls-1" d="M101.751,46.88076A0.87713,0.87713,0,0,1,102.63172,46h13.00876a0.88076,0.88076,0,1,1,0,1.76152H102.63172a0.87688,0.87688,0,0,1-.88076-0.88076"/>
    <path class="cls-2" d="M103.98951,54a2.02189,2.02189,0,0,1-.80749-0.17432,2.27387,2.27387,0,0,1-.71531-0.48618,2.55518,2.55518,0,0,1-.5138-0.75224,2.34553,2.34553,0,0,1-.20195-0.99111V49.945a0.69892,0.69892,0,0,1,.28438-0.6605,1.83487,1.83487,0,0,1,.88978-0.16531H115.237a0.88091,0.88091,0,1,1,0,1.76183h-11.7244v0.89878a0.41689,0.41689,0,0,0,.15571.321,0.60025,0.60025,0,0,0,.4129.13768h11.55923a0.88076,0.88076,0,1,1,0,1.76152h-11.651"/>
    <path class="cls-2" d="M131.10806,46.2569a0.88091,0.88091,0,0,1,1.50491.62386V52.2203a1.73616,1.73616,0,0,1-.50479,1.26575A1.69051,1.69051,0,0,1,130.8513,54a1.81859,1.81859,0,0,1-.95418-0.27492l-8.40345-5.138q-0.34923-.20121-0.57806-0.32116a0.87284,0.87284,0,0,0-.37612-0.11907,0.35842,0.35842,0,0,0-.34864.34849,5.21944,5.21944,0,0,0-.07328,1.00959v3.61449a0.88084,0.88084,0,1,1-1.76167,0V47.78a1.73623,1.73623,0,0,1,.50479-1.26634A1.69079,1.69079,0,0,1,120.11757,46a1.8133,1.8133,0,0,1,.95419.27537l8.40344,5.1373q0.34812,0.20254.57807,0.32116a0.86187,0.86187,0,0,0,.37611.11922,0.358,0.358,0,0,0,.34865-0.34864,5.26765,5.26765,0,0,0,.07327-1.009V46.88077a0.84924,0.84924,0,0,1,.25676-0.62386"/>
    <path class="cls-2" d="M147.19978,46.2569a0.88091,0.88091,0,0,1,1.50477.62386V52.2203a1.73616,1.73616,0,0,1-.50479,1.26575A1.691,1.691,0,0,1,146.94288,54a1.81969,1.81969,0,0,1-.95419-0.27492l-8.40344-5.138q-0.34923-.20121-0.57807-0.32116a0.87278,0.87278,0,0,0-.37611-0.11907,0.35821,0.35821,0,0,0-.3485.34849,5.20561,5.20561,0,0,0-.07342,1.00959v3.61449a0.88084,0.88084,0,1,1-1.76167,0V47.78a1.7368,1.7368,0,0,1,.50479-1.26634A1.69079,1.69079,0,0,1,136.20915,46a1.81324,1.81324,0,0,1,.95418.27537l8.40329,5.1373q0.34835,0.20254.57821,0.32116a0.862,0.862,0,0,0,.376.11922,0.358,0.358,0,0,0,.34878-0.34864,5.26751,5.26751,0,0,0,.07328-1.009V46.88077a0.84881,0.84881,0,0,1,.2569-0.62386"/>
    <path class="cls-2" d="M164.44927,46.2569a0.8807,0.8807,0,0,1-.624,1.50463h-5.431v5.35785a0.88062,0.88062,0,1,1-1.76124,0V47.76153H151.1285a0.91021,0.91021,0,0,1-.5692-0.28408,0.83019,0.83019,0,0,1-.23844-0.59668A0.87714,0.87714,0,0,1,151.20178,46h12.62347a0.85017,0.85017,0,0,1,.624.2569"/>
  </g>
</svg>
