<svg id="Warstwa_1" data-name="Warstwa 1" xmlns="http://www.w3.org/2000/svg" width="200" height="100" viewBox="0 0 200 100">
  <defs>
    <style>
      .cls-1 {
        fill: #303039;
      }

      .cls-2 {
        fill: #1b9a46;
      }

      .cls-3 {
        fill: #4da734;
      }

      .cls-4 {
        fill: #b4cc04;
      }

      .cls-5 {
        fill: #4a9135;
      }

      .cls-6 {
        fill: #8abd24;
      }

      .cls-7 {
        fill: #268b32;
      }
    </style>
  </defs>
  <title>realdolmen</title>
  <g>
    <path class="cls-1" d="M92.38367,72.58481a0.7773,0.7773,0,0,1-.37737.10067,0.71358,0.71358,0,0,1-.68139-0.814V69.53661H90.78954V69.2859h0.53538V67.94917h0.272V69.2859H92.371v0.25071H91.59693v2.36818a0.47528,0.47528,0,0,0,.45.522,0.53337,0.53337,0,0,0,.3367-0.12534v0.28335Z"/>
    <path class="cls-1" d="M95.27942,70.93943a1.144,1.144,0,1,0-1.08476,1.50748,1.25123,1.25123,0,0,0,1.08476-1.50748m-2.45351,0a1.41006,1.41006,0,1,1,1.36876,1.74614,1.47177,1.47177,0,0,1-1.36876-1.74614"/>
    <path class="cls-1" d="M99.95978,70.35039a1.1225,1.1225,0,0,0-.98475-0.91206,1.30653,1.30653,0,0,0-.98608,1.50744,1.29034,1.29034,0,0,0,.9594,1.50146,1.18861,1.18861,0,0,0,1.01143-1.08675V70.35039Zm0,1.62744a1.12475,1.12475,0,0,1-1.05143.70741,1.5064,1.5064,0,0,1-1.20275-1.73947,1.524,1.524,0,0,1,1.23077-1.74614,1.09544,1.09544,0,0,1,1.02341.60873v-0.5227h0.272v3.1409A1.38663,1.38663,0,0,1,98.90235,74a1.13774,1.13774,0,0,1-.99206-0.528l0.18467-.16534a0.96168,0.96168,0,0,0,.7994.45068,1.16979,1.16979,0,0,0,1.06543-1.27077V71.97783Z"/>
    <path class="cls-1" d="M103.3047,70.76078a1.05576,1.05576,0,1,0-2.04284,0h2.04284Zm0.15268,1.30275a1.3236,1.3236,0,0,1-1.13809.62208,1.50177,1.50177,0,0,1-1.34745-1.74614A1.47931,1.47931,0,0,1,102.29329,69.2c0.80672,0,1.28875.70074,1.28875,1.73947v0.05868h-2.32616a1.27155,1.27155,0,0,0,1.06341,1.44876,1.099,1.099,0,0,0,.9254-0.53471Z"/>
    <path class="cls-1" d="M105.48714,72.58481a0.7773,0.7773,0,0,1-.37737.10067,0.71294,0.71294,0,0,1-.68206-0.814V69.53661h-0.53538V69.2859h0.53538V67.94917h0.27136V69.2859h0.77472v0.25071h-0.77472v2.36818a0.4752,0.4752,0,0,0,.44935.522,0.5372,0.5372,0,0,0,.33871-0.12534v0.28335Z"/>
    <path class="cls-1" d="M109.0962,72.58481a0.77482,0.77482,0,0,1-.3767.10067,0.71248,0.71248,0,0,1-.68139-0.814V69.53661h-0.53538V69.2859h0.53538V67.94917h0.27V69.2859h0.774v0.25071h-0.774v2.36818a0.47574,0.47574,0,0,0,.4507.522,0.53244,0.53244,0,0,0,.33737-0.12534v0.28335Z"/>
    <path class="cls-1" d="M111.91929,72.59942V70.51593a0.9,0.9,0,0,0-.85275-1.07072,1.00358,1.00358,0,0,0-.97208,1.12342v2.03079h-0.27134V67.94974h0.27134v1.81817a1.11757,1.11757,0,0,1,1.00408-.56808A1.16644,1.16644,0,0,1,112.19,70.58861v2.01081h-0.27067Z"/>
    <path class="cls-1" d="M115.23053,70.76078a1.05576,1.05576,0,1,0-2.04284,0h2.04284Zm0.15268,1.30275a1.32065,1.32065,0,0,1-1.13876.62208,1.503,1.503,0,0,1-1.34945-1.74614A1.4791,1.4791,0,0,1,114.22045,69.2c0.80607,0,1.2881.70074,1.2881,1.73947v0.05868H113.181a1.27155,1.27155,0,0,0,1.06341,1.44876,1.10313,1.10313,0,0,0,.9274-0.53471Z"/>
    <path class="cls-1" d="M116.24861,72.59942V69.28586h0.27067v0.48205a1.097,1.097,0,0,1,.99208-0.56808,1.34546,1.34546,0,0,1,.41737.07268l-0.106.25738a0.87228,0.87228,0,0,0-.34469-0.072,1.00016,1.00016,0,0,0-.95875,1.13074v2.01081h-0.27067Z"/>
    <path class="cls-1" d="M120.50539,70.76078a1.05575,1.05575,0,1,0-2.04282,0h2.04282Zm0.15335,1.30275a1.32413,1.32413,0,0,1-1.13744.62208,1.50228,1.50228,0,0,1-1.3501-1.74614A1.47937,1.47937,0,0,1,119.494,69.2c0.80806,0,1.28942.70074,1.28942,1.73947v0.05868h-2.32818a1.27416,1.27416,0,0,0,1.06608,1.44876,1.09962,1.09962,0,0,0,.92475-0.53471Z"/>
    <polygon class="cls-1" points="121.193 73.445 121.562 72.162 121.98 72.162 121.383 73.518 121.193 73.445"/>
    <path class="cls-1" d="M125.47779,72.58481a0.78036,0.78036,0,0,1-.37871.10067,0.71268,0.71268,0,0,1-.68-0.814V69.53661H123.883V69.2859H124.419V67.94917h0.272V69.2859h0.77207v0.25071H124.691v2.36818a0.47421,0.47421,0,0,0,.44738.522,0.53623,0.53623,0,0,0,.33936-0.12534v0.28335Z"/>
    <path class="cls-1" d="M128.37272,70.93943a1.14378,1.14378,0,1,0-1.08409,1.50748,1.25083,1.25083,0,0,0,1.08409-1.50748m-2.45284,0a1.40981,1.40981,0,1,1,1.36876,1.74614,1.471,1.471,0,0,1-1.36876-1.74614"/>
    <path class="cls-1" d="M131.545,70.35039a1.12049,1.12049,0,0,0-.98408-0.91206,1.30575,1.30575,0,0,0-.98473,1.50744,1.28892,1.28892,0,0,0,.95873,1.50146,1.18745,1.18745,0,0,0,1.01009-1.08675V70.35039Zm0,1.62744a1.1245,1.1245,0,0,1-1.05076.70741,1.50632,1.50632,0,0,1-1.20342-1.73947,1.526,1.526,0,0,1,1.23009-1.74614,1.09507,1.09507,0,0,1,1.02408.60873v-0.5227h0.27269v3.1409A1.386,1.386,0,0,1,130.48761,74a1.13967,1.13967,0,0,1-.99273-0.528l0.18735-.16534a0.95631,0.95631,0,0,0,.80072.45068,1.17,1.17,0,0,0,1.06209-1.27077V71.97783Z"/>
    <path class="cls-1" d="M134.89181,70.76078a1.05626,1.05626,0,1,0-2.04416,0h2.04416Zm0.15136,1.30275a1.32219,1.32219,0,0,1-1.13676.62208,1.50225,1.50225,0,0,1-1.34943-1.74614A1.4793,1.4793,0,0,1,133.87841,69.2c0.80806,0,1.29077.70074,1.29077,1.73947v0.05868H132.841a1.27235,1.27235,0,0,0,1.06541,1.44876,1.10041,1.10041,0,0,0,.92473-0.53471Z"/>
    <path class="cls-1" d="M137.07193,72.58481a0.76678,0.76678,0,0,1-.376.10067,0.71329,0.71329,0,0,1-.682-0.814V69.53661h-0.53471V69.2859h0.53471V67.94917h0.27134V69.2859h0.77539v0.25071h-0.77539v2.36818a0.47489,0.47489,0,0,0,.45.522,0.52678,0.52678,0,0,0,.3367-0.12534v0.28335Z"/>
    <path class="cls-1" d="M139.89514,72.59942V70.51593a0.89924,0.89924,0,0,0-.85207-1.07072,1.00331,1.00331,0,0,0-.97275,1.12342v2.03079H137.799V67.94974h0.27134v1.81817a1.11673,1.11673,0,0,1,1.00543-.56808,1.16609,1.16609,0,0,1,1.09141,1.38878v2.01081h-0.272Z"/>
    <path class="cls-1" d="M143.20811,70.76078a1.05652,1.05652,0,1,0-2.04481,0h2.04481Zm0.15136,1.30275a1.32137,1.32137,0,0,1-1.13676.62208,1.50185,1.50185,0,0,1-1.34943-1.74614A1.47891,1.47891,0,0,1,142.19471,69.2c0.80806,0,1.2901.70074,1.2901,1.73947v0.05868H141.1573a1.27189,1.27189,0,0,0,1.06541,1.44876,1.10331,1.10331,0,0,0,.9254-0.53471Z"/>
    <path class="cls-1" d="M144.22487,72.59942V69.28586h0.27v0.48205a1.09937,1.09937,0,0,1,.99273-0.56808,1.335,1.335,0,0,1,.41737.07268l-0.106.25738a0.88053,0.88053,0,0,0-.3427-0.072,1.00262,1.00262,0,0,0-.9614,1.13074v2.01081h-0.27Z"/>
    <path class="cls-1" d="M91.97151,59.55421h0.786c0.96408,0,1.11143-.50537,1.11143-1.40278,0-.91006-0.16269-1.40412-1.17943-1.40412H91.97151v2.80689Zm-1.3841-4.02032h2.2235c1.64211,0,2.44151.89741,2.44151,2.6429a2.25459,2.25459,0,0,1-1.19408,2.25082l1.4921,4.10965h-1.4641l-1.28942-3.84494h-0.8254v3.84494h-1.3841V55.53388Z"/>
    <polygon class="cls-1" points="96.363 55.534 100.485 55.534 100.485 56.747 97.747 56.747 97.747 59.391 100.131 59.391 100.131 60.604 97.747 60.604 97.747 63.247 100.485 63.247 100.485 64.537 96.363 64.537 96.363 55.534"/>
    <path class="cls-1" d="M103.4937,58.12608H103.467l-0.67671,3.2616h1.38076Zm-0.582-2.5922h1.15141l2.1555,9.00337h-1.3821l-0.408-1.9348H102.545l-0.40669,1.9348h-1.3821Z"/>
    <polygon class="cls-1" points="106.896 55.534 108.28 55.534 108.28 63.247 111.018 63.247 111.018 64.537 106.896 64.537 106.896 55.534"/>
    <path class="cls-1" d="M113.29518,63.32317h0.63738a0.94236,0.94236,0,0,0,1.07208-1.12541v-4.337a0.94034,0.94034,0,0,0-1.07208-1.11345h-0.63738v6.57586Zm-1.3821-7.78929h2.04613a2.16965,2.16965,0,0,1,2.4282,2.32688v4.21032a2.23606,2.23606,0,0,1-2.54953,2.46617h-1.92481V55.53388Z"/>
    <path class="cls-1" d="M118.98961,62.4129a0.93542,0.93542,0,0,0,1.87016,0V57.65851a0.9354,0.9354,0,0,0-1.87016,0V62.4129Zm-1.38275-4.75439a2.32235,2.32235,0,0,1,4.63833,0V62.4129a2.32242,2.32242,0,0,1-4.63833,0V57.65851Z"/>
    <polygon class="cls-1" points="123.464 55.534 124.846 55.534 124.846 63.247 127.585 63.247 127.585 64.537 123.464 64.537 123.464 55.534"/>
    <polygon class="cls-1" points="128.48 55.534 129.808 55.534 131.585 60.301 131.612 60.301 133.373 55.534 134.717 55.534 134.717 64.537 133.334 64.537 133.334 59.061 133.307 59.061 131.937 62.93 131.244 62.93 129.89 59.061 129.862 59.061 129.862 64.537 128.48 64.537 128.48 55.534"/>
    <polygon class="cls-1" points="136.016 55.534 140.138 55.534 140.138 56.747 137.399 56.747 137.399 59.391 139.787 59.391 139.787 60.604 137.399 60.604 137.399 63.247 140.138 63.247 140.138 64.537 136.016 64.537 136.016 55.534"/>
    <polygon class="cls-1" points="140.978 55.534 142.308 55.534 144.396 60.958 144.423 60.958 144.423 55.534 145.806 55.534 145.806 64.537 144.505 64.537 142.389 59.125 142.361 59.125 142.361 64.537 140.978 64.537 140.978 55.534"/>
    <g>
      <path class="cls-2" d="M68.14409,36.3672h0.22534V26.0151c-3.32893-.034-14.27442,0-14.27442,0V36.3672H68.14409Z"/>
      <path class="cls-3" d="M68.36983,36.3672h0.20867s0.116,0.00537.29468,0.03137c0.98874,0.13665,4.19565.91873,3.93365,5.309l-0.00667.02869H83.53964c0.00067-.004.01532-0.21669,0.012-0.58671a16.6006,16.6006,0,0,0-1.48345-6.6865c-0.01268-.02934-0.026-0.05669-0.03933-0.08468-0.10067-.21136-0.20469-0.424-0.31737-0.63738a13.518,13.518,0,0,0-3.37558-4.13365,15.38084,15.38084,0,0,0-5.06907-2.70553,23.76657,23.76657,0,0,0-4.12631-.8714l-0.048-.00667c-0.16267-.00265-0.40937-0.006-0.72338-0.00867V36.3672h0.00067Z"/>
      <path class="cls-4" d="M66.35615,55.925h1.73921l0.01072-10.54267c-1.14743.04334-14.01087-.00879-14.01087-0.00879V55.925H66.35615Z"/>
      <polyline class="cls-5" points="68.095 72.966 68.095 55.925 54.095 55.925"/>
      <path class="cls-6" d="M69.47213,55.96227a13.1742,13.1742,0,0,0,4.559-1.1694,18.56717,18.56717,0,0,0,2.92356-1.60478,14.9532,14.9532,0,0,0,6.5585-11.45021h0.016v-0.002H72.7897a4.35875,4.35875,0,0,1-4.22365,3.63492c-0.01,0-.022-0.00265-0.03335-0.00265-0.008.004-.16466,0.00867-0.43735,0.014-0.01133.00867,0,10.54279,0,10.54279Z"/>
      <polyline class="cls-7" points="68.095 55.925 68.095 55.925 68.095 72.966 83.324 72.966"/>
    </g>
  </g>
</svg>
