<svg id="Warstwa_1" data-name="Warstwa 1" xmlns="http://www.w3.org/2000/svg" width="200" height="100" viewBox="0 0 200 100">
  <defs>
    <style>
      .cls-1 {
        fill: #5e8e9f;
        fill-rule: evenodd;
      }
    </style>
  </defs>
  <title>rumos</title>
  <path class="cls-1" d="M50.43336,61.21955A4.28065,4.28065,0,1,1,54.71371,65.5,4.281,4.281,0,0,1,50.43336,61.21955Zm0-11.217a4.28065,4.28065,0,1,1,4.28035,4.28151A4.27933,4.27933,0,0,1,50.43336,50.00255Zm0-11.22159a4.28065,4.28065,0,1,1,4.28035,4.28035A4.281,4.281,0,0,1,50.43336,38.781Zm11.7279,20.584a4.27959,4.27959,0,1,1,5.847-1.56868A4.28193,4.28193,0,0,1,62.16126,59.365ZM42.78618,48.17524a4.27766,4.27766,0,1,1,5.847-1.5671A4.27341,4.27341,0,0,1,42.78618,48.17524Zm23.66334-.02564a4.27948,4.27948,0,1,1,1.56654-5.84639A4.28319,4.28319,0,0,1,66.44952,48.14959ZM47.08087,59.37666a4.28048,4.28048,0,1,1,1.56488-5.84855A4.28887,4.28887,0,0,1,47.08087,59.37666ZM81.11457,42.766V58.07421a0.61232,0.61232,0,0,1-.59681.59681H76.91125a0.61064,0.61064,0,0,1-.59621-0.59681V41.01411a0.80577,0.80577,0,0,1,.37739-0.5538,15.92886,15.92886,0,0,1,5.776-.9709c5.5282,0,7.99834,2.395,7.99834,6.04515a5.08143,5.08143,0,0,1-3.7096,4.61815l4.02028,7.64688a0.54856,0.54856,0,0,1-.52815.87142H85.77183a0.7476,0.7476,0,0,1-.57057-0.4248L82.35735,49.8825a0.59264,0.59264,0,0,1,.4513-0.757c1.64621-.33946,3.44883-1.5521,3.44883-3.31406,0-2.16617-1.6115-3.24306-3.73319-3.24306-0.19211,0-.489.01288-0.76659,0.03745-0.13788.01112-.27217,0.02506-0.38519,0.04408a1.66269,1.66269,0,0,0-.20205.03687ZM101.0339,55.145V44.45259a0.61123,0.61123,0,0,1,.59526-0.594h4.02963a0.61128,0.61128,0,0,1,.59623.594v12.954a0.8337,0.8337,0,0,1-.3651.551,16.61911,16.61911,0,0,1-6.28543.98864c-4.43,0-6.70554-1.45925-6.70554-5.3042V44.45259a0.61064,0.61064,0,0,1,.59682-0.594h4.0308a0.61113,0.61113,0,0,1,.59428.594V54.0272a1.36591,1.36591,0,0,0,1.56682,1.42748,3.15128,3.15128,0,0,0,1.28771-.221Zm13.34984-8.06337V58.07421a0.61285,0.61285,0,0,1-.59741.59681h-4.02847a0.61147,0.61147,0,0,1-.59584-0.59681V45.11132a0.81043,0.81043,0,0,1,.378-0.556,16.004,16.004,0,0,1,6.052-.97256c2.52786,0,3.93017.63368,4.75322,1.32147a8.28324,8.28324,0,0,1,5.05923-1.32147c3.51943,0,5.60514,1.982,5.60514,4.83876v9.65272a0.61113,0.61113,0,0,1-.59621.59681h-4.02867a0.61077,0.61077,0,0,1-.59506-0.59681V48.39349A1.554,1.554,0,0,0,124.0031,46.827a2.30234,2.30234,0,0,0-1.32215.38246V58.07421a0.61056,0.61056,0,0,1-.5939.59681h-4.03081a0.61093,0.61093,0,0,1-.59524-0.59681V48.39349a1.55285,1.55285,0,0,0-1.81443-1.56652,3.34069,3.34069,0,0,0-1.20473.17084ZM133.41905,51.252c0-4.42838,2.50231-7.66931,6.89549-7.66931,4.45229,0,6.92768,3.24093,6.92768,7.66931,0,4.454-2.50327,7.69417-6.92768,7.69417C135.89347,58.94621,133.41905,55.70608,133.41905,51.252Zm6.89549-4.42507a1.48084,1.48084,0,0,0-1.40073,1.24218,10.72165,10.72165,0,0,0-.32825,3.10019,10.11755,10.11755,0,0,0,.33936,3.06617,1.41415,1.41415,0,0,0,2.7937,0,10.31775,10.31775,0,0,0,.32941-3.06617,10.73809,10.73809,0,0,0-.32941-3.10019A1.485,1.485,0,0,0,140.31454,46.827Zm8.95217,11.26342a0.63627,0.63627,0,0,1-.29491-0.75984l0.85641-2.14093a0.588,0.588,0,0,1,.82851-0.30776,4.43623,4.43623,0,0,0,1.96753.4913,1.22468,1.22468,0,0,0,1.37559-1.15384c0-.71187-0.38519-1.1819-1.62855-1.70558-2.62889-1.07036-3.23741-2.58208-3.23741-4.12024,0-2.69149,2.11576-4.81076,5.2221-4.81076a8.569,8.569,0,0,1,4.15309.86206,0.632,0.632,0,0,1,.27968.76426l-0.75811,1.782a0.592,0.592,0,0,1-.81175.30211,3.77962,3.77962,0,0,0-1.62582-.41152,1.16227,1.16227,0,0,0-1.32079,1.15626c0,0.76649.57732,1.26063,1.62564,1.73067,2.82607,1.23555,3.46034,2.61056,3.46034,4.31323,0,2.77087-2.19417,4.83922-5.93573,4.83922A9.96064,9.96064,0,0,1,149.26672,58.09038Z"/>
</svg>
