<svg id="Warstwa_1" data-name="Warstwa 1" xmlns="http://www.w3.org/2000/svg" width="200" height="100" viewBox="0 0 200 100">
  <defs>
    <style>
      .cls-1 {
        fill: #00151d;
      }

      .cls-2 {
        fill: #d3072a;
      }

      .cls-3 {
        fill: #fff;
      }
    </style>
  </defs>
  <title>teknologisk</title>
  <g>
    <g>
      <rect class="cls-1" x="35.16041" y="35.00185" width="29.90234" height="29.9848"/>
      <rect class="cls-2" x="65.03693" y="35.00158" width="3.03357" height="29.99842"/>
      <g>
        <path class="cls-3" d="M55.82759,51.90779c0-.04123.141,0.5243,0.141,0.5243a8.0011,8.0011,0,0,1-1.21054.353c-0.063.02943-.02943,0.10511-0.10079,0.10088a0.29056,0.29056,0,0,1-.25224-0.0504,0.3917,0.3917,0,0,0-.25215.021c-0.05048-.00413-0.101-0.07144-0.15136-0.021a2.69358,2.69358,0,0,0-.475-0.08829,1.11678,1.11678,0,0,1-.374,0,1.05109,1.05109,0,0,0-.30272-0.021,0.62426,0.62426,0,0,0-.28995-0.07982,0.165,0.165,0,0,1-.164.02943A0.15208,0.15208,0,0,0,52.3077,52.575c-0.13453.05039-.25647-0.01683-0.38668,0.021-0.21021-.02943-0.45391.05471-0.68509,0.03788-0.27744.01683-.57584,0.04617-0.85751,0.08405a1.95806,1.95806,0,0,1-.39083.0378c-0.1303,0-.23955.042-0.36572,0.042a1.07785,1.07785,0,0,0-.311.05884c-0.1933-.03779-0.37823.07569-0.57575,0.05049a1.09213,1.09213,0,0,1-.38254.07982,4.22834,4.22834,0,0,0-.61787.12193,2.42487,2.42487,0,0,0-.72289.14282c-0.21435.00423-.37831,0.11356-0.5969,0.101a0.62273,0.62273,0,0,1-.49593.02935c-0.10925.04625-.2185-0.105-0.26061,0.05048a0.17262,0.17262,0,0,1-.15964.042,0.06989,0.06989,0,0,0-.06308-0.03366c-0.0252.21858-.18493,0.01683-0.29,0.12193a0.19285,0.19285,0,0,0-.22272-0.05048,0.17663,0.17663,0,0,1-.1429.09251c-0.0126-.02943-0.00837-0.07568-0.05039-0.07982-0.06308.00414,0,.063-0.02951,0.08819-0.10078-.00415-0.16387.14713-0.27312,0.06308-0.06722.07559-.21858-0.06308-0.22281,0.10088-0.08828.07568-.1555-0.12193-0.21012,0.01683-0.021-.02107-0.0378-0.06731-0.07991-0.05048a1.81877,1.81877,0,0,1-.22272.11348,0.39333,0.39333,0,0,1,.05048.12185,0.2093,0.2093,0,0,1-.12193-0.021,1.05246,1.05246,0,0,0-.39091.10088,2.29283,2.29283,0,0,0-.27312.08828,0.56188,0.56188,0,0,0-.496.3236,0.42286,0.42286,0,0,0-.30255.02106,3.3934,3.3934,0,0,1-.4036.22272c-0.02934.07568,0.101,0.084,0.04212,0.15127a0.271,0.271,0,0,1-.164-0.09242c-0.12193.19339-.36563,0.14713-0.48333,0.35312a6.65412,6.65412,0,0,0-.91627.23109,0.42748,0.42748,0,0,1-.32369-0.1807,0.44339,0.44339,0,0,0-.12185.0504,0.70087,0.70087,0,0,0-.46228.1303,0.23661,0.23661,0,0,1,.02934-0.10925L39.295,55.23975a2.90173,2.90173,0,0,1-.01269-0.29426c0.02529-.12184-0.18493-0.09241-0.08828-0.22272a1.48765,1.48765,0,0,1-.27321.05039,1.56542,1.56542,0,0,0,.17242-0.3236,0.53886,0.53886,0,0,0,.28995-0.311c-0.05462-.05472-0.105.0126-0.15973,0.021a1.08267,1.08267,0,0,1-.353.18069,0.12991,0.12991,0,0,0-.18079-0.04193,0.03475,0.03475,0,0,1-.03357.0126,0.81181,0.81181,0,0,0,.21435-0.33215,0.08829,0.08829,0,0,1,0-.1134,0.16528,0.16528,0,0,0,.05885-0.05047c-0.0252-.07145-0.13453-0.11771-0.07982-0.21013,0.11339-.07145-0.07145-0.12608-0.00846-0.21435a1.68806,1.68806,0,0,0-.09251-0.38246,0.35147,0.35147,0,0,0,.02106-0.25224c0.06308-.06722-0.0126-0.22272.12193-0.21014,0.063-.03365-0.03788-0.05039-0.0126-0.09251,0.09242-.01259.12185-0.105,0.21435-0.12184,0.13445,0.08405-.15136.23532,0.06722,0.22272a0.47392,0.47392,0,0,0,.26475-0.17233,0.0724,0.0724,0,0,1,.05885.03366,0.27792,0.27792,0,0,1-.12193.08828,0.32035,0.32035,0,0,0-.08819.11348,0.38311,0.38311,0,0,0,.28158,0,0.509,0.509,0,0,1,.30263-0.15127,9.30459,9.30459,0,0,1,.89944-0.48765c0.01648-.02264.03692-0.04529,0.05313-0.07031H42.2642a0.68254,0.68254,0,0,0-.418.12079c0.11771,0.06722-.00837.1555-0.0126,0.23532l-0.07991.0799c0.164,0.03781.28167-.15126,0.43294-0.10087a3.205,3.205,0,0,1,.84174-0.33514H55.82759Z"/>
        <path class="cls-3" d="M40.81077,51.90779a0.14539,0.14539,0,0,0,.02678-0.08934,1.345,1.345,0,0,1,.42448-0.19339,0.506,0.506,0,0,1,.269-0.10088c0.03366-.07559.15973-0.042,0.15127-0.15128a0.18957,0.18957,0,0,1,.15136,0,1.63584,1.63584,0,0,0,.27321-0.1303c0.03779,0.11771-.13454.10088-0.18916,0.17233l-0.042.042c0.04625,0.06307.10511-.0252,0.15973-0.021a0.07647,0.07647,0,0,0,.03357.07982,2.55706,2.55706,0,0,1,.29-0.1303,0.98938,0.98938,0,0,1,.57584-0.24378,0.927,0.927,0,0,1,.28158-0.13867,0.61174,0.61174,0,0,1,.17234-0.10088,1.845,1.845,0,0,0-.52536.15972,0.24021,0.24021,0,0,1-.15127.02935,0.11267,0.11267,0,0,1-.02952-0.05876,0.89135,0.89135,0,0,0,.39515-0.18079,0.56106,0.56106,0,0,0,.4413-0.12185,1.43456,1.43456,0,0,0,.25215-0.02943c0.00846,0.01683.03788,0.05885,0.06308,0.02943a0.74151,0.74151,0,0,1,.28158-0.20176,3.09459,3.09459,0,0,1,.54227-0.11348c0.11762-.09251.28995-0.05462,0.40342-0.15127l0.042,0.0126a0.16841,0.16841,0,0,1-.09242.10925,0.32505,0.32505,0,0,0-.30263.09251,0.25518,0.25518,0,0,0-.23119.07144,0.06808,0.06808,0,0,0,.02943.05877l0.11347-.00837c0.02529,0.03366-.021.10925,0.05048,0.11771a0.36207,0.36207,0,0,1,.30263,0,1.57172,1.57172,0,0,1,.45391-0.11771c0.042,0,.105-0.00837.10925,0.0378a0.46546,0.46546,0,0,1-.22272.07145c-0.13454.08828-.32784,0.03366-0.46237,0.1303a0.10056,0.10056,0,0,0,.07982.07145c0.01683-.00414.02106,0.0126,0.02943,0.02106,0.02529,0.12608-.12185.05885-0.1681,0.12185a0.5749,0.5749,0,0,1-.17233-0.0126,0.46176,0.46176,0,0,0,.18916-0.20176,0.07341,0.07341,0,0,0-.08828-0.021,0.14306,0.14306,0,0,0-.042.09242,0.17894,0.17894,0,0,0-.18079.07991,0.49016,0.49016,0,0,1,.02106.11348,0.15657,0.15657,0,0,0-.12184.1303,0.09311,0.09311,0,0,1-.05886.00837,0.10106,0.10106,0,0,1-.02106-0.13867c0.03788-.042.12193-0.00423,0.1303-0.07145a6.44489,6.44489,0,0,0-.7776.17233,2.111,2.111,0,0,0-.332.13867V51.394c0.05462,0.03356.1303-.02529,0.15127,0.0504a0.07523,0.07523,0,0,0-.00836.042,0.61133,0.61133,0,0,1-.15137.0378c-0.042.05471-.1555,0.01259-0.1429,0.11356-0.04617.05454-.06723-0.01692-0.10925-0.02951-0.14291-.07982-0.23956.07991-0.30264,0.15973,0.03366-.07568-0.11771-0.13868.00838-0.19331-0.07983.00424-.0756-0.12607-0.15965-0.05047a0.39771,0.39771,0,0,1,.01674.18493,2.28832,2.28832,0,0,0-.269.1303,0.21668,0.21668,0,0,1-.1074.06837H40.81077Z"/>
        <path class="cls-3" d="M42.39909,49.32046a0.06331,0.06331,0,0,1,.00194-0.04484,0.17858,0.17858,0,0,0,.1303-0.07145,0.24334,0.24334,0,0,1,.05885-0.21858,0.88494,0.88494,0,0,0-.21013-0.07145c-0.06308-.02106-0.1555.12185-0.15973,0a3.39683,3.39683,0,0,1,.1681-0.353,0.20775,0.20775,0,0,1-.0244-0.103H60.82322a1.33924,1.33924,0,0,0-.08423.5443,0.59223,0.59223,0,0,1-.0148.31805H50.78669a0.07349,0.07349,0,0,0-.07621-0.04484,0.26105,0.26105,0,0,0-.21013.0126,0.312,0.312,0,0,0,.02493.03225h-0.107a0.33833,0.33833,0,0,0-.01039-0.12475,0.829,0.829,0,0,1-.53382-0.00837c-0.07145,0-.01682.05462-0.02106,0.08828L49.932,49.32046H49.71606a0.20736,0.20736,0,0,0-.06476-0.08273l0.01269-.0504a0.07222,0.07222,0,0,0-.09251.01683c0.00423,0.04193.06308,0.06722,0.0126,0.09242-0.02943.00846-.03366-0.01261-0.042-0.02943l-0.00837-.0126c-0.04211.00423-.02943,0.07145-0.08414,0.05048a0.33756,0.33756,0,0,1-.05876-0.1682,0.04256,0.04256,0,0,0-.05048-0.021c-0.05462.063-.105,0.15127-0.20176,0.10088a0.95341,0.95341,0,0,0-.11339.1037H48.94824a0.07631,0.07631,0,0,0-.06184-0.0533c-0.03014.01506-.01983,0.03462-0.011,0.0533H48.6856a0.08641,0.08641,0,0,0-.043-0.08273,0.26679,0.26679,0,0,0-.08828.05048,0.10939,0.10939,0,0,0-.04476.03225H48.39689c-0.011-.012-0.02573-0.02211-0.03586-0.03225a0.12412,0.12412,0,0,0-.04326.03225H48.12808a0.08819,0.08819,0,0,0-.02766-0.04484c-0.02105-.02529-0.08405-0.02529-0.06308-0.07991a0.35232,0.35232,0,0,0,.1429-0.07145,0.28691,0.28691,0,0,0-.22272-0.07145,0.88154,0.88154,0,0,1-.35312.06308,0.18573,0.18573,0,0,0-.20166.07145,1.83239,1.83239,0,0,0-.40351.05876,0.3346,0.3346,0,0,0-.21022-0.04193,0.18853,0.18853,0,0,1-.1303.08405,0.2746,0.2746,0,0,1-.063-0.10088c-0.14291-.03366-0.21436.227-0.353,0.08828a1.09735,1.09735,0,0,1-.181.04484h-0.176a0.09965,0.09965,0,0,0-.1348-0.00282l-0.00176.00282H45.54966a0.06822,0.06822,0,0,0,.00784-0.07437l0.12194-.09241a0.08025,0.08025,0,0,0,.02942.08405,0.2017,0.2017,0,0,0,.15136-0.09242,0.07745,0.07745,0,0,0-.07991-0.05885A0.17,0.17,0,0,1,45.629,49.0528a0.42019,0.42019,0,0,0-.19339.084,0.2427,0.2427,0,0,1-.0585.18362H45.34931a0.12337,0.12337,0,0,0-.06669,0H44.98368a0.10038,0.10038,0,0,1-.023-0.07437c0.02943-.02519.11771-0.02519,0.08405-0.07981a0.54,0.54,0,0,0-.31514.02106c-0.03788.08405-.21858-0.01261-0.17242,0.11771a0.089,0.089,0,0,0-.11251.01542h-0.1192L44.31762,49.305l-0.00458.01542H43.114a0.48773,0.48773,0,0,1,.12352-0.1037,1.69266,1.69266,0,0,0-.41188-0.02106,0.12322,0.12322,0,0,0-.08564.12475H42.39909Z"/>
        <path class="cls-3" d="M42.74,49.32046a0.06505,0.06505,0,0,1-.08678.04758,0.09529,0.09529,0,0,0-.15127.0378,1.06908,1.06908,0,0,0-.10282-0.08537H42.74Z"/>
        <path class="cls-3" d="M44.313,49.32046a1.26387,1.26387,0,0,1-.21814.077,0.11528,0.11528,0,0,0-.10934.05048,0.04309,0.04309,0,0,0,.01683.042c0.042,0,.10511-0.05471.12193,0.00837,0.03357,0.0799-.04625.10088-0.08828,0.1303a0.32188,0.32188,0,0,0-.22272-0.07145c-0.07145-.05472-0.01683-0.21435-0.15136-0.13867-0.07982.063,0.0252,0.1681-.05039,0.23109,0.0378,0.04626-.02943.05886-0.05048,0.07992a0.17675,0.17675,0,0,1-.12185.01259c0.021-.0799.27735-0.042,0.12185-0.16387a2.28151,2.28151,0,0,1-.34466.07136,0.1027,0.1027,0,0,0-.10925,0,0.20464,0.20464,0,0,0,0,.10089c-0.07145-.0252-0.01683-0.18916-0.1303-0.1429a0.32008,0.32008,0,0,1-.20176.07154l-0.08405-.03788-0.01682.05039c-0.00838-.05462,0-0.1681.08827-0.17224a0.34937,0.34937,0,0,1,.07991-0.11356,0.20179,0.20179,0,0,0,.27153-0.08537H44.313Z"/>
        <path class="cls-3" d="M44.44467,49.32046c-0.04361.03047-.08264,0.0644-0.1192,0h0.1192Z"/>
        <path class="cls-3" d="M45.28262,49.32046a0.11861,0.11861,0,0,0-.05709.035c-0.05947-.0496-0.18916.0178-0.24184-0.035h0.29893Z"/>
        <path class="cls-3" d="M45.37715,49.32046l-0.013.00555-0.01489-.00555h0.02784Z"/>
        <path class="cls-3" d="M45.74912,49.32046a0.24961,0.24961,0,0,1-.21259.08537c-0.03216-.0296-0.00608-0.055.01313-0.08537h0.19947Z"/>
        <path class="cls-3" d="M46.06171,49.32046c-0.05233.00872-.10546,0.01427-0.15947,0.01814l-0.01656-.01814h0.176Z"/>
        <path class="cls-3" d="M48.31777,49.32046c-0.04714.04925-.09022,0.12423-0.1585,0.05595a0.11937,0.11937,0,0,0-.0378.07991c-0.0126-.047.01692-0.09172,0.00661-0.13586h0.18969Z"/>
        <path class="cls-3" d="M48.50957,49.32046c-0.02678.02793-.05013,0.05762-0.09815,0.02661a0.05311,0.05311,0,0,0-.01454-0.02661h0.11268Z"/>
        <path class="cls-3" d="M48.87538,49.32046a0.03149,0.03149,0,0,1,.00255.035,0.44362,0.44362,0,0,1-.19329-0.01684l0.001-.01814h0.18977Z"/>
        <path class="cls-3" d="M49.02515,49.32046a0.09934,0.09934,0,0,0-.04634.02661,0.05629,0.05629,0,0,1-.03057-0.02661h0.07691Z"/>
        <path class="cls-3" d="M49.932,49.32046l0.05559,0.02661a0.241,0.241,0,0,0,0,.20176,0.90279,0.90279,0,0,1-.17233-0.18079,0.07778,0.07778,0,0,1-.0992-0.04758H49.932Z"/>
        <path class="cls-3" d="M50.52528,49.32046a0.10645,0.10645,0,0,1,.03392.077c-0.02943.04625-.06731-0.01683-0.10934-0.00837a0.08843,0.08843,0,0,1-.03154-0.06863h0.107Z"/>
        <path class="cls-3" d="M60.72419,49.32046a1.17715,1.17715,0,0,0-.03559.19894,2.51741,2.51741,0,0,1-.22158.6635H58.71139a0.23968,0.23968,0,0,0-.14114-0.07092c-0.02943-.13867-0.1807-0.02943-0.24378-0.11771-0.16809-.021-0.31946-0.07982-0.48333-0.11348-0.12608.02519-.206-0.09242-0.32369-0.05885a0.5619,0.5619,0,0,0-.23955-0.02934,0.78887,0.78887,0,0,0-.41611-0.02106,0.13411,0.13411,0,0,1-.10925-0.042,4.09445,4.09445,0,0,1-1.21891-.10088,0.32648,0.32648,0,0,0-.17233.021,0.47642,0.47642,0,0,0,.18916.07992c0.11771-.10088.12185,0.07145,0.23532,0.06308a0.20409,0.20409,0,0,0,.18916.06722A0.05642,0.05642,0,0,1,56.04,49.843a0.11953,0.11953,0,0,1,.01674.13867,0.997,0.997,0,0,0,.33629.09251,0.66777,0.66777,0,0,0,.14616.10872H48.39583a0.82376,0.82376,0,0,0,.13753-0.1718,0.14425,0.14425,0,0,0-.1429,0,0.25636,0.25636,0,0,1-.05894.07145,0.105,0.105,0,0,0-.14282-0.02106,0.12548,0.12548,0,0,1-.05885.07154,1.27246,1.27246,0,0,1-.36148-0.02106,0.15,0.15,0,0,0-.09762.07092H47.64722a1.33476,1.33476,0,0,0-.11418-0.27268c-0.02105-.13453.10925-0.02943,0.16387-0.08828,0.0504,0.05885.1933-.04625,0.18071,0.10088a0.34426,0.34426,0,0,0-.09243.07145c0.042,0.09673.1429,0.0252,0.20176,0.01683,0.05462-.02943.03357-0.06723,0.021-0.10925-0.0252-.00423-0.03357-0.0378-0.05885-0.042V49.8304a1.47455,1.47455,0,0,0,.27321-0.02943c-0.0252.10088,0.11356,0.05462,0.16819,0.07982,0.08819-.00837.22272,0.03366,0.23532-0.08819a0.53683,0.53683,0,0,0,.269.01674,0.07781,0.07781,0,0,1,.03366.12193,0.26982,0.26982,0,0,1-.1933.07145,0.06269,0.06269,0,0,0,.02934.09242c0.164-.11771.21435,0.22281,0.35312,0.01683a0.22291,0.22291,0,0,0-.12193-0.07982c0.06308-.08414-0.00838-0.23118.1429-0.27321,0.11348,0.02943.19339-.18071,0.29426-0.03788a2.56573,2.56573,0,0,1,.47074-0.0504A0.10459,0.10459,0,0,1,50.017,49.6496a0.13567,0.13567,0,0,0,.1807.07146,0.0555,0.0555,0,0,1,.05048-0.0126,0.313,0.313,0,0,0,.02934.26484,0.05661,0.05661,0,0,0,.05048.021,0.26779,0.26779,0,0,0,.02943-0.16387,0.19026,0.19026,0,0,1,.17233-0.21021,0.53533,0.53533,0,0,0,.27321-0.063c0.1681-.0252.40351,0.07982,0.475-0.13867a0.20292,0.20292,0,0,0-.09251-0.07145c-0.1303.02934-.24378,0.10088-0.37409,0.1303a0.19723,0.19723,0,0,1-.02467-0.15691h9.93751Z"/>
        <path class="cls-3" d="M47.67074,50.1829l-0.01586.01313-0.00766-.01313h0.02352Z"/>
        <path class="cls-3" d="M56.5392,50.1829c0.02766,0.01559.05612,0.02951,0.085,0.04255a4.07253,4.07253,0,0,1,.1303.60527l-0.07991.0378a8.62243,8.62243,0,0,0-1.00869.24378l-0.02106.02106s0.18273,0.73319.18273,0.77443H43.02842l0.06616-.01788a1.40306,1.40306,0,0,1,.5043-0.15127,0.67945,0.67945,0,0,1,.35312-0.143l0.43708-.13867a1.0596,1.0596,0,0,1,.06731-0.12194c0.05462,0,.1303-0.0125.14291,0.05049a1.12777,1.12777,0,0,0,.49593-0.11348,0.39132,0.39132,0,0,1,.26061-0.08828l0.1429-.1807a0.93547,0.93547,0,0,0,.60518-0.09251,2.45521,2.45521,0,0,1,1.14746-.30263,0.59925,0.59925,0,0,1,.24378-0.15964l0.03788-.04211c-0.03788-.0126-0.09674-0.05462-0.05885-0.10925a0.12193,0.12193,0,0,1,.12185-0.042v0.05886a0.07931,0.07931,0,0,0-.042.03357c0.03366,0.05885.05462-.03357,0.10088,0-0.00423.09674,0.11348,0.09674,0.1807,0.07991a2.59952,2.59952,0,0,0,.36572-0.20176A0.247,0.247,0,0,1,48.382,50.196l0.01383-.01313H56.5392Z"/>
        <path class="cls-3" d="M60.467,50.1829a1.20169,1.20169,0,0,1-.4761.50492,0.79721,0.79721,0,0,1-.4918.063,2.70716,2.70716,0,0,0-.71874-0.55479,0.09556,0.09556,0,0,1-.069-0.01313H60.467Z"/>
        <path class="cls-3" d="M62.92968,48.45811a0.50453,0.50453,0,0,1-.44642.31311,0.8225,0.8225,0,0,1-.28995.02944,1.39611,1.39611,0,0,0-.496-0.03788,0.92284,0.92284,0,0,0-.42686-0.30466h1.65925Z"/>
        <path class="cls-3" d="M46.12744,42.4211a0.3047,0.3047,0,0,1-.02352-0.05542,0.62779,0.62779,0,0,0-.25215.01269,1.58894,1.58894,0,0,0-.36572-0.13453c-0.05039.0126-.04617-0.01683-0.05876-0.0504a0.07158,0.07158,0,0,0-.06308-0.05884c-0.063,0-.09665.063-0.15973,0.05884-0.0504-.02942-0.05462-0.15549-0.1429-0.10087-0.0378.0126-.00837,0.07145-0.05885,0.063,0.00423-.105-0.11771-0.10087-0.02934-0.20176a0.98378,0.98378,0,0,0-.54642.03788c-0.11771-.00422-0.23964.14291-0.33206,0.03358a3.91444,3.91444,0,0,1,.87848-0.23533,1.23755,1.23755,0,0,0,.41188-0.05884,1.40071,1.40071,0,0,0,.53373-0.05885,0.501,0.501,0,0,0,.29426,0,2.24515,2.24515,0,0,1,.62624-0.03366,0.04877,0.04877,0,0,1-.02943.08414c-0.10934-.05885-0.12608.04617-0.1429,0.11762a0.03863,0.03863,0,0,0-.00846.042,0.24875,0.24875,0,0,0,.13877.02106c0.13867,0.13867.19752-.23955,0.34465-0.11349a0.3662,0.3662,0,0,1,.1807.03366c0.00423,0.02943-.0378.08405,0.02106,0.08819a2.02959,2.02959,0,0,0,.27312.0126c0.05471-.11348.15137,0.05048,0.21021-0.063a0.31441,0.31441,0,0,1-.10925-0.10088,0.17571,0.17571,0,0,0,.05876-0.15973,0.10777,0.10777,0,0,1,.10934.05039c0.042-.0252.00414-0.105,0.07145-0.09242a0.18551,0.18551,0,0,0,.1429.07982c0.08405-.08819.19753,0.05048,0.27312-0.0378a1.60656,1.60656,0,0,1,.51285.02106,0.38643,0.38643,0,0,1-.07146.11762,0.3,0.3,0,0,0,.20176-0.00837l-0.08828-.09251a0.21766,0.21766,0,0,1,.1807.02106c0.11771,0.02943.28581-.11348,0.32369,0.07982a1.052,1.052,0,0,0-.30263.04211c0.10511,0.05876.1555,0.21012,0.26061,0.25215,0.03357-.01683.05876,0.0378,0.07982-0.00846-0.18916-.13445.1429-0.18071,0.06308-0.34466a0.06915,0.06915,0,0,1,.05876-0.00837,0.42561,0.42561,0,0,0,.1303.23955c0.01269,0.05462-.063.1303,0.02943,0.15136,0.12608,0.01683.0126-.10088,0.06308-0.15136,0.02943-.05876.18493-0.07559,0.10925-0.1807,0.03366-.05885.08405-0.00423,0.12193-0.021a1.22671,1.22671,0,0,1,.38246.042,1.27892,1.27892,0,0,0-.08828.12185,0.44348,0.44348,0,0,1-.11348-0.10088,0.29543,0.29543,0,0,0-.20176.21857,1.18268,1.18268,0,0,1,.17233.01261c-0.03366.06722-.01683,0.15126-0.0504,0.22272a0.12794,0.12794,0,0,0,.13022-0.03358c0.05471-.042-0.0252-0.1051.02951-0.15135,0.04194,0.042.15127-.00414,0.13445,0.09251a0.1765,0.1765,0,0,0-.09251.05884c0.09251,0.07146.34475-.19338,0.29426,0.07146,0.08405,0.05462.22272-.10088,0.28158,0.0504a0.19663,0.19663,0,0,0,.07145-0.0378,0.27662,0.27662,0,0,0-.20176-0.09251,0.14979,0.14979,0,0,1,.101-0.12185,0.95937,0.95937,0,0,1,.70606.1429,0.13006,0.13006,0,0,1-.11347.12185l-0.10925-.0126a0.45006,0.45006,0,0,0,.023.10581H51.21751a0.1789,0.1789,0,0,1,.01-0.11418,0.32969,0.32969,0,0,0-.1807-0.02943l-0.02106.1177a0.14991,0.14991,0,0,0-.14713.02591H46.12744Z"/>
        <path class="cls-3" d="M50.87858,42.4211l-0.01674.01612c-0.00846.07145,0.10511,0.06721,0.15127,0.10925a0.81963,0.81963,0,0,1,.46659.06308,1.75615,1.75615,0,0,0,.30255.02934c0.04211,0.02942.12193,0.05894,0.08828,0.12193-0.01682.04626-.09242,0.02944-0.07982,0.08829,0.0252,0.01683.03366,0.05884,0.07145,0.042,0.063-.07569.063-0.21858,0.20176-0.20176a0.28776,0.28776,0,0,1,.28158-0.10925,0.21,0.21,0,0,1,.042.21013l-0.0126.00837a0.67079,0.67079,0,0,0,.1933.07144,0.35362,0.35362,0,0,1,.32369-0.10078c-0.0126.0252,0.021,0.03357,0.02943,0.05039l0.26061,0.0126,0.042-.021c-0.05894-.07145-0.22281-0.06308-0.20176-0.20176,0.07982-.042.1681-0.18079,0.26053-0.07154a0.033,0.033,0,0,1,.03365-0.00837,0.20211,0.20211,0,0,0,.10925.1807l0.02943,0.07991a0.63559,0.63559,0,0,0-.15127.09251c0.13867,0.05454-.05462.13867,0.0504,0.21013a0.46758,0.46758,0,0,1,.28167.02943c0.02943,0.01683.0504-.02943,0.07145,0v0.02943a0.10959,0.10959,0,0,0-.10934.042c0.07331-.00608.07119,0.041,0.0645,0.08978H48.17293a0.37437,0.37437,0,0,1-.0852-0.04775,0.20653,0.20653,0,0,1-.10925-0.042,1.86189,1.86189,0,0,1-.49593-0.10088,0.117,0.117,0,0,0-.06722-0.07991,0.7892,0.7892,0,0,1-.19339.07145C47.39,42.95,47.09587,42.908,47.1001,42.78189a0.0679,0.0679,0,0,0-.07145-0.03366l-0.16819-.13867c-0.11761-.00423-0.26052.063-0.3236-0.07991a1.2558,1.2558,0,0,1-.25215,0,0.21766,0.21766,0,0,1-.15727-0.10854h4.75114Z"/>
        <path class="cls-3" d="M51.40182,42.4211l-0.002.00766c-0.05462.00846-.08828,0.09674-0.15127,0.05048a0.1347,0.1347,0,0,1-.031-0.05815h0.18431Z"/>
        <path class="cls-3" d="M53.66247,43.28355a0.42907,0.42907,0,0,0-.00564.05313,0.0647,0.0647,0,0,1-.05039.00837,0.03653,0.03653,0,0,0-.02106-0.02943,0.05683,0.05683,0,0,0-.06722.02943,0.167,0.167,0,0,0,.1303.1807,0.355,0.355,0,0,0,.23118-0.05876c0.021,0.04617-.04625.10087,0.021,0.12185a0.60657,0.60657,0,0,0,.33206.03788c0.03366-.02529.00837-0.08828,0.05886-0.08828a0.25762,0.25762,0,0,0-.00838.10088,0.09573,0.09573,0,0,0,.09242.03779,1.86,1.86,0,0,0,.1807.1808,0.86951,0.86951,0,0,1,.23118.04194,0.07567,0.07567,0,0,0,.05048-0.09242,0.1546,0.1546,0,0,0-.15973-0.01683l-0.0126-.06308c-0.09665-.01674-0.15973-0.11339-0.26061-0.12185-0.07982-.0252-0.021-0.09665-0.0126-0.13867l0.07145-.02943c-0.00423-.02943-0.0378-0.05462-0.00845-0.08405,0.03365-.00846.05471,0.09242,0.08827,0.03357a1.37977,1.37977,0,0,0,.18493.15136c0.02943-.02943.05048-0.10088,0.10934-0.08405a0.10386,0.10386,0,0,1,.09242.07136c-0.00414.02529-.0378,0.04634-0.0126,0.07154,0.05462-.00846.07145-0.1303,0.15136-0.07154a1.56632,1.56632,0,0,1,.1933.17233,0.76358,0.76358,0,0,1,.2606.05885,2.646,2.646,0,0,1-.23955-0.20167,3.56009,3.56009,0,0,1-.38668-0.18079,0.09557,0.09557,0,0,1,.09241-0.08828,1.65549,1.65549,0,0,1,.51276.18079,2.61917,2.61917,0,0,0,.40351.3236A1.56855,1.56855,0,0,0,56.1282,43.656a0.24673,0.24673,0,0,0,.1429.05048c-0.07136.1681,0.10511,0.164,0.18079,0.23532h0.021a0.80192,0.80192,0,0,1,.12193-0.27312c0.0378-.1303.18493,0.00414,0.26061-0.07991a0.06244,0.06244,0,0,1,.07982.03788c-0.063.09242,0.06723,0.14282,0.09251,0.20167a0.30884,0.30884,0,0,0-.06308.22281c-0.0378.05462-.227-0.03366-0.15127,0.09242a0.82593,0.82593,0,0,0,.49593.23964,1.3748,1.3748,0,0,0,.36149-0.15136,0.21116,0.21116,0,0,1,.1429-0.02943,0.73529,0.73529,0,0,0,.25216.24387,0.1314,0.1314,0,0,0,.1303,0c-0.00423-.08414-0.1303-0.06308-0.1303-0.15136,0.1177-.0378.18915,0.17233,0.32369,0.06722a2.108,2.108,0,0,0,.22272.17233,0.593,0.593,0,0,1,.30263-0.07982c0.11762-.02521.105,0.11348,0.18916,0.15127l-0.05885.05885a1.40663,1.40663,0,0,1,.34044.07145,1.21367,1.21367,0,0,1,.42448.22272,0.93147,0.93147,0,0,0,.216.04944H51.48658A0.10282,0.10282,0,0,1,51.4502,44.959c-0.063-.03779-0.10925-0.16809-0.22273-0.12184a0.1279,0.1279,0,0,1-.1933.06308c-0.09665-.07145.06722-0.17656-0.05885-0.22281-0.12194.07991-.20176-0.1555-0.30264,0-0.04625-.01683-0.08405-0.105-0.15136-0.07145a0.78032,0.78032,0,0,0-.10088-0.15964,0.15511,0.15511,0,0,0-.15127.03771c-0.06308-.10925-0.28581.02943-0.25215-0.15964-0.11771-.01683-0.25223-0.18493-0.353-0.05048a0.1715,0.1715,0,0,1-.12193.02943c0.03366-.02943.09251-0.08828,0.02943-0.13023l0.10088-.15135c0.08405-.00423.18916,0.09665,0.25215-0.0126a0.37076,0.37076,0,0,0-.41188-0.13867c-0.01683-.11356-0.13445.00836-0.1429-0.101-0.05885-.03357-0.17232.07991-0.18916-0.02934a1.3291,1.3291,0,0,0-.37409-0.21444,1.0996,1.0996,0,0,1-.1933-0.13867,0.5984,0.5984,0,0,1-.27321,0,0.3696,0.3696,0,0,0-.167-0.10352h5.48954Z"/>
        <path class="cls-3" d="M53.48978,46.73322h0Z"/>
        <path class="cls-3" d="M62.34327,46.73322a0.24815,0.24815,0,0,0,.14.1844,1.13126,1.13126,0,0,1,.28158.4414,2.26473,2.26473,0,0,1,.34475.416,1.71079,1.71079,0,0,1-.1303.61373c-0.01586.02106-.03233,0.04458-0.0496,0.06934H61.27043c-0.01225-.00855-0.02414-0.01762-0.0355-0.02731a1.27171,1.27171,0,0,0-.33621-0.08405,0.48727,0.48727,0,0,0-.0755.11136H42.364a0.45512,0.45512,0,0,1,.09586-0.2207l0.09251-.09242c-0.09674-.11348-0.25638.15127-0.28166-0.06731,0.06308-.08405.23118-0.17233,0.10933-0.28581a0.348,0.348,0,0,1,.27312-0.26061c0.05471,0.01683.10511-.07559,0.15136,0a3.60023,3.60023,0,0,0,.37409-0.13022,1.25582,1.25582,0,0,1,.353-0.12193,1.00638,1.00638,0,0,1,.4414-0.10925,0.06708,0.06708,0,0,1-.05894.05885,0.72436,0.72436,0,0,0-.25215.09242,0.19073,0.19073,0,0,0,.20176.03788,0.21217,0.21217,0,0,1,.18916-0.00846,1.183,1.183,0,0,1,.538-0.21435,0.83721,0.83721,0,0,0,.25224-0.10925,0.38738,0.38738,0,0,0,.28995-0.05048,2.27573,2.27573,0,0,1,.64729-0.09243c0.07145-.11347.19753,0.10512,0.22281-0.06721,0.05462,0.10079.126-.02106,0.1681-0.05048a0.12314,0.12314,0,0,1,.042.15973l-0.30263.07982a0.13344,0.13344,0,0,0-.10925.07145c0.13445,0.07991.23532-.10925,0.36986-0.02944a0.775,0.775,0,0,1,.3236-0.042,1.19258,1.19258,0,0,0-.41188.19339,0.25367,0.25367,0,0,0-.26484.07145,0.10858,0.10858,0,0,1,.10088.05876c-0.0126.01692-.00837,0.05048-0.03779,0.05048-0.06309-.021-0.15128.00846-0.17234-0.07145-0.084.10088-.10511,0.30677-0.29418,0.28158a1.00014,1.00014,0,0,0-.55487.10088,1.62253,1.62253,0,0,0-.36986.13453c-0.00423.084,0.11771,0.05048,0.15973,0.02942a2.04688,2.04688,0,0,1,.32369-0.09251,0.57789,0.57789,0,0,0,.30255-0.08818,1.53868,1.53868,0,0,0,.69354-0.13453,1.3726,1.3726,0,0,0,.48747-0.08829,0.285,0.285,0,0,1,.01683.12194,0.94269,0.94269,0,0,0,.56747-0.13453,0.49582,0.49582,0,0,1,.26061.02106l0.021-.02106c-0.01259-.01683-0.05039-0.042-0.021-0.06722a0.05967,0.05967,0,0,1,.10088-0.0126c0.05885,0.1555.23532,0.042,0.353,0.063a3.18573,3.18573,0,0,1,.39505-0.09251c-0.00414-.15964.21435-0.10925,0.32369-0.15964,0.07982,0.09665.2185-.02944,0.30255,0.06722a2.42785,2.42785,0,0,1,.60527,0c0.02943-.07568.227-0.0378,0.1303-0.13867-0.07568-.00846-0.1933.06722-0.21435-0.042a0.09284,0.09284,0,0,1-.11771.02942L49.147,47.05639c0.07145-.04625.14291-0.06722,0.22272-0.10934a0.80974,0.80974,0,0,0,.56738.03788,2.78166,2.78166,0,0,1,.46237.0504c-0.00414.042-.05885,0.03788-0.09242,0.05047-0.09674.01684-.24387-0.07567-0.29,0.042a0.07158,0.07158,0,0,0,.07982.02943c0.0126-.07146.09251-0.02529,0.1429-0.03788l0.05885,0.05048c0.43717,0.01683.86165,0.00414,1.29036,0.00837a0.04652,0.04652,0,0,0,.042-0.07145,1.13372,1.13372,0,0,1-.30263-0.1303,0.56482,0.56482,0,0,0-.21435-0.1429l0.03366-.02943a0.8309,0.8309,0,0,1,.42025.11348,1.38123,1.38123,0,0,1,.25224.11771,0.18694,0.18694,0,0,1,.1429.02106c0.03357,0.05462-.042.08828-0.09251,0.10088a1.13765,1.13765,0,0,0,.37409.07982c0.21013-.06722.4791,0.19753,0.61787-0.06722a4.37953,4.37953,0,0,1,.622.01683A0.1803,0.1803,0,0,0,53.598,47.0858c0.11771,0.02521.248-.09664,0.33206,0.042,0.12185,0.05885.23118-.12193,0.33206,0.00837a0.27589,0.27589,0,0,0-.02106.08405,0.22208,0.22208,0,0,0,.21436-0.03357,0.4222,0.4222,0,0,1-.14291-0.18916c-0.04194-.07145-0.09665.00423-0.15127,0-0.08828-.03366-0.18493-0.05886-0.2732-0.10088a0.07552,0.07552,0,0,0,.01259-0.05049,0.58572,0.58572,0,0,1-.242-0.11294h8.68468Z"/>
        <path class="cls-3" d="M53.48061,46.73322a0.06233,0.06233,0,0,1-.02555-0.0089,1.24783,1.24783,0,0,0-.29-0.1807,0.89254,0.89254,0,0,1-.25215-0.44554c-0.1303-.00846.00846-0.34043-0.16387-0.13031a0.06781,0.06781,0,0,1-.02943-0.09251c0.0378-.01674.06722,0.042,0.09242-0.00836a0.05952,0.05952,0,0,0-.03357-0.05885c-0.042.00837-.11356-0.0252-0.1303,0.02943v0.00837a0.09511,0.09511,0,0,1-.0378-0.10088,0.39731,0.39731,0,0,1-.18493-0.23109,0.92829,0.92829,0,0,0-.31109-0.05048c0.0126-.10089-0.09242-0.08828-0.15127-0.09251l0.02943-.10079a0.10114,0.10114,0,0,0-.12193.07145,0.0352,0.0352,0,0,1-.01682.02934,0.12988,0.12988,0,0,1-.10088-0.11763,0.27959,0.27959,0,0,0,.02943-0.17232c-0.07965-.06238-0.22211-0.01912-0.29567-0.07251h8.53958a0.10263,0.10263,0,0,1,.0488.05145,0.87569,0.87569,0,0,0,.311.15973,1.86169,1.86169,0,0,1,.26061.21435,0.16176,0.16176,0,0,0,.12185.05885,2.84008,2.84008,0,0,0,.28158.22272,0.24313,0.24313,0,0,1,.18493.143,0.45389,0.45389,0,0,0,.39091.16811,0.88692,0.88692,0,0,0,.43294.31523,0.76858,0.76858,0,0,1,.17233.22272,0.28067,0.28067,0,0,1,.11216.16863H53.65858a0.16789,0.16789,0,0,1-.03119-0.05929,0.26287,0.26287,0,0,0-.13761.05929H53.48061Z"/>
        <path class="cls-3" d="M58.76354,44.36219a0.10155,0.10155,0,0,1-.06308-0.01683A0.03618,0.03618,0,0,1,58.73,44.3118C58.76777,44.295,58.80557,44.34536,58.76354,44.36219Z"/>
        <path class="cls-3" d="M58.56179,44.28228V44.25294a0.03574,0.03574,0,0,1,.02951.02934H58.56179Z"/>
        <path class="cls-3" d="M58.33906,44.3118c-0.01682.02943-.03366-0.00423-0.05048-0.00846V44.28228C58.30964,44.28228,58.35166,44.27814,58.33906,44.3118Z"/>
        <path class="cls-3" d="M58.0448,44.09321a0.0583,0.0583,0,0,1-.021-0.042c0.02943-.00837.05462-0.03366,0.08405,0C58.11634,44.09321,58.06586,44.07639,58.0448,44.09321Z"/>
        <path class="cls-3" d="M57.87247,43.97128a0.10607,0.10607,0,0,1-.00836-0.063l0.05048,0.042A0.04278,0.04278,0,0,1,57.87247,43.97128Z"/>
        <path class="cls-3" d="M57.84313,44.11a0.04694,0.04694,0,0,1-.02943-0.05885C57.85573,44.03859,57.8389,44.089,57.84313,44.11Z"/>
        <path class="cls-3" d="M57.62032,44.00916a0.2317,0.2317,0,0,1-.11771-0.08828,0.835,0.835,0,0,1,.10934-0.02106A0.06193,0.06193,0,0,1,57.62032,44.00916Z"/>
        <path class="cls-3" d="M57.46059,44.15207a0.1237,0.1237,0,0,1-.12185-0.05048,0.10639,0.10639,0,0,1,.042-0.07145A0.0934,0.0934,0,0,1,57.46059,44.15207Z"/>
        <path class="cls-3" d="M57.25046,44.18149a0.18526,0.18526,0,0,1-.20176.04194l-0.03357-.04194c0.0252-.13453-0.02942-0.33206.15127-0.37409,0.02943-.01683.02106-0.07569,0.07145-0.05885a0.73143,0.73143,0,0,0,.05039.1429C57.32614,44.00916,57.20843,44.07639,57.25046,44.18149Z"/>
        <path class="cls-3" d="M56.67462,43.5468a0.09691,0.09691,0,0,1-.09241-0.02106c0-.0378.04625-0.00414,0.063-0.02943A0.04108,0.04108,0,0,1,56.67462,43.5468Z"/>
        <polygon class="cls-3" points="56.574 44.043 56.612 44.03 56.603 44.043 56.574 44.043"/>
        <path class="cls-3" d="M56.40987,43.7275a0.52653,0.52653,0,0,0-.23118-0.13022c-0.05049.04617-.18071-0.0252-0.18071,0.07981-0.10511.06309-.13867-0.08827-0.20176-0.12184a0.14748,0.14748,0,0,1-.00846-0.13876,0.16882,0.16882,0,0,1,.18916-0.07145,1.267,1.267,0,0,1,.25223.17233c0.05877,0.07991.05462-.07982,0.12185-0.0126a0.23259,0.23259,0,0,0,.1303.1429A0.06394,0.06394,0,0,1,56.40987,43.7275Z"/>
        <path class="cls-3" d="M56.22917,43.324c-0.00846-.01674-0.042-0.02511-0.02943-0.0504a0.17164,0.17164,0,0,1,.12185-0.02942,0.87765,0.87765,0,0,1,.02943.10934A0.1558,0.1558,0,0,1,56.22917,43.324Z"/>
        <path class="cls-3" d="M55.74575,43.345a0.26106,0.26106,0,0,1-.21013,0,1.78322,1.78322,0,0,0-.67671-0.20176c-0.08406-.05462-0.021-0.10079.02105-0.15127a0.78019,0.78019,0,0,1,.31937.042,0.357,0.357,0,0,0,.28581.00846c0.01683-.02106.03788-0.05885,0.06731-0.02951a0.45052,0.45052,0,0,0,.24378.2606C55.8172,43.324,55.75835,43.31146,55.74575,43.345Z"/>
        <path class="cls-3" d="M55.13211,43.67709a0.12294,0.12294,0,0,1-.11348-0.05039C55.07326,43.56784,55.10691,43.64768,55.13211,43.67709Z"/>
        <path class="cls-3" d="M54.78745,42.93316a0.14841,0.14841,0,0,1-.09241-0.06309,0.03213,0.03213,0,0,1,.03356-0.03779A0.06033,0.06033,0,0,1,54.78745,42.93316Z"/>
        <path class="cls-3" d="M54.70763,43.324a0.10615,0.10615,0,0,1-.07991-0.05876V43.24416a0.18928,0.18928,0,0,1,.11771.00846A0.05644,0.05644,0,0,1,54.70763,43.324Z"/>
        <path class="cls-3" d="M54.6656,42.992c-0.07568-.11348-0.15136.15973-0.21021-0.02106-0.00838-.08405.08413-0.042,0.12193-0.07982,0.00423,0.063.06722,0.01682,0.10088,0.02943A0.1009,0.1009,0,0,1,54.6656,42.992Z"/>
        <path class="cls-3" d="M54.47644,43.25262a0.04668,0.04668,0,0,1-.063-0.03788,0.0944,0.0944,0,0,1,.063-0.063C54.5479,43.15174,54.52684,43.25262,54.47644,43.25262Z"/>
        <path class="cls-3" d="M54.241,43.07182a0.2098,0.2098,0,0,1-.13867-0.10087c-0.01674-.07559.07145-0.05876,0.10934-0.08819a0.21138,0.21138,0,0,1,.16387.06722A0.76213,0.76213,0,0,1,54.241,43.07182Z"/>
        <path class="cls-3" d="M54.37557,43.41649a0.20216,0.20216,0,0,0-.20176.05884c-0.11771-.10087-0.28158-0.03365-0.40351-0.1303a0.29308,0.29308,0,0,1,.05885-0.25215,0.41223,0.41223,0,0,0,.1429.21013,0.8472,0.8472,0,0,1,.25224-0.02944C54.24949,43.35764,54.363,43.3409,54.37557,43.41649Z"/>
        <path class="cls-3" d="M54.26209,43.20214V43.17271h0.0504A0.03823,0.03823,0,0,1,54.26209,43.20214Z"/>
        <path class="cls-3" d="M54.23266,42.73986l-0.29418-.101A0.088,0.088,0,0,1,53.93,42.538a0.3599,0.3599,0,0,1,.32369.18079Z"/>
        <path class="cls-3" d="M54.00994,42.93316a0.24331,0.24331,0,0,1-.15136-0.05039,0.08905,0.08905,0,0,1-.00837-0.11348,0.13331,0.13331,0,0,1,.17233,0C54.06456,42.81968,54.094,42.89113,54.00994,42.93316Z"/>
        <path class="cls-3" d="M53.85021,43.0425a0.02838,0.02838,0,0,1-.0126-0.02951h0.021C53.85858,43.02144,53.86281,43.03827,53.85021,43.0425Z"/>
        <path class="cls-3" d="M53.77876,46.95551a0.16494,0.16494,0,0,1-.10934-0.03788v-0.021C53.7073,46.905,53.804,46.8756,53.77876,46.95551Z"/>
        <path class="cls-3" d="M53.68625,42.76082a0.18772,0.18772,0,0,1-.18916-0.05047,0.07317,0.07317,0,0,1-.01259-0.10079,0.3303,0.3303,0,0,1,.2732-0.07154,0.201,0.201,0,0,0,.0126.1303Z"/>
        <path class="cls-3" d="M53.598,46.89666a0.06111,0.06111,0,0,1-.07982-0.02106,0.043,0.043,0,0,1,.01683-0.042A0.04874,0.04874,0,0,1,53.598,46.89666Z"/>
        <path class="cls-3" d="M53.54757,47.069H53.52652V47.03533C53.54757,47.027,53.57277,47.05639,53.54757,47.069Z"/>
        <path class="cls-3" d="M53.3837,47.09841c-0.08837.0378-.13453-0.07991-0.16819-0.11348a0.35678,0.35678,0,0,1,.26061.021C53.49295,47.06476,53.42564,47.09,53.3837,47.09841Z"/>
        <path class="cls-3" d="M52.97174,46.81683a0.38707,0.38707,0,0,1,.38245-0.01269A0.43545,0.43545,0,0,1,52.97174,46.81683Z"/>
        <path class="cls-3" d="M53.30379,42.4078a0.20348,0.20348,0,0,1-.08828.00837,0.03642,0.03642,0,0,1-.021-0.02943h0.10925V42.4078Z"/>
        <path class="cls-3" d="M52.86249,43.26522c-0.08406.02943-.08406-0.12193-0.164-0.05048a0.83932,0.83932,0,0,1-.34043-0.021,0.13932,0.13932,0,0,0-.18493-0.05048c-0.0378.05462-.17232,0.04625-0.1303,0.1429,0.0252,0.04625-.05462.04625-0.07982,0.06731a0.30827,0.30827,0,0,1-.15973-0.13876c-0.042-.01683-0.03366.02943-0.06308,0.02943a0.04548,0.04548,0,0,1,.042-0.07145c0.07991,0.00423.1303,0.18079,0.22281,0.07145a0.37485,0.37485,0,0,1,.1807-0.23118c0.07991,0.02951.18916-.063,0.22272,0.03788a0.376,0.376,0,0,0,.18916.063,0.18067,0.18067,0,0,1,.10088-0.042,0.1202,0.1202,0,0,0,.164.042,0.12778,0.12778,0,0,1,.1303-0.09242h0.0378c0.0126,0.063-.13445.06722-0.06722,0.15127a0.33231,0.33231,0,0,0,.1807-0.00838A0.34825,0.34825,0,0,1,52.86249,43.26522Z"/>
        <path class="cls-3" d="M53.102,42.93316a0.54136,0.54136,0,0,1-.3236-0.042C52.88345,42.89113,53.04318,42.79863,53.102,42.93316Z"/>
        <path class="cls-3" d="M53.01376,42.34472a0.10867,0.10867,0,0,1-.063-0.01683,0.11534,0.11534,0,0,1,.05039-0.09242c0.02106,0.00414.04625-.00846,0.05048,0.021C53.05578,42.29424,53.05578,42.33635,53.01376,42.34472Z"/>
        <path class="cls-3" d="M52.9423,42.50868a0.97338,0.97338,0,0,0-.332-0.09251,0.12083,0.12083,0,0,0-.13453-0.021c-0.02106-.03788-0.11348-0.02951-0.07991-0.08827l0.042-.02943c0.15973,0.01674.31533,0.11348,0.49179,0.1177C52.99279,42.39934,53.039,42.517,52.9423,42.50868Z"/>
        <path class="cls-3" d="M52.9423,46.60248a0.36387,0.36387,0,0,0-.12185-0.05885,0.21425,0.21425,0,0,1-.09251.021,0.11789,0.11789,0,0,1-.01683-0.10088c0.02943-.042.07568,0.00423,0.10934,0.01682,0.01674,0.08829.15128,0.03781,0.15973,0.12194H52.9423Z"/>
        <path class="cls-3" d="M52.91288,47.027a0.06119,0.06119,0,0,1-.021-0.05048c0.021-.04625.05462,0,0.07983,0C52.98019,47.0185,52.95076,47.03533,52.91288,47.027Z"/>
        <path class="cls-3" d="M52.82883,42.30692c-0.06722.0252-.0504-0.05886-0.06722-0.09242,0.03366-.03366.11348-0.08837,0.15973-0.02951A0.14536,0.14536,0,0,1,52.82883,42.30692Z"/>
        <path class="cls-3" d="M50.03155,56.63514c-0.18792.08987-.37444,0.18317-0.561,0.27735-0.23955.09674-.50439,0.13039-0.73549,0.24387a2.37256,2.37256,0,0,1-.454.13867,1.20943,1.20943,0,0,1-.58422.1807c-0.26484.14713-.601,0.11771-0.85742,0.2732-0.1303.01684-.25215,0.04626-0.38254,0.06309-0.09242-.10511-0.17224.05462-0.27312,0.05039a1.25155,1.25155,0,0,1-.517.08827,0.3345,0.3345,0,0,1-.31946.10089,0.41256,0.41256,0,0,0-.21435.06308l-0.00837.06722a0.21267,0.21267,0,0,1-.1429-0.01683,0.364,0.364,0,0,1-.26061-0.03366c-0.0252-.13867-0.13867-0.021-0.21435-0.0378a0.75229,0.75229,0,0,0-.36149.0378l0.02106,0.07145a0.22605,0.22605,0,0,1-.25224.0421,0.154,0.154,0,0,0-.042-0.07153,0.29912,0.29912,0,0,0-.20176.23118c-0.0378.02943-.06722-0.0252-0.10079-0.0378-0.227.05885-.46237,0.10088-0.68509,0.1681-0.02106-.1555-0.17232-0.063-0.26061-0.08828-0.06731.07154-.227-0.03357-0.19339,0.1303a0.61068,0.61068,0,0,0-.46228.17233,3.93216,3.93216,0,0,1-.43717.17232,0.435,0.435,0,0,1-.1681.08829,0.337,0.337,0,0,0-.09251-0.10925,0.58857,0.58857,0,0,0-.30255.13867l0.021,0.042a0.2021,0.2021,0,0,1-.23119.02943l-0.021-.02106c0.01683-.05462.14713-0.04617,0.10088-0.11762a0.27421,0.27421,0,0,0-.17233.07982,0.256,0.256,0,0,1-.02106.23955,0.31955,0.31955,0,0,0-.20176.14289A0.15629,0.15629,0,0,0,40.413,59.384a0.29106,0.29106,0,0,1-.07982.042,0.472,0.472,0,0,1,.26052-0.27321,0.05781,0.05781,0,0,0,.02106-0.06308,0.34262,0.34262,0,0,0-.23118.13453,0.66866,0.66866,0,0,0-.36563.23955,0.126,0.126,0,0,0-.08828.06307,0.53548,0.53548,0,0,0-.29418.13868c-0.12616-.0252-0.15973.28581-0.23127,0.07145a0.306,0.306,0,0,0-.12185.22281c-0.0252.01674-.063,0.0504-0.08828,0.00837,0-.03781.04211-0.07982,0-0.10925a1.98716,1.98716,0,0,0-.44554.28158c-0.02934-.0126-0.021-0.10925-0.07982-0.05885a0.06452,0.06452,0,0,0-.021.10088,0.48859,0.48859,0,0,0-.25224.03788c-0.04625.042-.0252,0.10925-0.07145,0.15127a1.16036,1.16036,0,0,1-.34043-0.02107,0.6629,0.6629,0,0,1-.37409.17234l-0.12185.02942c-0.1303-.05462-0.03366-0.24377-0.15973-0.28994a0.4284,0.4284,0,0,0-.31523.13022,0.81941,0.81941,0,0,0-.0504-0.51276,2.944,2.944,0,0,1,.46651-0.7902c0.07568-.0252.15128,0.03788,0.18916-0.06722a0.40959,0.40959,0,0,0,.13021-0.24378l-0.01674-.021a0.17229,0.17229,0,0,1-.08414.063c-0.0252-.042.04211-0.07982,0.07154-0.10089a0.1936,0.1936,0,0,0,.17233-0.042,3.148,3.148,0,0,0,.34457-0.41188,0.11246,0.11246,0,0,1-.063-0.042c0.04625-.05885.08828,0.021,0.1429,0.00837a6.30975,6.30975,0,0,1,.50439-0.44131c0.15973-.12608.28581-0.19753,0.44122-0.33206a0.29554,0.29554,0,0,0,.11356-0.15127c0.29841-.09665.475-0.42035,0.76491-0.52536q0.08987-.07625.18317-0.14713h9.70861Z"/>
        <path class="cls-3" d="M40.32294,56.63514A5.64232,5.64232,0,0,1,41.22,56.08458c0.1807-.1555.40351-0.21435,0.58421-0.37409a2.70258,2.70258,0,0,0,.33206-0.20176,8.1551,8.1551,0,0,1,1.303-.64315,2.50269,2.50269,0,0,1,.37409-0.2311,0.54732,0.54732,0,0,0,.29-0.084,1.949,1.949,0,0,1,.41611-0.18916,2.58026,2.58026,0,0,0,.38254-0.1429c0.01674,0.042-.03788.05047-0.04211,0.07991,0.07568,0.02934.11771-.05885,0.15136-0.10934a0.15061,0.15061,0,0,1,.13445-0.07145,4.36213,4.36213,0,0,1,.65575-0.23955,4.02634,4.02634,0,0,1,.44131-0.12193,1.77523,1.77523,0,0,0,.29418-0.11348,0.30979,0.30979,0,0,0,.28167-0.0882,2.04634,2.04634,0,0,1,.28158-0.01259c0.24792-.05048.5043-0.08414,0.74808-0.13876,0.11348-.12185.31109-0.06722,0.42457-0.1807a0.49931,0.49931,0,0,0,.28158-0.04211,0.02813,0.02813,0,0,1-.0126-0.02935h0.03366l-0.02106.05877a2.58132,2.58132,0,0,1,.36149-0.0378A4.22824,4.22824,0,0,1,49.53368,53.05a0.45465,0.45465,0,0,1,.28158-0.0126,5.69192,5.69192,0,0,1,.9457-0.15973,1.59475,1.59475,0,0,1,.58844-0.07991,1.00741,1.00741,0,0,1,.42025-0.0126,0.466,0.466,0,0,0,.46659-0.06722,0.49441,0.49441,0,0,0,.311.2185l0.353,1.44595-0.00837.05039-1.21054.28159L51.652,54.7522c0.084,0.35726.18924,0.71029,0.2606,1.07177a0.16609,0.16609,0,0,1-.1303.05885,0.99955,0.99955,0,0,1-.38246.18069,0.17836,0.17836,0,0,1-.13453.042,4.67347,4.67347,0,0,1-.63461.26061c-0.20237.084-.40157,0.17462-0.5991,0.269H40.32294Z"/>
        <path class="cls-3" d="M52.89191,42.60956c-0.15973-.02943-0.24378.10925-0.353-0.042a0.26318,0.26318,0,0,1-.21444-0.10088,0.85166,0.85166,0,0,1,.20176.0126A1.06679,1.06679,0,0,1,52.89191,42.60956Z"/>
        <path class="cls-3" d="M52.7994,47.0185c-0.07145.01268-.05462-0.15127-0.13867-0.063a0.05549,0.05549,0,0,1-.042-0.03788V46.884c0.05885,0.00838.17656-.02519,0.1933,0.07146A0.08222,0.08222,0,0,1,52.7994,47.0185Z"/>
        <path class="cls-3" d="M52.749,46.077a0.03673,0.03673,0,0,1-.02943-0.05039H52.77A0.04537,0.04537,0,0,1,52.749,46.077Z"/>
        <path class="cls-3" d="M52.54725,47.15726l-0.10088-.00846c-0.02943-.063.04625-0.08405,0.07982-0.09242l0.20176,0.02942C52.71958,47.18669,52.60187,47.14881,52.54725,47.15726Z"/>
        <path class="cls-3" d="M52.57668,46.54363a1.2248,1.2248,0,0,1-.30263-0.02106,0.07341,0.07341,0,0,1-.01682-0.05039c0.07982,0,.18492-0.05462.23118,0.04194l0.08828,0.00846v0.02106Z"/>
        <path class="cls-3" d="M52.55985,45.98875c-0.06308-.04625-0.206.04625-0.22281-0.042,0.02106-.03358.10934,0.02529,0.10934-0.0378a1.62749,1.62749,0,0,0-.23118-0.14291c0.02106-.084.11348-0.01259,0.17233-0.021C52.36655,45.92576,52.66073,45.79122,52.55985,45.98875Z"/>
        <path class="cls-3" d="M52.39589,42.23547a0.13527,0.13527,0,0,1,.02951-0.10088,0.10479,0.10479,0,0,1,.11348.021C52.56822,42.28172,52.45474,42.19759,52.39589,42.23547Z"/>
        <path class="cls-3" d="M52.37492,46.31244a0.52554,0.52554,0,0,0-.23955-0.042c0.063-.00423.15127-0.15136,0.23118-0.04211a0.09673,0.09673,0,0,1,.09243.03366A0.0542,0.0542,0,0,1,52.37492,46.31244Z"/>
        <path class="cls-3" d="M52.26567,47.04792c-0.07145.02107-.21858,0.05472-0.25224-0.02942,0.01683-.10088.09674-0.042,0.15973-0.07145a0.82192,0.82192,0,0,1,.28581.02106C52.44214,47.07321,52.32867,47.0185,52.26567,47.04792Z"/>
        <path class="cls-3" d="M52.32444,46.73278a0.15968,0.15968,0,0,1-.0504-0.02943l0.063-.07154,0.07991,0.05047C52.40435,46.71587,52.37078,46.77058,52.32444,46.73278Z"/>
        <path class="cls-3" d="M52.18576,42.19344a0.17757,0.17757,0,0,1-.12185-0.05884,0.03759,0.03759,0,0,1,.02934-0.042C52.13537,42.0968,52.2951,42.15979,52.18576,42.19344Z"/>
        <path class="cls-3" d="M52.08488,46.86723a0.24253,0.24253,0,0,1-.17233-0.12185,0.22248,0.22248,0,0,1,.22281-0.0126C52.211,46.76635,52.17316,46.90088,52.08488,46.86723Z"/>
        <path class="cls-3" d="M52.15634,45.78708c-0.0378.01674-.0504-0.02529-0.07145-0.04211v-0.0378c0.02943-.02943.05885,0.00837,0.07991,0.02943A0.069,0.069,0,0,1,52.15634,45.78708Z"/>
        <path class="cls-3" d="M52.11431,46.58142c-0.07145-.0378-0.1681-0.02943-0.23118-0.05885a0.42732,0.42732,0,0,1,.10934-0.10088c0.063-.0252.1681-0.00414,0.16387,0.07991A0.07923,0.07923,0,0,1,52.11431,46.58142Z"/>
        <path class="cls-3" d="M52.12277,42.04208H52.10594V42.01275C52.12277,42.00006,52.148,42.03371,52.12277,42.04208Z"/>
        <path class="cls-3" d="M52.07229,42.47925a0.35754,0.35754,0,0,1-.26061-0.03366,0.17559,0.17559,0,0,1-.07145-0.15973,0.3585,0.3585,0,0,1,.31524-0.09243A0.21174,0.21174,0,0,1,52.07229,42.47925Z"/>
        <path class="cls-3" d="M52.03449,45.63572A0.07227,0.07227,0,0,0,51.984,45.5559h-0.0126V45.52225a0.148,0.148,0,0,1,.10088.02106C52.09325,45.58947,52.04286,45.60207,52.03449,45.63572Z"/>
        <path class="cls-3" d="M51.95458,42.02526v-0.021L51.984,42.01275A0.03135,0.03135,0,0,1,51.95458,42.02526Z"/>
        <path class="cls-3" d="M51.95458,46.95551c-0.06308-.01269-0.1933-0.00423-0.17233-0.07991a0.13751,0.13751,0,0,1,.10925-0.021C51.91678,46.89666,52.026,46.91348,51.95458,46.95551Z"/>
        <path class="cls-3" d="M51.84119,42.61793a0.09589,0.09589,0,0,1-.101-0.05039V42.517a0.10657,0.10657,0,0,1,.1303.05048A0.03674,0.03674,0,0,1,51.84119,42.61793Z"/>
        <path class="cls-3" d="M51.84119,46.42169H51.81168v-0.042h0.042C51.84956,46.39649,51.86216,46.41332,51.84119,46.42169Z"/>
        <path class="cls-3" d="M51.75282,46.5016a0.10885,0.10885,0,0,1-.09242-0.07145c0.00423-.02951-0.0126-0.07568.02943-0.07991a0.12765,0.12765,0,0,1,.07982.09251C51.76542,46.46372,51.78648,46.5016,51.75282,46.5016Z"/>
        <path class="cls-3" d="M51.631,46.80415a0.401,0.401,0,0,1-.17233-0.05876c-0.06308-.03366-0.1807-0.00847-0.19339-0.101a0.66939,0.66939,0,0,1,.30263-0.021A0.09572,0.09572,0,1,1,51.631,46.80415Z"/>
        <path class="cls-3" d="M51.63935,42.08411c-0.0252-.00837-0.05462-0.04617-0.02943-0.07136,0.01683-.01692.05471-0.05048,0.07145-0.00846A0.0683,0.0683,0,0,1,51.63935,42.08411Z"/>
        <path class="cls-3" d="M51.509,41.99168a0.20788,0.20788,0,0,1-.00837-0.10087C51.5553,41.90764,51.57635,41.99583,51.509,41.99168Z"/>
        <path class="cls-3" d="M51.509,46.42169a0.01993,0.01993,0,0,0-.021-0.00837c-0.01683-.03788.02942-0.05462,0.05048-0.06308C51.58472,46.36284,51.5427,46.42591,51.509,46.42169Z"/>
        <path class="cls-3" d="M51.4797,45.42137C51.4502,45.413,51.446,45.40454,51.4502,45.37088H51.509A0.03827,0.03827,0,0,1,51.4797,45.42137Z"/>
        <path class="cls-3" d="M51.4502,46.49314c-0.01674-.00423-0.03357.00846-0.04194-0.01261V46.46372h0.07983C51.50067,46.48891,51.46711,46.49737,51.4502,46.49314Z"/>
        <path class="cls-3" d="M51.37883,45.25326c-0.01269-.00422-0.03366.00838-0.04212-0.01259V45.21961C51.35777,45.21961,51.39142,45.22384,51.37883,45.25326Z"/>
        <path class="cls-3" d="M51.33671,46.41332c-0.0126-.00423-0.03357.00837-0.0378-0.01269-0.021-.0378.03366-0.05454,0.05048-0.0378A0.05537,0.05537,0,0,1,51.33671,46.41332Z"/>
        <path class="cls-3" d="M51.12659,46.21993a0.28958,0.28958,0,0,1-.17233-0.0504,0.62428,0.62428,0,0,1,.37409-0.021C51.31152,46.23253,51.19382,46.19474,51.12659,46.21993Z"/>
        <path class="cls-3" d="M51.23592,46.5016l-0.02106-.02107a0.1213,0.1213,0,0,1,.11348-0.00836C51.32834,46.51411,51.26526,46.52257,51.23592,46.5016Z"/>
        <path class="cls-3" d="M51.27795,45.001a0.07093,0.07093,0,0,1-.07145-0.03357V44.95063A0.047,0.047,0,0,1,51.27795,45.001Z"/>
        <path class="cls-3" d="M51.18544,41.98323a0.74627,0.74627,0,0,1-.20176-0.042,0.16647,0.16647,0,0,1,.05048-0.10088c0.05462,0.01683.17233-.02943,0.17233,0.07145C51.20227,41.93706,51.2191,41.97063,51.18544,41.98323Z"/>
        <path class="cls-3" d="M51.18544,46.41332c-0.042-.01683-0.11348,0-0.12185-0.06308,0.04617-.05048.09665,0.00423,0.13445,0.02943Z"/>
        <path class="cls-3" d="M51.114,44.84975H51.10562c0.0252-.02942-0.05048-0.1051.02943-0.10087C51.24429,44.74888,51.15187,44.82879,51.114,44.84975Z"/>
        <path class="cls-3" d="M51.04677,45.34155a0.33423,0.33423,0,0,1-.06308-0.15136,0.63252,0.63252,0,0,1,.1303.09251C51.12236,45.32895,51.06359,45.31212,51.04677,45.34155Z"/>
        <path class="cls-3" d="M51.04677,45.75766l-0.05048-.04211c0.00846-.021.05885-0.0504,0.07991-0.00837A0.03839,0.03839,0,0,1,51.04677,45.75766Z"/>
        <path class="cls-3" d="M51.00474,46.49314a0.02,0.02,0,0,0-.00846-0.021,0.0367,0.0367,0,0,1,.06731,0v0.021H51.00474Z"/>
        <path class="cls-3" d="M50.824,47.11938a0.12047,0.12047,0,0,1-.10088-0.063c-0.01674-.06309.06731-0.04625,0.10088-0.07145,0.07991,0.0252.206-.0126,0.23118,0.10087A0.39593,0.39593,0,0,1,50.824,47.11938Z"/>
        <path class="cls-3" d="M50.88281,46.91762a1.17471,1.17471,0,0,0-.56316.05048c-0.09251-.06308-0.24378.00837-0.25224-0.1429a0.40106,0.40106,0,0,1,.20176-0.00837c0.01683,0.02933.05885,0.08405,0.10088,0.0504,0.05039-.10088.13453,0.0252,0.21021-0.03366a0.87176,0.87176,0,0,1,.40342-0.0504C51.04677,46.85463,50.95012,46.91348,50.88281,46.91762Z"/>
        <path class="cls-3" d="M50.98368,46.65287a0.16851,0.16851,0,0,1-.08819-0.02943C50.91646,46.58978,51.00051,46.59825,50.98368,46.65287Z"/>
        <path class="cls-3" d="M50.83241,44.79936a0.08964,0.08964,0,0,1,.06308-0.08414l0.05039,0.03366C50.90809,44.76993,50.89126,44.84138,50.83241,44.79936Z"/>
        <path class="cls-3" d="M50.803,41.92438a0.35573,0.35573,0,0,1-.15127-0.10079,0.32013,0.32013,0,0,1,.24378-0.02106C50.95012,41.86561,50.845,41.89081,50.803,41.92438Z"/>
        <path class="cls-3" d="M50.79453,46.47217a0.1874,0.1874,0,0,1,.02943-0.1303c0.01683-.02529.04625-0.00423,0.05048,0.021A0.16884,0.16884,0,0,1,50.79453,46.47217Z"/>
        <path class="cls-3" d="M50.66008,42.4078a0.12709,0.12709,0,0,1,.1429.00837A0.15583,0.15583,0,0,1,50.66008,42.4078Z"/>
        <path class="cls-3" d="M50.70211,42.09257c-0.03366-.01683-0.09674,0-0.10088-0.05048,0.04625-.0126.11771-0.05885,0.15973,0C50.78193,42.09257,50.72307,42.07574,50.70211,42.09257Z"/>
        <path class="cls-3" d="M50.68114,45.79545H50.6096c0.02106-.02944.11771-0.05048,0.08414-0.1303a0.03832,0.03832,0,0,1,.05876.00836A0.23718,0.23718,0,0,1,50.68114,45.79545Z"/>
        <path class="cls-3" d="M50.65171,46.37129V46.34187c0.021-.00423.0504,0,0.042,0.02942h-0.042Z"/>
        <path class="cls-3" d="M50.6096,46.552c-0.07145.00423-.1933,0.05048-0.23118-0.03788A0.16017,0.16017,0,0,1,50.6096,46.552Z"/>
        <path class="cls-3" d="M50.349,46.6949a0.70033,0.70033,0,0,1-.3236-0.02943c-0.00837-.02943.02106-0.03366,0.02943-0.05039a2.10825,2.10825,0,0,1,.54642.0378C50.576,46.77058,50.4415,46.66124,50.349,46.6949Z"/>
        <path class="cls-3" d="M50.50881,49.5194c-0.01692-.00846-0.00423-0.02943-0.00846-0.042,0.0252-.02943.05039-0.00423,0.07991,0A0.12693,0.12693,0,0,1,50.50881,49.5194Z"/>
        <path class="cls-3" d="M50.45832,41.96226H50.42044a0.14491,0.14491,0,0,1,.15137-0.05048C50.57181,41.97909,50.49612,41.94543,50.45832,41.96226Z"/>
        <path class="cls-3" d="M50.49189,44.72791c-0.021.0252-.042-0.00846-0.063-0.01269a0.04363,0.04363,0,0,1,.021-0.02943C50.46247,44.70261,50.50458,44.69425,50.49189,44.72791Z"/>
        <path class="cls-3" d="M50.34062,46.42169a0.264,0.264,0,0,1-.23532-0.07982,0.53532,0.53532,0,0,1,.30264-0.04211A0.09776,0.09776,0,0,1,50.34062,46.42169Z"/>
        <path class="cls-3" d="M50.25657,46.2283a0.05451,0.05451,0,0,1-.05885-0.0378,0.04658,0.04658,0,0,1,.042-0.0504l0.05885,0.02106A0.12946,0.12946,0,0,1,50.25657,46.2283Z"/>
        <path class="cls-3" d="M50.29014,46.54363a0.078,0.078,0,0,1-.09242-0.02106,0.03647,0.03647,0,0,1,.02106-0.02943C50.244,46.49737,50.30705,46.49314,50.29014,46.54363Z"/>
        <path class="cls-3" d="M50.27754,49.34707c-0.01252-.00423-0.03357.00837-0.0378-0.00847V49.305A0.02993,0.02993,0,0,1,50.27754,49.34707Z"/>
        <path class="cls-3" d="M50.02539,45.71554a0.05368,0.05368,0,0,1-.05876-0.021V45.68612h0.07982A0.03641,0.03641,0,0,1,50.02539,45.71554Z"/>
        <path class="cls-3" d="M49.83623,46.47217c-0.02943-.02943.02106-0.08828,0.05885-0.09251l0.12193,0.021C49.96662,46.43015,49.91191,46.52257,49.83623,46.47217Z"/>
        <path class="cls-3" d="M49.7942,46.60248c-0.105-.02106-0.26052.13867-0.30263-0.02106,0.02943-.06731.11348-0.03366,0.15973-0.02943,0.04625,0.05885.09251,0,.1429-0.00837,0.07991,0.0252.18493-.05471,0.22281,0.02942A0.44449,0.44449,0,0,1,49.7942,46.60248Z"/>
        <path class="cls-3" d="M49.88671,46.89666a0.10075,0.10075,0,0,1-.11348-0.042c0-.07145.09242-0.05048,0.1303-0.0378C49.94556,46.8378,49.91614,46.884,49.88671,46.89666Z"/>
        <path class="cls-3" d="M49.86565,45.7366c-0.01683,0-.042.00423-0.042-0.02106V45.68612h0.07145C49.90768,45.71139,49.87411,45.71986,49.86565,45.7366Z"/>
        <path class="cls-3" d="M49.78583,46.21993H49.75218v-0.042h0.05049A0.04005,0.04005,0,0,1,49.78583,46.21993Z"/>
        <path class="cls-3" d="M49.67236,46.44275a0.11938,0.11938,0,0,1-.08828-0.06308V46.35024a0.19222,0.19222,0,0,1,.1303.02943A0.05347,0.05347,0,0,1,49.67236,46.44275Z"/>
        <path class="cls-3" d="M49.58408,49.96071a0.0652,0.0652,0,0,1-.03366-0.06731,0.1579,0.1579,0,0,1,.15136-0.03357A0.1514,0.1514,0,0,1,49.58408,49.96071Z"/>
        <path class="cls-3" d="M49.62187,46.21157a0.02831,0.02831,0,0,1-.02943-0.0126V46.16953H49.6513C49.65976,46.199,49.64293,46.199,49.62187,46.21157Z"/>
        <path class="cls-3" d="M49.6135,46.89666a1.97617,1.97617,0,0,1-.353-0.09251c-0.0126-.063.063-0.05462,0.1008-0.07136l0.28166-.00846C49.64707,46.7748,49.685,46.87146,49.6135,46.89666Z"/>
        <path class="cls-3" d="M49.521,49.54036c-0.05876-.05884-0.2059-0.00422-0.18907-0.13452a0.99479,0.99479,0,0,1,.28995.02106A0.16945,0.16945,0,0,1,49.521,49.54036Z"/>
        <path class="cls-3" d="M49.55042,44.04282a0.03128,0.03128,0,0,1-.02943-0.01269c0.00423-.0126-0.00837-0.03357.01269-0.0378A0.04451,0.04451,0,0,1,49.55042,44.04282Z"/>
        <path class="cls-3" d="M49.51263,49.60759H49.49157V49.57824H49.521C49.521,49.59085,49.52522,49.60345,49.51263,49.60759Z"/>
        <path class="cls-3" d="M49.34867,46.49314a1.02666,1.02666,0,0,1-.02934-0.12186,0.101,0.101,0,0,1,.11348-0.00845A0.15645,0.15645,0,0,1,49.34867,46.49314Z"/>
        <path class="cls-3" d="M49.42012,45.766c-0.00837.00424-.01251-0.00422-0.021-0.00836V45.724A0.06642,0.06642,0,0,1,49.42012,45.766Z"/>
        <path class="cls-3" d="M49.26047,49.40583a0.28952,0.28952,0,0,1-.12193-0.00837c-0.00414-.07145.07568-0.02106,0.10088-0.05886C49.28567,49.31764,49.3151,49.40583,49.26047,49.40583Z"/>
        <path class="cls-3" d="M49.147,49.7001a0.11178,0.11178,0,0,1-.10934-0.07145,0.05747,0.05747,0,0,0-.05039-0.07145,0.68707,0.68707,0,0,1-.36149.042c0.021-.15127.19339-0.07982,0.28158-0.1429a0.02046,0.02046,0,0,1,0-.0378c0.01683-.01269.02529-0.04211,0.05048-0.02943l-0.021.08828a1.26157,1.26157,0,0,1,.332.021A0.576,0.576,0,0,0,49.147,49.7001Z"/>
        <path class="cls-3" d="M49.1974,45.77449a0.053,0.053,0,0,1-.06723-0.02951c-0.0126-.02943.0126-0.042,0.02943-0.05885,0.02943,0.00432.07569-.01261,0.07982,0.02943A0.09752,0.09752,0,0,1,49.1974,45.77449Z"/>
        <path class="cls-3" d="M49.07969,46.92608c-0.08819-.0378-0.24378.042-0.2858-0.07145a0.1218,0.1218,0,0,1-.07983-0.07145,0.17087,0.17087,0,0,1,.10088-0.10089,0.21677,0.21677,0,0,1,.17233.03358c0.021,0.04625-.00423.12193,0.05885,0.13876a0.25537,0.25537,0,0,1,.18493.0126A0.18019,0.18019,0,0,1,49.07969,46.92608Z"/>
        <path class="cls-3" d="M48.91581,46.56459a0.147,0.147,0,0,1-.07145-0.17233c0.04625-.07568.09665,0.0126,0.15128,0a1.75227,1.75227,0,0,0,.20176.13876A0.43057,0.43057,0,0,1,48.91581,46.56459Z"/>
        <path class="cls-3" d="M49.09651,46.7748c-0.00836-.01268-0.042-0.01268-0.02943-0.042C49.09651,46.72433,49.10074,46.75375,49.09651,46.7748Z"/>
        <path class="cls-3" d="M49.03766,44.11a0.04319,0.04319,0,0,1-.02943-0.01683V44.05956h0.03788A0.05168,0.05168,0,0,1,49.03766,44.11Z"/>
        <path class="cls-3" d="M49.00824,47.11938h-0.021c0.00423-.0252-0.0126-0.05876.021-0.07146C49.05449,47.03533,49.05872,47.11524,49.00824,47.11938Z"/>
        <path class="cls-3" d="M48.74349,49.24609V49.23773h0.0504A0.03357,0.03357,0,0,1,48.74349,49.24609Z"/>
        <path class="cls-3" d="M48.63415,41.874a0.39136,0.39136,0,0,0-.12185-0.19339,1.45491,1.45491,0,0,1,.27321.07154A0.30741,0.30741,0,0,1,48.63415,41.874Z"/>
        <path class="cls-3" d="M48.67626,47.07735a0.0424,0.0424,0,0,1-.02106-0.0504c0.01683-.05048.07145-0.02106,0.10925-0.02943A0.1392,0.1392,0,0,1,48.67626,47.07735Z"/>
        <rect class="cls-3" x="48.7056" y="46.40063" width="0.03788" height="0.05048"/>
        <path class="cls-3" d="M48.68464,46.92608a0.81851,0.81851,0,0,1-.37409.042,0.07836,0.07836,0,0,1,.042-0.07145H48.693Z"/>
        <path class="cls-3" d="M48.64261,46.552a0.02783,0.02783,0,0,1-.02943-0.00837c-0.00423-.01683.0126-0.02106,0.021-0.02951C48.65935,46.51,48.65935,46.54363,48.64261,46.552Z"/>
        <path class="cls-3" d="M48.5627,46.45112c-0.0126-.00414-0.03357.00846-0.0378-0.00837v-0.0126h0.05049A0.026,0.026,0,0,1,48.5627,46.45112Z"/>
        <path class="cls-3" d="M48.5249,47.11938c-0.01683-.00414-0.03366.00846-0.042-0.0126-0.01683-.042.03779-0.05039,0.05885-0.05886C48.60472,47.05216,48.55856,47.12361,48.5249,47.11938Z"/>
        <path class="cls-3" d="M48.54173,45.81642c-0.01683.02106-.02943-0.00423-0.05048-0.00837a0.05211,0.05211,0,0,1,.02106-0.042C48.5501,45.75343,48.54173,45.79545,48.54173,45.81642Z"/>
        <path class="cls-3" d="M48.48288,46.79578a0.49787,0.49787,0,0,1-.26061,0,0.25673,0.25673,0,0,1,.25224-0.12185C48.47451,46.73278,48.62155,46.78741,48.48288,46.79578Z"/>
        <path class="cls-3" d="M48.34,49.62019l-0.02943-.02934a0.17122,0.17122,0,0,1,.1429-0.07145l0.08828,0.05884C48.5249,49.66644,48.40305,49.62019,48.34,49.62019Z"/>
        <path class="cls-3" d="M48.44085,49.74211a0.0553,0.0553,0,0,1-.05039-0.01259,0.04426,0.04426,0,0,1,.021-0.03788l0.06308,0.00846C48.48288,49.72529,48.45345,49.72952,48.44085,49.74211Z"/>
        <path class="cls-3" d="M48.45345,46.48053c-0.02943.01261-.021-0.01682-0.02943-0.02942v-0.021h0.03788A0.065,0.065,0,0,1,48.45345,46.48053Z"/>
        <path class="cls-3" d="M48.40305,41.80253a0.74652,0.74652,0,0,1-.19339-0.09242,0.23891,0.23891,0,0,1,.22281.0504C48.445,41.78992,48.41142,41.78992,48.40305,41.80253Z"/>
        <path class="cls-3" d="M48.37354,46.552c-0.00837-.00423-0.01674-0.00837-0.01251-0.021,0.021-.02529.042,0.00837,0.063,0.0126C48.41988,46.56037,48.39046,46.54777,48.37354,46.552Z"/>
        <path class="cls-3" d="M48.15927,46.32081V46.29139a0.34534,0.34534,0,0,1,.17224-0.01261C48.30632,46.35447,48.218,46.30821,48.15927,46.32081Z"/>
        <rect class="cls-3" x="48.28113" y="45.79545" width="0.02105" height="0.02097"/>
        <path class="cls-3" d="M48.07937,47.0059a0.04061,0.04061,0,0,1,0-.05885,0.0797,0.0797,0,0,1,.0799.03788C48.14667,47.02273,48.10465,47.00176,48.07937,47.0059Z"/>
        <path class="cls-3" d="M48.08773,46.54363a0.06414,0.06414,0,0,1-.0504-0.02951v-0.021h0.08414C48.12985,46.51834,48.10042,46.5268,48.08773,46.54363Z"/>
        <path class="cls-3" d="M47.99954,46.81683a0.44274,0.44274,0,0,0-.37409.07982c-0.06308-.00837-0.12608.02943-0.15127-0.05049a0.05771,0.05771,0,0,1-.02106-0.063,1.56766,1.56766,0,0,1,.63461-0.13877C48.12985,46.70336,48.05417,46.77895,47.99954,46.81683Z"/>
        <path class="cls-3" d="M47.85664,47.30017c-0.0378-.01261-0.05885.021-0.10088,0.00837a0.83161,0.83161,0,0,1,.12185-0.12185l-0.12185-.03788c-0.03366-.10089.1429-0.04617,0.07145-0.1303-0.09251.04211-.20176-0.00414-0.28158,0.03788a0.25571,0.25571,0,0,1,.13022-0.08828,0.498,0.498,0,0,1,.2606,0,0.44084,0.44084,0,0,0,.042.18916l0.07991,0.042A1.29824,1.29824,0,0,1,47.85664,47.30017Z"/>
        <path class="cls-3" d="M47.76837,49.72952a0.139,0.139,0,0,0-.10088-0.02106,0.1257,0.1257,0,0,1-.17233.02106,0.72514,0.72514,0,0,1-.21435.0504c-0.02943.03788,0.0252,0.07991-.0378,0.09251-0.042-.00837-0.00423-0.05885-0.02943-0.07982-0.17233-.01692-0.27744.18484-0.46659,0.15964-0.0378-.0504.0252-0.105,0.06308-0.12185,0.21435-.09674.44131-0.08829,0.66412-0.17233,0.09665-.00847.23109-0.11771,0.30255,0.02106,0.09665,0.021.227-.09251,0.2733,0.021a0.37,0.37,0,0,1-.19339.02943H47.76837Z"/>
        <path class="cls-3" d="M47.99954,49.47737a0.21077,0.21077,0,0,1-.19339-0.02943,0.1436,0.1436,0,0,1-.021-0.19339,0.24517,0.24517,0,0,1,.1429-0.01683c0.00837,0.06731.06722,0,.10088,0.05048A0.25681,0.25681,0,0,0,47.99954,49.47737Z"/>
        <path class="cls-3" d="M47.92809,49.38909L47.907,49.368l0.02943-.0126A0.03278,0.03278,0,0,1,47.92809,49.38909Z"/>
        <path class="cls-3" d="M47.907,46.531c-0.03366-.00846-0.09242.0252-0.10088-0.02943a0.08225,0.08225,0,0,1,.10088-0.00846V46.531Z"/>
        <path class="cls-3" d="M47.7473,45.92576H47.718c-0.00422-.02943.02934-0.01683,0.0504-0.01683C47.77259,45.9173,47.75576,45.92989,47.7473,45.92576Z"/>
        <path class="cls-3" d="M47.49515,49.54882c-0.00423-.09674.11771-0.06309,0.18071-0.09251a0.10632,0.10632,0,0,1,.04211.06308A0.59527,0.59527,0,0,1,47.49515,49.54882Z"/>
        <path class="cls-3" d="M47.62546,46.573H47.596c-0.021-.042.03366-0.05893,0.05885-0.0799l0.042,0.00846A0.05564,0.05564,0,0,1,47.62546,46.573Z"/>
        <rect class="cls-3" x="47.58343" y="47.35056" width="0.07145" height="0.02106"/>
        <path class="cls-3" d="M47.51621,41.71011c-0.06308.00423-.07991-0.10511-0.15136-0.05048-0.021-.00846-0.00838-0.03366-0.0126-0.05039a0.17366,0.17366,0,0,1,.17233-0.03788,0.08609,0.08609,0,0,0,.12185.00846A0.161,0.161,0,0,1,47.51621,41.71011Z"/>
        <path class="cls-3" d="M47.47418,47.32114l-0.10933-.11348a0.23955,0.23955,0,0,1,.23955-0.0378C47.70114,47.27488,47.52458,47.27074,47.47418,47.32114Z"/>
        <path class="cls-3" d="M47.4237,46.65287V46.552c0.05462-.03366.05885,0.06308,0.10934,0.07145v0.02943H47.4237Z"/>
        <path class="cls-3" d="M47.41533,49.54036a0.18,0.18,0,0,1-.08414.00847,0.48467,0.48467,0,0,0,.08414-0.24378c0.07145-.05048.07145,0.05462,0.10925,0.08405A0.45235,0.45235,0,0,0,47.41533,49.54036Z"/>
        <path class="cls-3" d="M47.41533,45.96777a0.051,0.051,0,0,1,.02943-0.0799h0.05885A0.12257,0.12257,0,0,1,47.41533,45.96777Z"/>
        <path class="cls-3" d="M47.46573,45.78708a0.04746,0.04746,0,0,1-.063-0.04211,0.06348,0.06348,0,0,1,.02933-0.05885C47.47832,45.68612,47.52881,45.75766,47.46573,45.78708Z"/>
        <path class="cls-3" d="M47.17992,47.17823a0.08472,0.08472,0,0,1-.08828-0.042c-0.05462.0126-.08819,0.10088-0.15127,0.05048-0.03365-.04626.02943-0.08828,0.07145-0.10089a0.88491,0.88491,0,0,1,.40351-0.03788A0.3,0.3,0,0,1,47.17992,47.17823Z"/>
        <path class="cls-3" d="M47.12952,50.25487a0.06869,0.06869,0,0,1-.00846-0.05039,0.27118,0.27118,0,0,1,.26061.00837A0.25558,0.25558,0,0,1,47.12952,50.25487Z"/>
        <path class="cls-3" d="M47.2934,46.62345c-0.01683.00422-.021-0.0126-0.02943-0.021A0.0903,0.0903,0,0,1,47.2934,46.552C47.348,46.54777,47.33542,46.61922,47.2934,46.62345Z"/>
        <path class="cls-3" d="M47.25137,46.91762c-0.042-.00414-0.0378-0.02934-0.05039-0.063a0.06393,0.06393,0,0,1,.02942-0.05048,0.11761,0.11761,0,0,1,.10079.02943A0.10863,0.10863,0,0,1,47.25137,46.91762Z"/>
        <path class="cls-3" d="M47.27243,50.09515a0.1544,0.1544,0,0,1-.07991-0.1429,0.329,0.329,0,0,1,.1303-0.02943C47.264,49.9859,47.40274,50.07418,47.27243,50.09515Z"/>
        <path class="cls-3" d="M47.243,49.59085c-0.07145-.185-0.27321.01674-0.38254-0.10088a0.19832,0.19832,0,0,1-.10087-0.0126c0-.10511.13453-0.00423,0.16818-0.08828,0.10088,0.042.19753-.13876,0.24378,0,0.0378,0.02943.07982-.05049,0.10925,0A1.2101,1.2101,0,0,0,47.243,49.59085Z"/>
        <path class="cls-3" d="M47.264,41.67223c-0.12608-.063-0.3362.18493-0.3236-0.063a1.20652,1.20652,0,0,1,.3236.021v0.042Z"/>
        <path class="cls-3" d="M47.243,45.96777c-0.02106-.00836-0.00846-0.02528-0.0126-0.042H47.264A0.05173,0.05173,0,0,1,47.243,45.96777Z"/>
        <path class="cls-3" d="M47.22194,46.06866c-0.0126,0-.0252.00414-0.02943-0.00846a0.04272,0.04272,0,0,1,.02106-0.03357C47.23454,46.03924,47.2556,46.04761,47.22194,46.06866Z"/>
        <path class="cls-3" d="M47.04124,46.8252a0.40744,0.40744,0,0,1-.26484,0l0.07154-.10088-0.10934-.05885a0.11076,0.11076,0,0,1,.12185-0.042c0.03366,0.0126.02106,0.05884,0.00846,0.07991a0.4156,0.4156,0,0,0,.30263-0.00846A0.19317,0.19317,0,0,1,47.04124,46.8252Z"/>
        <path class="cls-3" d="M47.1001,46.5016l-0.12193-.02107c-0.00837-.05462.05462-0.05462,0.08405-0.0799C47.1127,46.40063,47.18415,46.47631,47.1001,46.5016Z"/>
        <path class="cls-3" d="M46.99922,47.0059c-0.04626.00846-.13031,0.03366-0.15128-0.02943-0.00846-.10088.11348-0.05462,0.17224-0.07982,0.042-.00423.10511-0.00423,0.10934,0.0378Z"/>
        <path class="cls-3" d="M47.04961,47.35056c-0.01683-.0378.0252-0.04617,0.05048-0.042v0.042H47.04961Z"/>
        <path class="cls-3" d="M47.06221,50.0237h-0.042c-0.0252-.02521,0-0.05462.02106-0.07145C47.09164,49.93128,47.09164,50.007,47.06221,50.0237Z"/>
        <path class="cls-3" d="M47.01182,46.66547a0.03808,0.03808,0,0,1-.02106-0.063h0.07145C47.079,46.64027,47.03279,46.657,47.01182,46.66547Z"/>
        <path class="cls-3" d="M46.86046,50.35576a2.59045,2.59045,0,0,0-.27312.05885c-0.03788-.01261-0.0126-0.05039.00838-0.06731a0.73893,0.73893,0,0,0,.23118-0.09243,0.41165,0.41165,0,0,1,.21435,0A0.36373,0.36373,0,0,1,46.86046,50.35576Z"/>
        <path class="cls-3" d="M46.86046,50.51549a0.05966,0.05966,0,0,1-.03357-0.05886,0.14138,0.14138,0,0,1,.15127-0.00836A0.15436,0.15436,0,0,1,46.86046,50.51549Z"/>
        <path class="cls-3" d="M46.94037,50.09515a0.07555,0.07555,0,0,1-.07991-0.05039v-0.042c0.04211-.03366.07991,0.01674,0.101,0.05039A0.05872,0.05872,0,0,1,46.94037,50.09515Z"/>
        <path class="cls-3" d="M46.75958,46.09809a0.21868,0.21868,0,0,1,.13876-0.02943A0.14658,0.14658,0,0,1,46.75958,46.09809Z"/>
        <path class="cls-3" d="M46.89,47.37162a0.03606,0.03606,0,0,1-.02106-0.0126V47.338H46.89v0.03366Z"/>
        <path class="cls-3" d="M46.789,47.23709a0.03678,0.03678,0,0,1-.05039-0.02943c-0.02943-.07145.042-0.07982,0.07991-0.10088l0.05876,0.02106C46.89,47.19929,46.82689,47.19929,46.789,47.23709Z"/>
        <rect class="cls-3" x="46.81852" y="45.97615" width="0.02097" height="0.02106"/>
        <path class="cls-3" d="M46.44443,46.60248c0.03357-.13876.18907-0.06732,0.28158-0.10088l0.021,0.021A0.40408,0.40408,0,0,1,46.44443,46.60248Z"/>
        <path class="cls-3" d="M46.68822,50.57857H46.56628a0.07137,0.07137,0,0,1,.02943-0.09251L46.747,50.50712A0.10918,0.10918,0,0,1,46.68822,50.57857Z"/>
        <path class="cls-3" d="M46.73861,49.69164a0.048,0.048,0,0,1-.021-0.05039C46.747,49.637,46.73447,49.67067,46.73861,49.69164Z"/>
        <path class="cls-3" d="M46.6587,46.97648a0.01766,0.01766,0,0,1-.01251-0.021l0.063-.02106C46.72178,46.97648,46.67139,46.95551,46.6587,46.97648Z"/>
        <path class="cls-3" d="M46.54522,49.54882c-0.02934-.03366-0.09664-0.04635-0.07145-0.10088a0.69271,0.69271,0,0,1,.13453-0.02943c0.02106,0.0504.11771,0.05462,0.07992,0.12184Z"/>
        <path class="cls-3" d="M46.60831,46.86723a1.12973,1.12973,0,0,1-.31523,0c0.0252-.15136.206,0.0252,0.24378-0.13445A0.07856,0.07856,0,1,1,46.60831,46.86723Z"/>
        <path class="cls-3" d="M46.66716,47.43047a0.07357,0.07357,0,0,1-.09242-0.02106,0.0485,0.0485,0,0,1,.021-0.02943C46.6209,47.39681,46.67562,47.38422,46.66716,47.43047Z"/>
        <path class="cls-3" d="M46.6587,49.70847c-0.01674,0-.03357.00846-0.04194-0.00837V49.69164H46.6587v0.01683Z"/>
        <path class="cls-3" d="M46.61676,47.22026a1.09142,1.09142,0,0,1-.56324.18079,0.07684,0.07684,0,0,1-.05039-0.07991c0.12185-.08405.28581-0.07982,0.41179-0.16387C46.48637,47.1614,46.64619,47.09418,46.61676,47.22026Z"/>
        <path class="cls-3" d="M46.55791,46.11069c-0.00846-.00837-0.01269-0.01683-0.02106-0.0126V46.06866h0.05048C46.59994,46.09386,46.56628,46.09809,46.55791,46.11069Z"/>
        <path class="cls-3" d="M46.55791,49.95225a0.05791,0.05791,0,0,1-.06308-0.021,0.04259,0.04259,0,0,1,.07145-0.02943C46.58734,49.91445,46.57474,49.93965,46.55791,49.95225Z"/>
        <path class="cls-3" d="M46.35615,49.77155a0.08322,0.08322,0,0,1-.06308-0.0126,0.062,0.062,0,0,1,.09251-0.02943A0.03777,0.03777,0,0,1,46.35615,49.77155Z"/>
        <path class="cls-3" d="M46.2721,47.61117l-0.01683-.02106a0.09035,0.09035,0,0,1,.11762-0.02934C46.37289,47.60694,46.30567,47.59434,46.2721,47.61117Z"/>
        <path class="cls-3" d="M46.3225,50.40616a0.09117,0.09117,0,0,1-.05885-0.05885,0.05967,0.05967,0,0,1,.10925-0.021C46.394,50.36836,46.3477,50.38519,46.3225,50.40616Z"/>
        <path class="cls-3" d="M46.3351,49.62019a0.45586,0.45586,0,0,1-.11348-0.12185A0.06,0.06,0,0,1,46.30567,49.49C46.3477,49.52354,46.39818,49.574,46.3351,49.62019Z"/>
        <rect class="cls-3" x="46.30567" y="46.06866" width="0.02943" height="0.02097"/>
        <path class="cls-3" d="M46.18382,46.62345c-0.02529-.042.021-0.06722,0.05885-0.07145l0.07145,0.021A0.13562,0.13562,0,0,1,46.18382,46.62345Z"/>
        <path class="cls-3" d="M46.30567,50.55752a0.05773,0.05773,0,0,0-.063.02106l0.042,0.02934a0.14258,0.14258,0,0,1-.11348.042,0.12145,0.12145,0,0,0-.02943-0.08406,0.16016,0.16016,0,0,0-.17233-0.00836c-0.02106.03366-.05885,0.0126-0.06722-0.021,0.12185-.01269.23118-0.18079,0.353-0.05048A0.1193,0.1193,0,0,1,46.30567,50.55752Z"/>
        <path class="cls-3" d="M46.24268,46.24936a0.01749,0.01749,0,0,0-.02106-0.00837V46.21157H46.2721C46.28471,46.23676,46.25528,46.23676,46.24268,46.24936Z"/>
        <path class="cls-3" d="M46.09132,50.07418c-0.0252-.02107.00423-0.04625,0.02106-0.06308h0.1429A0.20347,0.20347,0,0,1,46.09132,50.07418Z"/>
        <path class="cls-3" d="M46.11237,49.65807c-0.05462-.0126-0.13867,0-0.15136-0.07983V49.56979a0.28025,0.28025,0,0,1,.20176.02106A0.05066,0.05066,0,0,1,46.11237,49.65807Z"/>
        <path class="cls-3" d="M46.12084,50.32633c-0.04212-.02943-0.00432-0.08405.021-0.10088C46.13758,50.25911,46.15854,50.31374,46.12084,50.32633Z"/>
        <path class="cls-3" d="M45.94,49.85146a0.02018,0.02018,0,0,1-.00846-0.02106,0.11455,0.11455,0,0,1,.12193.0126A0.10042,0.10042,0,0,1,45.94,49.85146Z"/>
        <path class="cls-3" d="M45.961,46.27042V46.241c0.02106-.00423.05048,0,0.04211,0.02943H45.961Z"/>
        <path class="cls-3" d="M45.95264,50.70879H45.919v-0.0504C45.961,50.6458,46.06189,50.72139,45.95264,50.70879Z"/>
        <path class="cls-3" d="M45.86859,50.42721c0-.02521-0.03366-0.04625-0.00837-0.07145,0.00837-.03366.063-0.02106,0.07982,0Z"/>
        <path class="cls-3" d="M45.83071,46.70336V46.66547l0.05885-.0126C45.898,46.6949,45.85176,46.69067,45.83071,46.70336Z"/>
        <path class="cls-3" d="M45.80137,46.29976a0.016,0.016,0,0,1-.01268-0.021c0.01268-.00836.02942-0.03356,0.042-0.00836Z"/>
        <path class="cls-3" d="M45.72992,50.61637a0.09436,0.09436,0,0,1-.09251-0.02943c-0.00837-.03366.02943-0.03781,0.05048-0.03781C45.72992,50.54069,45.82234,50.59117,45.72992,50.61637Z"/>
        <path class="cls-3" d="M45.72992,47.4725c-0.02106-.00846-0.00846-0.02943-0.01259-0.042C45.75089,47.41779,45.75926,47.4599,45.72992,47.4725Z"/>
        <path class="cls-3" d="M45.70049,50.8013c-0.02951-.00837-0.07568-0.0252-0.04211-0.063a0.078,0.078,0,0,1,.09251-0.02106A0.07452,0.07452,0,0,1,45.70049,50.8013Z"/>
        <path class="cls-3" d="M45.67944,46.32081c-0.04626.01683-.03366-0.04625-0.0504-0.07145A0.12586,0.12586,0,0,1,45.67944,46.32081Z"/>
        <rect class="cls-3" x="45.63741" y="46.70336" width="0.05048" height="0.02097"/>
        <path class="cls-3" d="M45.566,49.95225l-0.00846-.00838a0.0689,0.0689,0,0,1,.10088-0.042C45.65,49.948,45.59961,49.93551,45.566,49.95225Z"/>
        <path class="cls-3" d="M45.63741,47.32951a7.44579,7.44579,0,0,0-.92887.22281l-0.01683-.02106a1.6586,1.6586,0,0,1,.71452-0.22272,0.18882,0.18882,0,0,1,.22281-0.021C45.64578,47.29594,45.63318,47.31691,45.63741,47.32951Z"/>
        <path class="cls-3" d="M45.566,49.77155a0.8302,0.8302,0,0,1-.269-0.0126,0.08081,0.08081,0,0,1,.0378-0.06731,0.1908,0.1908,0,0,0,.15127.01683c0.07145-.03357-0.05454-0.08828.02943-0.10925L45.566,49.62865A0.16959,0.16959,0,0,0,45.566,49.77155Z"/>
        <path class="cls-3" d="M45.34737,50.44827a0.10783,0.10783,0,0,1,.10088-0.11356,0.069,0.069,0,0,1,.06722.02951C45.42728,50.35153,45.45248,50.56588,45.34737,50.44827Z"/>
        <path class="cls-3" d="M45.5071,50.50712H45.49873l0.01674-.02943C45.51547,50.48607,45.5197,50.50289,45.5071,50.50712Z"/>
        <path class="cls-3" d="M45.26332,46.80415a0.0322,0.0322,0,0,1,.03366-0.0378,0.34194,0.34194,0,0,0,.21013-0.021A0.26587,0.26587,0,0,1,45.26332,46.80415Z"/>
        <path class="cls-3" d="M45.38526,49.54036c-0.01269-.00422-0.03366.00847-0.03788-0.01259V49.50671h0.05048A0.03481,0.03481,0,0,1,45.38526,49.54036Z"/>
        <path class="cls-3" d="M45.35583,50.86014c-0.01269-.00422-0.00846-0.021-0.00846-0.02942l0.03788-.0126C45.39363,50.84755,45.3768,50.85169,45.35583,50.86014Z"/>
        <path class="cls-3" d="M45.33477,49.44795c-0.0126-.00423-0.03357.00837-0.0378-0.00846-0.0126-.02943.01683-0.02943,0.02934-0.042C45.3516,49.39746,45.37257,49.44795,45.33477,49.44795Z"/>
        <path class="cls-3" d="M45.27593,50.30537a0.02319,0.02319,0,0,0-.021-0.00846,0.29156,0.29156,0,0,1,.09242-0.11348A0.0836,0.0836,0,0,1,45.27593,50.30537Z"/>
        <path class="cls-3" d="M45.21293,46.47217l-0.05885-.00846v-0.021l0.10925-.0126C45.27593,46.47217,45.22967,46.45112,45.21293,46.47217Z"/>
        <path class="cls-3" d="M45.22553,51.00305c-0.05048.00837-.01683-0.04625-0.042-0.06308-0.05048-.02521-0.1303.05471-0.13876-0.02943a0.127,0.127,0,0,1,.11771-0.05885c0.12616-.02934-0.0126.10511,0.10088,0.10088A0.04941,0.04941,0,0,1,45.22553,51.00305Z"/>
        <path class="cls-3" d="M45.1961,50.50712a0.0432,0.0432,0,0,1-.03366-0.02106,0.14843,0.14843,0,0,1,.06308-0.07145C45.28861,50.42307,45.23813,50.50712,45.1961,50.50712Z"/>
        <path class="cls-3" d="M45.14562,50.196a0.03475,0.03475,0,0,1-.0126-0.03357l0.02943-.01684C45.18764,50.16246,45.16668,50.19189,45.14562,50.196Z"/>
        <path class="cls-3" d="M45.12465,46.86723a0.05145,0.05145,0,0,1-.042-0.02107c-0.0126-.03779.021-0.042,0.042-0.05039C45.16668,46.79154,45.1709,46.87983,45.12465,46.86723Z"/>
        <path class="cls-3" d="M45.14562,49.74211a0.05156,0.05156,0,0,1-.042-0.021c-0.00414-.03358.03366-0.01674,0.05048-0.021C45.14985,49.7127,45.16244,49.73366,45.14562,49.74211Z"/>
        <path class="cls-3" d="M45.0532,47.19929l-0.042-.0126c0.00838-.02529.04626-0.05471,0.07145-0.02943C45.09522,47.18669,45.0658,47.18669,45.0532,47.19929Z"/>
        <path class="cls-3" d="M45.01117,50.58694a0.08484,0.08484,0,0,1-.0378-0.02943,0.07709,0.07709,0,0,1,.0504-0.07145,0.05151,0.05151,0,0,1,.05885.042A0.07293,0.07293,0,0,1,45.01117,50.58694Z"/>
        <path class="cls-3" d="M44.99434,49.02338c0.02106-.00414.04625-0.0378,0.06722-0.00837C45.0406,49.01924,45.01117,49.04443,44.99434,49.02338Z"/>
        <path class="cls-3" d="M44.98175,46.52257c-0.0252-.021.00423-0.04625,0.021-0.05885a0.03836,0.03836,0,0,1,.05048.02943A0.06287,0.06287,0,0,1,44.98175,46.52257Z"/>
        <path class="cls-3" d="M44.99434,46.42169a0.04288,0.04288,0,0,1-.03366-0.02106c0.00423-.021.03366-0.04194,0.05048-0.021A0.04009,0.04009,0,0,1,44.99434,46.42169Z"/>
        <path class="cls-3" d="M44.9103,46.905c-0.0126-.00414-0.00838-0.01674-0.00838-0.02943h0.021A0.02558,0.02558,0,0,1,44.9103,46.905Z"/>
        <path class="cls-3" d="M44.801,50.63734a0.04646,0.04646,0,0,1-.0504-0.0378c-0.021-.0504.0378-0.07145,0.05885-0.09242l0.063,0.02943A0.12878,0.12878,0,0,1,44.801,50.63734Z"/>
        <path class="cls-3" d="M44.801,50.17506V50.154c0.02943-.021.04625,0.01683,0.05885,0.042A0.06179,0.06179,0,0,1,44.801,50.17506Z"/>
        <path class="cls-3" d="M44.77162,42.38674a0.02824,0.02824,0,0,1-.01269-0.02944l0.08414-.021C44.84721,42.38251,44.79259,42.36992,44.77162,42.38674Z"/>
        <path class="cls-3" d="M44.67911,49.59085c-0.11348-.05885-0.01683-0.15136-0.05885-0.24378a0.05159,0.05159,0,0,1,.05048-0.00847c0.02934,0.02521.03357,0.08829,0.08819,0.07992-0.07145.07559,0.05048,0.09665,0.01269,0.17233H44.67911Z"/>
        <path class="cls-3" d="M44.65814,46.99753a0.04388,0.04388,0,0,1-.05885-0.02943c-0.02106-.05048.03356-0.05885,0.05885-0.07145C44.77162,46.87983,44.75893,46.99753,44.65814,46.99753Z"/>
        <path class="cls-3" d="M44.64968,42.10517h-0.042l0.11348-.042C44.72537,42.10939,44.67911,42.10093,44.64968,42.10517Z"/>
        <path class="cls-3" d="M44.47735,50.27594a0.18754,0.18754,0,0,1-.021-0.07991,0.27815,0.27815,0,0,1,.24369-0.0126A1.00176,1.00176,0,0,0,44.47735,50.27594Z"/>
        <polygon class="cls-3" points="44.641 42.387 44.679 42.378 44.65 42.395 44.641 42.387"/>
        <path class="cls-3" d="M44.64968,46.83357a0.03856,0.03856,0,0,1-.042-0.00837V46.80415l0.06308,0.01269A0.01557,0.01557,0,0,1,44.64968,46.83357Z"/>
        <path class="cls-3" d="M44.62026,49.9733H44.59083c-0.0126-.02944.02106-0.03366,0.0378-0.02944A0.02787,0.02787,0,0,1,44.62026,49.9733Z"/>
        <path class="cls-3" d="M44.56986,58.26592a0.10671,0.10671,0,0,1-.09251-0.03366c-0.0126-.05885.06308-0.05462,0.09251-0.0378A0.03992,0.03992,0,0,1,44.56986,58.26592Z"/>
        <path class="cls-3" d="M44.49,49.69164a0.20112,0.20112,0,0,1-.0126-0.18493,0.1322,0.1322,0,0,1,.07145.07153A0.097,0.097,0,0,1,44.49,49.69164Z"/>
        <path class="cls-3" d="M44.51938,42.29424a0.03858,0.03858,0,0,1-.042-0.00837,0.03654,0.03654,0,0,1,.021-0.02943C44.51515,42.2649,44.54458,42.27327,44.51938,42.29424Z"/>
        <path class="cls-3" d="M44.47735,42.4456V42.42877l0.042,0.00846A0.03856,0.03856,0,0,1,44.47735,42.4456Z"/>
        <rect class="cls-3" x="44.46899" y="46.5016" width="0.02097" height="0.02097"/>
        <path class="cls-3" d="M44.368,46.64441a0.05883,0.05883,0,0,1-.07136-0.04193,0.11108,0.11108,0,0,1,.07982-0.03788C44.41428,46.573,44.43956,46.657,44.368,46.64441Z"/>
        <path class="cls-3" d="M44.16635,47.40942a0.283,0.283,0,0,1,.13868-0.08828l0.07145,0.00837A0.26367,0.26367,0,0,1,44.16635,47.40942Z"/>
        <path class="cls-3" d="M44.26723,42.49608c-0.02943-.02106.00414-0.042,0.02106-0.05885,0.0251,0,.06722-0.00423.06722,0.02943C44.33868,42.48762,44.30088,42.52965,44.26723,42.49608Z"/>
        <path class="cls-3" d="M44.2756,49.56979c-0.06722.00423-.06722-0.07568-0.10088-0.11348l0.17233-.00837C44.35974,49.51094,44.22934,49.49411,44.2756,49.56979Z"/>
        <path class="cls-3" d="M44.06547,47.16986c-0.04625-.02106.00423-0.05048,0.00837-0.07145a0.89171,0.89171,0,0,0,.20176-0.09251l0.042,0.02106A0.48222,0.48222,0,0,1,44.06547,47.16986Z"/>
        <path class="cls-3" d="M44.10327,51.335c-0.04626-.0125-0.12185.02529-0.13868-0.02933,0-.1303.15973-0.03788,0.21013-0.13454C44.25463,51.23,44.1579,51.30983,44.10327,51.335Z"/>
        <path class="cls-3" d="M44.13692,50.36422c-0.02106,0-.00846-0.03366-0.0126-0.05048h0.042A0.12385,0.12385,0,0,1,44.13692,50.36422Z"/>
        <path class="cls-3" d="M44.01508,49.8304l-0.01269-.00846a0.26,0.26,0,0,0,.07145-0.12185,0.05714,0.05714,0,0,1,.07991.05885A0.36577,0.36577,0,0,1,44.01508,49.8304Z"/>
        <path class="cls-3" d="M43.86372,47.53126a0.23851,0.23851,0,0,1,.25215-0.10079A0.264,0.264,0,0,1,43.86372,47.53126Z"/>
        <path class="cls-3" d="M44.05287,46.66547l-0.05048-.0126a0.0504,0.0504,0,0,1,.07145-0.02106A0.04284,0.04284,0,0,1,44.05287,46.66547Z"/>
        <path class="cls-3" d="M43.96459,49.77992a0.02012,0.02012,0,0,1-.02106-0.00837,0.02221,0.02221,0,0,1,.02951-0.02944C43.96882,49.75472,43.98142,49.77155,43.96459,49.77992Z"/>
        <path class="cls-3" d="M43.90152,50.42721a0.30477,0.30477,0,0,1-.10925.00846c-0.03366-.05471.05039-0.04211,0.07982-0.05894C43.89737,50.36836,43.91,50.402,43.90152,50.42721Z"/>
        <path class="cls-3" d="M43.76284,42.164c-0.01683.01683-.063-0.02943-0.02943-0.05048l0.13867-.02943A0.13849,0.13849,0,0,1,43.76284,42.164Z"/>
        <path class="cls-3" d="M43.81332,51.36445c-0.10511.00845-.227,0.14713-0.31523,0.00845a2.02843,2.02843,0,0,1,.374-0.10087A0.071,0.071,0,0,1,43.81332,51.36445Z"/>
        <path class="cls-3" d="M43.83429,49.80934a0.02628,0.02628,0,0,1-.0126.02106c-0.05885,0-.042-0.06731-0.05885-0.10088a0.09062,0.09062,0,0,1,.02106-0.07992l0.05876,0.05886C43.788,49.71692,43.80909,49.77992,43.83429,49.80934Z"/>
        <path class="cls-3" d="M43.61157,46.76635l-0.01269-.0126a0.091,0.091,0,0,1,.11356-0.02943C43.72081,46.79154,43.64936,46.76635,43.61157,46.76635Z"/>
        <path class="cls-3" d="M43.54011,49.92282H43.51906a0.03886,0.03886,0,0,1,.05048-0.0504A0.03991,0.03991,0,0,1,43.54011,49.92282Z"/>
        <path class="cls-3" d="M43.39712,50.629a0.02807,0.02807,0,0,1-.00836-0.02943l0.042-.0126A0.05783,0.05783,0,0,1,43.39712,50.629Z"/>
        <path class="cls-3" d="M42.834,51.55784a2.60413,2.60413,0,0,1,.39505-0.17233L43.27951,51.394A1.13778,1.13778,0,0,1,42.834,51.55784Z"/>
        <path class="cls-3" d="M43.25845,50.66676A0.22693,0.22693,0,0,1,43.166,50.629V50.60791C43.21642,50.59954,43.26268,50.61214,43.25845,50.66676Z"/>
        <path class="cls-3" d="M43.20805,46.97648a0.06226,0.06226,0,0,1-.0504-0.05039c0.00414-.0378.06723-0.05885,0.07982-0.02106A0.07609,0.07609,0,0,1,43.20805,46.97648Z"/>
        <path class="cls-3" d="M43.166,50.16246H43.1366l0.042-.03788C43.1744,50.13726,43.187,50.15823,43.166,50.16246Z"/>
        <path class="cls-3" d="M43.02727,51.70911a0.05765,0.05765,0,0,1-.03357-0.021c0.00423-.0126-0.00845-0.03366.0126-0.042C43.05255,51.62506,43.082,51.71757,43.02727,51.70911Z"/>
        <path class="cls-3" d="M43.04409,47.04792c-0.07559.0127-.17224-0.07558-0.23955,0.02107-0.02529.00423-.05885-0.00837-0.05039-0.03366l0.10925-.08828,0.1303,0.00846c0.0126,0.03366-.06722.05462-0.00845,0.07982l0.05885-.00837v0.021Z"/>
        <path class="cls-3" d="M42.813,49.77992c-0.01683-.00837-0.00423-0.0252-0.00846-0.03781C42.8256,49.73789,42.82974,49.77155,42.813,49.77992Z"/>
        <path class="cls-3" d="M42.78349,50.00273c-0.0126,0-.0252.00423-0.02934-0.00846,0.00837-.0126.02934-0.03357,0.0378-0.0126A0.02,0.02,0,0,1,42.78349,50.00273Z"/>
        <path class="cls-3" d="M42.71213,47.338l0.02942-.10925,0.03357,0.00837A0.1177,0.1177,0,0,1,42.71213,47.338Z"/>
        <path class="cls-3" d="M42.75415,51.91933a0.02,0.02,0,0,1-.02106-0.00846v-0.021C42.75415,51.8773,42.77925,51.90673,42.75415,51.91933Z"/>
        <path class="cls-3" d="M42.58182,49.18734c-0.01682-.06308.05462-0.03366,0.07136-0.08405a0.24539,0.24539,0,0,1,.00846-0.18079c0.02529-.00415.08405-0.04625,0.09251,0.01259A0.25376,0.25376,0,0,1,42.58182,49.18734Z"/>
        <path class="cls-3" d="M42.67424,58.63578c-0.02106-.00423-0.00838-0.02521-0.0126-0.0378,0.0126-.0126.05049-0.02106,0.05049,0.00837C42.69943,58.619,42.69943,58.64838,42.67424,58.63578Z"/>
        <path class="cls-3" d="M42.64058,47.22026a1.20417,1.20417,0,0,1-.25215.23117,0.55578,0.55578,0,0,1,.06308-0.22272,0.87221,0.87221,0,0,1,.23955-0.14291C42.6952,47.14043,42.59019,47.15726,42.64058,47.22026Z"/>
        <path class="cls-3" d="M42.60278,49.8808c-0.021-.00837-0.00837-0.03357-0.0126-0.05039l0.0504,0.02106C42.628,49.86406,42.628,49.8934,42.60278,49.8808Z"/>
        <path class="cls-3" d="M42.47249,51.21318c-0.07983-.07145-0.18493.10088-0.20176-0.02943a2.93748,2.93748,0,0,0,.31946-0.12186C42.66164,51.15856,42.51873,51.16693,42.47249,51.21318Z"/>
        <path class="cls-3" d="M42.19927,51.60823c-0.05462-.10088.09674-0.11348,0.15136-0.15127,0.04617-.00837.0252,0.042,0.02943,0.06722A0.505,0.505,0,0,1,42.19927,51.60823Z"/>
        <path class="cls-3" d="M42.30861,47.57338a0.04574,0.04574,0,0,1-.02943-0.05048,0.03064,0.03064,0,0,1,.05885,0A0.04,0.04,0,0,1,42.30861,47.57338Z"/>
        <path class="cls-3" d="M42.32121,51.01979c-0.02106-.00414-0.00846-0.02511-0.01259-0.0378L42.338,51.00305Z"/>
        <path class="cls-3" d="M42.01857,51.0619a0.11835,0.11835,0,0,1-.03366-0.05047,0.17451,0.17451,0,0,1,.13453-0.02943C42.11945,51.04922,42.03963,51.01565,42.01857,51.0619Z"/>
        <path class="cls-3" d="M41.94712,51.12067c-0.03366-.00415-0.08828.01683-0.10088-0.01674A0.06863,0.06863,0,0,1,41.94712,51.12067Z"/>
        <path class="cls-3" d="M41.74536,51.18375H41.71594c-0.0252-.0252.00423-0.04625,0.02943-0.05039A0.02788,0.02788,0,0,1,41.74536,51.18375Z"/>
        <path class="cls-3" d="M41.58149,52.43209l0.0504-.00837C41.61506,52.42786,41.59823,52.46151,41.58149,52.43209Z"/>
        <path class="cls-3" d="M41.56467,51.28463a0.22471,0.22471,0,0,1-.09251.00846,0.07137,0.07137,0,0,1,.05885-0.05885A0.04356,0.04356,0,0,1,41.56467,51.28463Z"/>
        <path class="cls-3" d="M41.32088,51.47379a0.08844,0.08844,0,0,1-.10925-0.05885l-0.02105-.09242a2.0357,2.0357,0,0,1,.20176.09242C41.39656,51.46119,41.34185,51.44436,41.32088,51.47379Z"/>
        <path class="cls-3" d="M41.0897,51.53677a2.3333,2.3333,0,0,0-.29426.07146v-0.021a1.19367,1.19367,0,0,1,.38254-0.12186C41.19058,51.52418,41.12336,51.52418,41.0897,51.53677Z"/>
        <path class="cls-3" d="M40.67359,51.94875h-0.0378a0.06429,0.06429,0,0,1,.02943-0.07145l0.05885-.00846A0.1624,0.1624,0,0,1,40.67359,51.94875Z"/>
        <path class="cls-3" d="M40.49289,52.01175a0.0282,0.0282,0,0,1-.02943-0.0126,0.03978,0.03978,0,0,1,.02943-0.05039C40.55588,51.9277,40.53069,52.00761,40.49289,52.01175Z"/>
        <path class="cls-3" d="M40.371,51.84788a0.0671,0.0671,0,0,1-.01683-0.05048,0.092,0.092,0,0,1,.10088.02106A0.08216,0.08216,0,0,1,40.371,51.84788Z"/>
        <path class="cls-3" d="M40.33316,52.0706c-0.0126-.00414-0.03366.00846-0.042-0.00846-0.0126-.04617.0378-0.05876,0.07145-0.05039A0.05969,0.05969,0,0,1,40.33316,52.0706Z"/>
        <path class="cls-3" d="M40.1818,59.61514a0.13337,0.13337,0,0,1-.042-0.1303,0.14752,0.14752,0,0,1,.11356-0.02106c0.05462,0.02943,0,.08414-0.01269.12193A0.047,0.047,0,0,1,40.1818,59.61514Z"/>
        <path class="cls-3" d="M40.15237,51.8773c-0.04617-.02106,0-0.05885,0-0.08828l0.11771,0.02943C40.25748,51.8773,40.19026,51.86047,40.15237,51.8773Z"/>
        <path class="cls-3" d="M40.1818,52.12945h-0.021c-0.02106-.021-0.00846-0.07568.02943-0.06731l0.02943,0.01692A0.10705,0.10705,0,0,1,40.1818,52.12945Z"/>
        <path class="cls-3" d="M40.13977,55.42883a1.04292,1.04292,0,0,1-.3614.18079c-0.10511-.10934.12185-0.11771,0.07145-0.21858a0.88322,0.88322,0,0,1-.08405-0.10088,0.30561,0.30561,0,0,1,.12185.01683,0.11675,0.11675,0,0,0,.12193.12185C40.06,55.44566,40.12295,55.35323,40.13977,55.42883Z"/>
        <path class="cls-3" d="M40.00956,52.31438a0.35857,0.35857,0,0,1-.10934-0.10088,0.17164,0.17164,0,0,1,.1681.00846C40.10621,52.27236,40.04312,52.29755,40.00956,52.31438Z"/>
        <path class="cls-3" d="M39.9507,59.65716c-0.04625-.0126-0.03788-0.05048-0.02106-0.07991,0.02943-.00837.09251-0.03366,0.10925,0.01683C40.06418,59.66139,39.96744,59.6361,39.9507,59.65716Z"/>
        <path class="cls-3" d="M39.9885,51.89827a0.194,0.194,0,0,1-.10934-0.02943v-0.021l0.13877-.02106C40.01793,51.85625,40.0263,51.894,39.9885,51.89827Z"/>
        <path class="cls-3" d="M39.76578,52.17148l-0.00846-.1429a0.06581,0.06581,0,0,1,.07982.0126A0.78715,0.78715,0,0,0,39.76578,52.17148Z"/>
        <path class="cls-3" d="M39.77837,52.30178c-0.0126,0-.02529.00413-0.02943-0.00846a0.04587,0.04587,0,0,1,.01683-0.0504C39.80771,52.23447,39.80771,52.28917,39.77837,52.30178Z"/>
        <path class="cls-3" d="M39.65644,52.453c-0.021.0127-.0378-0.01259-0.042-0.02933a0.11864,0.11864,0,0,1,.02105-0.101C39.69009,52.33121,39.66481,52.41526,39.65644,52.453Z"/>
        <path class="cls-3" d="M39.606,52.16311c-0.01683-.03788.021-0.03788,0.042-0.05048l0.00837,0.05048H39.606Z"/>
        <path class="cls-3" d="M39.51354,52.2639l-0.02943-.01251,0.0126-.05885c0.02106-.02529.0504,0,0.06731,0.00837A0.06688,0.06688,0,0,1,39.51354,52.2639Z"/>
        <path class="cls-3" d="M39.32447,52.29332c0.00414-.04194-0.02943-0.084-0.07154-0.0504a0.2175,0.2175,0,0,1-.09242.00846,0.38362,0.38362,0,0,1,.18493-0.07991,0.12584,0.12584,0,0,0,.07982.07991A0.15848,0.15848,0,0,1,39.32447,52.29332Z"/>
        <path class="cls-3" d="M38.95038,52.64644c-0.01269-.00423-0.03366.00836-0.04211-0.0126a0.11385,0.11385,0,0,1,.07154-0.06731C39.0302,52.58336,38.97981,52.63384,38.95038,52.64644Z"/>
        <path class="cls-3" d="M38.54687,60.29177c-0.01683-.00837-0.00846-0.0252-0.00846-0.042a0.1604,0.1604,0,0,1,.07991-0.01674C38.67294,60.27917,38.5889,60.32542,38.54687,60.29177Z"/>
        <polygon class="cls-3" points="38.223 60.384 38.253 60.401 38.202 60.435 38.223 60.384"/>
        <path class="cls-3" d="M37.46664,60.67431a0.0222,0.0222,0,0,1-.02943-0.02944,0.03835,0.03835,0,0,1,.02943-0.05047C37.51712,60.59863,37.50452,60.66162,37.46664,60.67431Z"/>
      </g>
    </g>
    <g>
      <path d="M77.25437,47.52825v-6.028H74.85259V40.02451h6.69293v1.47573H79.14374v6.028H77.25437Z"/>
      <path d="M88.69068,46.05253v1.47573H83.43877V40.02451h5.09174v1.47573H85.32823v1.35062h2.72195v1.47581H85.32823v1.72586h3.36246Z"/>
      <path d="M91.05616,47.52825V40.02451h1.88937v3.23911l3.44255-3.36422,1.56912,0.6754-3.39444,3.07647,3.92288,3.27664-1.6492.78791-3.8909-3.58932v3.40175H91.05616Z"/>
      <path d="M101.80078,42.5758v4.95245H99.91141V40.02451h1.88937l3.71469,4.95245V40.02451h1.88937v7.50374h-1.88937Z"/>
      <path d="M117.467,43.77638a4.05252,4.05252,0,1,1-4.05089-3.93945A3.935,3.935,0,0,1,117.467,43.77638Zm-4.05089,2.48874a2.20376,2.20376,0,0,0,2.12954-2.48874,2.15546,2.15546,0,1,0-4.25908,0A2.20371,2.20371,0,0,0,113.41612,46.26512Z"/>
      <path d="M124.6002,46.05253v1.47573h-5.09174V40.02451h1.88937v6.028h3.20237Z"/>
      <path d="M133.96,43.77638a4.05256,4.05256,0,1,1-4.051-3.93945A3.93512,3.93512,0,0,1,133.96,43.77638Zm-4.051,2.48874a2.20371,2.20371,0,0,0,2.12954-2.48874,2.15546,2.15546,0,1,0-4.25908,0A2.20371,2.20371,0,0,0,129.909,46.26512Z"/>
      <path d="M143.103,40.8999L141.82207,41.963a2.88049,2.88049,0,0,0-2.11351-.67531,2.35081,2.35081,0,0,0-2.28971,2.61376,2.31911,2.31911,0,0,0,2.28971,2.36372,2.41823,2.41823,0,0,0,1.50507-.42519v-2.1261H143.103v2.68882a4.5707,4.5707,0,0,1-3.39445,1.31318,3.94833,3.94833,0,1,1,0-7.8789A4.79973,4.79973,0,0,1,143.103,40.8999Z"/>
      <path d="M147.345,47.52825h-1.92144V40.02451H147.345v7.50374Z"/>
      <path d="M149.5696,41.9004c0-1.18807,1.47308-2.06347,2.99419-2.06347a3.824,3.824,0,0,1,2.562.8754l-1.20093,1.06305a1.79529,1.79529,0,0,0-1.361-.5628,0.91893,0.91893,0,0,0-1.07274.68782c0,0.43778.51241,0.62536,1.07274,0.87548l0.56042,0.25012c1.361,0.61276,2.2417,1.06305,2.2417,2.31368,0,1.31309-1.4411,2.37614-3.20236,2.37614a4.12877,4.12877,0,0,1-2.802-.93795l1.28093-1.18807a2.20108,2.20108,0,0,0,1.68118.75029,1.022,1.022,0,0,0,1.12085-.87539,1.31352,1.31352,0,0,0-1.04076-1.0005l-0.56042-.25012C150.54631,43.63876,149.5696,43.25111,149.5696,41.9004Z"/>
      <path d="M157.415,47.52825V40.02451h1.88946v3.23911l3.44245-3.36422,1.5692,0.6754-3.39453,3.07647,3.92288,3.27664-1.6492.78791-3.89081-3.58932v3.40175H157.415Z"/>
      <path class="cls-2" d="M78.44667,60.03846H77.22987V52.53471h1.21679v7.50374Z"/>
      <path class="cls-2" d="M82.59165,54.41061v5.62785H81.40684V52.53471h1.18481l4.41925,5.62776V52.53471h1.1849v7.50374h-1.1849Z"/>
      <path class="cls-2" d="M90.69159,54.34814c0-1.08807,1.313-1.93845,2.72195-1.93845a3.1243,3.1243,0,0,1,2.16161.75029l-0.80059.68791a2.17233,2.17233,0,0,0-1.441-.5628,1.29548,1.29548,0,0,0-1.44111,1.06305c0,0.5628.56042,0.8879,1.361,1.25062l0.56042,0.25012c0.96068,0.4377,2.00144,1.0005,2.00144,2.126,0,1.18807-1.20085,2.18857-2.802,2.18857a3.37355,3.37355,0,0,1-2.51385-1.0005l0.9287-.75029a2.12715,2.12715,0,0,0,1.74532.85037,1.33622,1.33622,0,0,0,1.441-1.2256c0-.60025-0.48034-0.91293-1.361-1.31318L92.693,56.47416C91.65227,56.01144,90.69159,55.47366,90.69159,54.34814Z"/>
      <path class="cls-2" d="M99.73855,60.03846V53.46015H97.33677V52.53471h5.98837v0.92544h-2.40169v6.57831h-1.1849Z"/>
      <path class="cls-2" d="M106.79676,60.03846H105.58V52.53471h1.21679v7.50374Z"/>
      <path class="cls-2" d="M111.45415,60.03846V53.46015h-2.40178V52.53471h5.98837v0.92544h-2.40169v6.57831h-1.1849Z"/>
      <path class="cls-2" d="M123.76428,56.91194a3.39762,3.39762,0,0,1-6.789,0V52.53471h1.18482v4.37723a2.21254,2.21254,0,1,0,4.41925,0V52.53471h1.18489v4.37723Z"/>
      <path class="cls-2" d="M128.10345,60.03846V53.46015h-2.40179V52.53471H131.69v0.92544h-2.40169v6.57831h-1.18489Z"/>
    </g>
  </g>
</svg>
