<svg id="Warstwa_1" data-name="Warstwa 1" xmlns="http://www.w3.org/2000/svg" width="200" height="100" viewBox="0 0 200 100">
  <defs>
    <style>
      .cls-1 {
        fill: #231f20;
      }

      .cls-2 {
        fill: #2077bc;
      }
    </style>
  </defs>
  <title>tuv</title>
  <g id="g3271">
    <path id="path2832" class="cls-1" d="M66.11155,46.8895H75.198v1.86235H71.86076v9.34741H69.44881V48.75185H66.11155"/>
    <path id="path2834" class="cls-1" d="M82.37316,45.32249V43.47173H83.9506v1.85076H82.37316Zm-2.66989,0V43.47173h1.57767v1.85076H79.70327Zm6.97783,1.567v7.01828c0,2.98226-2.1389,4.4247-4.85414,4.4247S76.9576,56.89,76.9576,53.90778V46.8895h2.412v6.085c0,1.89751.091,3.62007,2.45737,3.62007,2.35119,0,2.45753-1.72256,2.45753-3.62007v-6.085"/>
    <path id="path2836" class="cls-1" d="M88.44088,46.8895h2.62427l2.91241,8.83407H94.008l2.92777-8.83407h2.3816L95.19117,58.09927H92.56686"/>
    <path id="path2838" class="cls-1" d="M102.8669,51.703h2.56356c1.72936-.07767,2.10883-0.85539,2.10883-1.738,0-.88654-0.37946-1.66426-2.10883-1.74193H102.8669V51.703Zm0.03042,1.3338v5.06247H101.35V46.8895h4.00443c1.881,0,3.82271.591,3.82271,2.8112A2.67621,2.67621,0,0,1,107.069,52.403v0.031c1.34994,0.32287,1.53189,1.03827,1.69864,2.298a16.78628,16.78628,0,0,0,.69817,3.36725H107.812a19.73474,19.73474,0,0,1-.40945-2.06461,4.49092,4.49092,0,0,0-.63738-2.48471,2.2133,2.2133,0,0,0-1.69864-.51315"/>
    <path id="path2840" class="cls-1" d="M111.71066,58.09927V46.8895h1.47149V51.3454h0.04559a2.7489,2.7489,0,0,1,2.518-1.27153,2.45853,2.45853,0,0,1,2.66986,2.74507v5.28032h-1.47149v-4.6114c0-1.36477-.34869-2.2513-1.7294-2.28246a2.09958,2.09958,0,0,0-1.775,1.0886,3.71244,3.71244,0,0,0-.25757,1.80027v4.005"/>
    <path id="path2842" class="cls-1" d="M125.87861,53.45671c0.03038-1.30264-.561-2.31357-1.98693-2.31357a2.06731,2.06731,0,0,0-1.9569,2.31357h3.94383Zm-3.94383,1.02653c-0.106,1.36472.455,2.77623,1.9569,2.77623a1.63427,1.63427,0,0,0,1.89615-1.58261h1.5471c-0.22715,1.76907-1.59269,2.65562-3.45842,2.65562-2.50276,0-3.48883-1.76908-3.48883-4.06709,0-2.28226,1.15243-4.19152,3.61-4.19152,2.336,0.04671,3.4436,1.5203,3.4436,3.67837v0.731"/>
    <path id="path2844" class="cls-1" d="M129.33742,48.89962h1.75939v-1.598h-1.75939v1.598Z"/>
    <path id="path2846" class="cls-1" d="M129.47417,58.09927h1.47149v-7.796h-1.47149v7.796Z"/>
    <path id="path2848" class="cls-1" d="M134.96507,51.45423h0.03042a2.7165,2.7165,0,0,1,2.36639-1.38036c0.54621,0,2.95815.13617,2.95815,2.63629v5.38911h-1.48666V53.19234c0-1.28708-.54621-1.98693-1.7746-1.98693a2.04659,2.04659,0,0,0-1.44111.57546c-0.21272.21766-.62217,0.5599-0.62217,2.08016v4.23823H133.524v-7.796h1.44107"/>
    <path id="path2850" class="cls-1" d="M142.79276,58.09927h1.47114V46.8895h-1.47114V58.09927Z"/>
    <path id="path2852" class="cls-1" d="M149.93753,54.3121c-0.8949.04671-2.09327,0.3732-2.09327,1.50475a1.38259,1.38259,0,0,0,1.53186,1.44263c1.74461,0,2.0629-1.50475,2.03291-2.94737h-1.47149Zm1.47149-1.02649c0-1.34921-.076-2.14247-1.63862-2.14247a1.328,1.328,0,0,0-1.45594,1.24434h-1.56262c0.076-1.711,1.4259-2.31361,2.95815-2.31361,1.59269,0,3.18534.47822,3.18534,2.65185v3.72886c0,0.342.01517,0.99136,0.06075,1.64469h-1.00124c-0.13637,0-.39428.07767-0.40945-0.10883-0.03038-.3578-0.06079-0.69984-0.09117-1.05383h-0.03037a2.48224,2.48224,0,0,1-2.41159,1.39588c-1.35033,0-2.71548-.69985-2.71548-2.22015,0-2.189,1.94173-2.82672,3.77713-2.82672"/>
    <path id="path2854" class="cls-1" d="M156.7028,51.49693h0.03042a2.71654,2.71654,0,0,1,2.36639-1.38032c0.54617,0,2.95815.14,2.95815,2.63625V58.142H160.5711V53.23509c0-1.28709-.531-1.98693-1.7746-1.98693a2.04659,2.04659,0,0,0-1.44111.57545c-0.21233.21781-.62217,0.55987-0.62217,2.08017V58.142h-1.47149V50.346h1.44107"/>
    <path id="path2856" class="cls-1" d="M167.71583,57.3489c1.79016,0,2.21482-1.66044,2.21482-3.11844,0-1.41528-.531-3.09113-2.21482-3.09113-1.7746,0-2.19926,1.62913-2.19926,3.09113C165.51657,55.68845,166.06239,57.3489,167.71583,57.3489Zm2.18444-10.41665h1.4867v9.82944c0,0.46663.04559,0.92925,0.076,1.38032h-1.50187l-0.06079-1.1625V56.90164h-0.03038a2.73545,2.73545,0,0,1-2.68506,1.47378c-2.30564,0-3.23092-2.12692-3.23092-4.12941,0-2.11131,1.07725-4.1294,3.504-4.1294a2.50838,2.50838,0,0,1,2.412,1.28709h0.03038"/>
    <path id="path2862" class="cls-2" d="M58.40541,62.20133l-1.85056-3.19992a32.12763,32.12763,0,0,0-5.47612-.47445,30.03942,30.03942,0,0,0-7.50883.93707,29.68942,29.68942,0,0,1-7.50883.96044,26.0488,26.0488,0,0,1-2.71544-.13221L43.55469,42.60456,49.72859,53.274a30.16732,30.16732,0,0,0-6.15869.90969,29.92393,29.92393,0,0,1-4.45986.7895l-1.86577,3.21933a31.37869,31.37869,0,0,0,6.32563-.9175,29.85671,29.85671,0,0,1,7.50883-.94485,31.665,31.665,0,0,1,4.0956.26814l-1.95675-3.38662-5.06667-8.76017L43.5699,36.5,28.53707,62.528a29.54808,29.54808,0,0,0,15.03283,0,30.734,30.734,0,0,1,15.03283,0"/>
  </g>
</svg>
