<svg id="Warstwa_1" data-name="Warstwa 1" xmlns="http://www.w3.org/2000/svg" width="100" height="90" viewBox="0 0 100 90">
  <defs>
    <style>
      .cls-1 {
        fill: #fbb906;
      }
    </style>
  </defs>
  <title>azure</title>
  <path class="cls-1" d="M82.73863,72.5H16.30753a15.78874,15.78874,0,0,1-2.906-31.31123A28.182,28.182,0,0,1,41.21927,16.5,27.88023,27.88023,0,0,1,62.6124,26.42688a16.26831,16.26831,0,0,1,21.11071,9.14621q0.0998,0.25239.19114,0.508A18.25079,18.25079,0,0,1,82.73863,72.5ZM41.21927,18.80134A25.8505,25.8505,0,0,0,15.60891,42.28589l-0.07925.92706-0.92586.11686a13.48765,13.48765,0,0,0,1.70373,26.86883h66.4311a15.94017,15.94017,0,0,0,.305-31.85325l-0.83909-.01685-0.24264-.8016a14.07892,14.07892,0,0,0-13.3887-9.93851,13.87264,13.87264,0,0,0-5.82258,1.28216l-0.82407.37794-0.56265-.70906A25.59522,25.59522,0,0,0,41.21927,18.80134Z"/>
  <g>
    <path class="cls-1" d="M35.90117,59.08822H33.7936L32.07147,54.533H25.1819l-1.62062,4.55525h-2.1189l6.232-16.24947h1.97205Zm-4.45322-6.266L28.89825,45.8986a6.644,6.644,0,0,1-.24889-1.08831H28.604a6.13232,6.13232,0,0,1-.26075,1.08831l-2.527,6.92357H31.448Z"/>
    <path class="cls-1" d="M46.13349,48.01752L39.2666,57.50213h6.79887v1.5861H36.536V58.51005l6.86689-9.43926H37.18169v-1.5861h8.95179v0.53283Z"/>
    <path class="cls-1" d="M57.91789,59.08822H56.06075v-1.8355H56.0154A3.81717,3.81717,0,0,1,52.4351,59.3603q-4.1492,0-4.14816-4.9407V47.48469h1.84683v6.64016q0,3.67152,2.81045,3.672a2.84313,2.84313,0,0,0,2.23847-1.0038,3.8355,3.8355,0,0,0,.87807-2.62288V47.48469h1.85714V59.08822Z"/>
    <path class="cls-1" d="M67.721,49.36554a2.27481,2.27481,0,0,0-1.40574-.3741,2.37006,2.37006,0,0,0-1.988,1.12232,5.1855,5.1855,0,0,0-.79974,3.05985v5.91461h-1.8582V47.48469h1.85817v2.391h0.04539a4.05621,4.05621,0,0,1,1.213-1.90971A2.76774,2.76774,0,0,1,66.61,47.28063a3.0316,3.0316,0,0,1,1.111.15871v1.92619h0Z"/>
    <path class="cls-1" d="M78.75763,53.75075H70.56542a4.33879,4.33879,0,0,0,1.04194,2.99184,3.59312,3.59312,0,0,0,2.7424,1.0543,5.70178,5.70178,0,0,0,3.604-1.29237v1.7448a6.732,6.732,0,0,1-4.04614,1.111,4.9032,4.9032,0,0,1-3.86372-1.58094,6.46891,6.46891,0,0,1-1.40466-4.44808,6.34523,6.34523,0,0,1,1.53456-4.413A4.926,4.926,0,0,1,73.987,47.21262a4.36621,4.36621,0,0,1,3.52465,1.47273,6.14445,6.14445,0,0,1,1.246,4.09145v0.97394ZM76.85414,52.176a3.77783,3.77783,0,0,0-.776-2.50436A2.64584,2.64584,0,0,0,73.953,48.776a3.00466,3.00466,0,0,0-2.23228.94094A4.26695,4.26695,0,0,0,70.58808,52.176h6.26605Z"/>
  </g>
</svg>
