<svg id="Warstwa_1" data-name="Warstwa 1" xmlns="http://www.w3.org/2000/svg" width="50" height="90" viewBox="0 0 50 90">
  <defs>
    <style>
      .cls-1 {
        fill: #349dd8;
      }
    </style>
  </defs>
  <title>bulb</title>
  <g>
    <path class="cls-1" d="M17.2212,18.98a0.78831,0.78831,0,0,0-1.1136.05259l-0.0041.00455-2.35018,2.61021-0.01428.01587a0.79249,0.79249,0,0,0,1.16757,1.07059,1.31244,1.31244,0,0,1,1.04725-.03175,0.76675,0.76675,0,0,1,.67284.73886,0.79351,0.79351,0,0,0,.76466.80711h0.02771a0.79242,0.79242,0,0,0,.79078-0.76663,2.36047,2.36047,0,0,0-1.87207-2.31975l-0.0127-.00317,0.95226-1.05789a0.7925,0.7925,0,0,0-.05484-1.11942Z"/>
    <path class="cls-1" d="M31.79484,23.48141a0.79171,0.79171,0,0,0,.79.76663h0.0277a0.793,0.793,0,0,0,.76466-0.80711,0.76687,0.76687,0,0,1,.67363-0.73886,1.31,1.31,0,0,1,1.04646.03175,0.79278,0.79278,0,0,0,1.16836-1.07059l-0.01429-.01587-2.35018-2.61021a0.79228,0.79228,0,1,0-1.17469,1.06345l0.95226,1.05789-0.0127.00317A2.36048,2.36048,0,0,0,31.79484,23.48141Z"/>
    <path class="cls-1" d="M49.93375,30.89062a21.70029,21.70029,0,0,0-9.41181-16.7001,0.79264,0.79264,0,0,0-.77812,1.36978c6.916,4.60854,8.33369,12.0368,8.60679,15.45809,0.03641,0.45871.05541,0.9071,0.05936,1.34677,0.05462,6.59655-3.47421,11.14954-7.197,15.95251-3.7481,4.8371-7.61653,9.82658-8.11363,17.1104h-5.754c0.296-3.01813,1.27206-9.32184,3.07527-13.57245a4.89728,4.89728,0,0,0,4.08215.62934,4.2298,4.2298,0,0,0,3.02222-2.88,3.006,3.006,0,0,0-.98947-2.96813,0.78714,0.78714,0,0,0-.19-0.13095,3.99122,3.99122,0,0,0-3.85971.02063,7.30424,7.30424,0,0,0-2.52432,2.70544,14.55006,14.55006,0,0,1-2.29319-8.34965,5.5493,5.5493,0,0,1,.752-3.21733c0.14723,0.169.2913,0.342,0.4504,0.50236a6.18466,6.18466,0,0,0,4.18742,1.55708,5.156,5.156,0,0,0,1.4652-.2,3.22821,3.22821,0,0,0,2.36681-2.48561,0.79433,0.79433,0,0,0-1.55392-.33046l-0.00073.00349a1.63933,1.63933,0,0,1-1.26493,1.28725A4.63353,4.63353,0,0,1,29.994,37.042a8.27577,8.27577,0,0,1-2.36918-6.32751A4.02479,4.02479,0,0,1,29.06389,27.482c0.67443,0.027,1.55386.02778,2.56312,0.0246,0.5074-.00159.9325-0.00317,1.15807,0.00476A3.08394,3.08394,0,0,1,35.11231,28.636a0.79386,0.79386,0,0,0,1.32826-.86981h0A4.51789,4.51789,0,0,0,32.84128,25.921c-0.23589-.00794-0.6855-0.00714-1.21979-0.00556a30.27337,30.27337,0,0,1-3.28582-.08888,1.99415,1.99415,0,0,1-1.05042-.78013,2.12344,2.12344,0,0,1-.00556-1.53168,3.18778,3.18778,0,0,1,.61664-0.3976c0.84461-.47141,2.25915-1.26027,1.96943-3.12527a0.79431,0.79431,0,0,0-1.57055.23888l0.00087,0.00555a1.22781,1.22781,0,0,1-.87944,1.323c-0.26835-.2357-0.67521-0.87854-0.2074-2.4872a2.41742,2.41742,0,0,1,2.71905-1.96976,0.79613,0.79613,0,0,0,.28022-1.5674,4.01186,4.01186,0,0,0-2.74755.56823,5.35728,5.35728,0,0,1-.41082-3.24352c0.44486-1.39835,2.91932-2.07928,4.06632-1.96738a8.19092,8.19092,0,0,1,4.15814,2.67529,4.6677,4.6677,0,0,1,.43616,2.89353,5.98418,5.98418,0,0,1-1.81033-2.10944,0.79341,0.79341,0,0,0-1.39943.74807L32.5033,15.104a8.45362,8.45362,0,0,0,5.017,4.04269,6.59175,6.59175,0,0,1,3.71882,2.68163,3.12834,3.12834,0,0,1,.66413,2.5245,1.33675,1.33675,0,0,1-.79236.67775,6.53281,6.53281,0,0,0-3.48847-.98012,0.7955,0.7955,0,0,0,.0657,1.58962,4.58869,4.58869,0,0,1,3.9555,2.18721c1.36863,2.3999,1.13829,3.29034.98472,3.8792a2.2905,2.2905,0,0,1-1.03934,1.123,0.59485,0.59485,0,0,1-.53827.04841c-0.02058-.00952-0.04354-0.00794-0.06491-0.01587A13.06546,13.06546,0,0,0,36.329,30.80254c-2.38026-.577-4.13756-0.35554-4.94813.6214a2.27949,2.27949,0,0,0-.1599,2.52688,0.79455,0.79455,0,1,0,1.45121-.64746l-0.00184-.0041a0.93753,0.93753,0,0,1-.06808-0.8587c0.23193-.28015,1.19924-0.61347,3.35311-0.09127a9.94276,9.94276,0,0,1,5.20776,2.784c0.30872,0.346,1.94727,3.3451-.21452,5.61008-1.46678,1.53644-3.06813,1.23725-4.76686.919-1.72721-.32141-3.87554-0.72378-5.08111,1.75866a0.79394,0.79394,0,0,0,1.42383.70289l0.00259-.00529c0.64909-1.33725,1.49845-1.23963,3.36261-.89123,1.84675,0.346,4.14468.77457,6.20514-1.38407,2.71509-2.84433,1.23646-6.53862.33563-7.66635a3.77286,3.77286,0,0,0,1.72484-2.03484c0.27389-1.05472.42508-2.37054-1.13353-5.10455a5.87473,5.87473,0,0,0-.63088-0.89282,2.71325,2.71325,0,0,0,.96572-1.15233c0.46149-1.07377.20344-2.41895-.76625-3.99983A8.0537,8.0537,0,0,0,38.11,17.66816c-0.30237-.12142-0.6-0.24443-0.89369-0.37379a0.77787,0.77787,0,0,0,.01979-0.0873l0.0127-.11984c0.08153-.74124.32772-2.9967-0.67126-4.43236a9.44222,9.44222,0,0,0-5.3075-3.34907c-1.65756-.16428-4.98533.72775-5.731,3.06733-0.619,1.94674.40845,4.29347,0.72587,4.94424a5.08664,5.08664,0,0,0-.58022,1.30629c-0.55489,1.91024-.167,3.13162.4132,3.83794a1.57232,1.57232,0,0,0-.15436.19047A3.64966,3.64966,0,0,0,25.79,25.57657a3.24288,3.24288,0,0,0,1.44937,1.51422,6.20036,6.20036,0,0,0-1.20081,3.54588,10.01434,10.01434,0,0,0,1.43987,5.749,0.64279,0.64279,0,0,0-.07995.04762c-1.08129.97139-1.29026,3.18-1.318,4.41093-0.07361,3.2086.85728,7.433,3.08082,9.91625-2.45546,5.32756-3.29294,13.409-3.41168,14.66526h-1.4985c-0.11794-1.2563-.95622-9.3385-3.41089-14.66526,2.22432-2.48323,3.15363-6.70686,3.08082-9.91625-0.0285-1.23011-.23668-3.43954-1.31876-4.41093a0.75762,0.75762,0,0,0-.07995-0.04762,10.00258,10.00258,0,0,0,1.44066-5.749,6.2004,6.2004,0,0,0-1.20082-3.54588,3.24458,3.24458,0,0,0,1.44858-1.51422,3.65307,3.65307,0,0,0-.15357-2.92448,1.63631,1.63631,0,0,0-.15436-0.19047c0.58022-.70632.9673-1.9277,0.41241-3.83794a5.05961,5.05961,0,0,0-.58022-1.30629c0.31824-.65156,1.34567-2.99749.72587-4.94424-0.74566-2.33959-4.07343-3.23161-5.731-3.06733a9.44225,9.44225,0,0,0-5.3075,3.34907c-0.999,1.43565-.752,3.69112-0.67126,4.43236l0.0127,0.11984a0.77717,0.77717,0,0,0,.01979.0873c-0.29364.12936-.59131,0.25237-0.89289,0.37379a8.05624,8.05624,0,0,0-4.4811,3.32447c-0.97047,1.58009-1.22773,2.92607-.76625,3.99983a2.718,2.718,0,0,0,.96572,1.15233,5.81665,5.81665,0,0,0-.63009.89282c-1.55861,2.734-1.40742,4.05063-1.13433,5.10455A3.77439,3.77439,0,0,0,7.57115,34.177c-0.90081,1.12773-2.38026,4.822.334,7.66635,2.06047,2.15785,4.35841,1.72929,6.20515,1.38407,1.86415-.3476,2.71351-0.446,3.3634.89123a0.79214,0.79214,0,0,0,.71321.44681,0.78161,0.78161,0,0,0,.3475-0.08095,0.79618,0.79618,0,0,0,.36571-1.06345c-1.20557-2.48244-3.3539-2.08087-5.08032-1.75866-1.69872.31824-3.30086,0.61664-4.76686-.919-2.16182-2.265-.524-5.26407-0.21531-5.61008a9.9407,9.9407,0,0,1,5.20776-2.784c2.15467-.5222,3.122-0.18888,3.3539.09127a0.93985,0.93985,0,0,1-.06728.8587,0.79382,0.79382,0,1,0,1.44679.65377l0.001-.00221a2.27645,2.27645,0,0,0-.1599-2.52688c-0.80978-.97694-2.56708-1.19836-4.94733-0.6214A13.05622,13.05622,0,0,0,9.015,32.862a0.65768,0.65768,0,0,0-.0657.01587,0.58706,0.58706,0,0,1-.53748-0.04841,2.29011,2.29011,0,0,1-1.04012-1.123c-0.15277-.58886-0.38312-1.47851.98551-3.8792a4.588,4.588,0,0,1,3.95549-2.18721,0.7955,0.7955,0,0,0,.0657-1.58962,6.5529,6.5529,0,0,0-3.48926.98012,1.3335,1.3335,0,0,1-.79157-0.67775,3.1278,3.1278,0,0,1,.66413-2.5245,6.58916,6.58916,0,0,1,3.71881-2.68163,8.45581,8.45581,0,0,0,5.017-4.04269,0.79376,0.79376,0,0,0-1.39584-.75622l-0.00208.00387A5.98989,5.98989,0,0,1,14.29,16.46107a4.66629,4.66629,0,0,1,.43536-2.89353,8.189,8.189,0,0,1,4.15734-2.67529c1.14779-.11269,3.62145.569,4.06632,1.96738a5.34553,5.34553,0,0,1-.41082,3.24352,4.00969,4.00969,0,0,0-2.74755-.56823,0.79627,0.79627,0,0,0,.28181,1.5674,2.41772,2.41772,0,0,1,2.71905,1.96976c0.467,1.60866.06016,2.25149-.20818,2.4872a1.22951,1.22951,0,0,1-.87944-1.323,0.79392,0.79392,0,0,0-1.5681-.24958l-0.0008.00514c-0.28892,1.865,1.124,2.65465,1.96864,3.12527a3.17346,3.17346,0,0,1,.61743.3976,2.13166,2.13166,0,0,1-.00556,1.53168,1.99334,1.99334,0,0,1-1.05121.78013,30.27107,30.27107,0,0,1-3.285.08888c-0.5351-.00159-0.98471-0.00238-1.22058.00556a4.52009,4.52009,0,0,0-3.59929,1.84516,0.79419,0.79419,0,0,0,1.32906.86981,3.0829,3.0829,0,0,1,2.32723-1.12456c0.22481-.00794.65067-0.00635,1.15807-0.00476,1.00926,0.00317,1.8887.00238,2.56232-.0246A4.02175,4.02175,0,0,1,22.376,30.71445,8.27577,8.27577,0,0,1,20.0068,37.042a4.63353,4.63353,0,0,1-4.07661.9571,1.6403,1.6403,0,0,1-1.26572-1.28725,0.79394,0.79394,0,1,0-1.55441.32434l0.00055,0.00263a3.22589,3.22589,0,0,0,2.36681,2.48561,5.14419,5.14419,0,0,0,1.4652.2A6.18853,6.18853,0,0,0,21.13,38.16731c0.1599-.16031.30316-0.33252,0.4504-0.50236a5.567,5.567,0,0,1,.75279,3.21733,14.56289,14.56289,0,0,1-2.294,8.34965,7.30951,7.30951,0,0,0-2.52354-2.70544,3.98865,3.98865,0,0,0-3.86051-.02063,0.841,0.841,0,0,0-.19077.13095,3.00713,3.00713,0,0,0-.98867,2.96813,4.23,4.23,0,0,0,3.02144,2.88,4.89821,4.89821,0,0,0,4.08293-.62934c1.80162,4.24982,2.77846,10.55432,3.07448,13.57245H16.90137c-0.4979-7.28383-4.36552-12.2733-8.11442-17.1104-3.97053-5.1236-7.721-9.96229-7.13682-17.29928,0.2723-3.42129,1.6908-10.84955,8.60679-15.45809a0.79082,0.79082,0,0,0-.77733-1.36978,21.6992,21.6992,0,0,0-9.411,16.7001h0a19.20217,19.20217,0,0,0,.30157,5.37358c2.27736,11.29239,14.3726,16.83025,14.96866,29.76226a2.37419,2.37419,0,0,0-.87231,1.83088v0.1238a2.37361,2.37361,0,0,0,.80028,1.77136,2.3788,2.3788,0,0,0-.80028,1.77136v0.1246a2.3762,2.3762,0,0,0,.80028,1.77136,2.3775,2.3775,0,0,0-.80028,1.77136v0.12539a2.38713,2.38713,0,0,0,2.38105,2.388h0.25409c1.21424,1.82135,4.14626,3.00861,7.73525,3.00861s6.521-1.18725,7.73367-3.00861h0.4512a2.3878,2.3878,0,0,0,2.38185-2.388v-0.1238a2.3749,2.3749,0,0,0-.80028-1.77136A2.38164,2.38164,0,0,0,35.40361,71.65v-0.1246a2.37622,2.37622,0,0,0-.80028-1.77136,2.379,2.379,0,0,0,.80028-1.77136v-0.1238a2.376,2.376,0,0,0-.73933-1.72136C35.27618,51.22788,51.148,46.13205,49.93375,30.89062ZM33.26241,47.91373a2.34791,2.34791,0,0,1,2.27736-.03175,1.40048,1.40048,0,0,1,.44408,1.35153,2.67317,2.67317,0,0,1-1.91719,1.72056,3.33651,3.33651,0,0,1-2.951-.54918A6.16531,6.16531,0,0,1,33.26241,47.91373ZM15.93882,50.95408a2.67043,2.67043,0,0,1-1.9164-1.72056A1.39638,1.39638,0,0,1,14.4657,47.882a2.34838,2.34838,0,0,1,2.27656.03175A6.15943,6.15943,0,0,1,18.889,50.4049,3.33443,3.33443,0,0,1,15.93882,50.95408ZM33.81575,75.31655a0.79391,0.79391,0,0,1-.79181.796h-1.4737c-0.32929,1.68882-3.20825,3.00861-6.71255,3.00861s-6.38325-1.31979-6.71255-3.00861H16.85151a0.79374,0.79374,0,0,1-.79316-0.79431V75.19274a0.79374,0.79374,0,0,1,.79147-0.796H33.02257a0.7939,0.7939,0,0,1,.79394.79386v0.12594H33.81575Zm0-3.66731a0.79442,0.79442,0,0,1-.79282.796H16.85073a0.79424,0.79424,0,0,1-.79316-0.79531V71.52464a0.79356,0.79356,0,0,1,.79192-0.7952H33.02178a0.79373,0.79373,0,0,1,.79394.79351v0.12629h0Zm0-3.6681a0.79391,0.79391,0,0,1-.79181.796H16.85073a0.79374,0.79374,0,0,1-.79316-0.79431V67.85733a0.79374,0.79374,0,0,1,.79147-0.796H33.02178a0.7939,0.7939,0,0,1,.79394.79386v0.12594h0Z"/>
  </g>
</svg>
