<svg id="Warstwa_1" data-name="Warstwa 1" xmlns="http://www.w3.org/2000/svg" width="65" height="90" viewBox="0 0 65 90">
  <defs>
    <style>
      .cls-1 {
        fill: #7eb828;
      }
    </style>
  </defs>
  <title>certificate</title>
  <g>
    <path class="cls-1" d="M58.90625,12.49866H6.09375A6.11406,6.11406,0,0,0,0,18.59717V57.2211a6.11406,6.11406,0,0,0,6.09375,6.09851h8.9375L12.49219,76.32977a0.96664,0.96664,0,0,0,.40625,1.01643,1.09951,1.09951,0,0,0,1.11719,0l8.22657-4.98046,8.22657,4.98046a1.08318,1.08318,0,0,0,1.11719,0,1.03906,1.03906,0,0,0,.40625-1.01643L29.35156,63.31961H58.90625A6.11406,6.11406,0,0,0,65,57.2211V18.59717A6.11406,6.11406,0,0,0,58.90625,12.49866ZM29.45313,74.50022l-6.80469-4.06567a0.92194,0.92194,0,0,0-1.01562,0l-6.80468,4.06567,2.4375-11.99374h0l0.50782-2.64271a7.81665,7.81665,0,0,0,8.73438.10164,0.0995,0.0995,0,0,0,.10157-0.09738V59.86376h0l0.50782,2.64271h0ZM14.52344,55.08666V55.1883H13.10157A6.04185,6.04185,0,0,0,8.125,50.2078V25.61047A6.04185,6.04185,0,0,0,13.10156,20.63H51.89843A6.04185,6.04185,0,0,0,56.875,25.61047V50.2078a6.04187,6.04187,0,0,0-4.97657,4.98046H29.75781c0-.10164.20313-1.62627,0.20313-1.82956a7.82032,7.82032,0,0,0-15.64062-.017v0.017C14.32032,53.56194,14.52344,54.8833,14.52344,55.08666Zm7.61718-7.62315a5.9035,5.9035,0,0,1,5.6875,6.91164c-0.71094,5.387-10.35937,7.52143-11.57812-1.11809a6.01348,6.01348,0,0,1,5.89063-5.79359h0v0ZM62.96875,57.2211a4.076,4.076,0,0,1-4.0625,4.06567H28.94532l-0.60937-3.04926a3.38355,3.38355,0,0,0,.60938-1.01642H52.8125a0.95991,0.95991,0,0,0,1.01563-1.01643,4.076,4.076,0,0,1,4.0625-4.06567,0.95993,0.95993,0,0,0,1.01563-1.0164V24.69568a0.95992,0.95992,0,0,0-1.01562-1.01642,4.076,4.076,0,0,1-4.0625-4.06568,0.9599,0.9599,0,0,0-1.01562-1.01641H12.1875a0.95991,0.95991,0,0,0-1.01562,1.01642,4.076,4.076,0,0,1-4.0625,4.06568,0.95991,0.95991,0,0,0-1.01562,1.01641v26.4269A0.95993,0.95993,0,0,0,7.10938,52.139a4.076,4.076,0,0,1,4.0625,4.06568,0.95993,0.95993,0,0,0,1.01563,1.01641h3.14844a8.93982,8.93982,0,0,1,.60938,1.01642l-0.60937,3.04921H6.09375a4.076,4.076,0,0,1-4.0625-4.06567V18.59712a4.076,4.076,0,0,1,4.0625-4.06568h52.8125a4.076,4.076,0,0,1,4.0625,4.06568v38.624Z"/>
    <path class="cls-1" d="M22.14063,27.13509H42.75781a1.01642,1.01642,0,0,0,0-2.03284H22.14063A0.95991,0.95991,0,0,0,21.125,26.11867,1.01812,1.01812,0,0,0,22.14063,27.13509Z"/>
    <path class="cls-1" d="M12.79688,34.96151H52.20313a1.01642,1.01642,0,0,0,0-2.03284H12.79688a0.95991,0.95991,0,0,0-1.01562,1.01642A1.01812,1.01812,0,0,0,12.79688,34.96151Z"/>
    <path class="cls-1" d="M53.21875,41.87317a0.95993,0.95993,0,0,0-1.01562-1.01642H12.79688a1.01642,1.01642,0,0,0,0,2.03284H52.20313A1.09262,1.09262,0,0,0,53.21875,41.87317Z"/>
    <path class="cls-1" d="M42.85938,48.68317H34.22657a1.01642,1.01642,0,0,0,0,2.03284h8.63282A0.95991,0.95991,0,0,0,43.875,49.6996,1.01812,1.01812,0,0,0,42.85938,48.68317Z"/>
  </g>
</svg>
