<?xml version="1.0" encoding="utf-8"?>
<!-- Generator: Adobe Illustrator 21.1.0, SVG Export Plug-In . SVG Version: 6.00 Build 0)  -->
<svg version="1.1" id="Layer_1" xmlns="http://www.w3.org/2000/svg" xmlns:xlink="http://www.w3.org/1999/xlink" x="0px" y="0px"
	 viewBox="0 0 1000 1000" style="enable-background:new 0 0 1000 1000;" xml:space="preserve">
<path fill="#fff" d="M500,90.1c133.5,0,149.3,0.5,202.1,2.9c135.5,6.2,198.8,70.5,205,205c2.4,52.7,2.9,68.5,2.9,202c0,133.5-0.5,149.3-2.9,202
	c-6.2,134.4-69.3,198.8-205,205c-52.8,2.4-68.5,2.9-202.1,2.9c-133.5,0-149.3-0.5-202-2.9c-135.8-6.2-198.8-70.8-205-205
	c-2.4-52.7-2.9-68.5-2.9-202c0-133.5,0.5-149.3,2.9-202c6.2-134.5,69.3-198.8,205-205C350.7,90.6,366.5,90.1,500,90.1z M500,0
	C364.2,0,347.2,0.6,293.9,3C112.3,11.3,11.4,112.1,3,293.8C0.6,347.2,0,364.2,0,500s0.6,152.8,3,206.2
	C11.3,887.8,112.1,988.7,293.8,997c53.4,2.4,70.4,3,206.2,3s152.8-0.6,206.2-3c181.4-8.3,282.6-109.1,290.8-290.8
	c2.5-53.3,3-70.4,3-206.2s-0.6-152.8-3-206.1C988.8,112.5,888,11.4,706.2,3C652.8,0.6,635.8,0,500,0z M500,243.2
	c-141.8,0-256.8,115-256.8,256.8s115,256.8,256.8,256.8s256.8-115,256.8-256.8C756.8,358.2,641.8,243.2,500,243.2z M500,666.7
	c-92,0-166.7-74.6-166.7-166.7c0-92,74.6-166.7,166.7-166.7S666.7,408,666.7,500C666.7,592.1,592,666.7,500,666.7z M766.9,173.1
	c-33.2,0-60,26.9-60,60s26.9,60,60,60c33.1,0,60-26.9,60-60S800,173.1,766.9,173.1z"/>
</svg>
