<svg xmlns="http://www.w3.org/2000/svg" width="35" height="35" viewBox="0 0 35 35"><style>.a{fill:#FFF;}</style><path d="M14.1 13.9c0-1.7-1.1-1.7-1.1-1.7h-0.6H8.3v3.5h4.3C13.4 15.8 14.1 15.5 14.1 13.9z" class="a"/><path d="M13 18.2H8.3v4.2h4.4c0.7 0 1.9-0.2 1.9-2.1C14.6 18.2 13 18.2 13 18.2z" class="a"/><path d="M24.8 15.8c-2.5 0-2.8 2.4-2.8 2.4h5.2C27.2 18.2 27.2 15.8 24.8 15.8z" class="a"/><path d="M17.5 0C7.8 0 0 7.8 0 17.5S7.8 35 17.5 35 35 27.2 35 17.5 27.2 0 17.5 0zM21.3 10.3h6.6v2h-6.5V10.3zM18 20.6c0 4.8-5 4.7-5 4.7H8.3 8.2 4.7V9.4h3.5 0.1 4.6c2.5 0 4.5 1.4 4.5 4.2s-2.4 3-2.4 3C18.2 16.6 18 20.6 18 20.6zM24.8 23.1c2.6 0 2.5-1.7 2.5-1.7h2.8c0 4.5-5.4 4.2-5.4 4.2 -6.5 0-6.1-6.1-6.1-6.1s0-6.1 6.1-6.1c6.4 0 5.5 6.9 5.5 6.9H22C22 23.3 24.8 23.1 24.8 23.1z" class="a"/></svg>
