<svg xmlns="http://www.w3.org/2000/svg" width="35" height="35" viewBox="0 0 35 35"><style>.a{fill:#FFF;}</style><path d="M15.2 24.5c0 0.3 0 0.5 0 0.6 0 0.2 0 0.2-0.1 0.3 0 0.2-0.2 0.3-0.4 0.4 -0.2 0.1-0.3 0-0.5-0.3 0 0 0-0.1 0-0.3 0-0.2 0-0.4 0-0.6l0-3.8h-1.4l0 3.8c0 0.3 0 0.5 0 0.7s0 0.4 0 0.5c0 0.2 0 0.3 0.1 0.5 0 0.2 0.1 0.3 0.3 0.5 0.2 0.1 0.4 0.2 0.6 0.2 0.2 0 0.4 0 0.7-0.1 0.2-0.1 0.4-0.2 0.6-0.3 0.2-0.1 0.3-0.3 0.4-0.4l0 0.8L16.7 26.8v-6.1h-1.4L15.2 24.5 15.2 24.5z" class="a"/><path d="M20.1 20.5c-0.3 0-0.7 0.2-1.2 0.5V18.6h-1.4v8.2l1.2 0 0.1-0.5c0.4 0.3 0.7 0.5 1 0.6 0.3 0.1 0.6 0 0.8-0.1 0.2-0.1 0.4-0.3 0.5-0.6 0.1-0.3 0.2-0.6 0.2-1v-3.2c0-0.6-0.2-1-0.6-1.3C20.5 20.5 20.3 20.5 20.1 20.5zM20.2 25.3c0 0.1-0.1 0.2-0.2 0.3 -0.1 0.1-0.3 0.1-0.4 0.1 -0.2 0-0.3 0-0.4-0.1 -0.1-0.1-0.2-0.2-0.2-0.3v-3.6c0-0.1 0.1-0.2 0.2-0.3 0.1-0.1 0.3-0.1 0.4-0.1 0.2 0 0.3 0 0.4 0.1 0.1 0.1 0.2 0.2 0.2 0.3V25.3z" class="a"/><polygon points="13.2 18.6 8.6 18.6 8.6 19.6 10.1 19.6 10.1 26.8 11.5 26.8 11.5 19.6 13.2 19.6 " class="a"/><path d="M17.5 0C7.8 0 0 7.8 0 17.5S7.8 35 17.5 35 35 27.2 35 17.5C35 7.8 27.2 0 17.5 0zM20 12.7V8.5h1.3v4.9c0 0.1 0 0.2 0.1 0.3 0.1 0.1 0.2 0.1 0.4 0.1 0.1 0 0.3 0 0.4-0.1 0.1-0.1 0.2-0.2 0.2-0.3V8.5h1.2v6.3h-1.6l0-0.5c-0.1 0.2-0.3 0.4-0.4 0.5 -0.2 0.1-0.3 0.2-0.5 0.2 -0.2 0-0.4-0.1-0.6-0.2 -0.1-0.1-0.3-0.2-0.4-0.4 0-0.1-0.1-0.2-0.1-0.3 0-0.1 0-0.2 0-0.3 0-0.1 0-0.2 0-0.4L20 12.7 20 12.7zM16.1 8.6c0.3-0.2 0.6-0.3 1.1-0.3 0.4 0 0.7 0.1 1 0.2 0.3 0.1 0.5 0.3 0.6 0.5 0.1 0.2 0.2 0.4 0.3 0.6 0.1 0.3 0.1 0.6 0.1 1v1.6c0 0.6 0 1-0.1 1.3 0 0.2-0.1 0.5-0.3 0.8 -0.2 0.3-0.4 0.4-0.6 0.5 -0.3 0.1-0.6 0.2-0.9 0.2 -0.3 0-0.7 0-0.9-0.2 -0.3-0.1-0.5-0.2-0.6-0.4 -0.1-0.2-0.2-0.4-0.3-0.7 -0.1-0.3-0.1-0.7-0.1-1.3 0 0 0-1.7 0-1.7 0-0.6 0.1-1 0.2-1.4C15.6 9 15.8 8.7 16.1 8.6zM11.9 6l0.9 3.1 0.9-3.1h1.7l-1.8 4.2v4.8H12.2v-4.8l-1.9-4.2H11.9zM27.8 26c0 0.4-0.1 0.8-0.3 1.2 -0.2 0.4-0.4 0.7-0.7 0.9 -0.3 0.3-0.7 0.5-1.1 0.6 -0.4 0.2-0.8 0.2-1.3 0.2H10.6c-0.5 0-0.9-0.1-1.3-0.2 -0.4-0.2-0.8-0.4-1.1-0.6 -0.3-0.3-0.6-0.6-0.7-0.9 -0.2-0.4-0.3-0.7-0.3-1.2v-6.8c0-0.4 0.1-0.8 0.3-1.2 0.2-0.4 0.4-0.7 0.7-0.9 0.3-0.3 0.7-0.5 1.1-0.6 0.4-0.2 0.8-0.2 1.3-0.2H24.4c0.5 0 0.9 0.1 1.3 0.2s0.8 0.4 1.1 0.6c0.3 0.3 0.6 0.6 0.7 0.9 0.2 0.4 0.3 0.7 0.3 1.2V26z" class="a"/><path d="M17.2 13.9c0.2 0 0.3-0.1 0.4-0.2 0.1-0.1 0.2-0.3 0.2-0.4V9.9c0-0.2-0.1-0.3-0.2-0.5 -0.1-0.1-0.3-0.2-0.4-0.2 -0.2 0-0.3 0.1-0.4 0.2 -0.1 0.1-0.2 0.3-0.2 0.5v3.4c0 0.2 0.1 0.3 0.2 0.4C16.9 13.9 17.1 13.9 17.2 13.9z" class="a"/><path d="M24.7 24.7v0.2 0.5c0 0.2-0.1 0.3-0.2 0.4 -0.1 0.1-0.3 0.1-0.4 0.1h-0.2c-0.2 0-0.3 0-0.4-0.1 -0.1-0.1-0.2-0.2-0.2-0.4v-0.1 -0.6 -0.8h2.5v-0.8c0-0.3 0-0.6 0-0.9 0-0.3 0-0.5-0.1-0.7 0-0.3-0.2-0.5-0.4-0.7 -0.2-0.2-0.5-0.3-0.7-0.3 -0.3-0.1-0.6-0.1-0.9 0 -0.3 0-0.5 0.1-0.8 0.3 -0.3 0.2-0.5 0.4-0.6 0.8 -0.1 0.3-0.2 0.8-0.2 1.3v1.9c0 0.8 0.2 1.4 0.6 1.7 0.4 0.3 0.8 0.5 1.2 0.5 0 0 0.1 0 0.1 0 0.5 0 0.9-0.2 1.3-0.6 0.3-0.3 0.4-0.6 0.4-1.1 0-0.1 0-0.3-0.1-0.5H24.7v0h0V24.7zM23.3 22.1c0-0.2 0.1-0.3 0.2-0.4 0.1-0.1 0.3-0.2 0.4-0.2h0.1c0.2 0 0.3 0.1 0.5 0.2 0.1 0.1 0.2 0.2 0.2 0.4l0 0.8h-1.4L23.3 22.1z" class="a"/></svg>
