<?xml version="1.0" encoding="utf-8"?>
<!-- Generator: Adobe Illustrator 21.1.0, SVG Export Plug-In . SVG Version: 6.00 Build 0)  -->
<svg version="1.1" id="Layer_1" xmlns="http://www.w3.org/2000/svg" xmlns:xlink="http://www.w3.org/1999/xlink" x="0px" y="0px"
	 viewBox="0 0 1000 1000" style="enable-background:new 0 0 1000 1000;" xml:space="preserve">
<path fill="#fff" d="M1000,55.2v889.6c0,30.5-24.7,55.2-55.2,55.2H690V612.7h130l19.5-150.9H690v-96.4c0-43.7,12.1-73.5,74.8-73.5l79.9,0V157
	c-13.8-1.8-61.3-5.9-116.5-5.9c-115.2,0-194.1,70.3-194.1,199.5v111.3H403.8v150.9h130.3V1000H55.2C24.7,1000,0,975.3,0,944.8V55.2
	C0,24.7,24.7,0,55.2,0h889.6C975.3,0,1000,24.7,1000,55.2z"/>
</svg>
