<?xml version="1.0" encoding="utf-8"?>
<!-- Generator: Adobe Illustrator 21.1.0, SVG Export Plug-In . SVG Version: 6.00 Build 0)  -->
<svg version="1.1" id="Layer_1" xmlns="http://www.w3.org/2000/svg" xmlns:xlink="http://www.w3.org/1999/xlink" x="0px" y="0px"
	 viewBox="0 0 1000 1000" style="enable-background:new 0 0 1000 1000;" xml:space="preserve">
<path fill="#fff" d="M989.3,300.4c0,0-9.8-68.7-39.7-98.9c-37.9-39.7-80.4-39.9-99.9-42.2c-139.6-10.1-349.1-8.9-349.1-8.9s-209.6-1.2-349.1,8.9
	c-19.5,2.3-62,2.5-99.9,42.2c-29.9,30.2-39.7,98.9-39.7,98.9S1.9,381,0,461.7v75.6c1.9,80.7,11.9,161.3,11.9,161.3
	s9.7,68.7,39.7,98.9c37.9,39.7,87.8,38.4,110,42.6c78.4,7.5,330.2,9.3,338.9,9.4c0.1,0,209.8,0.3,349.3-9.8
	c19.5-2.3,62-2.5,99.9-42.2c29.9-30.2,39.7-98.9,39.7-98.9s10-80.7,10.6-161.3v-75.6C999.3,381,989.3,300.4,989.3,300.4z
	 M398.7,639.6V358.4L666.8,499L398.7,639.6z"/>
</svg>
