<svg xmlns="http://www.w3.org/2000/svg" width="35" height="35" viewBox="0 0 35 35"><path d="M17.5 0C7.8 0 0 7.8 0 17.5S7.8 35 17.5 35 35 27.2 35 17.5 27.2 0 17.5 0zM29.9 11.7c-0.1 2.4-1.8 5.7-5.1 9.9 -3.4 4.4-6.2 6.6-8.5 6.6 -1.4 0-2.7-1.3-3.7-4 -0.7-2.4-1.3-4.9-2-7.3 -0.7-2.7-1.5-4-2.4-4 -0.2 0-0.8 0.4-1.9 1.2l-1.2-1.5c1.2-1.1 2.4-2.1 3.6-3.2 1.6-1.4 2.9-2.1 3.7-2.2 1.9-0.2 3.1 1.1 3.6 4 0.5 3 0.8 4.9 1 5.7 0.6 2.5 1.2 3.8 1.8 3.8 0.5 0 1.3-0.8 2.3-2.5 1-1.6 1.6-2.9 1.7-3.7 0.1-1.4-0.4-2.1-1.7-2.1 -0.6 0-1.2 0.1-1.8 0.4 1.2-4 3.5-5.9 7-5.8C28.8 6.9 30 8.5 29.9 11.7z" fill="#FFF"/></svg>
