<svg xmlns="http://www.w3.org/2000/svg" width="35" height="35" viewBox="0 0 35 35"><style>.a{fill:#FFF;}</style><path d="M17.5 21c1.9 0 3.5-1.6 3.5-3.5 0-0.8-0.2-1.5-0.7-2 -0.6-0.9-1.7-1.5-2.8-1.5s-2.2 0.6-2.8 1.5c-0.4 0.6-0.7 1.3-0.7 2C14 19.4 15.6 21 17.5 21z" class="a"/><polygon points="25.2 13.2 25.2 10.3 25.2 9.8 24.7 9.8 21.8 9.9 21.8 13.2 " class="a"/><path d="M17.5 0C7.9 0 0 7.9 0 17.5S7.9 35 17.5 35 35 27.1 35 17.5 27.2 0 17.5 0zM27.5 15.5v8.1c0 2.1-1.7 3.8-3.8 3.8H11.4c-2.1 0-3.8-1.7-3.8-3.8v-8.1 -4.1c0-2.1 1.7-3.8 3.8-3.8h12.2c2.1 0 3.8 1.7 3.8 3.8L27.5 15.5 27.5 15.5z" class="a"/><path d="M22.9 17.5c0 3-2.4 5.4-5.4 5.4s-5.4-2.4-5.4-5.4c0-0.7 0.1-1.4 0.4-2H9.5v8.1c0 1.1 0.9 1.9 1.9 1.9h12.2c1.1 0 1.9-0.9 1.9-1.9v-8.1h-3C22.8 16.1 22.9 16.8 22.9 17.5z" class="a"/></svg>
