<?xml version="1.0" encoding="utf-8"?>
<!-- Generator: Adobe Illustrator 21.1.0, SVG Export Plug-In . SVG Version: 6.00 Build 0)  -->
<svg version="1.1" id="Layer_1" xmlns="http://www.w3.org/2000/svg" xmlns:xlink="http://www.w3.org/1999/xlink" x="0px" y="0px"
	 viewBox="0 0 1000 1000" style="enable-background:new 0 0 1000 1000;" xml:space="preserve">
<path fill="#fff" d="M923.4,0H76.6C36,0,3.2,32.1,3.2,71.6v856.7c0,39.6,32.9,71.6,73.4,71.6h846.8c40.6,0,73.4-32.1,73.4-71.6V71.6
	C996.8,32.1,964,0,923.4,0z M304.4,837.1H154.3V385.5h150.1V837.1z M229.3,323.9L229.3,323.9h-1c-50.4,0-82.9-34.7-82.9-78
	c0-44.3,33.6-78,84.9-78c51.3,0,82.9,33.7,83.9,78C314.2,289.2,281.7,323.9,229.3,323.9z M845.6,837.1H695.5V595.5
	c0-60.7-21.7-102.1-76-102.1c-41.5,0-66.2,27.9-77,54.9c-4,9.6-4.9,23.1-4.9,36.6v252.2H387.4c0,0,2-409.2,0-451.6h150.1v64
	c19.9-30.8,55.6-74.6,135.3-74.6c98.7,0,172.8,64.5,172.8,203.2V837.1z"/>
</svg>
