<?xml version="1.0" encoding="utf-8"?>
<!-- Generator: Adobe Illustrator 21.1.0, SVG Export Plug-In . SVG Version: 6.00 Build 0)  -->
<svg version="1.1" id="Layer_1" xmlns="http://www.w3.org/2000/svg" xmlns:xlink="http://www.w3.org/1999/xlink" x="0px" y="0px"
	 viewBox="0 0 1000 1000" style="enable-background:new 0 0 1000 1000;" xml:space="preserve">
<path fill="#fff" d="M1000,189.9c-36.8,16.3-76.3,27.3-117.8,32.3c42.4-25.4,74.9-65.6,90.2-113.5c-39.6,23.5-83.5,40.6-130.3,49.8
	c-37.4-39.9-90.7-64.8-149.8-64.8c-113.3,0-205.2,91.9-205.2,205.2c0,16.1,1.8,31.7,5.3,46.8C322,337,170.8,255.3,69.6,131.2
	C52,161.5,41.8,196.8,41.8,234.4c0,71.2,36.2,134,91.3,170.8c-33.6-1.1-65.3-10.3-92.9-25.7c0,0.9,0,1.7,0,2.6
	c0,99.4,70.7,182.3,164.6,201.2c-17.2,4.7-35.3,7.2-54.1,7.2c-13.2,0-26.1-1.3-38.6-3.7c26.1,81.5,101.9,140.8,191.7,142.5
	c-70.2,55-158.7,87.8-254.8,87.8c-16.6,0-32.9-1-48.9-2.9c90.8,58.2,198.6,92.2,314.5,92.2c377.4,0,583.7-312.6,583.7-583.7
	c0-8.9-0.2-17.7-0.6-26.5C937.7,267.1,972.5,231,1000,189.9z"/>
</svg>
