<svg xmlns="http://www.w3.org/2000/svg" width="380" height="380" viewBox="0 0 380 380"><path d="M190 0C85.2 0 0 85.2 0 190c0 104.8 85.2 190 190 190 104.8 0 190-85.2 190-190C380 85.2 294.8 0 190 0zM269.9 316.9l-8.2-14.1c-0.9-1.6-2.7-2.6-4.6-2.6 -0.9 0-1.8 0.2-2.6 0.7 -1.2 0.7-2.1 1.9-2.5 3.2 -0.4 1.4-0.2 2.8 0.5 4l8.2 14.1c-18.3 9.8-38.9 16-60.8 17.4V319.8c0-5.5-4.5-10-10-10 -5.5 0-10 4.5-10 10v19.9c-21.5-1.4-41.8-7.4-59.9-17l8.1-14.1c0.7-1.2 0.9-2.7 0.5-4 -0.4-1.4-1.2-2.5-2.5-3.2 -0.8-0.5-1.7-0.7-2.6-0.7 -1.9 0-3.7 1-4.6 2.7l-8.1 14.1c-18.1-11.3-33.6-26.3-45.4-43.9l17.2-9.9c4.8-2.8 6.4-8.9 3.7-13.7 -2.8-4.8-8.9-6.4-13.7-3.7l-17.2 9.9c-9.1-18.3-14.5-38.8-15.3-60.4l16.3 0c1.4 0 2.7-0.6 3.7-1.6 1-1 1.5-2.3 1.5-3.7 0-2.9-2.4-5.3-5.3-5.3l-16.3 0.1c0.7-21.9 6.1-42.7 15.3-61.3l17.2 9.9c1.6 0.9 3.3 1.3 5 1.3 3.5 0 6.8-1.8 8.7-5 2.8-4.8 1.1-10.9-3.7-13.7l-17.2-9.9C77.1 89.1 92.4 74.3 110.1 63.1l8.2 14.1c0.5 0.8 1.1 1.5 1.9 1.9 1.6 0.9 3.7 0.9 5.3 0 1.2-0.7 2.1-1.9 2.5-3.2 0.4-1.4 0.2-2.8-0.5-4l-8.2-14.1c18.3-9.8 38.9-16 60.8-17.4v19.9c0 5.5 4.5 10 10 10 5.5 0 10-4.5 10-10V40.3c21.5 1.4 41.8 7.4 59.9 17l-8.1 14.1c-1.5 2.5-0.6 5.8 2 7.2 0.8 0.5 1.7 0.7 2.6 0.7 1.9 0 3.7-1 4.6-2.7l8.1-14.1c18.1 11.3 33.6 26.3 45.4 43.9l-17.2 9.9c-4.8 2.8-6.4 8.9-3.7 13.7 1.9 3.2 5.2 5 8.7 5 1.7 0 3.4-0.4 5-1.3l17.2-9.9c9.1 18.3 14.5 38.8 15.3 60.4l-16.3 0.1c-1.4 0-2.7 0.6-3.7 1.6 -1 1-1.5 2.3-1.5 3.7 0 1.9 1 3.6 2.7 4.6 0.8 0.5 1.7 0.7 2.6 0.7h0l16.3 0c-0.7 21.9-6.1 42.7-15.3 61.3l-17.2-9.9c-4.8-2.8-10.9-1.1-13.7 3.7 -2.8 4.8-1.1 10.9 3.7 13.7l17.2 9.9C302.9 290.9 287.6 305.7 269.9 316.9z" fill="#ff4e00"/><path d="M263.9 135.8l-64.1 35.6c-2.9-1.5-6.2-2.4-9.8-2.4 -3.5 0-6.8 0.9-9.8 2.4l-64.1-35.6c-6.1-3.4-13.7-1.2-17.1 4.9 -3.4 6.1-1.2 13.7 4.9 17.1l65.4 36.3c1.9 9.7 10.4 17 20.7 17s18.8-7.3 20.7-17l65.4-36.3c6.1-3.4 8.3-11 4.9-17.1C277.6 134.6 270 132.4 263.9 135.8z" fill="#ff4e00"/></svg>