<svg id="Warstwa_1" data-name="Warstwa 1" xmlns="http://www.w3.org/2000/svg" width="114" height="90" viewBox="0 0 114 90">
  <defs>
    <style>
      .cls-1 {
        fill: #e74918;
      }
    </style>
  </defs>
  <title>llpa</title>
  <path class="cls-1" d="M112.618,56.19791L98.25864,30.27475c-1.03352-1.86617-2.46177-2.89389-4.02225-2.89389H94.23444c-1.56146.001-2.98971,1.03013-4.02225,2.89871l-2.66084,4.81791-0.00024-.00054-0.05226.09457A14.65973,14.65973,0,0,0,74.50332,27.3982H61.65a7.056,7.056,0,0,0-7.07322,7.02162v6.94486a7.68055,7.68055,0,0,1-.33251-2.23007v-4.658A7.05616,7.05616,0,0,0,47.171,27.45406H34.10285a7.05616,7.05616,0,0,0-7.07322,7.02258v6.8961a7.68819,7.68819,0,0,1-.33446-2.23814v-4.658A7.05606,7.05606,0,0,0,19.622,27.4545H6.55279A7.05522,7.05522,0,0,0-.51946,34.4766V56.35876a7.05522,7.05522,0,0,0,7.07225,7.0221H28.59206a7.00523,7.00523,0,0,0,2.73133-.55967l0.02406,0.01162,0.02406-.01168a7.00533,7.00533,0,0,0,2.73133.55973h22.0383a6.99482,6.99482,0,0,0,2.79617-.58893l0.02534,0.012,0.02364-.0118A7.001,7.001,0,0,0,61.65,63.324H73.97441a7.07666,7.07666,0,0,0,3.01475-.69084l0.02844,0.021,0.04746-.02667a6.23523,6.23523,0,0,0,3.11726.75339H108.3381c2.13412,0,3.7646-.76284,4.592-2.1479C113.75944,59.84549,113.6486,58.05734,112.618,56.19791Zm-33.06377.10451a5.42156,5.42156,0,0,1-.04831.7071c-0.01027.0782-.02984,0.154-0.04345,0.23147-0.02692.15309-.05426,0.306-0.09394,0.45547-0.02406.09072-.05639,0.17855-0.085,0.26777-0.04242.13208-.08519,0.264-0.13727,0.3922-0.03755.09235-.08155,0.18168-0.124,0.27186-0.05627.11956-.11406,0.23839-0.17877,0.35367-0.05031.0897-.10519,0.17662-0.16048,0.26343-0.06958.10932-.14189,0.21672-0.219,0.32116-0.06174.08362-.12627,0.16525-0.19275,0.24543-0.08325.10035-.17057,0.19757-0.261,0.29227-0.07158.075-.14414,0.149-0.22,0.22021-0.09759.0915-.20047,0.17789-0.305,0.26265-0.07906.06411-.15739,0.12877-0.24021,0.18878-0.03117.02257-.06551,0.04154-0.09717,0.06351L77.13749,60.83c-0.0305-.03419-0.05275-0.07326-0.08088-0.10884a2.29508,2.29508,0,0,1-.20168-0.28974c-0.03-.05291-0.05208-0.11-0.07778-0.16519a2.354,2.354,0,0,1-.11448-0.28336c-0.02017-.06393-0.03464-0.13051-0.04977-0.19691a2.64332,2.64332,0,0,1-.05159-0.29811c-0.0079-.07116-0.01258-0.14357-0.01519-0.217a3.21015,3.21015,0,0,1,.00614-0.32128c0.005-.07549.01015-0.151,0.0203-0.2284,0.01519-.11564.03932-0.23423,0.06617-0.35373,0.01689-.07519.031-0.14941,0.05244-0.226,0.03786-.13485.08769-0.27312,0.13982-0.41194,0.02443-.06514.04339-0.12883,0.071-0.19474a6.46315,6.46315,0,0,1,.30426-0.62992l3.72778-6.748L87.2754,38.67854c0.02327,0.087.04333,0.1747,0.06478,0.26217q0.13736,0.56084.22508,1.13186c0.02279,0.14893.04764,0.29744,0.06526,0.44734a13.02194,13.02194,0,0,1-7.64169,13.5195l-0.4346.19793v2.06507h0ZM56.35845,45.80761a4.122,4.122,0,0,0,.72245.24248c0.03658,0.00843.07353,0.01318,0.11029,0.02059a4.009,4.009,0,0,0,.79239.086c2.0262,0,3.73738,2.53847,3.73738,5.54313v4.65893a5.55741,5.55741,0,0,1-.05329.75779c-0.01155.08374-.03433,0.16416-0.04965,0.24682-0.03008.16284-.05925,0.326-0.10355,0.48418-0.02692.09614-.06472,0.18788-0.09674,0.282-0.0474.13942-.09316,0.27944-0.15143,0.41411-0.04217.0974-.09382,0.19-0.14159,0.28474-0.06271.12449-.12445,0.24946-0.19646,0.36878-0.05676.094-.12141,0.18288-0.18376,0.27342-0.077.11179-.154,0.22358-0.2393,0.32971-0.07055.08771-.14748,0.17036-0.2235,0.25392-0.09036.09927-.18163,0.19775-0.27953,0.29076-0.08355.0794-.17209,0.154-0.26093,0.22858-0.10288.08627-.20758,0.1706-0.31732,0.25-0.0954.069-.19464,0.13388-0.29508,0.19739-0.05925.0375-.12153,0.07134-0.18248,0.10679-0.067-.03738-0.13527-0.07272-0.20035-0.11263-0.0968-.0593-0.19275-0.11968-0.28524-0.18439-0.11843-.08283-0.2314-0.17145-0.34242-0.26259-0.08617-.07079-0.17239-0.14135-0.25382-0.21678-0.10543-.09764-0.204-0.20149-0.30134-0.30653-0.0748-.08073-0.15076-0.16031-0.22052-0.24507-0.09158-.11131-0.17446-0.22888-0.2571-0.34663-0.062-.08837-0.12658-0.17494-0.18333-0.26662-0.07736-.125-0.14383-0.256-0.2111-0.3866-0.04782-.093-0.0999-0.18373-0.1425-0.27932-0.06229-.1399-0.11145-0.28522-0.162-0.43006-0.03257-.09325-0.07116-0.18415-0.09868-0.2792-0.04709-.1626-0.07833-0.33-0.11029-0.49712-0.01574-.08223-0.03926-0.16224-0.05123-0.24531a5.39834,5.39834,0,0,1-.05627-0.76651V45.67656c0.05159,0.02715.10525,0.04665,0.15745,0.07158C56.27107,45.76884,56.31458,45.78847,56.35845,45.80761Zm-27.54806.00114a4.11781,4.11781,0,0,0,.722.24206c0.03628,0.00837.073,0.01312,0.10956,0.02047a4.00391,4.00391,0,0,0,.79154.0859c2.02717,0,3.73933,2.538,3.73933,5.54265v4.65893a5.36759,5.36759,0,0,1-.05542.75827c-0.01167.08151-.03464,0.16019-0.04989,0.24092-0.03148.16609-.06235,0.33248-0.10883,0.49429-0.0271.09433-.06514,0.18475-0.09723,0.2774-0.04965.14345-.09789,0.28733-0.15909,0.426-0.04211.09542-.09346,0.1862-0.1408,0.27908-0.06581.12913-.131,0.25855-0.20655,0.3822-0.05645.09229-.12062,0.17963-0.1823,0.26861-0.08052.11606-.16134,0.23195-0.25048,0.34187-0.06958.08572-.14529,0.16645-0.21991,0.24814-0.09443.10336-.19008,0.20558-0.29235,0.302-0.08173.077-.16814,0.14923-0.25467,0.22147-0.10725.08946-.21651,0.17674-0.33075,0.25837-0.09316.06652-.18965,0.12889-0.2873,0.18993-0.06168.03859-.12633,0.0729-0.18977,0.1092-0.06356-.03636-0.12822-0.07079-0.19-0.10944-0.09765-.0611-0.19421-0.12347-0.28736-0.19011-0.11351-.08115-0.222-0.16777-0.3285-0.25669-0.0875-.073-0.17483-0.1461-0.25741-0.224-0.101-.0953-0.19561-0.19643-0.289-0.29859-0.07553-.08259-0.1521-0.16428-0.22247-0.25109-0.08848-.10914-0.16863-0.22412-0.24853-0.33934-0.06229-.08976-0.127-0.17789-0.18394-0.271-0.075-.12275-0.13946-0.25115-0.20484-0.37925-0.04782-.09379-0.09978-0.18553-0.14225-0.28191-0.06089-.138-0.10883-0.28125-0.1583-0.424-0.03227-.09319-0.07049-0.184-0.09771-0.2789-0.04649-.16163-0.07729-0.32784-0.10871-0.49381-0.01531-.08079-0.03834-0.15959-0.05-0.24128a5.367,5.367,0,0,1-.05542-0.75827V45.67848c0.05165,0.02709.10525,0.04653,0.15745,0.0714C28.72362,45.77041,28.76682,45.78973,28.81039,45.80875ZM6.55279,61.90141A5.56713,5.56713,0,0,1,.97394,56.35876V34.47664A5.56713,5.56713,0,0,1,6.55279,28.934H19.622a5.568,5.568,0,0,1,5.57982,5.54265v4.658a8.15307,8.15307,0,0,0,1.82786,5.33893v11.8857l0.00012,0.00187a6.80207,6.80207,0,0,0,.06563.89967c0.01258,0.09385.03233,0.18547,0.04867,0.27848,0.03622,0.20606.07985,0.40965,0.13435,0.61066,0.0271,0.09981.05566,0.1983,0.08708,0.2966,0.06435,0.20143.13909,0.39828,0.22113,0.59272,0.03458,0.08193.06508,0.165,0.10276,0.24549a7.09813,7.09813,0,0,0,.42251.78253c0.01185,0.01884.02649,0.03582,0.03853,0.05454a7.13949,7.13949,0,0,0,.4868.665c0.05985,0.073.12451,0.14129,0.18728,0.2119,0.1383,0.15555.2822,0.30539,0.43424,0.44878,0.07529,0.071.15107,0.14056,0.22958,0.20841,0.05481,0.04738.10428,0.10005,0.16061,0.1458a5.58931,5.58931,0,0,1-1.05685.09969H6.55279Zm49.58836,0H34.10285a5.57186,5.57186,0,0,1-1.05588-.09969c0.05663-.04605.10634-0.099,0.16146-0.14664,0.07815-.06754.1535-0.13683,0.22848-0.20751,0.151-.14249.294-0.29136,0.4315-0.44583,0.06429-.07218.13028-0.14207,0.19148-0.21666a7.1398,7.1398,0,0,0,.47568-0.64973c0.01556-.024.03421-0.04575,0.04946-0.07a7.10184,7.10184,0,0,0,.42026-0.77843c0.03871-.08271.07019-0.16808,0.10567-0.25229,0.08106-.19234.155-0.387,0.21864-0.58616,0.03184-.09945.06089-0.1992,0.08823-0.30015,0.05426-.20028.09765-0.403,0.13381-0.60825,0.01641-.09325.03628-0.18511,0.04886-0.27926a6.80245,6.80245,0,0,0,.06563-0.89974l0.00012-.00187V51.69983c0-3.872-2.347-7.0221-5.23272-7.0221a2.46019,2.46019,0,0,1-.62978-0.08669c-0.06812-.01794-0.12937-0.04581-0.19433-0.06857a2.848,2.848,0,0,1-.35852-0.14664c-0.06733-.03461-0.12986-0.07284-0.19275-0.11119-0.09783-.05972-0.19293-0.12082-0.27983-0.18644-0.0556-.042-0.10987-0.0841-0.16085-0.1272-0.03391-.02871-0.06259-0.05713-0.09443-0.086V34.4766a5.56806,5.56806,0,0,1,5.57982-5.54313H47.171a5.56806,5.56806,0,0,1,5.57982,5.54313v4.658a8.14831,8.14831,0,0,0,1.82591,5.33508V56.30241a6.82312,6.82312,0,0,0,.067.913c0.0127,0.09427.03275,0.1862,0.04934,0.27962,0.03695,0.20847.08131,0.41423,0.13685,0.6174,0.02771,0.10132.05724,0.20119,0.08939,0.30094,0.06478,0.2007.13976,0.39671,0.2221,0.59037,0.03634,0.08542.06885,0.172,0.10853,0.25591a7.08231,7.08231,0,0,0,.42846.78518c0.00881,0.01385.01975,0.02625,0.02868,0.04a7.11553,7.11553,0,0,0,.50564.68212c0.06162,0.074.12834,0.14285,0.193,0.21437,0.13982,0.15477.285,0.30382,0.43855,0.44632,0.07784,0.07224.15653,0.14255,0.23778,0.21142,0.05809,0.04924.11059,0.10408,0.17039,0.15152A5.57454,5.57454,0,0,1,56.14115,61.90141ZM61.65,61.84458a5.61177,5.61177,0,0,1-.99171-0.08765c0.05463-.04485.10221-0.09608,0.15532-0.14237,0.07657-.0667.15034-0.13527,0.22368-0.205,0.15021-.14273.29241-0.29166,0.42859-0.446,0.06162-.06983.12506-0.13755,0.1837-0.20967a6.975,6.975,0,0,0,.46966-0.64744c0.01416-.02215.03123-0.04226,0.04515-0.06459a6.93972,6.93972,0,0,0,.41194-0.77362c0.0361-.0785.06526-0.15971,0.09838-0.23959,0.08027-.19354.15319-0.38973,0.21584-0.59067,0.03014-.09668.05761-0.1936,0.08355-0.29178,0.05311-.20094.09559-0.40484,0.13071-0.6115,0.0155-.09132.03421-0.1812,0.04618-0.27342a7.02215,7.02215,0,0,0,.06338-0.9025v-4.659c0-3.87249-2.34607-7.02258-5.23078-7.02258a2.46244,2.46244,0,0,1-.63191-0.087c-0.06654-.01752-0.12615-0.04485-0.18965-0.067a2.846,2.846,0,0,1-.36527-0.14959c-0.0652-.03365-0.12585-0.07085-0.187-0.10806A3.41352,3.41352,0,0,1,56.323,44.074c-0.05329-.04045-0.10537-0.08091-0.15441-0.12244-0.03549-.0301-0.06526-0.05978-0.09844-0.09V34.41981A5.56755,5.56755,0,0,1,61.65,28.87765H74.50332a13.18056,13.18056,0,0,1,12.1189,7.90071L78.49708,51.48565,75.8956,56.19406a7.8,7.8,0,0,0-.40069.848c-0.03567.08789-.06192,0.174-0.09328,0.26132-0.06927.19282-.13107,0.38389-0.17963,0.5731-0.0254.09891-.04649,0.19625-0.06624,0.294a5.32778,5.32778,0,0,0-.0796.53047c-0.00924.09216-.02024,0.18427-0.02425,0.27493a4.50631,4.50631,0,0,0,.014.57484c0.0051,0.0611.0031,0.12437,0.01069,0.18457a3.97558,3.97558,0,0,0,.15508.70812c0.01793,0.05629.04521,0.10806,0.06569,0.16326a3.698,3.698,0,0,0,.22034.49261c0.04041,0.07386.08756,0.14363,0.13308,0.21485,0.0477,0.07465.08641,0.154,0.13976,0.22557a5.57966,5.57966,0,0,1-1.81619.30485H61.65v0Zm49.99477-1.36531a3.63824,3.63824,0,0,1-3.30667,1.42214H80.18231a5.60362,5.60362,0,0,1-1.66257-.2302c0.0948-.07928.17963-0.1679,0.2698-0.25163,0.071-.06586.14408-0.12919,0.21208-0.19775a7.06516,7.06516,0,0,0,.48516-0.54372c0.02637-.03263.05651-0.06225,0.08228-0.09536a7.06322,7.06322,0,0,0,.47914-0.70312c0.04223-.07031.07717-0.14418,0.11691-0.21587,0.09814-.17729.191-0.35674,0.27357-0.54179,0.04156-.09325.07827-0.18788,0.1157-0.28288,0.06824-.173.12955-0.348,0.18388-0.52626,0.03044-.09987.06016-0.19938,0.08611-0.30075,0.04849-.18933.086-0.3813,0.11843-0.57508,0.01513-.09036.03439-0.17933,0.04594-0.27053a6.86882,6.86882,0,0,0,.05888-0.864v-1.126a14.69155,14.69155,0,0,0,8.17674-13.11232c0-.46167-0.02333-0.92026-0.066-1.37573-0.0141-.15092-0.0426-0.29931-0.06143-0.44945-0.03792-.303-0.07511-0.606-0.132-0.90533-0.03366-.17741-0.08161-0.35156-0.1219-0.52758-0.06156-.26861-0.12147-0.53734-0.19834-0.80251-0.05347-.18445-0.11977-0.36565-0.18066-0.54829-0.06453-.1936-0.11868-0.38979-0.19154-0.58122l3.25028-5.88458c0.75837-1.37254,1.72188-2.12864,2.71262-2.12912h0.001c0.99074,0,1.95425.75514,2.71359,2.12623L111.30933,56.9097a3.57715,3.57715,0,0,1,.33543,3.56956h0Z"/>
</svg>
