<svg id="Warstwa_1" data-name="Warstwa 1" xmlns="http://www.w3.org/2000/svg" width="130" height="53" viewBox="0 0 130 53">
  <defs>
    <style>
      .cls-1 {
        fill: #e34619;
      }

      .cls-2 {
        fill: #84b727;
      }

      .cls-3 {
        fill: #0078a6;
      }

      .cls-4 {
        fill: #3ba0da;
      }

      .cls-5 {
        fill: #fbb800;
      }

      .cls-6 {
        fill: #7c4114;
      }

      .cls-7 {
        fill: #347230;
      }

      .cls-8 {
        fill: #fff;
      }
    </style>
  </defs>
  <title>logo_llpa</title>
  <path class="cls-1" d="M261.81282,428.37848V414.14966a8.63308,8.63308,0,0,1-2.11287-5.9076v-5.44528a7.34883,7.34883,0,0,0-7.3105-7.34451H237.28814a7.34834,7.34834,0,0,0-7.30982,7.34451v25.5817a7.34905,7.34905,0,0,0,7.30982,7.34448h25.46641a7.21785,7.21785,0,0,0,3.1846-.73839A7.371,7.371,0,0,1,261.81282,428.37848Z" transform="translate(-229.97832 -395.36612)"/>
  <path class="cls-2" d="M293.64386,428.31232V414.1456a8.63387,8.63387,0,0,1-2.1094-5.90354v-5.44571a7.34922,7.34922,0,0,0-7.31093-7.34465H269.12279a7.34877,7.34877,0,0,0-7.31,7.34465v11.35331a4.25551,4.25551,0,0,0,3.06988,1.43748c2.85042,0,5.18332,3.3047,5.18332,7.34448v5.44686a7.37013,7.37013,0,0,1-4.12687,6.60609,7.21405,7.21405,0,0,0,3.18363.73839h25.46627a7.21231,7.21231,0,0,0,3.24974-.77245A7.36838,7.36838,0,0,1,293.64386,428.31232Z" transform="translate(-229.97832 -395.36612)"/>
  <path class="cls-3" d="M296.71735,415.58643a4.25692,4.25692,0,0,1-3.07349-1.441v14.16687a7.36863,7.36863,0,0,0,4.19494,6.63818,7.36871,7.36871,0,0,0,4.06076-6.57231v-5.44683C301.89956,418.8917,299.56723,415.58643,296.71735,415.58643Z" transform="translate(-229.97832 -395.36612)"/>
  <path class="cls-4" d="M318.1723,428.60143l12.59424-23.06354A16.1494,16.1494,0,0,0,315.80634,395.386H300.95422a7.34873,7.34873,0,0,0-7.31036,7.34411V414.1456a4.25692,4.25692,0,0,0,3.07349,1.441c2.84988,0,5.18221,3.30527,5.18221,7.34505v5.44686a7.3686,7.3686,0,0,1-4.06076,6.572,7.21232,7.21232,0,0,0,3.11542.70575H315.196a7.21936,7.21936,0,0,0,3.5802-.94937C317.10365,433.45833,316.76113,431.18506,318.1723,428.60143Z" transform="translate(-229.97832 -395.36612)"/>
  <path class="cls-5" d="M359.093,428.60618L342.501,398.30058c-2.14317-3.91407-5.64639-3.91253-7.78456.00417l-3.94993,7.23315a16.3171,16.3171,0,0,1-8.26011,20.91418v1.86025a7.3647,7.3647,0,0,1-3.73019,6.39457,5.9353,5.9353,0,0,0,3.59268,1.01607h32.53521C359.351,435.723,361.23695,432.52039,359.093,428.60618Z" transform="translate(-229.97832 -395.36612)"/>
  <path class="cls-6" d="M270.066,422.93191c0-4.03992-2.3329-7.34465-5.18332-7.34465a4.25548,4.25548,0,0,1-3.06988-1.43746v14.229a7.37057,7.37057,0,0,0,4.12633,6.60581,7.3697,7.3697,0,0,0,4.12687-6.60581v-5.44686Z" transform="translate(-229.97832 -395.36612)"/>
  <path class="cls-7" d="M322.50643,426.45208a16.31693,16.31693,0,0,0,8.26011-20.914L318.1723,428.60143c-1.41117,2.58389-1.06865,4.85689.60393,6.10546a7.3647,7.3647,0,0,0,3.73019-6.39457v-1.86025Z" transform="translate(-229.97832 -395.36612)"/>
  <g>
    <path class="cls-8" d="M230.47086,440.85c0.03069-.00474.07055-0.00894,0.11987-0.01174,0.04873-.00223.09888-0.00363,0.15042-0.00363,0.04651,0,.09276.0014,0.1393,0.00363,0.04625,0.0028.0875,0.007,0.12348,0.01174v5.09408h2.3729a1.11045,1.11045,0,0,1,.01195.12c0.00236,0.04969.00375,0.0921,0.00375,0.12839,0,0.04158-.00139.084-0.00375,0.12779a1.12544,1.12544,0,0,1-.01195.11276h-2.906V440.85Z" transform="translate(-229.97832 -395.36612)"/>
    <path class="cls-8" d="M234.53606,444.53036a1.61658,1.61658,0,0,0,.36348,1.16509,1.45554,1.45554,0,0,0,1.08965.37227,2.75806,2.75806,0,0,0,.54488-0.05021,3.55681,3.55681,0,0,0,.49086-0.1362,0.95451,0.95451,0,0,1,.062.20987,2.17562,2.17562,0,0,1,.03084.22547,2.26387,2.26387,0,0,1-.52545.15517,3.70515,3.70515,0,0,1-.65713.05441,2.30059,2.30059,0,0,1-.87738-0.15151,1.58389,1.58389,0,0,1-.60282-0.42308,1.72809,1.72809,0,0,1-.34792-0.64829,2.89165,2.89165,0,0,1-.11182-0.82715,3.06534,3.06534,0,0,1,.10431-0.81515,1.99636,1.99636,0,0,1,.31669-0.6678,1.47045,1.47045,0,0,1,.54488-0.44988,1.78364,1.78364,0,0,1,.79643-0.1638,1.69761,1.69761,0,0,1,.688.13228,1.41351,1.41351,0,0,1,.50614.36864,1.59234,1.59234,0,0,1,.30918.56707,2.36644,2.36644,0,0,1,.10417.71833c0,0.046-.00139.10576-0.0039,0.178-0.00262.07313-.00651,0.13508-0.01138,0.18643h-2.81361Zm2.31885-.427a1.85332,1.85332,0,0,0-.06178-0.47357,1.17748,1.17748,0,0,0-.19335-0.40773,0.98754,0.98754,0,0,0-.3399-0.283,1.22523,1.22523,0,0,0-1.34506.2255,1.60669,1.60669,0,0,0-.3632.93877h2.30329Z" transform="translate(-229.97832 -395.36612)"/>
    <path class="cls-8" d="M240.65775,443.8162a1.01714,1.01714,0,0,0-.2396-0.74928,0.97255,0.97255,0,0,0-.71115-0.23638,3.4043,3.4043,0,0,0-.56434.04244,3.50116,3.50116,0,0,0-.456.1049,0.73644,0.73644,0,0,1-.06571-0.20232,1.23414,1.23414,0,0,1-.02694-0.24836,3.37411,3.37411,0,0,1,.49462-0.10436,4.1826,4.1826,0,0,1,.6028-0.04326,1.61128,1.61128,0,0,1,1.11312.3304,1.3351,1.3351,0,0,1,.36323,1.03676v2.61652q-0.27065.05444-.65684,0.10856a5.27362,5.27362,0,0,1-.73422.05441,1.95863,1.95863,0,0,1-1.13254-.28742,1.05372,1.05372,0,0,1-.41335-0.93208,1.24637,1.24637,0,0,1,.11973-0.55507,1.17213,1.17213,0,0,1,.3325-0.41107,1.47562,1.47562,0,0,1,.50989-0.25256,2.36239,2.36239,0,0,1,.65337-0.08539q0.27833,0,.479.01926c0.134,0.01337.24475,0.02426,0.33239,0.03486V443.8162Zm0,0.69127c-0.08764-.01034-0.197-0.02232-0.32864-0.03543q-0.19687-.01886-0.37489-0.01872a1.5756,1.5756,0,0,0-.89627.21684,0.70858,0.70858,0,0,0-.31711.6212,0.77263,0.77263,0,0,0,.09655.41193,0.64977,0.64977,0,0,0,.25126.23664,1.064,1.064,0,0,0,.34016.10856,2.47729,2.47729,0,0,0,.371.0276,4.17285,4.17285,0,0,0,.44848-0.02343q0.20857-.023.40948-0.06224v-1.48295Z" transform="translate(-229.97832 -395.36612)"/>
    <path class="cls-8" d="M245.10213,440.72553a1.29931,1.29931,0,0,1,.13153-0.01089c0.05641-.00306.09751-0.00446,0.12363-0.00446,0.03069,0,.07333.0014,0.12735,0.00446,0.05433,0.0028.09655,0.00586,0.12781,0.01089v5.61429a3.7986,3.7986,0,0,1-.59517.132,4.90518,4.90518,0,0,1-.74241.05441,3.03451,3.03451,0,0,1-.79586-0.101,1.62044,1.62044,0,0,1-.64157-0.334,1.60219,1.60219,0,0,1-.42891-0.6134,2.452,2.452,0,0,1-.1585-0.93962,2.762,2.762,0,0,1,.13919-0.912,1.89962,1.89962,0,0,1,.39417-0.67563,1.71886,1.71886,0,0,1,.61435-0.42333,2.07567,2.07567,0,0,1,.79242-0.14763,3.01311,3.01311,0,0,1,.50614.04326,2.58341,2.58341,0,0,1,.40584.09653v-1.79383Zm0,2.27523a2.50188,2.50188,0,0,0-.394-0.11273,2.42734,2.42734,0,0,0-.49476-0.04967,1.47979,1.47979,0,0,0-.63016.12362,1.22371,1.22371,0,0,0-.44407.34575,1.48917,1.48917,0,0,0-.26708.53192,2.48331,2.48331,0,0,0-.08864.68315,1.57206,1.57206,0,0,0,.38268,1.17627,1.4981,1.4981,0,0,0,1.08575.36864,4.247,4.247,0,0,0,.48711-0.02706,2.22045,2.22045,0,0,0,.3632-0.06613v-2.97376Z" transform="translate(-229.97832 -395.36612)"/>
    <path class="cls-8" d="M247.21225,442.90784h-0.49476a0.78809,0.78809,0,0,1-.01166-0.09347c-0.0025-.036-0.0039-0.07507-0.0039-0.11611,0-.04186.00139-0.08259,0.0039-0.12445a0.814,0.814,0,0,1,.01166-0.101h1.00479V446.433c-0.031.00474-.07348,0.00892-0.12738,0.01172-0.054.00223-.09666,0.00363-0.12778,0.00363-0.02571,0-.067-0.0014-0.12363-0.00363-0.05681-.0028-0.10041-0.007-0.13125-0.01172v-3.5252Zm-0.25516-1.40536c-0.00526-.04661-0.009-0.10353-0.01166-0.17109-0.0025-.0667-0.0039-0.12391-0.0039-0.17052,0-.04158.00139-0.09319,0.0039-0.15571,0.00265-.062.0064-0.11331,0.01166-0.15514,0.0464-.00474.1032-0.00894,0.17-0.01174,0.06679-.00223.1236-0.00363,0.17-0.00363,0.04113,0,.09279.0014,0.15475,0.00363,0.06153,0.0028.11319,0.007,0.15429,0.01174,0.00529,0.04184.00919,0.09319,0.01195,0.15514,0.00225,0.06253.00361,0.11413,0.00361,0.15571,0,0.04661-.00137.10382-0.00361,0.17052-0.00276.06755-.00666,0.12448-0.01195,0.17109-0.0411.005-.09276,0.0092-0.15429,0.01114q-0.09293.0042-.15475,0.0042c-0.0464,0-.1032-0.0014-0.17-0.0042C247.06029,441.51167,247.00348,441.50747,246.95709,441.50247Z" transform="translate(-229.97832 -395.36612)"/>
    <path class="cls-8" d="M249.08248,442.47279c0.04125-.00474.0811-0.00894,0.11973-0.01174,0.03846-.00194.07584-0.00334,0.11182-0.00334,0.04125,0,.08013.0014,0.11612,0.00334,0.036,0.0028.07473,0.007,0.116,0.01174,0.01027,0.09347.018,0.20958,0.023,0.34938q0.00794,0.20974.00779,0.365a1.667,1.667,0,0,1,.20111-0.283,1.54036,1.54036,0,0,1,.28975-0.26007,1.5106,1.5106,0,0,1,.38265-0.19061,1.46173,1.46173,0,0,1,.4714-0.074,1.1618,1.1618,0,0,1,.98963.4077,1.864,1.864,0,0,1,.30918,1.14586v2.4999c-0.03138.00474-.07348,0.00892-0.12778,0.01172-0.05416.00223-.09666,0.00363-0.12749,0.00363-0.026,0-.06725-0.0014-0.12362-0.00363-0.05681-.0028-0.1007-0.007-0.13153-0.01172v-2.345a1.67517,1.67517,0,0,0-.20461-0.94743,0.70583,0.70583,0,0,0-.61446-0.28717,1.21858,1.21858,0,0,0-.51032.10856,1.17092,1.17092,0,0,0-.41349.31451,1.5247,1.5247,0,0,0-.27459.509,2.1937,2.1937,0,0,0-.10027.69069V446.433c-0.03084.00474-.07348,0.00892-0.12752,0.01172-0.0543.00223-.09652,0.00363-0.12764,0.00363-0.02569,0-.06682-0.0014-0.12363-0.00363-0.05681-.0028-0.10041-0.007-0.13125-0.01172v-3.96025Z" transform="translate(-229.97832 -395.36612)"/>
    <path class="cls-8" d="M255.53613,446.03731a1.46324,1.46324,0,0,1,.97017.283,0.92158,0.92158,0,0,1,.28975.71107,1.00273,1.00273,0,0,1-.15446.5467,1.34256,1.34256,0,0,1-.43306.41916,2.27734,2.27734,0,0,1-.66046.27208,3.37317,3.37317,0,0,1-.831.09685,3.49325,3.49325,0,0,1-.63781-0.05412,1.63109,1.63109,0,0,1-.50224-0.17472,0.86384,0.86384,0,0,1-.32849-0.31814,0.94619,0.94619,0,0,1-.11612-0.48557,1.11854,1.11854,0,0,1,.61087-0.97032,0.86849,0.86849,0,0,1-.24768-0.23693,0.6043,0.6043,0,0,1-.10027-0.35358,0.85045,0.85045,0,0,1,.14294-0.50426,1.47467,1.47467,0,0,1,.38251-0.365,1.272,1.272,0,0,1-.43266-0.45851,1.3619,1.3619,0,0,1-.16237-0.68315,1.49985,1.49985,0,0,1,.09637-0.53972,1.2,1.2,0,0,1,.29-0.43814,1.40148,1.40148,0,0,1,.47516-0.2958,2.00872,2.00872,0,0,1,1.21771-.02709,1.61949,1.61949,0,0,1,.43278.2135c0.05126-.02009.11586-0.04381,0.19321-0.06947a2.01728,2.01728,0,0,1,.25516-0.06587c0.09279-.01843.18794-0.03349,0.28585-0.04689a2.15279,2.15279,0,0,1,.28614-0.01952,1.01413,1.01413,0,0,1,.03069.25616,1.05023,1.05023,0,0,1-.03069.2643h-0.73436a1.49723,1.49723,0,0,1,.16612.36081,1.518,1.518,0,0,1-.0582.99769,1.21462,1.21462,0,0,1-.32044.43113,1.44445,1.44445,0,0,1-.47931.2679,1.83243,1.83243,0,0,1-.59128.09322,1.78037,1.78037,0,0,1-.5799-0.08539,1.09159,1.09159,0,0,0-.305.26762,0.49792,0.49792,0,0,0-.089.29134,0.46106,0.46106,0,0,0,.02335.14737,0.278,0.278,0,0,0,.09637.12837,0.55418,0.55418,0,0,0,.205.09293,1.32476,1.32476,0,0,0,.34.03489Zm-1.09727.4652a0.78081,0.78081,0,0,0-.58379.206,0.7499,0.7499,0,0,0-.22014.56344,0.5375,0.5375,0,0,0,.085.31031,0.56659,0.56659,0,0,0,.23584.194,1.24945,1.24945,0,0,0,.35142.09739,3.167,3.167,0,0,0,.425.02706,2.157,2.157,0,0,0,1.12088-.24473,0.69558,0.69558,0,0,0,.402-0.58633,0.45286,0.45286,0,0,0-.20083-0.41887,1.33381,1.33381,0,0,0-.65713-0.132Zm-0.57213-2.74072a1.00945,1.00945,0,0,0,.23584.67981,0.91922,0.91922,0,0,0,.73811.27516,0.93224,0.93224,0,0,0,.742-0.27516,1.08389,1.08389,0,0,0,0-1.35933,0.93247,0.93247,0,0,0-.742-0.27573,0.91945,0.91945,0,0,0-.73811.27573A1.01071,1.01071,0,0,0,253.86673,443.76179Z" transform="translate(-229.97832 -395.36612)"/>
    <path class="cls-8" d="M259.67924,440.85c0.031-.00474.07086-0.00894,0.11987-0.01174,0.04876-.00223.099-0.00363,0.15071-0.00363,0.04625,0,.09265.0014,0.139,0.00363,0.0464,0.0028.08764,0.007,0.1236,0.01174v5.09408h2.373a1.1445,1.1445,0,0,1,.01166.12c0.0025,0.04969.0039,0.0921,0.0039,0.12839,0,0.04158-.00139.084-0.0039,0.12779-0.00276.04384-.00652,0.0815-0.01166,0.11276h-2.90626V440.85Z" transform="translate(-229.97832 -395.36612)"/>
    <path class="cls-8" d="M263.74458,444.53036a1.61645,1.61645,0,0,0,.36351,1.16509,1.45551,1.45551,0,0,0,1.08948.37227,2.75733,2.75733,0,0,0,.54491-0.05021,3.55392,3.55392,0,0,0,.491-0.1362,0.94493,0.94493,0,0,1,.0621.20987,0.31579,0.31579,0,0,1-.49487.38064,3.70423,3.70423,0,0,1-.65713.05441,2.3011,2.3011,0,0,1-.87727-0.15151,1.58488,1.58488,0,0,1-.6028-0.42308,1.7235,1.7235,0,0,1-.34781-0.64829,2.88668,2.88668,0,0,1-.11179-0.82715,3.07005,3.07005,0,0,1,.10417-0.81515,1.99163,1.99163,0,0,1,.3168-0.6678,1.47054,1.47054,0,0,1,.54491-0.44988,1.78258,1.78258,0,0,1,.79629-0.1638,1.69639,1.69639,0,0,1,.68779.13228,1.41178,1.41178,0,0,1,.50614.36864,1.58625,1.58625,0,0,1,.30921.56707,2.36644,2.36644,0,0,1,.10417.71833c0,0.046-.00125.10576-0.00361,0.178-0.00279.07313-.00668,0.13508-0.01155,0.18643h-2.81361Zm2.319-.427a1.84116,1.84116,0,0,0-.0621-0.47357,1.1765,1.1765,0,0,0-.19306-0.40773,0.9882,0.9882,0,0,0-.34016-0.283,1.225,1.225,0,0,0-1.34492.2255,1.60652,1.60652,0,0,0-.36323.93877h2.30346Z" transform="translate(-229.97832 -395.36612)"/>
    <path class="cls-8" d="M269.86628,443.8162a1.01774,1.01774,0,0,0-.23957-0.74928,0.97294,0.97294,0,0,0-.711-0.23638,3.40008,3.40008,0,0,0-.56431.04244,3.48434,3.48434,0,0,0-.456.1049,0.72181,0.72181,0,0,1-.06582-0.20232,1.23209,1.23209,0,0,1-.02694-0.24836,3.37272,3.37272,0,0,1,.49473-0.10436,4.17829,4.17829,0,0,1,.60282-0.04326,1.61077,1.61077,0,0,1,1.11283.3304,1.33468,1.33468,0,0,1,.3632,1.03676v2.61652q-0.27043.05444-.65656,0.10856a5.2787,5.2787,0,0,1-.73447.05441,1.95794,1.95794,0,0,1-1.13243-.28742,1.05378,1.05378,0,0,1-.41335-0.93208,1.2483,1.2483,0,0,1,.11973-0.55507,1.17025,1.17025,0,0,1,.33239-0.41107,1.47619,1.47619,0,0,1,.51-0.25256,2.36223,2.36223,0,0,1,.65323-0.08539q0.27854,0,.4792.01926c0.13389,0.01337.24472,0.02426,0.33236,0.03486V443.8162Zm0,0.69127q-0.13146-.01552-0.32846-0.03543-0.19691-.01886-0.375-0.01872a1.57653,1.57653,0,0,0-.89644.21684,0.70882,0.70882,0,0,0-.31694.6212,0.77159,0.77159,0,0,0,.09652.41193,0.64838,0.64838,0,0,0,.2514.23664,1.06259,1.06259,0,0,0,.33987.10856,2.48136,2.48136,0,0,0,.37128.0276,4.166,4.166,0,0,0,.44822-0.02343q0.20878-.023.40959-0.06224v-1.48295Z" transform="translate(-229.97832 -395.36612)"/>
    <path class="cls-8" d="M271.6593,442.47279c0.04125-.00474.081-0.00894,0.11973-0.01174,0.03846-.00194.07584-0.00334,0.11193-0.00334,0.0411,0,.08.0014,0.116,0.00334,0.036,0.0028.07473,0.007,0.11586,0.01174,0.01055,0.09347.018,0.20315,0.02333,0.32957,0.00515,0.12754.00762,0.2425,0.00762,0.346a1.41015,1.41015,0,0,1,.43309-0.485,1.239,1.239,0,0,1,.73436-0.19815h0.081a0.75624,0.75624,0,0,1,.09669.00754,1.44125,1.44125,0,0,1,.02318.24864,1.224,1.224,0,0,1-.02318.24056,0.86508,0.86508,0,0,0-.09669-0.00783h-0.07348a1.10818,1.10818,0,0,0-.84268.33406,1.58581,1.58581,0,0,0-.31669,1.11011V446.433c-0.03083.00474-.07348,0.00892-0.12735,0.01172-0.05445.00223-.09669,0.00363-0.12778,0.00363-0.02572,0-.06682-0.0014-0.12363-0.00363-0.05681-.0028-0.10041-0.007-0.13125-0.01172v-3.96025Z" transform="translate(-229.97832 -395.36612)"/>
    <path class="cls-8" d="M274.36456,442.47279c0.04125-.00474.08113-0.00894,0.11987-0.01174,0.03849-.00194.07569-0.00334,0.11182-0.00334,0.0411,0,.08.0014,0.116,0.00334,0.036,0.0028.07473,0.007,0.116,0.01174,0.01041,0.09347.01806,0.20958,0.02318,0.34938s0.00765,0.2615.00765,0.365a1.66846,1.66846,0,0,1,.20111-0.283,1.5447,1.5447,0,0,1,.28975-0.26007,1.51063,1.51063,0,0,1,.38265-0.19061,1.46211,1.46211,0,0,1,.47155-0.074,1.16166,1.16166,0,0,1,.98949.4077,1.86378,1.86378,0,0,1,.30918,1.14586v2.4999c-0.03123.00474-.07348,0.00892-0.12778,0.01172-0.054.00223-.09666,0.00363-0.12735,0.00363-0.02612,0-.06736-0.0014-0.12377-0.00363-0.05666-.0028-0.1007-0.007-0.13139-0.01172v-2.345a1.675,1.675,0,0,0-.20473-0.94743,0.70575,0.70575,0,0,0-.61449-0.28717,1.21883,1.21883,0,0,0-.51029.10856,1.17051,1.17051,0,0,0-.41337.31451,1.5247,1.5247,0,0,0-.27459.509,2.19438,2.19438,0,0,0-.10041.69069V446.433c-0.03084.00474-.07348,0.00892-0.12738,0.01172-0.05445.00223-.09666,0.00363-0.12778,0.00363-0.02554,0-.06679-0.0014-0.12363-0.00363-0.05681-.0028-0.10041-0.007-0.13125-0.01172v-3.96025Z" transform="translate(-229.97832 -395.36612)"/>
    <path class="cls-8" d="M279.02536,442.90784H278.5306a0.78527,0.78527,0,0,1-.01181-0.09347c-0.00236-.036-0.00375-0.07507-0.00375-0.11611,0-.04186.00139-0.08259,0.00375-0.12445a0.81031,0.81031,0,0,1,.01181-0.101h1.00479V446.433c-0.03084.00474-.07348,0.00892-0.12752,0.01172-0.054.00223-.09666,0.00363-0.12778,0.00363-0.02557,0-.06668-0.0014-0.12349-0.00363-0.05681-.0028-0.10056-0.007-0.13125-0.01172v-3.5252Zm-0.25516-1.40536c-0.00526-.04661-0.009-0.10353-0.0118-0.17109-0.00236-.0667-0.00376-0.12391-0.00376-0.17052,0-.04158.00139-0.09319,0.00376-0.15571,0.00279-.062.00654-0.11331,0.0118-0.15514,0.04625-.00474.10306-0.00894,0.17-0.01174,0.06679-.00223.1236-0.00363,0.16985-0.00363,0.04127,0,.09279.0014,0.15489,0.00363,0.06153,0.0028.11319,0.007,0.15432,0.01174,0.00526,0.04184.009,0.09319,0.01192,0.15514,0.00236,0.06253.00361,0.11413,0.00361,0.15571,0,0.04661-.00125.10382-0.00361,0.17052-0.0029.06755-.00666,0.12448-0.01192,0.17109-0.04113.005-.09279,0.0092-0.15432,0.01114-0.0621.0028-.11361,0.0042-0.15489,0.0042-0.04625,0-.10306-0.0014-0.16985-0.0042C278.87326,441.51167,278.81645,441.50747,278.7702,441.50247Z" transform="translate(-229.97832 -395.36612)"/>
    <path class="cls-8" d="M280.89559,442.47279c0.04125-.00474.081-0.00894,0.11987-0.01174,0.03832-.00194.07569-0.00334,0.11168-0.00334,0.04125,0,.08.0014,0.116,0.00334,0.0361,0.0028.07487,0.007,0.11612,0.01174,0.01027,0.09347.01792,0.20958,0.023,0.34938q0.00794,0.20974.00765,0.365a1.6761,1.6761,0,0,1,.20125-0.283,1.53592,1.53592,0,0,1,.28975-0.26007,1.512,1.512,0,0,1,.38251-0.19061,1.46323,1.46323,0,0,1,.47155-0.074,1.16169,1.16169,0,0,1,.98949.4077,1.863,1.863,0,0,1,.30918,1.14586v2.4999c-0.03123.00474-.07333,0.00892-0.12778,0.01172-0.05388.00223-.09652,0.00363-0.12735,0.00363-0.026,0-.06725-0.0014-0.12377-0.00363-0.05652-.0028-0.10056-0.007-0.13139-0.01172v-2.345a1.67612,1.67612,0,0,0-.20461-0.94743,0.70593,0.70593,0,0,0-.6146-0.28717,1.2193,1.2193,0,0,0-.51029.10856,1.17152,1.17152,0,0,0-.41337.31451,1.522,1.522,0,0,0-.27445.509,2.18933,2.18933,0,0,0-.10056.69069V446.433c-0.03069.00474-.07333,0.00892-0.12738,0.01172-0.0543.00223-.09666,0.00363-0.12778,0.00363-0.02554,0-.06668-0.0014-0.12348-0.00363-0.05681-.0028-0.10056-0.007-0.13125-0.01172v-3.96025Z" transform="translate(-229.97832 -395.36612)"/>
    <path class="cls-8" d="M287.34925,446.03731a1.46379,1.46379,0,0,1,.97017.283,0.92207,0.92207,0,0,1,.28975.71107,1.00382,1.00382,0,0,1-.15432.5467,1.34593,1.34593,0,0,1-.4332.41916,2.275,2.275,0,0,1-.6606.27208,3.372,3.372,0,0,1-.83088.09685,3.49325,3.49325,0,0,1-.63781-0.05412,1.6311,1.6311,0,0,1-.50224-0.17472,0.86425,0.86425,0,0,1-.32864-0.31814,0.94758,0.94758,0,0,1-.11583-0.48557,1.11826,1.11826,0,0,1,.61059-0.97032,0.86746,0.86746,0,0,1-.24739-0.23693,0.60339,0.60339,0,0,1-.10056-0.35358,0.85145,0.85145,0,0,1,.14294-0.50426,1.47534,1.47534,0,0,1,.38266-0.365,1.27144,1.27144,0,0,1-.43281-0.45851,1.36338,1.36338,0,0,1-.16237-0.68315,1.497,1.497,0,0,1,.09666-0.53972,1.19753,1.19753,0,0,1,.28975-0.43814,1.40417,1.40417,0,0,1,.47544-0.2958,2.00827,2.00827,0,0,1,1.21757-.02709,1.6157,1.6157,0,0,1,.43278.2135c0.05112-.02009.11586-0.04381,0.19306-0.06947a2.01865,2.01865,0,0,1,.25516-0.06587c0.09279-.01843.18808-0.03349,0.286-0.04689a2.1499,2.1499,0,0,1,.28614-0.01952,1.00775,1.00775,0,0,1,.03069.25616,1.04379,1.04379,0,0,1-.03069.2643h-0.7345a1.49234,1.49234,0,0,1,.16627.36081,1.52051,1.52051,0,0,1-.0582.99769,1.21358,1.21358,0,0,1-.32056.43113,1.4439,1.4439,0,0,1-.4792.2679,1.83356,1.83356,0,0,1-.59128.09322,1.78127,1.78127,0,0,1-.58-0.08539,1.09108,1.09108,0,0,0-.30488.26762,0.49873,0.49873,0,0,0-.089.29134,0.461,0.461,0,0,0,.02321.14737,0.27681,0.27681,0,0,0,.09666.12837,0.55125,0.55125,0,0,0,.20487.09293,1.32477,1.32477,0,0,0,.34.03489Zm-1.09741.4652a0.78068,0.78068,0,0,0-.58365.206,0.75,0.75,0,0,0-.22029.56344,0.53648,0.53648,0,0,0,.08514.31031,0.56571,0.56571,0,0,0,.23585.194,1.24942,1.24942,0,0,0,.35142.09739,3.16922,3.16922,0,0,0,.42515.02706,2.15676,2.15676,0,0,0,1.12062-.24473,0.69555,0.69555,0,0,0,.40194-0.58633,0.45248,0.45248,0,0,0-.20068-0.41887,1.33446,1.33446,0,0,0-.65727-0.132Zm-0.572-2.74072a1.00994,1.00994,0,0,0,.23573.67981,0.91983,0.91983,0,0,0,.73823.27516,0.932,0.932,0,0,0,.742-0.27516,1.08379,1.08379,0,0,0,0-1.35933,0.93227,0.93227,0,0,0-.742-0.27573,0.92005,0.92005,0,0,0-.73823.27573A1.0112,1.0112,0,0,0,285.67984,443.76179Z" transform="translate(-229.97832 -395.36612)"/>
    <path class="cls-8" d="M291.4921,440.85c0.05123-.00474.1236-0.014,0.21639-0.02709,0.09279-.01255.1946-0.02315,0.30528-0.03123q0.16628-.01132.34-0.02318c0.116-.00754.22014-0.01172,0.31293-0.01172a3.42086,3.42086,0,0,1,.82726.09322,1.75056,1.75056,0,0,1,.63767.295,1.34789,1.34789,0,0,1,.41334.52435,1.875,1.875,0,0,1,.14681.78057,1.9377,1.9377,0,0,1-.16627.83832,1.5299,1.5299,0,0,1-.44808.56707,1.86269,1.86269,0,0,1-.657.3184,3.03076,3.03076,0,0,1-.78451.10076c-0.11888,0-.22168-0.0028-0.30918-0.00783-0.08764-.00529-0.18834-0.01283-0.30167-0.02343V446.433c-0.036.00474-.07709,0.00892-0.12348,0.01172-0.0464.00223-.09293,0.00363-0.13919,0.00363-0.05152,0-.10195-0.0014-0.15068-0.00363-0.049-.0028-0.08889-0.007-0.11973-0.01172V440.85Zm0.53308,2.89672c0.05166,0.00474.09666,0.00863,0.13543,0.01089l0.116,0.00837,0.13125,0.0078c0.04915,0.0028.11208,0.00334,0.18931,0.00334a3.20451,3.20451,0,0,0,.54878-0.04661,1.2742,1.2742,0,0,0,.491-0.19,1.04133,1.04133,0,0,0,.35543-0.4041,1.49224,1.49224,0,0,0,.13543-0.68649,1.37752,1.37752,0,0,0-.10445-0.571,0.91264,0.91264,0,0,0-.29752-0.36864,1.25712,1.25712,0,0,0-.4714-0.202,2.83388,2.83388,0,0,0-.61839-0.06253c-0.134,0-.25237.0042-0.35569,0.012-0.10309.00783-.18794,0.01646-0.25516,0.02706v2.462Z" transform="translate(-229.97832 -395.36612)"/>
    <path class="cls-8" d="M297.691,443.8162a1.016,1.016,0,0,0-.23971-0.74928,0.97209,0.97209,0,0,0-.71086-0.23638,3.401,3.401,0,0,0-.56448.04244,3.49513,3.49513,0,0,0-.456.1049,0.73662,0.73662,0,0,1-.06568-0.20232,1.24306,1.24306,0,0,1-.02708-0.24836,3.38085,3.38085,0,0,1,.49473-0.10436,4.18367,4.18367,0,0,1,.60268-0.04326,1.61108,1.61108,0,0,1,1.11312.3304,1.33472,1.33472,0,0,1,.36334,1.03676v2.61652q-0.27082.05444-.657,0.10856a5.26775,5.26775,0,0,1-.7339.05441,1.9589,1.9589,0,0,1-1.13271-.28742,1.05378,1.05378,0,0,1-.41335-0.93208,1.24487,1.24487,0,0,1,.11987-0.55507,1.16831,1.16831,0,0,1,.33225-0.41107,1.47619,1.47619,0,0,1,.51-0.25256,2.36254,2.36254,0,0,1,.65337-0.08539c0.18558,0,.345.00669,0.4792,0.01926,0.13389,0.01337.24472,0.02426,0.33222,0.03486V443.8162Zm0,0.69127q-0.13125-.01552-0.32861-0.03543-0.1967-.01886-0.37474-0.01872a1.57559,1.57559,0,0,0-.89645.21684,0.70842,0.70842,0,0,0-.31723.6212,0.77155,0.77155,0,0,0,.09666.41193,0.649,0.649,0,0,0,.25126.23664,1.06425,1.06425,0,0,0,.34016.10856,2.48087,2.48087,0,0,0,.37114.0276,4.17264,4.17264,0,0,0,.44836-0.02343q0.20878-.023.40945-0.06224v-1.48295Z" transform="translate(-229.97832 -395.36612)"/>
    <path class="cls-8" d="M299.48417,442.47279c0.0411-.00474.0811-0.00894,0.11973-0.01174,0.0386-.00194.07584-0.00334,0.11193-0.00334,0.0411,0,.08.0014,0.11583,0.00334,0.03613,0.0028.075,0.007,0.11586,0.01174q0.0154,0.14021.02333,0.32957c0.00529,0.12754.00777,0.2425,0.00777,0.346a1.407,1.407,0,0,1,.43309-0.485,1.23912,1.23912,0,0,1,.73422-0.19815h0.0811a0.762,0.762,0,0,1,.09669.00754,1.46619,1.46619,0,0,1,.023.24864,1.24383,1.24383,0,0,1-.023.24056,0.86561,0.86561,0,0,0-.09669-0.00783H301.1534a1.10893,1.10893,0,0,0-.84282.33406,1.58586,1.58586,0,0,0-.3164,1.11011V446.433c-0.03084.00474-.07362,0.00892-0.12749,0.01172-0.05445.00223-.09669,0.00363-0.12778,0.00363-0.02557,0-.06668-0.0014-0.12334-0.00363-0.05695-.0028-0.10084-0.007-0.13139-0.01172v-3.96025Z" transform="translate(-229.97832 -395.36612)"/>
    <path class="cls-8" d="M302.36678,442.90784h-0.67223a0.84483,0.84483,0,0,1-.01166-0.1013c-0.0025-.04072-0.00361-0.08233-0.00361-0.12417,0-.041.00111-0.0801,0.00361-0.11611a0.83875,0.83875,0,0,1,.01166-0.09347h0.67223v-0.74568l0.4792-.473h0.0314v1.2187h1.06644a0.91982,0.91982,0,0,1,.01138.09347c0.0025,0.036.0039,0.07507,0.0039,0.11611,0,0.04184-.00139.08344-0.0039,0.12417a0.91787,0.91787,0,0,1-.01138.1013h-1.06644v2.57774a0.76016,0.76016,0,0,0,.05026.30671,0.43023,0.43023,0,0,0,.13114.17469,0.41869,0.41869,0,0,0,.18555.0815,1.16957,1.16957,0,0,0,.21252.01923,1.43593,1.43593,0,0,0,.4714-0.06947,2.72056,2.72056,0,0,1,.07723.43479,2.20825,2.20825,0,0,1-.64894.08567,1.05622,1.05622,0,0,1-.7153-0.2375,0.96878,0.96878,0,0,1-.27448-0.77217v-2.60121Z" transform="translate(-229.97832 -395.36612)"/>
    <path class="cls-8" d="M304.80943,442.47279c0.04139-.00474.0811-0.00894,0.12-0.01174,0.03806-.00194.07558-0.00334,0.11139-0.00334,0.04139,0,.08.0014,0.1164,0.00334,0.03584,0.0028.07444,0.007,0.11583,0.01174,0.01058,0.09347.01835,0.20958,0.02307,0.34938q0.00793,0.20974.00776,0.365a1.66183,1.66183,0,0,1,.20143-0.283,1.52515,1.52515,0,0,1,.28944-0.26007,1.5098,1.5098,0,0,1,.38254-0.19061,1.46361,1.46361,0,0,1,.4714-0.074,1.16138,1.16138,0,0,1,.98977.4077,1.86394,1.86394,0,0,1,.30918,1.14586v2.4999c-0.0314.00474-.07333,0.00892-0.12778,0.01172-0.0539.00223-.0964,0.00363-0.12724,0.00363-0.02611,0-.0675-0.0014-0.12363-0.00363-0.05666-.0028-0.10084-0.007-0.13168-0.01172v-2.345a1.67742,1.67742,0,0,0-.20472-0.94743,0.70573,0.70573,0,0,0-.61446-0.28717,1.21811,1.21811,0,0,0-.51032.10856,1.1727,1.1727,0,0,0-.41363.31451,1.53213,1.53213,0,0,0-.27445.509,2.19778,2.19778,0,0,0-.1003.69069V446.433c-0.03084.00474-.07334,0.00892-0.1275,0.01172-0.05416.00223-.0964,0.00363-0.12778,0.00363-0.02557,0-.06668-0.0014-0.12362-0.00363-0.05667-.0028-0.10027-0.007-0.13111-0.01172v-3.96025Z" transform="translate(-229.97832 -395.36612)"/>
    <path class="cls-8" d="M309.55494,444.53036a1.61834,1.61834,0,0,0,.36334,1.16509,1.45645,1.45645,0,0,0,1.0895.37227,2.76063,2.76063,0,0,0,.54531-0.05021,3.56227,3.56227,0,0,0,.49086-0.1362,0.95451,0.95451,0,0,1,.062.20987,2.05959,2.05959,0,0,1,.03055.22547,2.26469,2.26469,0,0,1-.52531.15517,3.708,3.708,0,0,1-.65727.05441,2.30085,2.30085,0,0,1-.87724-0.15151,1.58172,1.58172,0,0,1-.60254-0.42308,1.72435,1.72435,0,0,1-.34806-0.64829,2.88159,2.88159,0,0,1-.112-0.82715,3.07707,3.07707,0,0,1,.10417-0.81515,1.99729,1.99729,0,0,1,.31726-0.6678,1.46751,1.46751,0,0,1,.54474-0.44988,1.78237,1.78237,0,0,1,.79614-0.1638,1.6983,1.6983,0,0,1,.68811.13228,1.41475,1.41475,0,0,1,.50614.36864,1.59182,1.59182,0,0,1,.30889.56707,2.3532,2.3532,0,0,1,.10446.71833c0,0.046-.0014.10576-0.00362,0.178-0.00279.07313-.00666,0.13508-0.01166,0.18643h-2.81375Zm2.31928-.427a1.83541,1.83541,0,0,0-.0625-0.47357,1.17355,1.17355,0,0,0-.19281-0.40773,0.98756,0.98756,0,0,0-.34027-0.283,1.22481,1.22481,0,0,0-1.34481.2255,1.60769,1.60769,0,0,0-.36334.93877h2.30372Z" transform="translate(-229.97832 -395.36612)"/>
    <path class="cls-8" d="M313.50513,442.47279c0.0411-.00474.08113-0.00894,0.11944-0.01174,0.03863-.00194.07584-0.00334,0.112-0.00334,0.0411,0,.08.0014,0.11583,0.00334,0.03613,0.0028.075,0.007,0.11612,0.01174,0.01055,0.09347.01806,0.20315,0.02333,0.32957,0.005,0.12754.00751,0.2425,0.00751,0.346a1.4096,1.4096,0,0,1,.43309-0.485,1.23936,1.23936,0,0,1,.73447-0.19815H315.248a0.75709,0.75709,0,0,1,.09637.00754,1.43946,1.43946,0,0,1,.02335.24864,1.22184,1.22184,0,0,1-.02335.24056,0.86566,0.86566,0,0,0-.09637-0.00783h-0.07362a1.10842,1.10842,0,0,0-.84282.33406,1.58586,1.58586,0,0,0-.3164,1.11011V446.433c-0.03083.00474-.07362,0.00892-0.12752,0.01172-0.05445.00223-.09666,0.00363-0.12778,0.00363-0.02583,0-.06668-0.0014-0.12363-0.00363-0.05666-.0028-0.10027-0.007-0.13111-0.01172v-3.96025Z" transform="translate(-229.97832 -395.36612)"/>
    <path class="cls-8" d="M316.01664,445.88968a2.31535,2.31535,0,0,0,.44085.12056,2.855,2.855,0,0,0,.51726.04967,1.18235,1.18235,0,0,0,.73447-0.20567,0.61884,0.61884,0,0,0,.27083-0.50846,0.66367,0.66367,0,0,0-.08138-0.3452,0.73547,0.73547,0,0,0-.21639-0.22941,1.22594,1.22594,0,0,0-.30557-0.151c-0.11307-.03878-0.22865-0.07924-0.34726-0.12028q-0.19376-.0628-0.3828-0.1398a1.329,1.329,0,0,1-.33612-0.19844,0.86347,0.86347,0,0,1-.32474-0.71833,0.96587,0.96587,0,0,1,.34391-0.76882,1.6083,1.6083,0,0,1,1.06282-.295,3.09377,3.09377,0,0,1,.58337.05441,2.47526,2.47526,0,0,1,.437.11665,3.21589,3.21589,0,0,1-.10832.44262,3.934,3.934,0,0,0-.41338-0.10856,2.45517,2.45517,0,0,0-.52167-0.05415,1.0402,1.0402,0,0,0-.66865.16689,0.54626,0.54626,0,0,0-.197.43814,0.46359,0.46359,0,0,0,.06557.25256,0.58764,0.58764,0,0,0,.17779.1786,1.24831,1.24831,0,0,0,.25527.12808q0.14251,0.05444.30474,0.101c0.13919,0.04658.28,0.0971,0.42143,0.15151a1.54474,1.54474,0,0,1,.38641.2135,1.0599,1.0599,0,0,1,.28611.334,1.03,1.03,0,0,1,.112.50429,1.14346,1.14346,0,0,1-.112.50846,1.1235,1.1235,0,0,1-.31308.389,1.45784,1.45784,0,0,1-.47917.2439,2.07478,2.07478,0,0,1-.61059.08567,4.178,4.178,0,0,1-.66088-0.04661,1.94142,1.94142,0,0,1-.46751-0.12474A2.3133,2.3133,0,0,1,316.01664,445.88968Z" transform="translate(-229.97832 -395.36612)"/>
    <path class="cls-8" d="M322.88032,440.85c0.03556-.00474.085-0.00894,0.147-0.01174,0.06138-.00223.11833-0.00363,0.16973-0.00363,0.05666,0,.11472.0014,0.17389,0.00363,0.05945,0.0028.107,0.007,0.14334,0.01174l1.85481,5.583c-0.03083.00474-.075,0.00892-0.13139,0.01172-0.05666.00223-.11083,0.00363-0.16223,0.00363-0.04668,0-.09583-0.0014-0.147-0.00363-0.0514-.0028-0.09555-0.007-0.13139-0.01172l-0.46364-1.42131h-2.28816l-0.4406,1.42131c-0.04111.00474-.08861,0.00892-0.14277,0.01172-0.0539.00223-.10445,0.00363-0.15056,0.00363-0.05169,0-.10474-0.0014-0.15861-0.00363-0.05419-.0028-0.09669-0.007-0.12752-0.01172Zm1.29813,3.66525-0.99671-3.10572-0.98144,3.10572h1.97815Z" transform="translate(-229.97832 -395.36612)"/>
    <path class="cls-8" d="M326.09575,445.88968a2.307,2.307,0,0,0,.44057.12056,2.85824,2.85824,0,0,0,.51754.04967,1.18235,1.18235,0,0,0,.73447-0.20567,0.61887,0.61887,0,0,0,.27086-0.50846,0.6609,0.6609,0,0,0-.08167-0.3452,0.73817,0.73817,0,0,0-.21613-0.22941,1.24061,1.24061,0,0,0-.30557-0.151c-0.11307-.03878-0.22919-0.07924-0.34752-0.12028q-0.19419-.0628-0.38251-0.1398a1.32544,1.32544,0,0,1-.33643-0.19844,0.86227,0.86227,0,0,1-.32445-0.71833,0.9666,0.9666,0,0,1,.34363-0.76882,1.60838,1.60838,0,0,1,1.06285-.295,3.09572,3.09572,0,0,1,.58334.05441,2.47888,2.47888,0,0,1,.43724.11665,3.29691,3.29691,0,0,1-.10861.44262,3.91457,3.91457,0,0,0-.41334-0.10856,2.45742,2.45742,0,0,0-.5217-0.05415,1.03982,1.03982,0,0,0-.66837.16689,0.54564,0.54564,0,0,0-.19724.43814,0.466,0.466,0,0,0,.06556.25256,0.58866,0.58866,0,0,0,.17807.1786,1.24532,1.24532,0,0,0,.255.12808c0.095,0.03629.19693,0.06978,0.305,0.101,0.1389,0.04658.27974,0.0971,0.42143,0.15151a1.55428,1.55428,0,0,1,.38641.2135,1.0512,1.0512,0,0,1,.28557.334,1.024,1.024,0,0,1,.1125.50429,1.13652,1.13652,0,0,1-.1125.50846,1.11556,1.11556,0,0,1-.31254.389,1.4604,1.4604,0,0,1-.47917.2439,2.0766,2.0766,0,0,1-.61087.08567,4.17183,4.17183,0,0,1-.6606-0.04661,1.93771,1.93771,0,0,1-.46751-0.12474A2.2793,2.2793,0,0,1,326.09575,445.88968Z" transform="translate(-229.97832 -395.36612)"/>
    <path class="cls-8" d="M329.3573,445.88968a2.31062,2.31062,0,0,0,.44085.12056,2.85373,2.85373,0,0,0,.51754.04967,1.18259,1.18259,0,0,0,.73419-0.20567,0.61783,0.61783,0,0,0,.27058-0.50846,0.66342,0.66342,0,0,0-.08113-0.3452,0.72991,0.72991,0,0,0-.21667-0.22941,1.21705,1.21705,0,0,0-.305-0.151c-0.11336-.03878-0.22919-0.07924-0.34781-0.12028q-0.19333-.0628-0.38251-0.1398a1.32975,1.32975,0,0,1-.3364-0.19844,0.86221,0.86221,0,0,1-.32448-0.71833,0.96747,0.96747,0,0,1,.34363-0.76882,1.60976,1.60976,0,0,1,1.06314-.295,3.09572,3.09572,0,0,1,.58334.05441,2.47151,2.47151,0,0,1,.4367.11665,3.25161,3.25161,0,0,1-.10807.44262,3.952,3.952,0,0,0-.41335-0.10856,2.45933,2.45933,0,0,0-.5217-0.05415,1.0422,1.0422,0,0,0-.66893.16689,0.546,0.546,0,0,0-.19667.43814,0.466,0.466,0,0,0,.06528.25256,0.59409,0.59409,0,0,0,.17779.1786,1.26268,1.26268,0,0,0,.2553.12808c0.09527,0.03629.19722,0.06978,0.305,0.101q0.2092,0.06987.42142,0.15151a1.542,1.542,0,0,1,.38612.2135,1.05717,1.05717,0,0,1,.28642.334,1.03,1.03,0,0,1,.11165.50429,1.14334,1.14334,0,0,1-.11165.50846,1.1243,1.1243,0,0,1-.31336.389,1.45242,1.45242,0,0,1-.4792.2439,2.07192,2.07192,0,0,1-.61059.08567,4.17154,4.17154,0,0,1-.66057-0.04661,1.95148,1.95148,0,0,1-.46782-0.12474A2.31635,2.31635,0,0,1,329.3573,445.88968Z" transform="translate(-229.97832 -395.36612)"/>
    <path class="cls-8" d="M334.4973,446.52623a1.76741,1.76741,0,0,1-.77282-0.15934,1.53221,1.53221,0,0,1-.55253-0.439,1.8731,1.8731,0,0,1-.32864-0.65943,3.11664,3.11664,0,0,1,0-1.63115,1.88275,1.88275,0,0,1,.32864-0.65946,1.53758,1.53758,0,0,1,.55253-0.43868,1.77556,1.77556,0,0,1,.77282-0.15963,1.75371,1.75371,0,0,1,.76949.15963,1.5534,1.5534,0,0,1,.54864.43868,1.95187,1.95187,0,0,1,.33222.65946,3.0414,3.0414,0,0,1,0,1.63115,1.94144,1.94144,0,0,1-.33222.65943,1.54789,1.54789,0,0,1-.54864.439A1.7457,1.7457,0,0,1,334.4973,446.52623Zm0-.45014a1.05409,1.05409,0,0,0,.92364-0.43533,2.46488,2.46488,0,0,0,0-2.37542,1.19878,1.19878,0,0,0-1.84759,0,2.4669,2.4669,0,0,0,0,2.37542A1.05366,1.05366,0,0,0,334.4973,446.07609Z" transform="translate(-229.97832 -395.36612)"/>
    <path class="cls-8" d="M340.00783,445.93629a1.126,1.126,0,0,1,.0739.20929c0.02333,0.08847.03974,0.161,0.05029,0.21767a2.86308,2.86308,0,0,1-.44114.11636,2.95036,2.95036,0,0,1-.54864.04661,1.92621,1.92621,0,0,1-1.469-.53218,2.16236,2.16236,0,0,1-.50224-1.54073,2.6002,2.6002,0,0,1,.12417-0.81935,1.907,1.907,0,0,1,.36337-0.65609,1.6614,1.6614,0,0,1,.59862-0.43868,2.04289,2.04289,0,0,1,.83116-0.15963,3.53388,3.53388,0,0,1,.56.04326,2.56027,2.56027,0,0,1,.4214.09653,1.161,1.161,0,0,1-.02722.23333,1.24331,1.24331,0,0,1-.05777.20929,2.41936,2.41936,0,0,0-.39031-0.09322,3.11243,3.11243,0,0,0-.50614-0.03824,1.42833,1.42833,0,0,0-.60723.12,1.18981,1.18981,0,0,0-.4328.33769,1.46448,1.46448,0,0,0-.25863.51263,2.35121,2.35121,0,0,0-.08474.65246,1.6667,1.6667,0,0,0,.39753,1.23071,1.47048,1.47048,0,0,0,1.07838.39207,2.51549,2.51549,0,0,0,.44447-0.03878A2.34117,2.34117,0,0,0,340.00783,445.93629Z" transform="translate(-229.97832 -395.36612)"/>
    <path class="cls-8" d="M341.34513,442.90784H340.8504a0.84566,0.84566,0,0,1-.01169-0.09347c-0.00247-.036-0.00361-0.07507-0.00361-0.11611,0-.04186.00114-0.08259,0.00361-0.12445a0.86634,0.86634,0,0,1,.01169-0.101h1.00476V446.433c-0.03112.00474-.07333,0.00892-0.12752,0.01172-0.05388.00223-.09637,0.00363-0.12721,0.00363-0.02612,0-.06751-0.0014-0.12417-0.00363-0.05669-.0028-0.1003-0.007-0.13114-0.01172v-3.5252Zm-0.25473-1.40536c-0.00555-.04661-0.00945-0.10353-0.01223-0.17109-0.00222-.0667-0.00387-0.12391-0.00387-0.17052,0-.04158.00165-0.09319,0.00387-0.15571,0.00278-.062.00668-0.11331,0.01223-0.15514,0.04611-.00474.10306-0.00894,0.16973-0.01174,0.06668-.00223.12334-0.00363,0.16974-0.00363,0.04139,0,.09333.0014,0.155,0.00363,0.06167,0.0028.11307,0.007,0.15446,0.01174,0.005,0.04184.00859,0.09319,0.01138,0.15514,0.00279,0.06253.0039,0.11413,0.0039,0.15571,0,0.04661-.00111.10382-0.0039,0.17052-0.00279.06755-.0064,0.12448-0.01138,0.17109-0.04139.005-.09279,0.0092-0.15446,0.01114-0.06167.0028-.11361,0.0042-0.155,0.0042q-0.06959,0-.16974-0.0042C341.19345,441.51167,341.1365,441.50747,341.0904,441.50247Z" transform="translate(-229.97832 -395.36612)"/>
    <path class="cls-8" d="M345.38757,443.8162a1.016,1.016,0,0,0-.23974-0.74928,0.97184,0.97184,0,0,0-.71061-0.23638,3.40207,3.40207,0,0,0-.56474.04244,3.49811,3.49811,0,0,0-.45587.1049,0.736,0.736,0,0,1-.06582-0.20232,1.23209,1.23209,0,0,1-.02694-0.24836,3.37678,3.37678,0,0,1,.49473-0.10436,4.18023,4.18023,0,0,1,.60254-0.04326,1.61059,1.61059,0,0,1,1.11311.3304,1.3337,1.3337,0,0,1,.36334,1.03676v2.61652q-0.27043.05444-.6567,0.10856a5.27164,5.27164,0,0,1-.73419.05441,1.95842,1.95842,0,0,1-1.13257-.28742,1.05327,1.05327,0,0,1-.41363-0.93208,1.23927,1.23927,0,0,1,.1203-0.55507,1.172,1.172,0,0,1,.332-0.41107,1.47492,1.47492,0,0,1,.51-0.25256,2.3625,2.3625,0,0,1,.65337-0.08539c0.18584,0,.345.00669,0.4792,0.01926,0.13389,0.01337.24472,0.02426,0.33225,0.03486V443.8162Zm0,0.69127c-0.08753-.01034-0.1967-0.02232-0.32864-0.03543q-0.1967-.01886-0.37475-0.01872a1.57706,1.57706,0,0,0-.8967.21684,0.70942,0.70942,0,0,0-.317.6212,0.77662,0.77662,0,0,0,.0964.41193,0.6508,0.6508,0,0,0,.25166.23664,1.06433,1.06433,0,0,0,.34.10856,2.48086,2.48086,0,0,0,.37113.0276,4.1688,4.1688,0,0,0,.44837-0.02343c0.13944-.01535.27558-0.03626,0.40947-0.06224v-1.48295Z" transform="translate(-229.97832 -395.36612)"/>
    <path class="cls-8" d="M347.35821,442.90784h-0.672a0.73805,0.73805,0,0,1-.01223-0.1013c-0.00222-.04072-0.0039-0.08233-0.0039-0.12417,0-.041.00168-0.0801,0.0039-0.11611a0.72335,0.72335,0,0,1,.01223-0.09347h0.672v-0.74568l0.4792-.473h0.03084v1.2187h1.06644a0.71885,0.71885,0,0,1,.0122.09347c0.00225,0.036.00361,0.07507,0.00361,0.11611,0,0.04184-.00136.08344-0.00361,0.12417a0.73423,0.73423,0,0,1-.0122.1013h-1.06644v2.57774a0.76355,0.76355,0,0,0,.05083.30671,0.43293,0.43293,0,0,0,.13111.17469,0.41772,0.41772,0,0,0,.1853.0815,1.1657,1.1657,0,0,0,.21277.01923,1.43592,1.43592,0,0,0,.4714-0.06947,2.72055,2.72055,0,0,1,.07723.43479,2.21074,2.21074,0,0,1-.64891.08567,1.05355,1.05355,0,0,1-.715-0.2375,0.96894,0.96894,0,0,1-.27473-0.77217v-2.60121Z" transform="translate(-229.97832 -395.36612)"/>
    <path class="cls-8" d="M350.04029,442.90784h-0.49476a0.85239,0.85239,0,0,1-.01166-0.09347c-0.0025-.036-0.00361-0.07507-0.00361-0.11611,0-.04186.00111-0.08259,0.00361-0.12445a0.87269,0.87269,0,0,1,.01166-0.101h1.00479V446.433c-0.03112.00474-.07333,0.00892-0.12752,0.01172-0.05388.00223-.09637,0.00363-0.12721,0.00363-0.02611,0-.0675-0.0014-0.12419-0.00363-0.05695-.0028-0.10027-0.007-0.13111-0.01172v-3.5252Zm-0.25473-1.40536c-0.00555-.04661-0.00944-0.10353-0.01223-0.17109-0.00222-.0667-0.00387-0.12391-0.00387-0.17052,0-.04158.00165-0.09319,0.00387-0.15571,0.00279-.062.00668-0.11331,0.01223-0.15514,0.04611-.00474.10306-0.00894,0.16974-0.01174,0.06665-.00223.1236-0.00363,0.16974-0.00363,0.04139,0,.09276.0014,0.155,0.00363,0.06167,0.0028.113,0.007,0.15443,0.01174,0.005,0.04184.00862,0.09319,0.01141,0.15514,0.00276,0.06253.0039,0.11413,0.0039,0.15571,0,0.04661-.00114.10382-0.0039,0.17052-0.00279.06755-.0064,0.12448-0.01141,0.17109-0.04139.005-.09276,0.0092-0.15443,0.01114-0.06224.0028-.11361,0.0042-0.155,0.0042-0.04614,0-.10309-0.0014-0.16974-0.0042C349.88861,441.51167,349.83167,441.50747,349.78555,441.50247Z" transform="translate(-229.97832 -395.36612)"/>
    <path class="cls-8" d="M353.44878,446.52623a1.76533,1.76533,0,0,1-.77253-0.15934,1.53868,1.53868,0,0,1-.55307-0.439,1.87653,1.87653,0,0,1-.32809-0.65943,3.11666,3.11666,0,0,1,0-1.63115,1.88621,1.88621,0,0,1,.32809-0.65946,1.54409,1.54409,0,0,1,.55307-0.43868,1.77347,1.77347,0,0,1,.77253-0.15963,1.7498,1.7498,0,0,1,.7692.15963,1.55485,1.55485,0,0,1,.5492.43868,1.9416,1.9416,0,0,1,.332.65946,3.03385,3.03385,0,0,1,0,1.63115,1.93128,1.93128,0,0,1-.332.65943,1.54933,1.54933,0,0,1-.5492.439A1.74183,1.74183,0,0,1,353.44878,446.52623Zm0-.45014a1.05229,1.05229,0,0,0,.92338-0.43533,2.46106,2.46106,0,0,0,0-2.37542,1.19817,1.19817,0,0,0-1.847,0,2.46692,2.46692,0,0,0,0,2.37542A1.05309,1.05309,0,0,0,353.44878,446.07609Z" transform="translate(-229.97832 -395.36612)"/>
    <path class="cls-8" d="M356.34728,442.47279c0.04139-.00474.0811-0.00894,0.11973-0.01174,0.0386-.00194.07612-0.00334,0.11193-0.00334,0.04139,0,.08.0014,0.11586,0.00334,0.03638,0.0028.075,0.007,0.11612,0.01174,0.01055,0.09347.01778,0.20958,0.02333,0.34938q0.00751,0.20974.00777,0.365a1.6543,1.6543,0,0,1,.20057-0.283,1.55551,1.55551,0,0,1,.29-0.26007,1.51206,1.51206,0,0,1,.3828-0.19061,1.46266,1.46266,0,0,1,.47143-0.074,1.16187,1.16187,0,0,1,.98949.4077,1.864,1.864,0,0,1,.3089,1.14586v2.4999c-0.03084.00474-.07334,0.00892-0.1275,0.01172-0.0539.00223-.09694,0.00363-0.12724,0.00363-0.0264,0-.06722-0.0014-0.12416-0.00363-0.05667-.0028-0.10028-0.007-0.13111-0.01172v-2.345a1.67769,1.67769,0,0,0-.20447-0.94743,0.70653,0.70653,0,0,0-.61474-0.28717,1.21587,1.21587,0,0,0-.51.10856,1.16764,1.16764,0,0,0-.41363.31451,1.53254,1.53254,0,0,0-.27473.509,2.19778,2.19778,0,0,0-.1003.69069V446.433c-0.03084.00474-.07333,0.00892-0.12721,0.01172-0.05473.00223-.09669,0.00363-0.12806,0.00363-0.02529,0-.06668-0.0014-0.12334-0.00363-0.05695-.0028-0.10056-0.007-0.13139-0.01172v-3.96025Z" transform="translate(-229.97832 -395.36612)"/>
  </g>
</svg>
