<?xml version="1.0" encoding="utf-8"?>
<!-- Generator: Adobe Illustrator 21.1.0, SVG Export Plug-In . SVG Version: 6.00 Build 0)  -->
<svg version="1.1" id="Слой_1" xmlns="http://www.w3.org/2000/svg" xmlns:xlink="http://www.w3.org/1999/xlink" x="0px" y="0px"
	 viewBox="0 0 78.1 16" style="enable-background:new 0 0 78.1 16;" xml:space="preserve">
<style type="text/css">
	.st0{fill:#FFFFFF;}
	.st1{fill-rule:evenodd;clip-rule:evenodd;fill:#EDEDED;}
	.st2{fill-rule:evenodd;clip-rule:evenodd;fill:#DDDDDD;}
	.st3{fill-rule:evenodd;clip-rule:evenodd;fill:#FFFFFF;}
	.st4{fill-rule:evenodd;clip-rule:evenodd;fill:#C8C8C8;}
	.st5{fill-rule:evenodd;clip-rule:evenodd;fill:#E2E2E2;}
</style>
<g>
	<g>
		<path class="st0" d="M14,15.8v-12h3.2c0.7,0,1.3,0,1.7,0.1c0.5,0.1,1,0.3,1.4,0.5C20.7,4.6,21,5,21.2,5.5c0.2,0.5,0.3,1,0.3,1.5
			c0,1-0.3,1.8-0.9,2.4c-0.6,0.7-1.7,1-3.3,1h-1.8v5.4H14z M15.5,9.1h1.9c1,0,1.6-0.2,2-0.5C19.8,8.2,20,7.7,20,7
			c0-0.5-0.1-0.9-0.4-1.2c-0.2-0.3-0.5-0.6-0.9-0.7c-0.2-0.1-0.7-0.1-1.4-0.1h-1.8V9.1z"/>
		<path class="st0" d="M23.3,15.8v-12h7.6v1.3h-6.1v3.8h5.8v1.3h-5.8v4.3h6.3v1.3H23.3z"/>
		<path class="st0" d="M33,15.8v-12h1.5l6.7,9.6V3.8h1.4v12h-1.5l-6.7-9.7v9.7H33z"/>
		<g>
			<path class="st0" d="M10.5,5.2c1.2,1.2,1.8,2.7,1.8,4.5s-0.6,3.2-1.8,4.5C9.3,15.4,7.9,16,6.2,16c-1.7,0-3.2-0.6-4.4-1.8
				C0.6,12.9,0,11.4,0,9.7s0.6-3.2,1.8-4.5C3,4,4.5,3.4,6.2,3.4C7.9,3.4,9.3,4,10.5,5.2z M6.2,5C4.9,5,3.8,5.5,2.9,6.4
				C2,7.3,1.6,8.4,1.6,9.7C1.6,11,2,12.1,2.9,13c0.9,0.9,2,1.4,3.2,1.4c1.3,0,2.4-0.5,3.3-1.4c0.9-0.9,1.3-2,1.3-3.3
				c0-1.3-0.4-2.4-1.3-3.3C8.5,5.5,7.4,5,6.2,5z"/>
		</g>
	</g>
	<path class="st1" d="M63.6,0c0,0.8,0,2.5,0,2.5l1.3,0c0,0,0.2,0.2,0.3,0.3c0,0,0,0,0,0c0,3.3,0,6.5,0,9.8c0,0,0,0,0,0
		c-0.1,0.2-0.3,0.4-0.4,0.5c-0.4,0-0.8,0-1.2,0c0,0.9,0,1.7,0,2.6c-0.3,0-0.6,0-0.9,0c0-0.4,0-0.7,0-1.1c-0.8,0.5-1.8,1-3,1.1
		c-0.3,0-0.5,0-0.8,0c-1.9-0.2-3.1-0.9-4.1-2c0,0,0,0,0,0c0.5-0.5,0.8-1.1,1.1-1.7c-0.7,0-1.5,0-2.2,0c0,0,0,0,0,0
		c-0.2-0.4-0.3-0.9-0.4-1.4c0,0,0,0,0,0c0.8,0,1.7,0,2.6,0c0,0,0,0,0,0c0.5,1.5,1.9,2.8,4,2.5c1.5-0.2,2.8-1.5,2.9-3.2
		c0.1-1.3-0.3-2.1-1-2.8c-0.5-0.5-1.2-1-2.1-1c-1.8-0.1-2.8,0.8-3.4,1.9c0,0,0,0,0,0c-0.3-1-0.7-1.8-1.3-2.4c0,0,0,0,0,0
		c0.8-0.9,2-1.7,3.6-1.9c1.7-0.3,3.3,0.3,4.3,1c0-0.7,0-1.4,0-2.1c-0.5,0-1.1,0-1.6,0c0-0.8,0-1.7,0-2.5C61.8,0,62.7,0,63.6,0z"/>
	<path class="st2" d="M63.6,0c0.5,0,1.1,0,1.6,0c0,0.9,0,1.9,0,2.8c-0.1-0.1-0.3-0.3-0.3-0.3l-1.3,0C63.6,2.5,63.6,0.8,63.6,0z"/>
	<path class="st3" d="M65.1,0c1.5,0,3.1,0,4.6,0c0,0.8,0,1.6,0,2.5c-0.5,0-1,0-1.4,0c0.8,1,1.7,2.1,2.5,3.1c0.8-1,1.7-2,2.5-3.1
		c0,0,0,0,0,0c-0.5,0-0.9,0-1.4,0c0-0.8,0-1.6,0-2.5c2.1,0,4.1,0,6.2,0c0,0.8,0,1.6,0,2.5c-0.4,0-0.9,0-1.3,0
		C75.4,4.2,74,6,72.6,7.7c1.4,1.8,2.9,3.6,4.4,5.4c0.4,0,0.8,0,1.2,0c0,0.9,0,1.7,0,2.6c-2.1,0-4.1,0-6.2,0c0-0.9,0-1.7,0-2.6
		c0.5,0,1,0,1.5,0c-0.8-1.1-1.8-2.2-2.6-3.3c-0.9,1.1-1.8,2.2-2.7,3.3c0.5,0,1,0,1.6,0c0,0.9,0,1.7,0,2.6c-0.9,0-1.8,0-2.7,0
		c0-0.8,0-1.7,0-2.5c-0.6,0-1.3,0-1.9,0c0-0.2,0-0.3,0-0.5c0,0,0,0,0,0c1.3-1.6,2.7-3.3,4-4.9c-1.3-1.7-2.6-3.3-4-4.9c0,0,0,0,0,0
		C65.1,1.9,65.1,0.9,65.1,0z"/>
	<path class="st4" d="M68.4,2.5c0.4,0,0.9,0,1.4,0C69.3,2.5,68.8,2.5,68.4,2.5z"/>
	<path class="st4" d="M72,2.5c0.5,0,0.9,0,1.4,0c0,0,0,0,0,0C72.9,2.5,72.4,2.5,72,2.5z"/>
	<path class="st4" d="M76.8,2.5c0.4,0,0.9,0,1.3,0C77.7,2.5,77.3,2.5,76.8,2.5z"/>
	<path class="st4" d="M50.1,3.5c0.1,0,0.4,0,0.5,0C50.4,3.5,50.2,3.5,50.1,3.5z"/>
	<path class="st1" d="M46.2,5.1c1-0.8,2.1-1.5,3.9-1.6c0.2,0,0.3,0,0.5,0c1.7,0.1,2.8,0.7,3.8,1.6c0.1,0.1,0.2,0.2,0.3,0.3
		c0,0,0.1,0.1,0.1,0.1c0,0,0,0,0,0c-0.6,0.6-1.1,1.4-1.4,2.4c0,0,0,0,0,0c-0.6-1-1.4-1.8-2.9-1.9c-0.1,0-0.2,0-0.3,0
		c-1,0-1.6,0.4-2.2,0.9c-0.1,0.1-0.2,0.2-0.3,0.3c-0.3,0.4-0.6,0.8-0.7,1.3c2.1,0,4.2,0,6.3,0c-0.1,0.6-0.1,1.4,0,2c0,0,0,0,0,0
		c-2.1,0-4.2,0-6.3,0c0.4,1.2,1.2,2.1,2.4,2.4c1.3,0.4,2.5-0.1,3.2-0.8c0.1-0.1,0.3-0.2,0.3-0.3c0.2,0,0.5,0,0.7,0c0,0,0,0,0,0
		c0.3,0.7,0.7,1.2,1.1,1.7c0,0,0,0,0,0c-1,1-2.2,1.8-4.1,2c-0.2,0-0.4,0-0.6,0c-1.7-0.1-3.1-0.8-4-1.8c-0.9-0.9-1.7-2.3-1.8-4
		c0-0.2,0-0.3,0-0.5c0.1-1.7,0.7-2.9,1.6-3.9C46,5.4,46.1,5.3,46.2,5.1z"/>
	<path class="st2" d="M54.7,5.5c0.6,0.7,1,1.4,1.3,2.4c-0.4,0.6-0.5,1.8-0.3,2.6c-0.9,0-1.7,0-2.6,0c-0.1-0.6-0.1-1.4,0-2
		c0.1,0,0.3,0,0.4,0c0-0.2-0.1-0.4-0.2-0.6C53.7,7,54.1,6.1,54.7,5.5z"/>
	<path class="st4" d="M53.3,7.9C53.4,7.9,53.4,7.9,53.3,7.9c0.1,0.2,0.2,0.4,0.3,0.6c-0.1,0-0.3,0-0.4,0C53.3,8.3,53.3,8.1,53.3,7.9
		z"/>
	<path class="st5" d="M56,7.9C56,7.9,56,7.9,56,7.9c0.2,0.8,0.3,1.8,0.1,2.6c-0.1,0-0.3,0-0.4,0c0,0,0,0,0,0
		C55.5,9.7,55.7,8.6,56,7.9z"/>
	<path class="st2" d="M53.6,12c0.7,0,1.5,0,2.2,0c-0.3,0.7-0.6,1.3-1.1,1.7C54.3,13.2,53.9,12.6,53.6,12z"/>
	<path class="st2" d="M65.1,12.6c0,0.2,0,0.3,0,0.5c0.6,0,1.3,0,1.9,0c0,0.8,0,1.7,0,2.5c-1.2,0-2.3,0-3.5,0c0-0.9,0-1.7,0-2.6
		c0.4,0,0.8,0,1.2,0C64.9,13,65,12.8,65.1,12.6z"/>
	<path class="st4" d="M54.4,5.1c0.1,0.1,0.2,0.2,0.3,0.3C54.5,5.3,54.4,5.2,54.4,5.1z"/>
	<path class="st4" d="M47.6,7.2C47.7,7.1,47.8,7,47.9,7C47.8,7.1,47.8,7.2,47.6,7.2z"/>
</g>
</svg>
