<?xml version="1.0" encoding="utf-8"?>
<!-- Generator: Adobe Illustrator 21.1.0, SVG Export Plug-In . SVG Version: 6.00 Build 0)  -->
<svg version="1.1" id="Слой_1" xmlns="http://www.w3.org/2000/svg" xmlns:xlink="http://www.w3.org/1999/xlink" x="0px" y="0px"
	 viewBox="0 0 70.7 103.2" style="enable-background:new 0 0 70.7 103.2;" xml:space="preserve">
<style type="text/css">
	.st0{fill:#B33444;}
	.st1{fill:#FFFFFF;}
	.st2{fill:#DFE5E4;}
</style>
<g>
	<polygon id="XMLID_5_" class="st0" points="70.7,85.4 55.8,83.1 49.8,96.9 22.4,47.2 43.2,35.7 	"/>
	<polygon id="XMLID_4_" class="st0" points="25.9,103.2 17.1,91 3.1,96.6 18.8,42 41.7,48.6 	"/>
	<g>
		<g id="XMLID_3_">
			<path class="st0" d="M67.1,33.8c0,4.3-3.7,7.9-5.2,11.6c-1.6,3.9-1.6,9-4.5,11.9c-2.9,2.9-8,2.9-11.9,4.5
				c-3.8,1.6-7.3,5.2-11.6,5.2c-4.3,0-7.9-3.7-11.6-5.2c-3.9-1.6-9-1.6-11.9-4.5c-2.9-2.9-2.9-8-4.5-11.9c-1.6-3.8-5.2-7.3-5.2-11.6
				c0-4.3,3.7-7.9,5.2-11.6c1.6-3.9,1.6-9,4.5-11.9c2.9-2.9,8-2.9,11.9-4.5c3.8-1.6,7.3-5.2,11.6-5.2c4.3,0,7.9,3.7,11.6,5.2
				c3.9,1.6,9,1.6,11.9,4.5c2.9,2.9,2.9,8,4.5,11.9C63.5,25.9,67.1,29.5,67.1,33.8z"/>
			<path class="st1" d="M33.8,67.6c-2.9,0-5.5-1.6-8-3.1c-1.3-0.8-2.6-1.6-3.8-2.1c-1.4-0.6-2.9-0.9-4.4-1.3
				c-2.8-0.7-5.7-1.4-7.7-3.3c-2-2-2.7-4.9-3.3-7.7c-0.4-1.5-0.7-3-1.3-4.4c-0.5-1.3-1.3-2.5-2.1-3.8c-1.5-2.5-3.1-5-3.1-8
				c0-2.9,1.6-5.5,3.1-8C4,24.5,4.7,23.3,5.3,22c0.6-1.4,0.9-2.9,1.3-4.4c0.7-2.8,1.4-5.7,3.3-7.7c2-2,4.9-2.7,7.7-3.3
				c1.5-0.4,3-0.7,4.4-1.3c1.3-0.5,2.5-1.3,3.8-2.1c2.5-1.5,5-3.1,8-3.1c2.9,0,5.5,1.6,8,3.1c1.3,0.8,2.6,1.6,3.8,2.1
				C47,5.8,48.5,6.2,50,6.6c2.8,0.7,5.7,1.4,7.7,3.3c2,2,2.7,4.9,3.3,7.7c0.4,1.5,0.7,3,1.3,4.4c0.5,1.3,1.3,2.5,2.1,3.8
				c1.5,2.5,3.1,5,3.1,8c0,2.9-1.6,5.5-3.1,8c-0.8,1.3-1.6,2.6-2.1,3.8c-0.6,1.4-0.9,2.9-1.3,4.4c-0.7,2.8-1.4,5.7-3.3,7.7
				c-2,2-4.9,2.7-7.7,3.3c-1.5,0.4-3,0.7-4.4,1.3c-1.3,0.5-2.5,1.3-3.8,2.1C39.3,66,36.8,67.6,33.8,67.6z M33.8,1
				c-2.7,0-5.1,1.5-7.4,3c-1.3,0.8-2.6,1.6-4,2.2c-1.4,0.6-3,1-4.6,1.3c-2.8,0.7-5.4,1.3-7.2,3.1c-1.8,1.8-2.4,4.4-3.1,7.2
				c-0.4,1.5-0.7,3.1-1.3,4.6c-0.6,1.4-1.4,2.7-2.2,4c-1.5,2.4-3,4.8-3,7.4c0,2.7,1.5,5.1,3,7.4c0.8,1.3,1.6,2.6,2.2,4
				c0.6,1.4,1,3,1.3,4.6c0.7,2.8,1.3,5.4,3.1,7.2c1.8,1.8,4.4,2.4,7.2,3.1c1.5,0.4,3.1,0.7,4.6,1.3c1.4,0.6,2.7,1.4,4,2.2
				c2.4,1.5,4.8,3,7.4,3c2.7,0,5.1-1.5,7.4-3c1.3-0.8,2.6-1.6,4-2.2c1.4-0.6,3-1,4.6-1.3c2.8-0.7,5.4-1.3,7.2-3.1
				c1.8-1.8,2.4-4.4,3.1-7.2c0.4-1.5,0.7-3.1,1.3-4.5c0.6-1.4,1.4-2.7,2.2-4c1.5-2.4,3-4.8,3-7.4c0-2.7-1.5-5.1-3-7.4
				c-0.8-1.3-1.6-2.6-2.2-4c-0.6-1.4-1-3-1.3-4.5c-0.7-2.8-1.3-5.4-3.1-7.2s-4.4-2.4-7.2-3.1c-1.5-0.4-3.1-0.7-4.6-1.3
				c-1.4-0.6-2.7-1.4-4-2.2C38.9,2.5,36.5,1,33.8,1z"/>
		</g>
		<g id="XMLID_2_">
			<circle class="st1" cx="33.8" cy="33.8" r="25.9"/>
		</g>
		<g id="XMLID_1_">
			<circle class="st2" cx="33.8" cy="33.8" r="24.8"/>
		</g>
	</g>
</g>
</svg>
